%TF.GenerationSoftware,KiCad,Pcbnew,7.0.10*%
%TF.CreationDate,2024-02-28T21:34:32+00:00*%
%TF.ProjectId,RF_Race_Car,52465f52-6163-4655-9f43-61722e6b6963,rev?*%
%TF.SameCoordinates,Original*%
%TF.FileFunction,Soldermask,Bot*%
%TF.FilePolarity,Negative*%
%FSLAX46Y46*%
G04 Gerber Fmt 4.6, Leading zero omitted, Abs format (unit mm)*
G04 Created by KiCad (PCBNEW 7.0.10) date 2024-02-28 21:34:32*
%MOMM*%
%LPD*%
G01*
G04 APERTURE LIST*
G04 Aperture macros list*
%AMRoundRect*
0 Rectangle with rounded corners*
0 $1 Rounding radius*
0 $2 $3 $4 $5 $6 $7 $8 $9 X,Y pos of 4 corners*
0 Add a 4 corners polygon primitive as box body*
4,1,4,$2,$3,$4,$5,$6,$7,$8,$9,$2,$3,0*
0 Add four circle primitives for the rounded corners*
1,1,$1+$1,$2,$3*
1,1,$1+$1,$4,$5*
1,1,$1+$1,$6,$7*
1,1,$1+$1,$8,$9*
0 Add four rect primitives between the rounded corners*
20,1,$1+$1,$2,$3,$4,$5,0*
20,1,$1+$1,$4,$5,$6,$7,0*
20,1,$1+$1,$6,$7,$8,$9,0*
20,1,$1+$1,$8,$9,$2,$3,0*%
G04 Aperture macros list end*
%ADD10RoundRect,0.102000X-0.675000X-0.675000X0.675000X-0.675000X0.675000X0.675000X-0.675000X0.675000X0*%
%ADD11C,1.554000*%
%ADD12RoundRect,0.102000X-0.699000X-0.699000X0.699000X-0.699000X0.699000X0.699000X-0.699000X0.699000X0*%
%ADD13C,1.602000*%
%ADD14RoundRect,0.102000X0.525000X-0.525000X0.525000X0.525000X-0.525000X0.525000X-0.525000X-0.525000X0*%
%ADD15C,1.254000*%
%ADD16RoundRect,0.102000X-0.825000X-0.825000X0.825000X-0.825000X0.825000X0.825000X-0.825000X0.825000X0*%
%ADD17C,1.854000*%
%ADD18RoundRect,0.102000X2.800000X0.825000X-2.800000X0.825000X-2.800000X-0.825000X2.800000X-0.825000X0*%
G04 APERTURE END LIST*
D10*
%TO.C,J5*%
X168910000Y-64770000D03*
D11*
X171450000Y-64770000D03*
X173990000Y-64770000D03*
X176530000Y-64770000D03*
X179070000Y-64770000D03*
X181610000Y-64770000D03*
X184150000Y-64770000D03*
X186690000Y-64770000D03*
%TD*%
D10*
%TO.C,J3*%
X151130000Y-113030000D03*
D11*
X153670000Y-113030000D03*
X156210000Y-113030000D03*
X158750000Y-113030000D03*
X161290000Y-113030000D03*
X163830000Y-113030000D03*
X166370000Y-113030000D03*
X168910000Y-113030000D03*
%TD*%
D12*
%TO.C,J4*%
X141888505Y-64770000D03*
D13*
X144428505Y-64770000D03*
X146968505Y-64770000D03*
X149508505Y-64770000D03*
X152048505Y-64770000D03*
X154588505Y-64770000D03*
X157128505Y-64770000D03*
X159668505Y-64770000D03*
X162208505Y-64770000D03*
X164748505Y-64770000D03*
%TD*%
D14*
%TO.C,J2*%
X142240000Y-97790000D03*
D15*
X140970000Y-97790000D03*
X142240000Y-96520000D03*
X140970000Y-96520000D03*
X142240000Y-95250000D03*
X140970000Y-95250000D03*
X142240000Y-93980000D03*
X140970000Y-93980000D03*
X142240000Y-92710000D03*
X140970000Y-92710000D03*
%TD*%
D16*
%TO.C,J7*%
X173950000Y-113050000D03*
D17*
X176490000Y-113050000D03*
X179030000Y-113050000D03*
X181570000Y-113050000D03*
X184110000Y-113050000D03*
X186650000Y-113050000D03*
%TD*%
D18*
%TO.C,J1*%
X102950000Y-86700000D03*
X102950000Y-78450000D03*
%TD*%
M02*
