%TF.GenerationSoftware,KiCad,Pcbnew,7.0.10*%
%TF.CreationDate,2024-02-28T21:34:31+00:00*%
%TF.ProjectId,RF_Race_Car,52465f52-6163-4655-9f43-61722e6b6963,rev?*%
%TF.SameCoordinates,Original*%
%TF.FileFunction,Paste,Top*%
%TF.FilePolarity,Positive*%
%FSLAX46Y46*%
G04 Gerber Fmt 4.6, Leading zero omitted, Abs format (unit mm)*
G04 Created by KiCad (PCBNEW 7.0.10) date 2024-02-28 21:34:31*
%MOMM*%
%LPD*%
G01*
G04 APERTURE LIST*
G04 Aperture macros list*
%AMRoundRect*
0 Rectangle with rounded corners*
0 $1 Rounding radius*
0 $2 $3 $4 $5 $6 $7 $8 $9 X,Y pos of 4 corners*
0 Add a 4 corners polygon primitive as box body*
4,1,4,$2,$3,$4,$5,$6,$7,$8,$9,$2,$3,0*
0 Add four circle primitives for the rounded corners*
1,1,$1+$1,$2,$3*
1,1,$1+$1,$4,$5*
1,1,$1+$1,$6,$7*
1,1,$1+$1,$8,$9*
0 Add four rect primitives between the rounded corners*
20,1,$1+$1,$2,$3,$4,$5,0*
20,1,$1+$1,$4,$5,$6,$7,0*
20,1,$1+$1,$6,$7,$8,$9,0*
20,1,$1+$1,$8,$9,$2,$3,0*%
G04 Aperture macros list end*
%ADD10RoundRect,0.140000X0.140000X0.170000X-0.140000X0.170000X-0.140000X-0.170000X0.140000X-0.170000X0*%
%ADD11RoundRect,0.140000X-0.170000X0.140000X-0.170000X-0.140000X0.170000X-0.140000X0.170000X0.140000X0*%
%ADD12RoundRect,0.200000X0.275000X-0.200000X0.275000X0.200000X-0.275000X0.200000X-0.275000X-0.200000X0*%
%ADD13RoundRect,0.140000X-0.140000X-0.170000X0.140000X-0.170000X0.140000X0.170000X-0.140000X0.170000X0*%
%ADD14RoundRect,0.200000X-0.275000X0.200000X-0.275000X-0.200000X0.275000X-0.200000X0.275000X0.200000X0*%
%ADD15RoundRect,0.218750X-0.218750X-0.256250X0.218750X-0.256250X0.218750X0.256250X-0.218750X0.256250X0*%
%ADD16R,0.900000X0.300000*%
%ADD17R,0.300000X0.900000*%
%ADD18R,5.250000X5.250000*%
%ADD19RoundRect,0.140000X0.170000X-0.140000X0.170000X0.140000X-0.170000X0.140000X-0.170000X-0.140000X0*%
%ADD20R,0.800000X1.700000*%
%ADD21R,0.970000X1.000000*%
%ADD22R,1.700000X0.800000*%
%ADD23R,1.000000X2.600000*%
%ADD24R,1.000000X3.300000*%
%ADD25R,3.300000X1.000000*%
%ADD26R,2.600000X1.000000*%
%ADD27RoundRect,0.218750X0.256250X-0.218750X0.256250X0.218750X-0.256250X0.218750X-0.256250X-0.218750X0*%
%ADD28R,1.244600X0.889000*%
%ADD29R,0.500000X0.600000*%
%ADD30R,5.600000X0.900000*%
%ADD31R,5.600000X1.650000*%
%ADD32R,1.100000X1.900000*%
%ADD33R,0.254000X0.457200*%
G04 APERTURE END LIST*
D10*
%TO.C,C4*%
X115930000Y-89700000D03*
X114970000Y-89700000D03*
%TD*%
D11*
%TO.C,C3*%
X122200000Y-90570000D03*
X122200000Y-91530000D03*
%TD*%
D12*
%TO.C,R1*%
X150747336Y-84153167D03*
X150747336Y-82503167D03*
%TD*%
D13*
%TO.C,C14*%
X108940000Y-73850000D03*
X109900000Y-73850000D03*
%TD*%
D14*
%TO.C,R3*%
X119400000Y-101660000D03*
X119400000Y-103310000D03*
%TD*%
D15*
%TO.C,L1*%
X124772275Y-84490250D03*
X126347275Y-84490250D03*
%TD*%
D16*
%TO.C,IC1*%
X115650000Y-82100000D03*
X115650000Y-82600000D03*
X115650000Y-83100000D03*
X115650000Y-83600000D03*
X115650000Y-84100000D03*
X115650000Y-84600000D03*
X115650000Y-85100000D03*
X115650000Y-85600000D03*
X115650000Y-86100000D03*
X115650000Y-86600000D03*
X115650000Y-87100000D03*
X115650000Y-87600000D03*
D17*
X116350000Y-88300000D03*
X116850000Y-88300000D03*
X117350000Y-88300000D03*
X117850000Y-88300000D03*
X118350000Y-88300000D03*
X118850000Y-88300000D03*
X119350000Y-88300000D03*
X119850000Y-88300000D03*
X120350000Y-88300000D03*
X120850000Y-88300000D03*
X121350000Y-88300000D03*
X121850000Y-88300000D03*
D16*
X122550000Y-87600000D03*
X122550000Y-87100000D03*
X122550000Y-86600000D03*
X122550000Y-86100000D03*
X122550000Y-85600000D03*
X122550000Y-85100000D03*
X122550000Y-84600000D03*
X122550000Y-84100000D03*
X122550000Y-83600000D03*
X122550000Y-83100000D03*
X122550000Y-82600000D03*
X122550000Y-82100000D03*
D17*
X121850000Y-81400000D03*
X121350000Y-81400000D03*
X120850000Y-81400000D03*
X120350000Y-81400000D03*
X119850000Y-81400000D03*
X119350000Y-81400000D03*
X118850000Y-81400000D03*
X118350000Y-81400000D03*
X117850000Y-81400000D03*
X117350000Y-81400000D03*
X116850000Y-81400000D03*
X116350000Y-81400000D03*
D18*
X119100000Y-84850000D03*
%TD*%
D19*
%TO.C,C10*%
X117900000Y-78880000D03*
X117900000Y-77920000D03*
%TD*%
D20*
%TO.C,S1*%
X150752171Y-80080549D03*
X154152171Y-80080549D03*
%TD*%
D10*
%TO.C,C2*%
X111400000Y-91700000D03*
X110440000Y-91700000D03*
%TD*%
D13*
%TO.C,C8*%
X111382165Y-82616583D03*
X112342165Y-82616583D03*
%TD*%
%TO.C,C6*%
X124993153Y-83134516D03*
X125953153Y-83134516D03*
%TD*%
D19*
%TO.C,C7*%
X120150000Y-78860000D03*
X120150000Y-77900000D03*
%TD*%
D21*
%TO.C,FL1*%
X130770000Y-106665000D03*
X130770000Y-105195000D03*
%TD*%
D10*
%TO.C,C5*%
X120810000Y-89600000D03*
X119850000Y-89600000D03*
%TD*%
D22*
%TO.C,S2*%
X173066025Y-72990187D03*
X173066025Y-69590187D03*
%TD*%
D23*
%TO.C,*%
X107250000Y-79100000D03*
X107250000Y-86600000D03*
D24*
X107250000Y-91950000D03*
D25*
X108400000Y-93100000D03*
D26*
X113750000Y-93100000D03*
X121250000Y-93100000D03*
D25*
X126600000Y-93100000D03*
D24*
X127750000Y-91950000D03*
D23*
X127750000Y-86600000D03*
X127750000Y-79100000D03*
D24*
X127750000Y-73750000D03*
D25*
X126600000Y-72600000D03*
D26*
X121250000Y-72600000D03*
X113750000Y-72600000D03*
D25*
X108400000Y-72600000D03*
D24*
X107250000Y-73750000D03*
%TD*%
D19*
%TO.C,C11*%
X115400000Y-78860000D03*
X115400000Y-77900000D03*
%TD*%
D13*
%TO.C,C1*%
X108476064Y-91672773D03*
X109436064Y-91672773D03*
%TD*%
D27*
%TO.C,D3*%
X119380000Y-107650000D03*
X119380000Y-106075000D03*
%TD*%
D28*
%TO.C,Y1*%
X109220000Y-75170000D03*
X112826800Y-75170000D03*
X112826800Y-77470000D03*
X109220000Y-77470000D03*
%TD*%
D10*
%TO.C,C13*%
X113132825Y-73850000D03*
X112172825Y-73850000D03*
%TD*%
D19*
%TO.C,C9*%
X128750000Y-84388333D03*
X128750000Y-83428333D03*
%TD*%
D27*
%TO.C,D2*%
X117692524Y-107644544D03*
X117692524Y-106069544D03*
%TD*%
D29*
%TO.C,D1*%
X156210000Y-82820000D03*
X156210000Y-83820000D03*
%TD*%
D30*
%TO.C,J1*%
X102950000Y-82575000D03*
D31*
X102950000Y-86700000D03*
X102950000Y-78450000D03*
%TD*%
D32*
%TO.C,Y2*%
X108825586Y-89455584D03*
X111325586Y-89455584D03*
%TD*%
D33*
%TO.C,U2*%
X113524000Y-82648200D03*
X114032000Y-82648200D03*
X114540000Y-82648200D03*
X114540000Y-81810000D03*
X114032000Y-81810000D03*
X113524000Y-81810000D03*
%TD*%
D11*
%TO.C,C12*%
X152938726Y-82820159D03*
X152938726Y-83780159D03*
%TD*%
D14*
%TO.C,R2*%
X117700948Y-101634031D03*
X117700948Y-103284031D03*
%TD*%
M02*
