<?xml version="1.0" standalone="no"?>
 <!DOCTYPE svg PUBLIC "-//W3C//DTD SVG 1.1//EN" 
 "http://www.w3.org/Graphics/SVG/1.1/DTD/svg11.dtd"> 
<svg
  xmlns:svg="http://www.w3.org/2000/svg"
  xmlns="http://www.w3.org/2000/svg"
  xmlns:xlink="http://www.w3.org/1999/xlink"
  version="1.1"
  width="297.0022mm" height="210.0072mm" viewBox="0.0000 0.0000 297.0022 210.0072">
<title>SVG Image created as RF_Race_Car-User_Comments.svg date 2024/05/15 15:19:47 </title>
  <desc>Image generated by PCBNEW </desc>
<g style="fill:#000000; fill-opacity:1.0000;stroke:#000000; stroke-opacity:1.0000;
stroke-linecap:round; stroke-linejoin:round;"
 transform="translate(0 0) scale(1 1)">
</g>
<g style="fill:#000000; fill-opacity:0.0; 
stroke:#000000; stroke-width:0.0000; stroke-opacity:1; 
stroke-linecap:round; stroke-linejoin:round;">
</g>
<g style="fill:#000000; fill-opacity:0.0; 
stroke:#000000; stroke-width:0.0212; stroke-opacity:1; 
stroke-linecap:round; stroke-linejoin:round;">
</g>
<g style="fill:#000000; fill-opacity:0.0; 
stroke:#000000; stroke-width:0.1500; stroke-opacity:1; 
stroke-linecap:round; stroke-linejoin:round;">
<path d="M177.0022 166.0072
L285.0022 166.0072
L285.0022 198.0072
L177.0022 198.0072
L177.0022 166.0072
" />
</g>
<g style="fill:#000000; fill-opacity:0.0; 
stroke:#000000; stroke-width:0.0212; stroke-opacity:1; 
stroke-linecap:round; stroke-linejoin:round;">
</g>
<g style="fill:#000000; fill-opacity:0.0; 
stroke:#000000; stroke-width:0.1500; stroke-opacity:1; 
stroke-linecap:round; stroke-linejoin:round;">
<path d="M10.0000 10.0000
L287.0022 10.0000
L287.0022 200.0072
L10.0000 200.0072
L10.0000 10.0000
" />
</g>
<g style="fill:#000000; fill-opacity:0.0; 
stroke:#000000; stroke-width:0.0212; stroke-opacity:1; 
stroke-linecap:round; stroke-linejoin:round;">
</g>
<g style="fill:#000000; fill-opacity:0.0; 
stroke:#000000; stroke-width:0.1500; stroke-opacity:1; 
stroke-linecap:round; stroke-linejoin:round;">
<path d="M12.0000 12.0000
L285.0022 12.0000
L285.0022 198.0072
L12.0000 198.0072
L12.0000 12.0000
" />
</g>
<g style="fill:#000000; fill-opacity:0.0; 
stroke:#000000; stroke-width:0.0212; stroke-opacity:1; 
stroke-linecap:round; stroke-linejoin:round;">
</g>
<g style="fill:#000000; fill-opacity:0.0; 
stroke:#000000; stroke-width:0.1500; stroke-opacity:1; 
stroke-linecap:round; stroke-linejoin:round;">
<path d="M60.0000 12.0000
L60.0000 10.0000
" />
</g>
<g style="fill:#000000; fill-opacity:0.0; 
stroke:#000000; stroke-width:0.0212; stroke-opacity:1; 
stroke-linecap:round; stroke-linejoin:round;">
</g>
<g style="fill:#000000; fill-opacity:0.0; 
stroke:#000000; stroke-width:0.1500; stroke-opacity:1; 
stroke-linecap:round; stroke-linejoin:round;">
<path d="M110.0000 12.0000
L110.0000 10.0000
" />
</g>
<g style="fill:#000000; fill-opacity:0.0; 
stroke:#000000; stroke-width:0.0212; stroke-opacity:1; 
stroke-linecap:round; stroke-linejoin:round;">
</g>
<g style="fill:#000000; fill-opacity:0.0; 
stroke:#000000; stroke-width:0.1500; stroke-opacity:1; 
stroke-linecap:round; stroke-linejoin:round;">
<path d="M160.0000 12.0000
L160.0000 10.0000
" />
</g>
<g style="fill:#000000; fill-opacity:0.0; 
stroke:#000000; stroke-width:0.0212; stroke-opacity:1; 
stroke-linecap:round; stroke-linejoin:round;">
</g>
<g style="fill:#000000; fill-opacity:0.0; 
stroke:#000000; stroke-width:0.1500; stroke-opacity:1; 
stroke-linecap:round; stroke-linejoin:round;">
<path d="M210.0000 12.0000
L210.0000 10.0000
" />
</g>
<g style="fill:#000000; fill-opacity:0.0; 
stroke:#000000; stroke-width:0.0212; stroke-opacity:1; 
stroke-linecap:round; stroke-linejoin:round;">
</g>
<g style="fill:#000000; fill-opacity:0.0; 
stroke:#000000; stroke-width:0.1500; stroke-opacity:1; 
stroke-linecap:round; stroke-linejoin:round;">
<path d="M260.0000 12.0000
L260.0000 10.0000
" />
</g>
<g style="fill:#000000; fill-opacity:0.0; 
stroke:#000000; stroke-width:0.0212; stroke-opacity:1; 
stroke-linecap:round; stroke-linejoin:round;">
</g>
<g style="fill:#000000; fill-opacity:0.0; 
stroke:#000000; stroke-width:0.1500; stroke-opacity:1; 
stroke-linecap:round; stroke-linejoin:round;">
<text x="35.0000" y="11.6500"
textLength="1.4281" font-size="1.7333" lengthAdjust="spacingAndGlyphs"
text-anchor="start" opacity="0">1</text>
<g class="stroked-text"><desc>1</desc>
<path d="M36.0892 11.5936
L35.3463 11.5936
" />
<path d="M35.7177 11.5936
L35.7177 10.2936
" />
<path d="M35.7177 10.2936
L35.5939 10.4793
" />
<path d="M35.5939 10.4793
L35.4701 10.6031
" />
<path d="M35.4701 10.6031
L35.3463 10.6650
" />
</g></g>
<g style="fill:#000000; fill-opacity:0.0; 
stroke:#000000; stroke-width:0.0212; stroke-opacity:1; 
stroke-linecap:round; stroke-linejoin:round;">
</g>
<g style="fill:#000000; fill-opacity:0.0; 
stroke:#000000; stroke-width:0.1500; stroke-opacity:1; 
stroke-linecap:round; stroke-linejoin:round;">
<text x="85.0000" y="11.6500"
textLength="1.4281" font-size="1.7333" lengthAdjust="spacingAndGlyphs"
text-anchor="start" opacity="0">2</text>
<g class="stroked-text"><desc>2</desc>
<path d="M85.3463 10.4174
L85.4082 10.3555
" />
<path d="M85.4082 10.3555
L85.5320 10.2936
" />
<path d="M85.5320 10.2936
L85.8415 10.2936
" />
<path d="M85.8415 10.2936
L85.9654 10.3555
" />
<path d="M85.9654 10.3555
L86.0273 10.4174
" />
<path d="M86.0273 10.4174
L86.0892 10.5412
" />
<path d="M86.0892 10.5412
L86.0892 10.6650
" />
<path d="M86.0892 10.6650
L86.0273 10.8507
" />
<path d="M86.0273 10.8507
L85.2844 11.5936
" />
<path d="M85.2844 11.5936
L86.0892 11.5936
" />
</g></g>
<g style="fill:#000000; fill-opacity:0.0; 
stroke:#000000; stroke-width:0.0212; stroke-opacity:1; 
stroke-linecap:round; stroke-linejoin:round;">
</g>
<g style="fill:#000000; fill-opacity:0.0; 
stroke:#000000; stroke-width:0.1500; stroke-opacity:1; 
stroke-linecap:round; stroke-linejoin:round;">
<text x="135.0000" y="11.6500"
textLength="1.4281" font-size="1.7333" lengthAdjust="spacingAndGlyphs"
text-anchor="start" opacity="0">3</text>
<g class="stroked-text"><desc>3</desc>
<path d="M135.2844 10.2936
L136.0892 10.2936
" />
<path d="M136.0892 10.2936
L135.6558 10.7888
" />
<path d="M135.6558 10.7888
L135.8415 10.7888
" />
<path d="M135.8415 10.7888
L135.9654 10.8507
" />
<path d="M135.9654 10.8507
L136.0273 10.9127
" />
<path d="M136.0273 10.9127
L136.0892 11.0365
" />
<path d="M136.0892 11.0365
L136.0892 11.3460
" />
<path d="M136.0892 11.3460
L136.0273 11.4698
" />
<path d="M136.0273 11.4698
L135.9654 11.5317
" />
<path d="M135.9654 11.5317
L135.8415 11.5936
" />
<path d="M135.8415 11.5936
L135.4701 11.5936
" />
<path d="M135.4701 11.5936
L135.3463 11.5317
" />
<path d="M135.3463 11.5317
L135.2844 11.4698
" />
</g></g>
<g style="fill:#000000; fill-opacity:0.0; 
stroke:#000000; stroke-width:0.0212; stroke-opacity:1; 
stroke-linecap:round; stroke-linejoin:round;">
</g>
<g style="fill:#000000; fill-opacity:0.0; 
stroke:#000000; stroke-width:0.1500; stroke-opacity:1; 
stroke-linecap:round; stroke-linejoin:round;">
<text x="185.0000" y="11.6500"
textLength="1.4281" font-size="1.7333" lengthAdjust="spacingAndGlyphs"
text-anchor="start" opacity="0">4</text>
<g class="stroked-text"><desc>4</desc>
<path d="M185.9654 10.7269
L185.9654 11.5936
" />
<path d="M185.6558 10.2317
L185.3463 11.1603
" />
<path d="M185.3463 11.1603
L186.1511 11.1603
" />
</g></g>
<g style="fill:#000000; fill-opacity:0.0; 
stroke:#000000; stroke-width:0.0212; stroke-opacity:1; 
stroke-linecap:round; stroke-linejoin:round;">
</g>
<g style="fill:#000000; fill-opacity:0.0; 
stroke:#000000; stroke-width:0.1500; stroke-opacity:1; 
stroke-linecap:round; stroke-linejoin:round;">
<text x="235.0000" y="11.6500"
textLength="1.4281" font-size="1.7333" lengthAdjust="spacingAndGlyphs"
text-anchor="start" opacity="0">5</text>
<g class="stroked-text"><desc>5</desc>
<path d="M236.0273 10.2936
L235.4082 10.2936
" />
<path d="M235.4082 10.2936
L235.3463 10.9127
" />
<path d="M235.3463 10.9127
L235.4082 10.8507
" />
<path d="M235.4082 10.8507
L235.5320 10.7888
" />
<path d="M235.5320 10.7888
L235.8415 10.7888
" />
<path d="M235.8415 10.7888
L235.9654 10.8507
" />
<path d="M235.9654 10.8507
L236.0273 10.9127
" />
<path d="M236.0273 10.9127
L236.0892 11.0365
" />
<path d="M236.0892 11.0365
L236.0892 11.3460
" />
<path d="M236.0892 11.3460
L236.0273 11.4698
" />
<path d="M236.0273 11.4698
L235.9654 11.5317
" />
<path d="M235.9654 11.5317
L235.8415 11.5936
" />
<path d="M235.8415 11.5936
L235.5320 11.5936
" />
<path d="M235.5320 11.5936
L235.4082 11.5317
" />
<path d="M235.4082 11.5317
L235.3463 11.4698
" />
</g></g>
<g style="fill:#000000; fill-opacity:0.0; 
stroke:#000000; stroke-width:0.0212; stroke-opacity:1; 
stroke-linecap:round; stroke-linejoin:round;">
</g>
<g style="fill:#000000; fill-opacity:0.0; 
stroke:#000000; stroke-width:0.1500; stroke-opacity:1; 
stroke-linecap:round; stroke-linejoin:round;">
<text x="285.0000" y="11.6500"
textLength="1.4281" font-size="1.7333" lengthAdjust="spacingAndGlyphs"
text-anchor="start" opacity="0">6</text>
<g class="stroked-text"><desc>6</desc>
<path d="M285.9654 10.2936
L285.7177 10.2936
" />
<path d="M285.7177 10.2936
L285.5939 10.3555
" />
<path d="M285.5939 10.3555
L285.5320 10.4174
" />
<path d="M285.5320 10.4174
L285.4082 10.6031
" />
<path d="M285.4082 10.6031
L285.3463 10.8507
" />
<path d="M285.3463 10.8507
L285.3463 11.3460
" />
<path d="M285.3463 11.3460
L285.4082 11.4698
" />
<path d="M285.4082 11.4698
L285.4701 11.5317
" />
<path d="M285.4701 11.5317
L285.5939 11.5936
" />
<path d="M285.5939 11.5936
L285.8415 11.5936
" />
<path d="M285.8415 11.5936
L285.9654 11.5317
" />
<path d="M285.9654 11.5317
L286.0273 11.4698
" />
<path d="M286.0273 11.4698
L286.0892 11.3460
" />
<path d="M286.0892 11.3460
L286.0892 11.0365
" />
<path d="M286.0892 11.0365
L286.0273 10.9127
" />
<path d="M286.0273 10.9127
L285.9654 10.8507
" />
<path d="M285.9654 10.8507
L285.8415 10.7888
" />
<path d="M285.8415 10.7888
L285.5939 10.7888
" />
<path d="M285.5939 10.7888
L285.4701 10.8507
" />
<path d="M285.4701 10.8507
L285.4082 10.9127
" />
<path d="M285.4082 10.9127
L285.3463 11.0365
" />
</g></g>
<g style="fill:#000000; fill-opacity:0.0; 
stroke:#000000; stroke-width:0.0212; stroke-opacity:1; 
stroke-linecap:round; stroke-linejoin:round;">
</g>
<g style="fill:#000000; fill-opacity:0.0; 
stroke:#000000; stroke-width:0.1500; stroke-opacity:1; 
stroke-linecap:round; stroke-linejoin:round;">
<path d="M60.0000 198.0072
L60.0000 200.0072
" />
</g>
<g style="fill:#000000; fill-opacity:0.0; 
stroke:#000000; stroke-width:0.0212; stroke-opacity:1; 
stroke-linecap:round; stroke-linejoin:round;">
</g>
<g style="fill:#000000; fill-opacity:0.0; 
stroke:#000000; stroke-width:0.1500; stroke-opacity:1; 
stroke-linecap:round; stroke-linejoin:round;">
<path d="M110.0000 198.0072
L110.0000 200.0072
" />
</g>
<g style="fill:#000000; fill-opacity:0.0; 
stroke:#000000; stroke-width:0.0212; stroke-opacity:1; 
stroke-linecap:round; stroke-linejoin:round;">
</g>
<g style="fill:#000000; fill-opacity:0.0; 
stroke:#000000; stroke-width:0.1500; stroke-opacity:1; 
stroke-linecap:round; stroke-linejoin:round;">
<path d="M160.0000 198.0072
L160.0000 200.0072
" />
</g>
<g style="fill:#000000; fill-opacity:0.0; 
stroke:#000000; stroke-width:0.0212; stroke-opacity:1; 
stroke-linecap:round; stroke-linejoin:round;">
</g>
<g style="fill:#000000; fill-opacity:0.0; 
stroke:#000000; stroke-width:0.1500; stroke-opacity:1; 
stroke-linecap:round; stroke-linejoin:round;">
<path d="M210.0000 198.0072
L210.0000 200.0072
" />
</g>
<g style="fill:#000000; fill-opacity:0.0; 
stroke:#000000; stroke-width:0.0212; stroke-opacity:1; 
stroke-linecap:round; stroke-linejoin:round;">
</g>
<g style="fill:#000000; fill-opacity:0.0; 
stroke:#000000; stroke-width:0.1500; stroke-opacity:1; 
stroke-linecap:round; stroke-linejoin:round;">
<path d="M260.0000 198.0072
L260.0000 200.0072
" />
</g>
<g style="fill:#000000; fill-opacity:0.0; 
stroke:#000000; stroke-width:0.0212; stroke-opacity:1; 
stroke-linecap:round; stroke-linejoin:round;">
</g>
<g style="fill:#000000; fill-opacity:0.0; 
stroke:#000000; stroke-width:0.1500; stroke-opacity:1; 
stroke-linecap:round; stroke-linejoin:round;">
<text x="35.0000" y="199.6572"
textLength="1.4281" font-size="1.7333" lengthAdjust="spacingAndGlyphs"
text-anchor="start" opacity="0">1</text>
<g class="stroked-text"><desc>1</desc>
<path d="M36.0892 199.6008
L35.3463 199.6008
" />
<path d="M35.7177 199.6008
L35.7177 198.3008
" />
<path d="M35.7177 198.3008
L35.5939 198.4865
" />
<path d="M35.5939 198.4865
L35.4701 198.6103
" />
<path d="M35.4701 198.6103
L35.3463 198.6722
" />
</g></g>
<g style="fill:#000000; fill-opacity:0.0; 
stroke:#000000; stroke-width:0.0212; stroke-opacity:1; 
stroke-linecap:round; stroke-linejoin:round;">
</g>
<g style="fill:#000000; fill-opacity:0.0; 
stroke:#000000; stroke-width:0.1500; stroke-opacity:1; 
stroke-linecap:round; stroke-linejoin:round;">
<text x="85.0000" y="199.6572"
textLength="1.4281" font-size="1.7333" lengthAdjust="spacingAndGlyphs"
text-anchor="start" opacity="0">2</text>
<g class="stroked-text"><desc>2</desc>
<path d="M85.3463 198.4246
L85.4082 198.3627
" />
<path d="M85.4082 198.3627
L85.5320 198.3008
" />
<path d="M85.5320 198.3008
L85.8415 198.3008
" />
<path d="M85.8415 198.3008
L85.9654 198.3627
" />
<path d="M85.9654 198.3627
L86.0273 198.4246
" />
<path d="M86.0273 198.4246
L86.0892 198.5484
" />
<path d="M86.0892 198.5484
L86.0892 198.6722
" />
<path d="M86.0892 198.6722
L86.0273 198.8579
" />
<path d="M86.0273 198.8579
L85.2844 199.6008
" />
<path d="M85.2844 199.6008
L86.0892 199.6008
" />
</g></g>
<g style="fill:#000000; fill-opacity:0.0; 
stroke:#000000; stroke-width:0.0212; stroke-opacity:1; 
stroke-linecap:round; stroke-linejoin:round;">
</g>
<g style="fill:#000000; fill-opacity:0.0; 
stroke:#000000; stroke-width:0.1500; stroke-opacity:1; 
stroke-linecap:round; stroke-linejoin:round;">
<text x="135.0000" y="199.6572"
textLength="1.4281" font-size="1.7333" lengthAdjust="spacingAndGlyphs"
text-anchor="start" opacity="0">3</text>
<g class="stroked-text"><desc>3</desc>
<path d="M135.2844 198.3008
L136.0892 198.3008
" />
<path d="M136.0892 198.3008
L135.6558 198.7960
" />
<path d="M135.6558 198.7960
L135.8415 198.7960
" />
<path d="M135.8415 198.7960
L135.9654 198.8579
" />
<path d="M135.9654 198.8579
L136.0273 198.9199
" />
<path d="M136.0273 198.9199
L136.0892 199.0437
" />
<path d="M136.0892 199.0437
L136.0892 199.3532
" />
<path d="M136.0892 199.3532
L136.0273 199.4770
" />
<path d="M136.0273 199.4770
L135.9654 199.5389
" />
<path d="M135.9654 199.5389
L135.8415 199.6008
" />
<path d="M135.8415 199.6008
L135.4701 199.6008
" />
<path d="M135.4701 199.6008
L135.3463 199.5389
" />
<path d="M135.3463 199.5389
L135.2844 199.4770
" />
</g></g>
<g style="fill:#000000; fill-opacity:0.0; 
stroke:#000000; stroke-width:0.0212; stroke-opacity:1; 
stroke-linecap:round; stroke-linejoin:round;">
</g>
<g style="fill:#000000; fill-opacity:0.0; 
stroke:#000000; stroke-width:0.1500; stroke-opacity:1; 
stroke-linecap:round; stroke-linejoin:round;">
<text x="185.0000" y="199.6572"
textLength="1.4281" font-size="1.7333" lengthAdjust="spacingAndGlyphs"
text-anchor="start" opacity="0">4</text>
<g class="stroked-text"><desc>4</desc>
<path d="M185.9654 198.7341
L185.9654 199.6008
" />
<path d="M185.6558 198.2389
L185.3463 199.1675
" />
<path d="M185.3463 199.1675
L186.1511 199.1675
" />
</g></g>
<g style="fill:#000000; fill-opacity:0.0; 
stroke:#000000; stroke-width:0.0212; stroke-opacity:1; 
stroke-linecap:round; stroke-linejoin:round;">
</g>
<g style="fill:#000000; fill-opacity:0.0; 
stroke:#000000; stroke-width:0.1500; stroke-opacity:1; 
stroke-linecap:round; stroke-linejoin:round;">
<text x="235.0000" y="199.6572"
textLength="1.4281" font-size="1.7333" lengthAdjust="spacingAndGlyphs"
text-anchor="start" opacity="0">5</text>
<g class="stroked-text"><desc>5</desc>
<path d="M236.0273 198.3008
L235.4082 198.3008
" />
<path d="M235.4082 198.3008
L235.3463 198.9199
" />
<path d="M235.3463 198.9199
L235.4082 198.8579
" />
<path d="M235.4082 198.8579
L235.5320 198.7960
" />
<path d="M235.5320 198.7960
L235.8415 198.7960
" />
<path d="M235.8415 198.7960
L235.9654 198.8579
" />
<path d="M235.9654 198.8579
L236.0273 198.9199
" />
<path d="M236.0273 198.9199
L236.0892 199.0437
" />
<path d="M236.0892 199.0437
L236.0892 199.3532
" />
<path d="M236.0892 199.3532
L236.0273 199.4770
" />
<path d="M236.0273 199.4770
L235.9654 199.5389
" />
<path d="M235.9654 199.5389
L235.8415 199.6008
" />
<path d="M235.8415 199.6008
L235.5320 199.6008
" />
<path d="M235.5320 199.6008
L235.4082 199.5389
" />
<path d="M235.4082 199.5389
L235.3463 199.4770
" />
</g></g>
<g style="fill:#000000; fill-opacity:0.0; 
stroke:#000000; stroke-width:0.0212; stroke-opacity:1; 
stroke-linecap:round; stroke-linejoin:round;">
</g>
<g style="fill:#000000; fill-opacity:0.0; 
stroke:#000000; stroke-width:0.1500; stroke-opacity:1; 
stroke-linecap:round; stroke-linejoin:round;">
<text x="285.0000" y="199.6572"
textLength="1.4281" font-size="1.7333" lengthAdjust="spacingAndGlyphs"
text-anchor="start" opacity="0">6</text>
<g class="stroked-text"><desc>6</desc>
<path d="M285.9654 198.3008
L285.7177 198.3008
" />
<path d="M285.7177 198.3008
L285.5939 198.3627
" />
<path d="M285.5939 198.3627
L285.5320 198.4246
" />
<path d="M285.5320 198.4246
L285.4082 198.6103
" />
<path d="M285.4082 198.6103
L285.3463 198.8579
" />
<path d="M285.3463 198.8579
L285.3463 199.3532
" />
<path d="M285.3463 199.3532
L285.4082 199.4770
" />
<path d="M285.4082 199.4770
L285.4701 199.5389
" />
<path d="M285.4701 199.5389
L285.5939 199.6008
" />
<path d="M285.5939 199.6008
L285.8415 199.6008
" />
<path d="M285.8415 199.6008
L285.9654 199.5389
" />
<path d="M285.9654 199.5389
L286.0273 199.4770
" />
<path d="M286.0273 199.4770
L286.0892 199.3532
" />
<path d="M286.0892 199.3532
L286.0892 199.0437
" />
<path d="M286.0892 199.0437
L286.0273 198.9199
" />
<path d="M286.0273 198.9199
L285.9654 198.8579
" />
<path d="M285.9654 198.8579
L285.8415 198.7960
" />
<path d="M285.8415 198.7960
L285.5939 198.7960
" />
<path d="M285.5939 198.7960
L285.4701 198.8579
" />
<path d="M285.4701 198.8579
L285.4082 198.9199
" />
<path d="M285.4082 198.9199
L285.3463 199.0437
" />
</g></g>
<g style="fill:#000000; fill-opacity:0.0; 
stroke:#000000; stroke-width:0.0212; stroke-opacity:1; 
stroke-linecap:round; stroke-linejoin:round;">
</g>
<g style="fill:#000000; fill-opacity:0.0; 
stroke:#000000; stroke-width:0.1500; stroke-opacity:1; 
stroke-linecap:round; stroke-linejoin:round;">
<path d="M10.0000 60.0000
L12.0000 60.0000
" />
</g>
<g style="fill:#000000; fill-opacity:0.0; 
stroke:#000000; stroke-width:0.0212; stroke-opacity:1; 
stroke-linecap:round; stroke-linejoin:round;">
</g>
<g style="fill:#000000; fill-opacity:0.0; 
stroke:#000000; stroke-width:0.1500; stroke-opacity:1; 
stroke-linecap:round; stroke-linejoin:round;">
<path d="M10.0000 110.0000
L12.0000 110.0000
" />
</g>
<g style="fill:#000000; fill-opacity:0.0; 
stroke:#000000; stroke-width:0.0212; stroke-opacity:1; 
stroke-linecap:round; stroke-linejoin:round;">
</g>
<g style="fill:#000000; fill-opacity:0.0; 
stroke:#000000; stroke-width:0.1500; stroke-opacity:1; 
stroke-linecap:round; stroke-linejoin:round;">
<path d="M10.0000 160.0000
L12.0000 160.0000
" />
</g>
<g style="fill:#000000; fill-opacity:0.0; 
stroke:#000000; stroke-width:0.0212; stroke-opacity:1; 
stroke-linecap:round; stroke-linejoin:round;">
</g>
<g style="fill:#000000; fill-opacity:0.0; 
stroke:#000000; stroke-width:0.1500; stroke-opacity:1; 
stroke-linecap:round; stroke-linejoin:round;">
<text x="11.0000" y="35.6500"
textLength="1.3043" font-size="1.7333" lengthAdjust="spacingAndGlyphs"
text-anchor="middle" opacity="0">A</text>
<g class="stroked-text"><desc>A</desc>
<path d="M10.6905 35.2222
L11.3095 35.2222
" />
<path d="M10.5667 35.5936
L11.0000 34.2936
" />
<path d="M11.0000 34.2936
L11.4333 35.5936
" />
</g></g>
<g style="fill:#000000; fill-opacity:0.0; 
stroke:#000000; stroke-width:0.0212; stroke-opacity:1; 
stroke-linecap:round; stroke-linejoin:round;">
</g>
<g style="fill:#000000; fill-opacity:0.0; 
stroke:#000000; stroke-width:0.1500; stroke-opacity:1; 
stroke-linecap:round; stroke-linejoin:round;">
<text x="11.0000" y="85.6500"
textLength="1.4900" font-size="1.7333" lengthAdjust="spacingAndGlyphs"
text-anchor="middle" opacity="0">B</text>
<g class="stroked-text"><desc>B</desc>
<path d="M11.0929 84.9127
L11.2786 84.9746
" />
<path d="M11.2786 84.9746
L11.3405 85.0365
" />
<path d="M11.3405 85.0365
L11.4024 85.1603
" />
<path d="M11.4024 85.1603
L11.4024 85.3460
" />
<path d="M11.4024 85.3460
L11.3405 85.4698
" />
<path d="M11.3405 85.4698
L11.2786 85.5317
" />
<path d="M11.2786 85.5317
L11.1548 85.5936
" />
<path d="M11.1548 85.5936
L10.6595 85.5936
" />
<path d="M10.6595 85.5936
L10.6595 84.2936
" />
<path d="M10.6595 84.2936
L11.0929 84.2936
" />
<path d="M11.0929 84.2936
L11.2167 84.3555
" />
<path d="M11.2167 84.3555
L11.2786 84.4174
" />
<path d="M11.2786 84.4174
L11.3405 84.5412
" />
<path d="M11.3405 84.5412
L11.3405 84.6650
" />
<path d="M11.3405 84.6650
L11.2786 84.7888
" />
<path d="M11.2786 84.7888
L11.2167 84.8507
" />
<path d="M11.2167 84.8507
L11.0929 84.9127
" />
<path d="M11.0929 84.9127
L10.6595 84.9127
" />
</g></g>
<g style="fill:#000000; fill-opacity:0.0; 
stroke:#000000; stroke-width:0.0212; stroke-opacity:1; 
stroke-linecap:round; stroke-linejoin:round;">
</g>
<g style="fill:#000000; fill-opacity:0.0; 
stroke:#000000; stroke-width:0.1500; stroke-opacity:1; 
stroke-linecap:round; stroke-linejoin:round;">
<text x="11.0000" y="135.6500"
textLength="1.4900" font-size="1.7333" lengthAdjust="spacingAndGlyphs"
text-anchor="middle" opacity="0">C</text>
<g class="stroked-text"><desc>C</desc>
<path d="M11.4024 135.4698
L11.3405 135.5317
" />
<path d="M11.3405 135.5317
L11.1548 135.5936
" />
<path d="M11.1548 135.5936
L11.0310 135.5936
" />
<path d="M11.0310 135.5936
L10.8452 135.5317
" />
<path d="M10.8452 135.5317
L10.7214 135.4079
" />
<path d="M10.7214 135.4079
L10.6595 135.2841
" />
<path d="M10.6595 135.2841
L10.5976 135.0365
" />
<path d="M10.5976 135.0365
L10.5976 134.8507
" />
<path d="M10.5976 134.8507
L10.6595 134.6031
" />
<path d="M10.6595 134.6031
L10.7214 134.4793
" />
<path d="M10.7214 134.4793
L10.8452 134.3555
" />
<path d="M10.8452 134.3555
L11.0310 134.2936
" />
<path d="M11.0310 134.2936
L11.1548 134.2936
" />
<path d="M11.1548 134.2936
L11.3405 134.3555
" />
<path d="M11.3405 134.3555
L11.4024 134.4174
" />
</g></g>
<g style="fill:#000000; fill-opacity:0.0; 
stroke:#000000; stroke-width:0.0212; stroke-opacity:1; 
stroke-linecap:round; stroke-linejoin:round;">
</g>
<g style="fill:#000000; fill-opacity:0.0; 
stroke:#000000; stroke-width:0.1500; stroke-opacity:1; 
stroke-linecap:round; stroke-linejoin:round;">
<text x="11.0000" y="185.6500"
textLength="1.4900" font-size="1.7333" lengthAdjust="spacingAndGlyphs"
text-anchor="middle" opacity="0">D</text>
<g class="stroked-text"><desc>D</desc>
<path d="M10.6595 185.5936
L10.6595 184.2936
" />
<path d="M10.6595 184.2936
L10.9690 184.2936
" />
<path d="M10.9690 184.2936
L11.1548 184.3555
" />
<path d="M11.1548 184.3555
L11.2786 184.4793
" />
<path d="M11.2786 184.4793
L11.3405 184.6031
" />
<path d="M11.3405 184.6031
L11.4024 184.8507
" />
<path d="M11.4024 184.8507
L11.4024 185.0365
" />
<path d="M11.4024 185.0365
L11.3405 185.2841
" />
<path d="M11.3405 185.2841
L11.2786 185.4079
" />
<path d="M11.2786 185.4079
L11.1548 185.5317
" />
<path d="M11.1548 185.5317
L10.9690 185.5936
" />
<path d="M10.9690 185.5936
L10.6595 185.5936
" />
</g></g>
<g style="fill:#000000; fill-opacity:0.0; 
stroke:#000000; stroke-width:0.0212; stroke-opacity:1; 
stroke-linecap:round; stroke-linejoin:round;">
</g>
<g style="fill:#000000; fill-opacity:0.0; 
stroke:#000000; stroke-width:0.1500; stroke-opacity:1; 
stroke-linecap:round; stroke-linejoin:round;">
<path d="M287.0022 60.0000
L285.0022 60.0000
" />
</g>
<g style="fill:#000000; fill-opacity:0.0; 
stroke:#000000; stroke-width:0.0212; stroke-opacity:1; 
stroke-linecap:round; stroke-linejoin:round;">
</g>
<g style="fill:#000000; fill-opacity:0.0; 
stroke:#000000; stroke-width:0.1500; stroke-opacity:1; 
stroke-linecap:round; stroke-linejoin:round;">
<path d="M287.0022 110.0000
L285.0022 110.0000
" />
</g>
<g style="fill:#000000; fill-opacity:0.0; 
stroke:#000000; stroke-width:0.0212; stroke-opacity:1; 
stroke-linecap:round; stroke-linejoin:round;">
</g>
<g style="fill:#000000; fill-opacity:0.0; 
stroke:#000000; stroke-width:0.1500; stroke-opacity:1; 
stroke-linecap:round; stroke-linejoin:round;">
<path d="M287.0022 160.0000
L285.0022 160.0000
" />
</g>
<g style="fill:#000000; fill-opacity:0.0; 
stroke:#000000; stroke-width:0.0212; stroke-opacity:1; 
stroke-linecap:round; stroke-linejoin:round;">
</g>
<g style="fill:#000000; fill-opacity:0.0; 
stroke:#000000; stroke-width:0.1500; stroke-opacity:1; 
stroke-linecap:round; stroke-linejoin:round;">
<text x="286.0022" y="35.6500"
textLength="1.3043" font-size="1.7333" lengthAdjust="spacingAndGlyphs"
text-anchor="middle" opacity="0">A</text>
<g class="stroked-text"><desc>A</desc>
<path d="M285.6927 35.2222
L286.3117 35.2222
" />
<path d="M285.5689 35.5936
L286.0022 34.2936
" />
<path d="M286.0022 34.2936
L286.4355 35.5936
" />
</g></g>
<g style="fill:#000000; fill-opacity:0.0; 
stroke:#000000; stroke-width:0.0212; stroke-opacity:1; 
stroke-linecap:round; stroke-linejoin:round;">
</g>
<g style="fill:#000000; fill-opacity:0.0; 
stroke:#000000; stroke-width:0.1500; stroke-opacity:1; 
stroke-linecap:round; stroke-linejoin:round;">
<text x="286.0022" y="85.6500"
textLength="1.4900" font-size="1.7333" lengthAdjust="spacingAndGlyphs"
text-anchor="middle" opacity="0">B</text>
<g class="stroked-text"><desc>B</desc>
<path d="M286.0951 84.9127
L286.2808 84.9746
" />
<path d="M286.2808 84.9746
L286.3427 85.0365
" />
<path d="M286.3427 85.0365
L286.4046 85.1603
" />
<path d="M286.4046 85.1603
L286.4046 85.3460
" />
<path d="M286.4046 85.3460
L286.3427 85.4698
" />
<path d="M286.3427 85.4698
L286.2808 85.5317
" />
<path d="M286.2808 85.5317
L286.1570 85.5936
" />
<path d="M286.1570 85.5936
L285.6617 85.5936
" />
<path d="M285.6617 85.5936
L285.6617 84.2936
" />
<path d="M285.6617 84.2936
L286.0951 84.2936
" />
<path d="M286.0951 84.2936
L286.2189 84.3555
" />
<path d="M286.2189 84.3555
L286.2808 84.4174
" />
<path d="M286.2808 84.4174
L286.3427 84.5412
" />
<path d="M286.3427 84.5412
L286.3427 84.6650
" />
<path d="M286.3427 84.6650
L286.2808 84.7888
" />
<path d="M286.2808 84.7888
L286.2189 84.8507
" />
<path d="M286.2189 84.8507
L286.0951 84.9127
" />
<path d="M286.0951 84.9127
L285.6617 84.9127
" />
</g></g>
<g style="fill:#000000; fill-opacity:0.0; 
stroke:#000000; stroke-width:0.0212; stroke-opacity:1; 
stroke-linecap:round; stroke-linejoin:round;">
</g>
<g style="fill:#000000; fill-opacity:0.0; 
stroke:#000000; stroke-width:0.1500; stroke-opacity:1; 
stroke-linecap:round; stroke-linejoin:round;">
<text x="286.0022" y="135.6500"
textLength="1.4900" font-size="1.7333" lengthAdjust="spacingAndGlyphs"
text-anchor="middle" opacity="0">C</text>
<g class="stroked-text"><desc>C</desc>
<path d="M286.4046 135.4698
L286.3427 135.5317
" />
<path d="M286.3427 135.5317
L286.1570 135.5936
" />
<path d="M286.1570 135.5936
L286.0332 135.5936
" />
<path d="M286.0332 135.5936
L285.8474 135.5317
" />
<path d="M285.8474 135.5317
L285.7236 135.4079
" />
<path d="M285.7236 135.4079
L285.6617 135.2841
" />
<path d="M285.6617 135.2841
L285.5998 135.0365
" />
<path d="M285.5998 135.0365
L285.5998 134.8507
" />
<path d="M285.5998 134.8507
L285.6617 134.6031
" />
<path d="M285.6617 134.6031
L285.7236 134.4793
" />
<path d="M285.7236 134.4793
L285.8474 134.3555
" />
<path d="M285.8474 134.3555
L286.0332 134.2936
" />
<path d="M286.0332 134.2936
L286.1570 134.2936
" />
<path d="M286.1570 134.2936
L286.3427 134.3555
" />
<path d="M286.3427 134.3555
L286.4046 134.4174
" />
</g></g>
<g style="fill:#000000; fill-opacity:0.0; 
stroke:#000000; stroke-width:0.0212; stroke-opacity:1; 
stroke-linecap:round; stroke-linejoin:round;">
</g>
<g style="fill:#000000; fill-opacity:0.0; 
stroke:#000000; stroke-width:0.1500; stroke-opacity:1; 
stroke-linecap:round; stroke-linejoin:round;">
<text x="286.0022" y="185.6500"
textLength="1.4900" font-size="1.7333" lengthAdjust="spacingAndGlyphs"
text-anchor="middle" opacity="0">D</text>
<g class="stroked-text"><desc>D</desc>
<path d="M285.6617 185.5936
L285.6617 184.2936
" />
<path d="M285.6617 184.2936
L285.9712 184.2936
" />
<path d="M285.9712 184.2936
L286.1570 184.3555
" />
<path d="M286.1570 184.3555
L286.2808 184.4793
" />
<path d="M286.2808 184.4793
L286.3427 184.6031
" />
<path d="M286.3427 184.6031
L286.4046 184.8507
" />
<path d="M286.4046 184.8507
L286.4046 185.0365
" />
<path d="M286.4046 185.0365
L286.3427 185.2841
" />
<path d="M286.3427 185.2841
L286.2808 185.4079
" />
<path d="M286.2808 185.4079
L286.1570 185.5317
" />
<path d="M286.1570 185.5317
L285.9712 185.5936
" />
<path d="M285.9712 185.5936
L285.6617 185.5936
" />
</g></g>
<g style="fill:#000000; fill-opacity:0.0; 
stroke:#000000; stroke-width:0.0212; stroke-opacity:1; 
stroke-linecap:round; stroke-linejoin:round;">
</g>
<g style="fill:#000000; fill-opacity:0.0; 
stroke:#000000; stroke-width:0.1500; stroke-opacity:1; 
stroke-linecap:round; stroke-linejoin:round;">
<text x="200.0022" y="193.8572"
textLength="7.0071" font-size="2.0000" lengthAdjust="spacingAndGlyphs"
text-anchor="start" opacity="0">Date: </text>
<g class="stroked-text"><desc>Date: </desc>
<path d="M200.4580 193.7933
L200.4580 192.2933
" />
<path d="M200.4580 192.2933
L200.8152 192.2933
" />
<path d="M200.8152 192.2933
L201.0295 192.3648
" />
<path d="M201.0295 192.3648
L201.1723 192.5076
" />
<path d="M201.1723 192.5076
L201.2437 192.6505
" />
<path d="M201.2437 192.6505
L201.3152 192.9362
" />
<path d="M201.3152 192.9362
L201.3152 193.1505
" />
<path d="M201.3152 193.1505
L201.2437 193.4362
" />
<path d="M201.2437 193.4362
L201.1723 193.5790
" />
<path d="M201.1723 193.5790
L201.0295 193.7219
" />
<path d="M201.0295 193.7219
L200.8152 193.7933
" />
<path d="M200.8152 193.7933
L200.4580 193.7933
" />
<path d="M202.6009 193.7933
L202.6009 193.0076
" />
<path d="M202.6009 193.0076
L202.5295 192.8648
" />
<path d="M202.5295 192.8648
L202.3866 192.7933
" />
<path d="M202.3866 192.7933
L202.1009 192.7933
" />
<path d="M202.1009 192.7933
L201.9580 192.8648
" />
<path d="M202.6009 193.7219
L202.4580 193.7933
" />
<path d="M202.4580 193.7933
L202.1009 193.7933
" />
<path d="M202.1009 193.7933
L201.9580 193.7219
" />
<path d="M201.9580 193.7219
L201.8866 193.5790
" />
<path d="M201.8866 193.5790
L201.8866 193.4362
" />
<path d="M201.8866 193.4362
L201.9580 193.2933
" />
<path d="M201.9580 193.2933
L202.1009 193.2219
" />
<path d="M202.1009 193.2219
L202.4580 193.2219
" />
<path d="M202.4580 193.2219
L202.6009 193.1505
" />
<path d="M203.1009 192.7933
L203.6723 192.7933
" />
<path d="M203.3152 192.2933
L203.3152 193.5790
" />
<path d="M203.3152 193.5790
L203.3866 193.7219
" />
<path d="M203.3866 193.7219
L203.5295 193.7933
" />
<path d="M203.5295 193.7933
L203.6723 193.7933
" />
<path d="M204.7437 193.7219
L204.6009 193.7933
" />
<path d="M204.6009 193.7933
L204.3152 193.7933
" />
<path d="M204.3152 193.7933
L204.1723 193.7219
" />
<path d="M204.1723 193.7219
L204.1009 193.5790
" />
<path d="M204.1009 193.5790
L204.1009 193.0076
" />
<path d="M204.1009 193.0076
L204.1723 192.8648
" />
<path d="M204.1723 192.8648
L204.3152 192.7933
" />
<path d="M204.3152 192.7933
L204.6009 192.7933
" />
<path d="M204.6009 192.7933
L204.7437 192.8648
" />
<path d="M204.7437 192.8648
L204.8152 193.0076
" />
<path d="M204.8152 193.0076
L204.8152 193.1505
" />
<path d="M204.8152 193.1505
L204.1009 193.2933
" />
<path d="M205.4580 193.6505
L205.5295 193.7219
" />
<path d="M205.5295 193.7219
L205.4580 193.7933
" />
<path d="M205.4580 193.7933
L205.3866 193.7219
" />
<path d="M205.3866 193.7219
L205.4580 193.6505
" />
<path d="M205.4580 193.6505
L205.4580 193.7933
" />
<path d="M205.4580 192.8648
L205.5295 192.9362
" />
<path d="M205.5295 192.9362
L205.4580 193.0076
" />
<path d="M205.4580 193.0076
L205.3866 192.9362
" />
<path d="M205.3866 192.9362
L205.4580 192.8648
" />
<path d="M205.4580 192.8648
L205.4580 193.0076
" />
</g></g>
<g style="fill:#000000; fill-opacity:0.0; 
stroke:#000000; stroke-width:0.0212; stroke-opacity:1; 
stroke-linecap:round; stroke-linejoin:round;">
</g>
<g style="fill:#000000; fill-opacity:0.0; 
stroke:#000000; stroke-width:0.1500; stroke-opacity:1; 
stroke-linecap:round; stroke-linejoin:round;">
<path d="M177.0022 194.5072
L285.0022 194.5072
" />
</g>
<g style="fill:#000000; fill-opacity:0.0; 
stroke:#000000; stroke-width:0.0212; stroke-opacity:1; 
stroke-linecap:round; stroke-linejoin:round;">
</g>
<g style="fill:#000000; fill-opacity:0.0; 
stroke:#000000; stroke-width:0.1500; stroke-opacity:1; 
stroke-linecap:round; stroke-linejoin:round;">
<text x="178.0022" y="196.6572"
textLength="30.5071" font-size="2.0000" lengthAdjust="spacingAndGlyphs"
text-anchor="start" opacity="0">KiCad E.D.A.  kicad 7.0.10</text>
<g class="stroked-text"><desc>KiCad E.D.A.  kicad 7.0.10</desc>
<path d="M178.4580 196.5933
L178.4580 195.0933
" />
<path d="M179.3152 196.5933
L178.6723 195.7362
" />
<path d="M179.3152 195.0933
L178.4580 195.9505
" />
<path d="M179.9580 196.5933
L179.9580 195.5933
" />
<path d="M179.9580 195.0933
L179.8866 195.1648
" />
<path d="M179.8866 195.1648
L179.9580 195.2362
" />
<path d="M179.9580 195.2362
L180.0295 195.1648
" />
<path d="M180.0295 195.1648
L179.9580 195.0933
" />
<path d="M179.9580 195.0933
L179.9580 195.2362
" />
<path d="M181.5295 196.4505
L181.4580 196.5219
" />
<path d="M181.4580 196.5219
L181.2437 196.5933
" />
<path d="M181.2437 196.5933
L181.1009 196.5933
" />
<path d="M181.1009 196.5933
L180.8866 196.5219
" />
<path d="M180.8866 196.5219
L180.7437 196.3790
" />
<path d="M180.7437 196.3790
L180.6723 196.2362
" />
<path d="M180.6723 196.2362
L180.6009 195.9505
" />
<path d="M180.6009 195.9505
L180.6009 195.7362
" />
<path d="M180.6009 195.7362
L180.6723 195.4505
" />
<path d="M180.6723 195.4505
L180.7437 195.3076
" />
<path d="M180.7437 195.3076
L180.8866 195.1648
" />
<path d="M180.8866 195.1648
L181.1009 195.0933
" />
<path d="M181.1009 195.0933
L181.2437 195.0933
" />
<path d="M181.2437 195.0933
L181.4580 195.1648
" />
<path d="M181.4580 195.1648
L181.5295 195.2362
" />
<path d="M182.8152 196.5933
L182.8152 195.8076
" />
<path d="M182.8152 195.8076
L182.7437 195.6648
" />
<path d="M182.7437 195.6648
L182.6009 195.5933
" />
<path d="M182.6009 195.5933
L182.3152 195.5933
" />
<path d="M182.3152 195.5933
L182.1723 195.6648
" />
<path d="M182.8152 196.5219
L182.6723 196.5933
" />
<path d="M182.6723 196.5933
L182.3152 196.5933
" />
<path d="M182.3152 196.5933
L182.1723 196.5219
" />
<path d="M182.1723 196.5219
L182.1009 196.3790
" />
<path d="M182.1009 196.3790
L182.1009 196.2362
" />
<path d="M182.1009 196.2362
L182.1723 196.0933
" />
<path d="M182.1723 196.0933
L182.3152 196.0219
" />
<path d="M182.3152 196.0219
L182.6723 196.0219
" />
<path d="M182.6723 196.0219
L182.8152 195.9505
" />
<path d="M184.1723 196.5933
L184.1723 195.0933
" />
<path d="M184.1723 196.5219
L184.0295 196.5933
" />
<path d="M184.0295 196.5933
L183.7437 196.5933
" />
<path d="M183.7437 196.5933
L183.6009 196.5219
" />
<path d="M183.6009 196.5219
L183.5295 196.4505
" />
<path d="M183.5295 196.4505
L183.4580 196.3076
" />
<path d="M183.4580 196.3076
L183.4580 195.8790
" />
<path d="M183.4580 195.8790
L183.5295 195.7362
" />
<path d="M183.5295 195.7362
L183.6009 195.6648
" />
<path d="M183.6009 195.6648
L183.7437 195.5933
" />
<path d="M183.7437 195.5933
L184.0295 195.5933
" />
<path d="M184.0295 195.5933
L184.1723 195.6648
" />
<path d="M186.0295 195.8076
L186.5295 195.8076
" />
<path d="M186.7437 196.5933
L186.0295 196.5933
" />
<path d="M186.0295 196.5933
L186.0295 195.0933
" />
<path d="M186.0295 195.0933
L186.7437 195.0933
" />
<path d="M187.3866 196.4505
L187.4580 196.5219
" />
<path d="M187.4580 196.5219
L187.3866 196.5933
" />
<path d="M187.3866 196.5933
L187.3152 196.5219
" />
<path d="M187.3152 196.5219
L187.3866 196.4505
" />
<path d="M187.3866 196.4505
L187.3866 196.5933
" />
<path d="M188.1009 196.5933
L188.1009 195.0933
" />
<path d="M188.1009 195.0933
L188.4580 195.0933
" />
<path d="M188.4580 195.0933
L188.6723 195.1648
" />
<path d="M188.6723 195.1648
L188.8152 195.3076
" />
<path d="M188.8152 195.3076
L188.8866 195.4505
" />
<path d="M188.8866 195.4505
L188.9580 195.7362
" />
<path d="M188.9580 195.7362
L188.9580 195.9505
" />
<path d="M188.9580 195.9505
L188.8866 196.2362
" />
<path d="M188.8866 196.2362
L188.8152 196.3790
" />
<path d="M188.8152 196.3790
L188.6723 196.5219
" />
<path d="M188.6723 196.5219
L188.4580 196.5933
" />
<path d="M188.4580 196.5933
L188.1009 196.5933
" />
<path d="M189.6009 196.4505
L189.6723 196.5219
" />
<path d="M189.6723 196.5219
L189.6009 196.5933
" />
<path d="M189.6009 196.5933
L189.5295 196.5219
" />
<path d="M189.5295 196.5219
L189.6009 196.4505
" />
<path d="M189.6009 196.4505
L189.6009 196.5933
" />
<path d="M190.2437 196.1648
L190.9580 196.1648
" />
<path d="M190.1009 196.5933
L190.6009 195.0933
" />
<path d="M190.6009 195.0933
L191.1009 196.5933
" />
<path d="M191.6009 196.4505
L191.6723 196.5219
" />
<path d="M191.6723 196.5219
L191.6009 196.5933
" />
<path d="M191.6009 196.5933
L191.5295 196.5219
" />
<path d="M191.5295 196.5219
L191.6009 196.4505
" />
<path d="M191.6009 196.4505
L191.6009 196.5933
" />
<path d="M194.6009 196.5933
L194.6009 195.0933
" />
<path d="M194.7437 196.0219
L195.1723 196.5933
" />
<path d="M195.1723 195.5933
L194.6009 196.1648
" />
<path d="M195.8152 196.5933
L195.8152 195.5933
" />
<path d="M195.8152 195.0933
L195.7437 195.1648
" />
<path d="M195.7437 195.1648
L195.8152 195.2362
" />
<path d="M195.8152 195.2362
L195.8866 195.1648
" />
<path d="M195.8866 195.1648
L195.8152 195.0933
" />
<path d="M195.8152 195.0933
L195.8152 195.2362
" />
<path d="M197.1723 196.5219
L197.0295 196.5933
" />
<path d="M197.0295 196.5933
L196.7437 196.5933
" />
<path d="M196.7437 196.5933
L196.6009 196.5219
" />
<path d="M196.6009 196.5219
L196.5295 196.4505
" />
<path d="M196.5295 196.4505
L196.4580 196.3076
" />
<path d="M196.4580 196.3076
L196.4580 195.8790
" />
<path d="M196.4580 195.8790
L196.5295 195.7362
" />
<path d="M196.5295 195.7362
L196.6009 195.6648
" />
<path d="M196.6009 195.6648
L196.7437 195.5933
" />
<path d="M196.7437 195.5933
L197.0295 195.5933
" />
<path d="M197.0295 195.5933
L197.1723 195.6648
" />
<path d="M198.4580 196.5933
L198.4580 195.8076
" />
<path d="M198.4580 195.8076
L198.3866 195.6648
" />
<path d="M198.3866 195.6648
L198.2437 195.5933
" />
<path d="M198.2437 195.5933
L197.9580 195.5933
" />
<path d="M197.9580 195.5933
L197.8152 195.6648
" />
<path d="M198.4580 196.5219
L198.3152 196.5933
" />
<path d="M198.3152 196.5933
L197.9580 196.5933
" />
<path d="M197.9580 196.5933
L197.8152 196.5219
" />
<path d="M197.8152 196.5219
L197.7437 196.3790
" />
<path d="M197.7437 196.3790
L197.7437 196.2362
" />
<path d="M197.7437 196.2362
L197.8152 196.0933
" />
<path d="M197.8152 196.0933
L197.9580 196.0219
" />
<path d="M197.9580 196.0219
L198.3152 196.0219
" />
<path d="M198.3152 196.0219
L198.4580 195.9505
" />
<path d="M199.8152 196.5933
L199.8152 195.0933
" />
<path d="M199.8152 196.5219
L199.6723 196.5933
" />
<path d="M199.6723 196.5933
L199.3866 196.5933
" />
<path d="M199.3866 196.5933
L199.2437 196.5219
" />
<path d="M199.2437 196.5219
L199.1723 196.4505
" />
<path d="M199.1723 196.4505
L199.1009 196.3076
" />
<path d="M199.1009 196.3076
L199.1009 195.8790
" />
<path d="M199.1009 195.8790
L199.1723 195.7362
" />
<path d="M199.1723 195.7362
L199.2437 195.6648
" />
<path d="M199.2437 195.6648
L199.3866 195.5933
" />
<path d="M199.3866 195.5933
L199.6723 195.5933
" />
<path d="M199.6723 195.5933
L199.8152 195.6648
" />
<path d="M201.5295 195.0933
L202.5295 195.0933
" />
<path d="M202.5295 195.0933
L201.8866 196.5933
" />
<path d="M203.1009 196.4505
L203.1723 196.5219
" />
<path d="M203.1723 196.5219
L203.1009 196.5933
" />
<path d="M203.1009 196.5933
L203.0295 196.5219
" />
<path d="M203.0295 196.5219
L203.1009 196.4505
" />
<path d="M203.1009 196.4505
L203.1009 196.5933
" />
<path d="M204.1009 195.0933
L204.2437 195.0933
" />
<path d="M204.2437 195.0933
L204.3866 195.1648
" />
<path d="M204.3866 195.1648
L204.4580 195.2362
" />
<path d="M204.4580 195.2362
L204.5295 195.3790
" />
<path d="M204.5295 195.3790
L204.6009 195.6648
" />
<path d="M204.6009 195.6648
L204.6009 196.0219
" />
<path d="M204.6009 196.0219
L204.5295 196.3076
" />
<path d="M204.5295 196.3076
L204.4580 196.4505
" />
<path d="M204.4580 196.4505
L204.3866 196.5219
" />
<path d="M204.3866 196.5219
L204.2437 196.5933
" />
<path d="M204.2437 196.5933
L204.1009 196.5933
" />
<path d="M204.1009 196.5933
L203.9580 196.5219
" />
<path d="M203.9580 196.5219
L203.8866 196.4505
" />
<path d="M203.8866 196.4505
L203.8152 196.3076
" />
<path d="M203.8152 196.3076
L203.7437 196.0219
" />
<path d="M203.7437 196.0219
L203.7437 195.6648
" />
<path d="M203.7437 195.6648
L203.8152 195.3790
" />
<path d="M203.8152 195.3790
L203.8866 195.2362
" />
<path d="M203.8866 195.2362
L203.9580 195.1648
" />
<path d="M203.9580 195.1648
L204.1009 195.0933
" />
<path d="M205.2437 196.4505
L205.3152 196.5219
" />
<path d="M205.3152 196.5219
L205.2437 196.5933
" />
<path d="M205.2437 196.5933
L205.1723 196.5219
" />
<path d="M205.1723 196.5219
L205.2437 196.4505
" />
<path d="M205.2437 196.4505
L205.2437 196.5933
" />
<path d="M206.7437 196.5933
L205.8866 196.5933
" />
<path d="M206.3152 196.5933
L206.3152 195.0933
" />
<path d="M206.3152 195.0933
L206.1723 195.3076
" />
<path d="M206.1723 195.3076
L206.0295 195.4505
" />
<path d="M206.0295 195.4505
L205.8866 195.5219
" />
<path d="M207.6723 195.0933
L207.8152 195.0933
" />
<path d="M207.8152 195.0933
L207.9580 195.1648
" />
<path d="M207.9580 195.1648
L208.0295 195.2362
" />
<path d="M208.0295 195.2362
L208.1009 195.3790
" />
<path d="M208.1009 195.3790
L208.1723 195.6648
" />
<path d="M208.1723 195.6648
L208.1723 196.0219
" />
<path d="M208.1723 196.0219
L208.1009 196.3076
" />
<path d="M208.1009 196.3076
L208.0295 196.4505
" />
<path d="M208.0295 196.4505
L207.9580 196.5219
" />
<path d="M207.9580 196.5219
L207.8152 196.5933
" />
<path d="M207.8152 196.5933
L207.6723 196.5933
" />
<path d="M207.6723 196.5933
L207.5295 196.5219
" />
<path d="M207.5295 196.5219
L207.4580 196.4505
" />
<path d="M207.4580 196.4505
L207.3866 196.3076
" />
<path d="M207.3866 196.3076
L207.3152 196.0219
" />
<path d="M207.3152 196.0219
L207.3152 195.6648
" />
<path d="M207.3152 195.6648
L207.3866 195.3790
" />
<path d="M207.3866 195.3790
L207.4580 195.2362
" />
<path d="M207.4580 195.2362
L207.5295 195.1648
" />
<path d="M207.5295 195.1648
L207.6723 195.0933
" />
</g></g>
<g style="fill:#000000; fill-opacity:0.0; 
stroke:#000000; stroke-width:0.0212; stroke-opacity:1; 
stroke-linecap:round; stroke-linejoin:round;">
</g>
<g style="fill:#000000; fill-opacity:0.0; 
stroke:#000000; stroke-width:0.1500; stroke-opacity:1; 
stroke-linecap:round; stroke-linejoin:round;">
<path d="M177.0022 191.5072
L285.0022 191.5072
" />
</g>
<g style="fill:#000000; fill-opacity:0.0; 
stroke:#000000; stroke-width:0.0212; stroke-opacity:1; 
stroke-linecap:round; stroke-linejoin:round;">
</g>
<g style="fill:#000000; fill-opacity:0.0; 
stroke:#000000; stroke-width:0.3000; stroke-opacity:1; 
stroke-linecap:round; stroke-linejoin:round;">
<text x="263.0022" y="193.8572"
textLength="6.3857" font-size="2.0000" lengthAdjust="spacingAndGlyphs"
text-anchor="start" opacity="0">Rev: </text>
<g class="stroked-text"><desc>Rev: </desc>
<path d="M264.4139 193.7855
L263.9139 193.0712
" />
<path d="M263.5567 193.7855
L263.5567 192.2855
" />
<path d="M263.5567 192.2855
L264.1281 192.2855
" />
<path d="M264.1281 192.2855
L264.2710 192.3570
" />
<path d="M264.2710 192.3570
L264.3424 192.4284
" />
<path d="M264.3424 192.4284
L264.4139 192.5712
" />
<path d="M264.4139 192.5712
L264.4139 192.7855
" />
<path d="M264.4139 192.7855
L264.3424 192.9284
" />
<path d="M264.3424 192.9284
L264.2710 192.9998
" />
<path d="M264.2710 192.9998
L264.1281 193.0712
" />
<path d="M264.1281 193.0712
L263.5567 193.0712
" />
<path d="M265.6281 193.7141
L265.4853 193.7855
" />
<path d="M265.4853 193.7855
L265.1996 193.7855
" />
<path d="M265.1996 193.7855
L265.0567 193.7141
" />
<path d="M265.0567 193.7141
L264.9853 193.5712
" />
<path d="M264.9853 193.5712
L264.9853 192.9998
" />
<path d="M264.9853 192.9998
L265.0567 192.8570
" />
<path d="M265.0567 192.8570
L265.1996 192.7855
" />
<path d="M265.1996 192.7855
L265.4853 192.7855
" />
<path d="M265.4853 192.7855
L265.6281 192.8570
" />
<path d="M265.6281 192.8570
L265.6996 192.9998
" />
<path d="M265.6996 192.9998
L265.6996 193.1427
" />
<path d="M265.6996 193.1427
L264.9853 193.2855
" />
<path d="M266.1996 192.7855
L266.5567 193.7855
" />
<path d="M266.5567 193.7855
L266.9139 192.7855
" />
<path d="M267.4853 193.6427
L267.5567 193.7141
" />
<path d="M267.5567 193.7141
L267.4853 193.7855
" />
<path d="M267.4853 193.7855
L267.4139 193.7141
" />
<path d="M267.4139 193.7141
L267.4853 193.6427
" />
<path d="M267.4853 193.6427
L267.4853 193.7855
" />
<path d="M267.4853 192.8570
L267.5567 192.9284
" />
<path d="M267.5567 192.9284
L267.4853 192.9998
" />
<path d="M267.4853 192.9998
L267.4139 192.9284
" />
<path d="M267.4139 192.9284
L267.4853 192.8570
" />
<path d="M267.4853 192.8570
L267.4853 192.9998
" />
</g></g>
<g style="fill:#000000; fill-opacity:0.0; 
stroke:#000000; stroke-width:0.0212; stroke-opacity:1; 
stroke-linecap:round; stroke-linejoin:round;">
</g>
<g style="fill:#000000; fill-opacity:0.0; 
stroke:#000000; stroke-width:0.1500; stroke-opacity:1; 
stroke-linecap:round; stroke-linejoin:round;">
<text x="178.0022" y="193.8572"
textLength="9.3643" font-size="2.0000" lengthAdjust="spacingAndGlyphs"
text-anchor="start" opacity="0">Size: A4</text>
<g class="stroked-text"><desc>Size: A4</desc>
<path d="M178.3866 193.7219
L178.6009 193.7933
" />
<path d="M178.6009 193.7933
L178.9580 193.7933
" />
<path d="M178.9580 193.7933
L179.1009 193.7219
" />
<path d="M179.1009 193.7219
L179.1723 193.6505
" />
<path d="M179.1723 193.6505
L179.2437 193.5076
" />
<path d="M179.2437 193.5076
L179.2437 193.3648
" />
<path d="M179.2437 193.3648
L179.1723 193.2219
" />
<path d="M179.1723 193.2219
L179.1009 193.1505
" />
<path d="M179.1009 193.1505
L178.9580 193.0790
" />
<path d="M178.9580 193.0790
L178.6723 193.0076
" />
<path d="M178.6723 193.0076
L178.5295 192.9362
" />
<path d="M178.5295 192.9362
L178.4580 192.8648
" />
<path d="M178.4580 192.8648
L178.3866 192.7219
" />
<path d="M178.3866 192.7219
L178.3866 192.5790
" />
<path d="M178.3866 192.5790
L178.4580 192.4362
" />
<path d="M178.4580 192.4362
L178.5295 192.3648
" />
<path d="M178.5295 192.3648
L178.6723 192.2933
" />
<path d="M178.6723 192.2933
L179.0295 192.2933
" />
<path d="M179.0295 192.2933
L179.2437 192.3648
" />
<path d="M179.8866 193.7933
L179.8866 192.7933
" />
<path d="M179.8866 192.2933
L179.8152 192.3648
" />
<path d="M179.8152 192.3648
L179.8866 192.4362
" />
<path d="M179.8866 192.4362
L179.9580 192.3648
" />
<path d="M179.9580 192.3648
L179.8866 192.2933
" />
<path d="M179.8866 192.2933
L179.8866 192.4362
" />
<path d="M180.4580 192.7933
L181.2437 192.7933
" />
<path d="M181.2437 192.7933
L180.4580 193.7933
" />
<path d="M180.4580 193.7933
L181.2437 193.7933
" />
<path d="M182.3866 193.7219
L182.2437 193.7933
" />
<path d="M182.2437 193.7933
L181.9580 193.7933
" />
<path d="M181.9580 193.7933
L181.8152 193.7219
" />
<path d="M181.8152 193.7219
L181.7437 193.5790
" />
<path d="M181.7437 193.5790
L181.7437 193.0076
" />
<path d="M181.7437 193.0076
L181.8152 192.8648
" />
<path d="M181.8152 192.8648
L181.9580 192.7933
" />
<path d="M181.9580 192.7933
L182.2437 192.7933
" />
<path d="M182.2437 192.7933
L182.3866 192.8648
" />
<path d="M182.3866 192.8648
L182.4580 193.0076
" />
<path d="M182.4580 193.0076
L182.4580 193.1505
" />
<path d="M182.4580 193.1505
L181.7437 193.2933
" />
<path d="M183.1009 193.6505
L183.1723 193.7219
" />
<path d="M183.1723 193.7219
L183.1009 193.7933
" />
<path d="M183.1009 193.7933
L183.0295 193.7219
" />
<path d="M183.0295 193.7219
L183.1009 193.6505
" />
<path d="M183.1009 193.6505
L183.1009 193.7933
" />
<path d="M183.1009 192.8648
L183.1723 192.9362
" />
<path d="M183.1723 192.9362
L183.1009 193.0076
" />
<path d="M183.1009 193.0076
L183.0295 192.9362
" />
<path d="M183.0295 192.9362
L183.1009 192.8648
" />
<path d="M183.1009 192.8648
L183.1009 193.0076
" />
<path d="M184.8866 193.3648
L185.6009 193.3648
" />
<path d="M184.7437 193.7933
L185.2437 192.2933
" />
<path d="M185.2437 192.2933
L185.7437 193.7933
" />
<path d="M186.8866 192.7933
L186.8866 193.7933
" />
<path d="M186.5295 192.2219
L186.1723 193.2933
" />
<path d="M186.1723 193.2933
L187.1009 193.2933
" />
</g></g>
<g style="fill:#000000; fill-opacity:0.0; 
stroke:#000000; stroke-width:0.0212; stroke-opacity:1; 
stroke-linecap:round; stroke-linejoin:round;">
</g>
<g style="fill:#000000; fill-opacity:0.0; 
stroke:#000000; stroke-width:0.1500; stroke-opacity:1; 
stroke-linecap:round; stroke-linejoin:round;">
<text x="263.0022" y="196.6572"
textLength="8.5071" font-size="2.0000" lengthAdjust="spacingAndGlyphs"
text-anchor="start" opacity="0">Id: 1/1</text>
<g class="stroked-text"><desc>Id: 1/1</desc>
<path d="M263.4580 196.5933
L263.4580 195.0933
" />
<path d="M264.8152 196.5933
L264.8152 195.0933
" />
<path d="M264.8152 196.5219
L264.6723 196.5933
" />
<path d="M264.6723 196.5933
L264.3866 196.5933
" />
<path d="M264.3866 196.5933
L264.2437 196.5219
" />
<path d="M264.2437 196.5219
L264.1723 196.4505
" />
<path d="M264.1723 196.4505
L264.1009 196.3076
" />
<path d="M264.1009 196.3076
L264.1009 195.8790
" />
<path d="M264.1009 195.8790
L264.1723 195.7362
" />
<path d="M264.1723 195.7362
L264.2437 195.6648
" />
<path d="M264.2437 195.6648
L264.3866 195.5933
" />
<path d="M264.3866 195.5933
L264.6723 195.5933
" />
<path d="M264.6723 195.5933
L264.8152 195.6648
" />
<path d="M265.5295 196.4505
L265.6009 196.5219
" />
<path d="M265.6009 196.5219
L265.5295 196.5933
" />
<path d="M265.5295 196.5933
L265.4580 196.5219
" />
<path d="M265.4580 196.5219
L265.5295 196.4505
" />
<path d="M265.5295 196.4505
L265.5295 196.5933
" />
<path d="M265.5295 195.6648
L265.6009 195.7362
" />
<path d="M265.6009 195.7362
L265.5295 195.8076
" />
<path d="M265.5295 195.8076
L265.4580 195.7362
" />
<path d="M265.4580 195.7362
L265.5295 195.6648
" />
<path d="M265.5295 195.6648
L265.5295 195.8076
" />
<path d="M268.1723 196.5933
L267.3152 196.5933
" />
<path d="M267.7437 196.5933
L267.7437 195.0933
" />
<path d="M267.7437 195.0933
L267.6009 195.3076
" />
<path d="M267.6009 195.3076
L267.4580 195.4505
" />
<path d="M267.4580 195.4505
L267.3152 195.5219
" />
<path d="M269.8866 195.0219
L268.6009 196.9505
" />
<path d="M271.1723 196.5933
L270.3152 196.5933
" />
<path d="M270.7437 196.5933
L270.7437 195.0933
" />
<path d="M270.7437 195.0933
L270.6009 195.3076
" />
<path d="M270.6009 195.3076
L270.4580 195.4505
" />
<path d="M270.4580 195.4505
L270.3152 195.5219
" />
</g></g>
<g style="fill:#000000; fill-opacity:0.0; 
stroke:#000000; stroke-width:0.0212; stroke-opacity:1; 
stroke-linecap:round; stroke-linejoin:round;">
</g>
<g style="fill:#000000; fill-opacity:0.0; 
stroke:#000000; stroke-width:0.1500; stroke-opacity:1; 
stroke-linecap:round; stroke-linejoin:round;">
<path d="M177.0022 187.5072
L285.0022 187.5072
" />
</g>
<g style="fill:#000000; fill-opacity:0.0; 
stroke:#000000; stroke-width:0.0212; stroke-opacity:1; 
stroke-linecap:round; stroke-linejoin:round;">
</g>
<g style="fill:#000000; fill-opacity:0.0; 
stroke:#000000; stroke-width:0.4000; stroke-opacity:1; 
stroke-linecap:round; stroke-linejoin:round;">
<text x="178.0022" y="190.3072"
textLength="9.6571" font-size="2.6667" lengthAdjust="spacingAndGlyphs"
text-anchor="start" opacity="0">Title: </text>
<g class="stroked-text"><desc>Title: </desc>
<path d="M178.6939 188.2116
L179.8368 188.2116
" />
<path d="M179.0154 190.2116
L179.2654 188.2116
" />
<path d="M180.2535 190.2116
L180.4201 188.8783
" />
<path d="M180.5035 188.2116
L180.3963 188.3069
" />
<path d="M180.3963 188.3069
L180.4796 188.4021
" />
<path d="M180.4796 188.4021
L180.5868 188.3069
" />
<path d="M180.5868 188.3069
L180.5035 188.2116
" />
<path d="M180.5035 188.2116
L180.4796 188.4021
" />
<path d="M181.0868 188.8783
L181.8487 188.8783
" />
<path d="M181.4558 188.2116
L181.2415 189.9259
" />
<path d="M181.2415 189.9259
L181.3130 190.1164
" />
<path d="M181.3130 190.1164
L181.4915 190.2116
" />
<path d="M181.4915 190.2116
L181.6820 190.2116
" />
<path d="M182.6344 190.2116
L182.4558 190.1164
" />
<path d="M182.4558 190.1164
L182.3844 189.9259
" />
<path d="M182.3844 189.9259
L182.5987 188.2116
" />
<path d="M184.1701 190.1164
L183.9677 190.2116
" />
<path d="M183.9677 190.2116
L183.5868 190.2116
" />
<path d="M183.5868 190.2116
L183.4082 190.1164
" />
<path d="M183.4082 190.1164
L183.3368 189.9259
" />
<path d="M183.3368 189.9259
L183.4320 189.1640
" />
<path d="M183.4320 189.1640
L183.5511 188.9735
" />
<path d="M183.5511 188.9735
L183.7535 188.8783
" />
<path d="M183.7535 188.8783
L184.1344 188.8783
" />
<path d="M184.1344 188.8783
L184.3130 188.9735
" />
<path d="M184.3130 188.9735
L184.3844 189.1640
" />
<path d="M184.3844 189.1640
L184.3606 189.3545
" />
<path d="M184.3606 189.3545
L183.3844 189.5450
" />
<path d="M185.1344 190.0212
L185.2177 190.1164
" />
<path d="M185.2177 190.1164
L185.1106 190.2116
" />
<path d="M185.1106 190.2116
L185.0273 190.1164
" />
<path d="M185.0273 190.1164
L185.1344 190.0212
" />
<path d="M185.1344 190.0212
L185.1106 190.2116
" />
<path d="M185.2654 188.9735
L185.3487 189.0688
" />
<path d="M185.3487 189.0688
L185.2415 189.1640
" />
<path d="M185.2415 189.1640
L185.1582 189.0688
" />
<path d="M185.1582 189.0688
L185.2654 188.9735
" />
<path d="M185.2654 188.9735
L185.2415 189.1640
" />
</g></g>
<g style="fill:#000000; fill-opacity:0.0; 
stroke:#000000; stroke-width:0.0212; stroke-opacity:1; 
stroke-linecap:round; stroke-linejoin:round;">
</g>
<g style="fill:#000000; fill-opacity:0.0; 
stroke:#000000; stroke-width:0.1500; stroke-opacity:1; 
stroke-linecap:round; stroke-linejoin:round;">
<text x="178.0022" y="186.4572"
textLength="32.1500" font-size="2.0000" lengthAdjust="spacingAndGlyphs"
text-anchor="start" opacity="0">File: RF_Race_Car.kicad_pcb</text>
<g class="stroked-text"><desc>File: RF_Race_Car.kicad_pcb</desc>
<path d="M178.9580 185.6076
L178.4580 185.6076
" />
<path d="M178.4580 186.3933
L178.4580 184.8933
" />
<path d="M178.4580 184.8933
L179.1723 184.8933
" />
<path d="M179.7437 186.3933
L179.7437 185.3933
" />
<path d="M179.7437 184.8933
L179.6723 184.9648
" />
<path d="M179.6723 184.9648
L179.7437 185.0362
" />
<path d="M179.7437 185.0362
L179.8152 184.9648
" />
<path d="M179.8152 184.9648
L179.7437 184.8933
" />
<path d="M179.7437 184.8933
L179.7437 185.0362
" />
<path d="M180.6723 186.3933
L180.5295 186.3219
" />
<path d="M180.5295 186.3219
L180.4580 186.1790
" />
<path d="M180.4580 186.1790
L180.4580 184.8933
" />
<path d="M181.8152 186.3219
L181.6723 186.3933
" />
<path d="M181.6723 186.3933
L181.3866 186.3933
" />
<path d="M181.3866 186.3933
L181.2437 186.3219
" />
<path d="M181.2437 186.3219
L181.1723 186.1790
" />
<path d="M181.1723 186.1790
L181.1723 185.6076
" />
<path d="M181.1723 185.6076
L181.2437 185.4648
" />
<path d="M181.2437 185.4648
L181.3866 185.3933
" />
<path d="M181.3866 185.3933
L181.6723 185.3933
" />
<path d="M181.6723 185.3933
L181.8152 185.4648
" />
<path d="M181.8152 185.4648
L181.8866 185.6076
" />
<path d="M181.8866 185.6076
L181.8866 185.7505
" />
<path d="M181.8866 185.7505
L181.1723 185.8933
" />
<path d="M182.5295 186.2505
L182.6009 186.3219
" />
<path d="M182.6009 186.3219
L182.5295 186.3933
" />
<path d="M182.5295 186.3933
L182.4580 186.3219
" />
<path d="M182.4580 186.3219
L182.5295 186.2505
" />
<path d="M182.5295 186.2505
L182.5295 186.3933
" />
<path d="M182.5295 185.4648
L182.6009 185.5362
" />
<path d="M182.6009 185.5362
L182.5295 185.6076
" />
<path d="M182.5295 185.6076
L182.4580 185.5362
" />
<path d="M182.4580 185.5362
L182.5295 185.4648
" />
<path d="M182.5295 185.4648
L182.5295 185.6076
" />
<path d="M185.2437 186.3933
L184.7437 185.6790
" />
<path d="M184.3866 186.3933
L184.3866 184.8933
" />
<path d="M184.3866 184.8933
L184.9580 184.8933
" />
<path d="M184.9580 184.8933
L185.1009 184.9648
" />
<path d="M185.1009 184.9648
L185.1723 185.0362
" />
<path d="M185.1723 185.0362
L185.2437 185.1790
" />
<path d="M185.2437 185.1790
L185.2437 185.3933
" />
<path d="M185.2437 185.3933
L185.1723 185.5362
" />
<path d="M185.1723 185.5362
L185.1009 185.6076
" />
<path d="M185.1009 185.6076
L184.9580 185.6790
" />
<path d="M184.9580 185.6790
L184.3866 185.6790
" />
<path d="M186.3866 185.6076
L185.8866 185.6076
" />
<path d="M185.8866 186.3933
L185.8866 184.8933
" />
<path d="M185.8866 184.8933
L186.6009 184.8933
" />
<path d="M186.8152 186.5362
L187.9580 186.5362
" />
<path d="M189.1723 186.3933
L188.6723 185.6790
" />
<path d="M188.3152 186.3933
L188.3152 184.8933
" />
<path d="M188.3152 184.8933
L188.8866 184.8933
" />
<path d="M188.8866 184.8933
L189.0295 184.9648
" />
<path d="M189.0295 184.9648
L189.1009 185.0362
" />
<path d="M189.1009 185.0362
L189.1723 185.1790
" />
<path d="M189.1723 185.1790
L189.1723 185.3933
" />
<path d="M189.1723 185.3933
L189.1009 185.5362
" />
<path d="M189.1009 185.5362
L189.0295 185.6076
" />
<path d="M189.0295 185.6076
L188.8866 185.6790
" />
<path d="M188.8866 185.6790
L188.3152 185.6790
" />
<path d="M190.4580 186.3933
L190.4580 185.6076
" />
<path d="M190.4580 185.6076
L190.3866 185.4648
" />
<path d="M190.3866 185.4648
L190.2437 185.3933
" />
<path d="M190.2437 185.3933
L189.9580 185.3933
" />
<path d="M189.9580 185.3933
L189.8152 185.4648
" />
<path d="M190.4580 186.3219
L190.3152 186.3933
" />
<path d="M190.3152 186.3933
L189.9580 186.3933
" />
<path d="M189.9580 186.3933
L189.8152 186.3219
" />
<path d="M189.8152 186.3219
L189.7437 186.1790
" />
<path d="M189.7437 186.1790
L189.7437 186.0362
" />
<path d="M189.7437 186.0362
L189.8152 185.8933
" />
<path d="M189.8152 185.8933
L189.9580 185.8219
" />
<path d="M189.9580 185.8219
L190.3152 185.8219
" />
<path d="M190.3152 185.8219
L190.4580 185.7505
" />
<path d="M191.8152 186.3219
L191.6723 186.3933
" />
<path d="M191.6723 186.3933
L191.3866 186.3933
" />
<path d="M191.3866 186.3933
L191.2437 186.3219
" />
<path d="M191.2437 186.3219
L191.1723 186.2505
" />
<path d="M191.1723 186.2505
L191.1009 186.1076
" />
<path d="M191.1009 186.1076
L191.1009 185.6790
" />
<path d="M191.1009 185.6790
L191.1723 185.5362
" />
<path d="M191.1723 185.5362
L191.2437 185.4648
" />
<path d="M191.2437 185.4648
L191.3866 185.3933
" />
<path d="M191.3866 185.3933
L191.6723 185.3933
" />
<path d="M191.6723 185.3933
L191.8152 185.4648
" />
<path d="M193.0295 186.3219
L192.8866 186.3933
" />
<path d="M192.8866 186.3933
L192.6009 186.3933
" />
<path d="M192.6009 186.3933
L192.4580 186.3219
" />
<path d="M192.4580 186.3219
L192.3866 186.1790
" />
<path d="M192.3866 186.1790
L192.3866 185.6076
" />
<path d="M192.3866 185.6076
L192.4580 185.4648
" />
<path d="M192.4580 185.4648
L192.6009 185.3933
" />
<path d="M192.6009 185.3933
L192.8866 185.3933
" />
<path d="M192.8866 185.3933
L193.0295 185.4648
" />
<path d="M193.0295 185.4648
L193.1009 185.6076
" />
<path d="M193.1009 185.6076
L193.1009 185.7505
" />
<path d="M193.1009 185.7505
L192.3866 185.8933
" />
<path d="M193.3866 186.5362
L194.5295 186.5362
" />
<path d="M195.7437 186.2505
L195.6723 186.3219
" />
<path d="M195.6723 186.3219
L195.4580 186.3933
" />
<path d="M195.4580 186.3933
L195.3152 186.3933
" />
<path d="M195.3152 186.3933
L195.1009 186.3219
" />
<path d="M195.1009 186.3219
L194.9580 186.1790
" />
<path d="M194.9580 186.1790
L194.8866 186.0362
" />
<path d="M194.8866 186.0362
L194.8152 185.7505
" />
<path d="M194.8152 185.7505
L194.8152 185.5362
" />
<path d="M194.8152 185.5362
L194.8866 185.2505
" />
<path d="M194.8866 185.2505
L194.9580 185.1076
" />
<path d="M194.9580 185.1076
L195.1009 184.9648
" />
<path d="M195.1009 184.9648
L195.3152 184.8933
" />
<path d="M195.3152 184.8933
L195.4580 184.8933
" />
<path d="M195.4580 184.8933
L195.6723 184.9648
" />
<path d="M195.6723 184.9648
L195.7437 185.0362
" />
<path d="M197.0295 186.3933
L197.0295 185.6076
" />
<path d="M197.0295 185.6076
L196.9580 185.4648
" />
<path d="M196.9580 185.4648
L196.8152 185.3933
" />
<path d="M196.8152 185.3933
L196.5295 185.3933
" />
<path d="M196.5295 185.3933
L196.3866 185.4648
" />
<path d="M197.0295 186.3219
L196.8866 186.3933
" />
<path d="M196.8866 186.3933
L196.5295 186.3933
" />
<path d="M196.5295 186.3933
L196.3866 186.3219
" />
<path d="M196.3866 186.3219
L196.3152 186.1790
" />
<path d="M196.3152 186.1790
L196.3152 186.0362
" />
<path d="M196.3152 186.0362
L196.3866 185.8933
" />
<path d="M196.3866 185.8933
L196.5295 185.8219
" />
<path d="M196.5295 185.8219
L196.8866 185.8219
" />
<path d="M196.8866 185.8219
L197.0295 185.7505
" />
<path d="M197.7437 186.3933
L197.7437 185.3933
" />
<path d="M197.7437 185.6790
L197.8152 185.5362
" />
<path d="M197.8152 185.5362
L197.8866 185.4648
" />
<path d="M197.8866 185.4648
L198.0295 185.3933
" />
<path d="M198.0295 185.3933
L198.1723 185.3933
" />
<path d="M198.6723 186.2505
L198.7437 186.3219
" />
<path d="M198.7437 186.3219
L198.6723 186.3933
" />
<path d="M198.6723 186.3933
L198.6009 186.3219
" />
<path d="M198.6009 186.3219
L198.6723 186.2505
" />
<path d="M198.6723 186.2505
L198.6723 186.3933
" />
<path d="M199.3866 186.3933
L199.3866 184.8933
" />
<path d="M199.5295 185.8219
L199.9580 186.3933
" />
<path d="M199.9580 185.3933
L199.3866 185.9648
" />
<path d="M200.6009 186.3933
L200.6009 185.3933
" />
<path d="M200.6009 184.8933
L200.5295 184.9648
" />
<path d="M200.5295 184.9648
L200.6009 185.0362
" />
<path d="M200.6009 185.0362
L200.6723 184.9648
" />
<path d="M200.6723 184.9648
L200.6009 184.8933
" />
<path d="M200.6009 184.8933
L200.6009 185.0362
" />
<path d="M201.9580 186.3219
L201.8152 186.3933
" />
<path d="M201.8152 186.3933
L201.5295 186.3933
" />
<path d="M201.5295 186.3933
L201.3866 186.3219
" />
<path d="M201.3866 186.3219
L201.3152 186.2505
" />
<path d="M201.3152 186.2505
L201.2437 186.1076
" />
<path d="M201.2437 186.1076
L201.2437 185.6790
" />
<path d="M201.2437 185.6790
L201.3152 185.5362
" />
<path d="M201.3152 185.5362
L201.3866 185.4648
" />
<path d="M201.3866 185.4648
L201.5295 185.3933
" />
<path d="M201.5295 185.3933
L201.8152 185.3933
" />
<path d="M201.8152 185.3933
L201.9580 185.4648
" />
<path d="M203.2437 186.3933
L203.2437 185.6076
" />
<path d="M203.2437 185.6076
L203.1723 185.4648
" />
<path d="M203.1723 185.4648
L203.0295 185.3933
" />
<path d="M203.0295 185.3933
L202.7437 185.3933
" />
<path d="M202.7437 185.3933
L202.6009 185.4648
" />
<path d="M203.2437 186.3219
L203.1009 186.3933
" />
<path d="M203.1009 186.3933
L202.7437 186.3933
" />
<path d="M202.7437 186.3933
L202.6009 186.3219
" />
<path d="M202.6009 186.3219
L202.5295 186.1790
" />
<path d="M202.5295 186.1790
L202.5295 186.0362
" />
<path d="M202.5295 186.0362
L202.6009 185.8933
" />
<path d="M202.6009 185.8933
L202.7437 185.8219
" />
<path d="M202.7437 185.8219
L203.1009 185.8219
" />
<path d="M203.1009 185.8219
L203.2437 185.7505
" />
<path d="M204.6009 186.3933
L204.6009 184.8933
" />
<path d="M204.6009 186.3219
L204.4580 186.3933
" />
<path d="M204.4580 186.3933
L204.1723 186.3933
" />
<path d="M204.1723 186.3933
L204.0295 186.3219
" />
<path d="M204.0295 186.3219
L203.9580 186.2505
" />
<path d="M203.9580 186.2505
L203.8866 186.1076
" />
<path d="M203.8866 186.1076
L203.8866 185.6790
" />
<path d="M203.8866 185.6790
L203.9580 185.5362
" />
<path d="M203.9580 185.5362
L204.0295 185.4648
" />
<path d="M204.0295 185.4648
L204.1723 185.3933
" />
<path d="M204.1723 185.3933
L204.4580 185.3933
" />
<path d="M204.4580 185.3933
L204.6009 185.4648
" />
<path d="M204.9580 186.5362
L206.1009 186.5362
" />
<path d="M206.4580 185.3933
L206.4580 186.8933
" />
<path d="M206.4580 185.4648
L206.6009 185.3933
" />
<path d="M206.6009 185.3933
L206.8866 185.3933
" />
<path d="M206.8866 185.3933
L207.0295 185.4648
" />
<path d="M207.0295 185.4648
L207.1009 185.5362
" />
<path d="M207.1009 185.5362
L207.1723 185.6790
" />
<path d="M207.1723 185.6790
L207.1723 186.1076
" />
<path d="M207.1723 186.1076
L207.1009 186.2505
" />
<path d="M207.1009 186.2505
L207.0295 186.3219
" />
<path d="M207.0295 186.3219
L206.8866 186.3933
" />
<path d="M206.8866 186.3933
L206.6009 186.3933
" />
<path d="M206.6009 186.3933
L206.4580 186.3219
" />
<path d="M208.4580 186.3219
L208.3152 186.3933
" />
<path d="M208.3152 186.3933
L208.0295 186.3933
" />
<path d="M208.0295 186.3933
L207.8866 186.3219
" />
<path d="M207.8866 186.3219
L207.8152 186.2505
" />
<path d="M207.8152 186.2505
L207.7437 186.1076
" />
<path d="M207.7437 186.1076
L207.7437 185.6790
" />
<path d="M207.7437 185.6790
L207.8152 185.5362
" />
<path d="M207.8152 185.5362
L207.8866 185.4648
" />
<path d="M207.8866 185.4648
L208.0295 185.3933
" />
<path d="M208.0295 185.3933
L208.3152 185.3933
" />
<path d="M208.3152 185.3933
L208.4580 185.4648
" />
<path d="M209.1009 186.3933
L209.1009 184.8933
" />
<path d="M209.1009 185.4648
L209.2437 185.3933
" />
<path d="M209.2437 185.3933
L209.5295 185.3933
" />
<path d="M209.5295 185.3933
L209.6723 185.4648
" />
<path d="M209.6723 185.4648
L209.7437 185.5362
" />
<path d="M209.7437 185.5362
L209.8152 185.6790
" />
<path d="M209.8152 185.6790
L209.8152 186.1076
" />
<path d="M209.8152 186.1076
L209.7437 186.2505
" />
<path d="M209.7437 186.2505
L209.6723 186.3219
" />
<path d="M209.6723 186.3219
L209.5295 186.3933
" />
<path d="M209.5295 186.3933
L209.2437 186.3933
" />
<path d="M209.2437 186.3933
L209.1009 186.3219
" />
</g></g>
<g style="fill:#000000; fill-opacity:0.0; 
stroke:#000000; stroke-width:0.0212; stroke-opacity:1; 
stroke-linecap:round; stroke-linejoin:round;">
</g>
<g style="fill:#000000; fill-opacity:0.0; 
stroke:#000000; stroke-width:0.1500; stroke-opacity:1; 
stroke-linecap:round; stroke-linejoin:round;">
<path d="M177.0022 181.5072
L285.0022 181.5072
" />
</g>
<g style="fill:#000000; fill-opacity:0.0; 
stroke:#000000; stroke-width:0.0212; stroke-opacity:1; 
stroke-linecap:round; stroke-linejoin:round;">
</g>
<g style="fill:#000000; fill-opacity:0.0; 
stroke:#000000; stroke-width:0.1500; stroke-opacity:1; 
stroke-linecap:round; stroke-linejoin:round;">
<text x="178.0022" y="183.7572"
textLength="8.2214" font-size="2.0000" lengthAdjust="spacingAndGlyphs"
text-anchor="start" opacity="0">Sheet: </text>
<g class="stroked-text"><desc>Sheet: </desc>
<path d="M178.3866 183.6219
L178.6009 183.6933
" />
<path d="M178.6009 183.6933
L178.9580 183.6933
" />
<path d="M178.9580 183.6933
L179.1009 183.6219
" />
<path d="M179.1009 183.6219
L179.1723 183.5505
" />
<path d="M179.1723 183.5505
L179.2437 183.4076
" />
<path d="M179.2437 183.4076
L179.2437 183.2648
" />
<path d="M179.2437 183.2648
L179.1723 183.1219
" />
<path d="M179.1723 183.1219
L179.1009 183.0505
" />
<path d="M179.1009 183.0505
L178.9580 182.9790
" />
<path d="M178.9580 182.9790
L178.6723 182.9076
" />
<path d="M178.6723 182.9076
L178.5295 182.8362
" />
<path d="M178.5295 182.8362
L178.4580 182.7648
" />
<path d="M178.4580 182.7648
L178.3866 182.6219
" />
<path d="M178.3866 182.6219
L178.3866 182.4790
" />
<path d="M178.3866 182.4790
L178.4580 182.3362
" />
<path d="M178.4580 182.3362
L178.5295 182.2648
" />
<path d="M178.5295 182.2648
L178.6723 182.1933
" />
<path d="M178.6723 182.1933
L179.0295 182.1933
" />
<path d="M179.0295 182.1933
L179.2437 182.2648
" />
<path d="M179.8866 183.6933
L179.8866 182.1933
" />
<path d="M180.5295 183.6933
L180.5295 182.9076
" />
<path d="M180.5295 182.9076
L180.4580 182.7648
" />
<path d="M180.4580 182.7648
L180.3152 182.6933
" />
<path d="M180.3152 182.6933
L180.1009 182.6933
" />
<path d="M180.1009 182.6933
L179.9580 182.7648
" />
<path d="M179.9580 182.7648
L179.8866 182.8362
" />
<path d="M181.8152 183.6219
L181.6723 183.6933
" />
<path d="M181.6723 183.6933
L181.3866 183.6933
" />
<path d="M181.3866 183.6933
L181.2437 183.6219
" />
<path d="M181.2437 183.6219
L181.1723 183.4790
" />
<path d="M181.1723 183.4790
L181.1723 182.9076
" />
<path d="M181.1723 182.9076
L181.2437 182.7648
" />
<path d="M181.2437 182.7648
L181.3866 182.6933
" />
<path d="M181.3866 182.6933
L181.6723 182.6933
" />
<path d="M181.6723 182.6933
L181.8152 182.7648
" />
<path d="M181.8152 182.7648
L181.8866 182.9076
" />
<path d="M181.8866 182.9076
L181.8866 183.0505
" />
<path d="M181.8866 183.0505
L181.1723 183.1933
" />
<path d="M183.1009 183.6219
L182.9580 183.6933
" />
<path d="M182.9580 183.6933
L182.6723 183.6933
" />
<path d="M182.6723 183.6933
L182.5295 183.6219
" />
<path d="M182.5295 183.6219
L182.4580 183.4790
" />
<path d="M182.4580 183.4790
L182.4580 182.9076
" />
<path d="M182.4580 182.9076
L182.5295 182.7648
" />
<path d="M182.5295 182.7648
L182.6723 182.6933
" />
<path d="M182.6723 182.6933
L182.9580 182.6933
" />
<path d="M182.9580 182.6933
L183.1009 182.7648
" />
<path d="M183.1009 182.7648
L183.1723 182.9076
" />
<path d="M183.1723 182.9076
L183.1723 183.0505
" />
<path d="M183.1723 183.0505
L182.4580 183.1933
" />
<path d="M183.6009 182.6933
L184.1723 182.6933
" />
<path d="M183.8152 182.1933
L183.8152 183.4790
" />
<path d="M183.8152 183.4790
L183.8866 183.6219
" />
<path d="M183.8866 183.6219
L184.0295 183.6933
" />
<path d="M184.0295 183.6933
L184.1723 183.6933
" />
<path d="M184.6723 183.5505
L184.7437 183.6219
" />
<path d="M184.7437 183.6219
L184.6723 183.6933
" />
<path d="M184.6723 183.6933
L184.6009 183.6219
" />
<path d="M184.6009 183.6219
L184.6723 183.5505
" />
<path d="M184.6723 183.5505
L184.6723 183.6933
" />
<path d="M184.6723 182.7648
L184.7437 182.8362
" />
<path d="M184.7437 182.8362
L184.6723 182.9076
" />
<path d="M184.6723 182.9076
L184.6009 182.8362
" />
<path d="M184.6009 182.8362
L184.6723 182.7648
" />
<path d="M184.6723 182.7648
L184.6723 182.9076
" />
</g></g>
<g style="fill:#000000; fill-opacity:0.0; 
stroke:#000000; stroke-width:0.0212; stroke-opacity:1; 
stroke-linecap:round; stroke-linejoin:round;">
</g>
<g style="fill:#000000; fill-opacity:0.0; 
stroke:#000000; stroke-width:0.3000; stroke-opacity:1; 
stroke-linecap:round; stroke-linejoin:round;">
<text x="178.0022" y="180.7572"
textLength="0.9000" font-size="2.0000" lengthAdjust="spacingAndGlyphs"
text-anchor="start" opacity="0"></text>
<g class="stroked-text"><desc></desc>
</g></g>
<g style="fill:#000000; fill-opacity:0.0; 
stroke:#000000; stroke-width:0.0212; stroke-opacity:1; 
stroke-linecap:round; stroke-linejoin:round;">
</g>
<g style="fill:#000000; fill-opacity:0.0; 
stroke:#000000; stroke-width:0.1500; stroke-opacity:1; 
stroke-linecap:round; stroke-linejoin:round;">
<text x="178.0022" y="177.7572"
textLength="0.4500" font-size="2.0000" lengthAdjust="spacingAndGlyphs"
text-anchor="start" opacity="0"></text>
<g class="stroked-text"><desc></desc>
</g></g>
<g style="fill:#000000; fill-opacity:0.0; 
stroke:#000000; stroke-width:0.0212; stroke-opacity:1; 
stroke-linecap:round; stroke-linejoin:round;">
</g>
<g style="fill:#000000; fill-opacity:0.0; 
stroke:#000000; stroke-width:0.1500; stroke-opacity:1; 
stroke-linecap:round; stroke-linejoin:round;">
<text x="178.0022" y="174.7572"
textLength="0.4500" font-size="2.0000" lengthAdjust="spacingAndGlyphs"
text-anchor="start" opacity="0"></text>
<g class="stroked-text"><desc></desc>
</g></g>
<g style="fill:#000000; fill-opacity:0.0; 
stroke:#000000; stroke-width:0.0212; stroke-opacity:1; 
stroke-linecap:round; stroke-linejoin:round;">
</g>
<g style="fill:#000000; fill-opacity:0.0; 
stroke:#000000; stroke-width:0.1500; stroke-opacity:1; 
stroke-linecap:round; stroke-linejoin:round;">
<text x="178.0022" y="171.7572"
textLength="0.4500" font-size="2.0000" lengthAdjust="spacingAndGlyphs"
text-anchor="start" opacity="0"></text>
<g class="stroked-text"><desc></desc>
</g></g>
<g style="fill:#000000; fill-opacity:0.0; 
stroke:#000000; stroke-width:0.0212; stroke-opacity:1; 
stroke-linecap:round; stroke-linejoin:round;">
</g>
<g style="fill:#000000; fill-opacity:0.0; 
stroke:#000000; stroke-width:0.1500; stroke-opacity:1; 
stroke-linecap:round; stroke-linejoin:round;">
<text x="178.0022" y="168.7572"
textLength="0.4500" font-size="2.0000" lengthAdjust="spacingAndGlyphs"
text-anchor="start" opacity="0"></text>
<g class="stroked-text"><desc></desc>
</g></g>
<g style="fill:#000000; fill-opacity:0.0; 
stroke:#000000; stroke-width:0.0212; stroke-opacity:1; 
stroke-linecap:round; stroke-linejoin:round;">
</g>
<g style="fill:#000000; fill-opacity:0.0; 
stroke:#000000; stroke-width:0.1500; stroke-opacity:1; 
stroke-linecap:round; stroke-linejoin:round;">
<path d="M197.0022 191.5072
L197.0022 194.5072
" />
</g>
<g style="fill:#000000; fill-opacity:0.0; 
stroke:#000000; stroke-width:0.0212; stroke-opacity:1; 
stroke-linecap:round; stroke-linejoin:round;">
</g>
<g style="fill:#000000; fill-opacity:0.0; 
stroke:#000000; stroke-width:0.1500; stroke-opacity:1; 
stroke-linecap:round; stroke-linejoin:round;">
<path d="M261.0022 191.5072
L261.0022 198.0072
" />
</g>
<g style="fill:#5994DC; fill-opacity:0.0; 
stroke:#5994DC; stroke-width:0.1500; stroke-opacity:1; 
stroke-linecap:round; stroke-linejoin:round;">
</g>
<g style="fill:#5994DC; fill-opacity:0.0; 
stroke:#5994DC; stroke-width:0.0020; stroke-opacity:1; 
stroke-linecap:round; stroke-linejoin:round;">
<text x="111.0234" y="76.3835"
textLength="5.4779" font-size="0.1693" lengthAdjust="spacingAndGlyphs"
text-anchor="middle" opacity="0">Copyright 2016 Accelerated Designs. All rights reserved.</text>
<g class="stroked-text"><desc>Copyright 2016 Accelerated Designs. All rights reserved.</desc>
<path d="M108.3776 76.3666
L108.3715 76.3726
" />
<path d="M108.3715 76.3726
L108.3534 76.3786
" />
<path d="M108.3534 76.3786
L108.3413 76.3786
" />
<path d="M108.3413 76.3786
L108.3231 76.3726
" />
<path d="M108.3231 76.3726
L108.3110 76.3605
" />
<path d="M108.3110 76.3605
L108.3050 76.3484
" />
<path d="M108.3050 76.3484
L108.2989 76.3242
" />
<path d="M108.2989 76.3242
L108.2989 76.3061
" />
<path d="M108.2989 76.3061
L108.3050 76.2819
" />
<path d="M108.3050 76.2819
L108.3110 76.2698
" />
<path d="M108.3110 76.2698
L108.3231 76.2577
" />
<path d="M108.3231 76.2577
L108.3413 76.2516
" />
<path d="M108.3413 76.2516
L108.3534 76.2516
" />
<path d="M108.3534 76.2516
L108.3715 76.2577
" />
<path d="M108.3715 76.2577
L108.3776 76.2637
" />
<path d="M108.4501 76.3786
L108.4380 76.3726
" />
<path d="M108.4380 76.3726
L108.4320 76.3666
" />
<path d="M108.4320 76.3666
L108.4259 76.3545
" />
<path d="M108.4259 76.3545
L108.4259 76.3182
" />
<path d="M108.4259 76.3182
L108.4320 76.3061
" />
<path d="M108.4320 76.3061
L108.4380 76.3000
" />
<path d="M108.4380 76.3000
L108.4501 76.2940
" />
<path d="M108.4501 76.2940
L108.4683 76.2940
" />
<path d="M108.4683 76.2940
L108.4804 76.3000
" />
<path d="M108.4804 76.3000
L108.4864 76.3061
" />
<path d="M108.4864 76.3061
L108.4925 76.3182
" />
<path d="M108.4925 76.3182
L108.4925 76.3545
" />
<path d="M108.4925 76.3545
L108.4864 76.3666
" />
<path d="M108.4864 76.3666
L108.4804 76.3726
" />
<path d="M108.4804 76.3726
L108.4683 76.3786
" />
<path d="M108.4683 76.3786
L108.4501 76.3786
" />
<path d="M108.5469 76.2940
L108.5469 76.4210
" />
<path d="M108.5469 76.3000
L108.5590 76.2940
" />
<path d="M108.5590 76.2940
L108.5832 76.2940
" />
<path d="M108.5832 76.2940
L108.5953 76.3000
" />
<path d="M108.5953 76.3000
L108.6013 76.3061
" />
<path d="M108.6013 76.3061
L108.6074 76.3182
" />
<path d="M108.6074 76.3182
L108.6074 76.3545
" />
<path d="M108.6074 76.3545
L108.6013 76.3666
" />
<path d="M108.6013 76.3666
L108.5953 76.3726
" />
<path d="M108.5953 76.3726
L108.5832 76.3786
" />
<path d="M108.5832 76.3786
L108.5590 76.3786
" />
<path d="M108.5590 76.3786
L108.5469 76.3726
" />
<path d="M108.6497 76.2940
L108.6799 76.3786
" />
<path d="M108.7102 76.2940
L108.6799 76.3786
" />
<path d="M108.6799 76.3786
L108.6679 76.4089
" />
<path d="M108.6679 76.4089
L108.6618 76.4149
" />
<path d="M108.6618 76.4149
L108.6497 76.4210
" />
<path d="M108.7586 76.3786
L108.7586 76.2940
" />
<path d="M108.7586 76.3182
L108.7646 76.3061
" />
<path d="M108.7646 76.3061
L108.7707 76.3000
" />
<path d="M108.7707 76.3000
L108.7828 76.2940
" />
<path d="M108.7828 76.2940
L108.7949 76.2940
" />
<path d="M108.8372 76.3786
L108.8372 76.2940
" />
<path d="M108.8372 76.2516
L108.8311 76.2577
" />
<path d="M108.8311 76.2577
L108.8372 76.2637
" />
<path d="M108.8372 76.2637
L108.8432 76.2577
" />
<path d="M108.8432 76.2577
L108.8372 76.2516
" />
<path d="M108.8372 76.2516
L108.8372 76.2637
" />
<path d="M108.9521 76.2940
L108.9521 76.3968
" />
<path d="M108.9521 76.3968
L108.9460 76.4089
" />
<path d="M108.9460 76.4089
L108.9400 76.4149
" />
<path d="M108.9400 76.4149
L108.9279 76.4210
" />
<path d="M108.9279 76.4210
L108.9098 76.4210
" />
<path d="M108.9098 76.4210
L108.8977 76.4149
" />
<path d="M108.9521 76.3726
L108.9400 76.3786
" />
<path d="M108.9400 76.3786
L108.9158 76.3786
" />
<path d="M108.9158 76.3786
L108.9037 76.3726
" />
<path d="M108.9037 76.3726
L108.8977 76.3666
" />
<path d="M108.8977 76.3666
L108.8916 76.3545
" />
<path d="M108.8916 76.3545
L108.8916 76.3182
" />
<path d="M108.8916 76.3182
L108.8977 76.3061
" />
<path d="M108.8977 76.3061
L108.9037 76.3000
" />
<path d="M108.9037 76.3000
L108.9158 76.2940
" />
<path d="M108.9158 76.2940
L108.9400 76.2940
" />
<path d="M108.9400 76.2940
L108.9521 76.3000
" />
<path d="M109.0126 76.3786
L109.0126 76.2516
" />
<path d="M109.0670 76.3786
L109.0670 76.3121
" />
<path d="M109.0670 76.3121
L109.0609 76.3000
" />
<path d="M109.0609 76.3000
L109.0489 76.2940
" />
<path d="M109.0489 76.2940
L109.0307 76.2940
" />
<path d="M109.0307 76.2940
L109.0186 76.3000
" />
<path d="M109.0186 76.3000
L109.0126 76.3061
" />
<path d="M109.1093 76.2940
L109.1577 76.2940
" />
<path d="M109.1275 76.2516
L109.1275 76.3605
" />
<path d="M109.1275 76.3605
L109.1335 76.3726
" />
<path d="M109.1335 76.3726
L109.1456 76.3786
" />
<path d="M109.1456 76.3786
L109.1577 76.3786
" />
<path d="M109.2908 76.2637
L109.2968 76.2577
" />
<path d="M109.2968 76.2577
L109.3089 76.2516
" />
<path d="M109.3089 76.2516
L109.3391 76.2516
" />
<path d="M109.3391 76.2516
L109.3512 76.2577
" />
<path d="M109.3512 76.2577
L109.3573 76.2637
" />
<path d="M109.3573 76.2637
L109.3633 76.2758
" />
<path d="M109.3633 76.2758
L109.3633 76.2879
" />
<path d="M109.3633 76.2879
L109.3573 76.3061
" />
<path d="M109.3573 76.3061
L109.2847 76.3786
" />
<path d="M109.2847 76.3786
L109.3633 76.3786
" />
<path d="M109.4419 76.2516
L109.4540 76.2516
" />
<path d="M109.4540 76.2516
L109.4661 76.2577
" />
<path d="M109.4661 76.2577
L109.4722 76.2637
" />
<path d="M109.4722 76.2637
L109.4782 76.2758
" />
<path d="M109.4782 76.2758
L109.4843 76.3000
" />
<path d="M109.4843 76.3000
L109.4843 76.3303
" />
<path d="M109.4843 76.3303
L109.4782 76.3545
" />
<path d="M109.4782 76.3545
L109.4722 76.3666
" />
<path d="M109.4722 76.3666
L109.4661 76.3726
" />
<path d="M109.4661 76.3726
L109.4540 76.3786
" />
<path d="M109.4540 76.3786
L109.4419 76.3786
" />
<path d="M109.4419 76.3786
L109.4299 76.3726
" />
<path d="M109.4299 76.3726
L109.4238 76.3666
" />
<path d="M109.4238 76.3666
L109.4178 76.3545
" />
<path d="M109.4178 76.3545
L109.4117 76.3303
" />
<path d="M109.4117 76.3303
L109.4117 76.3000
" />
<path d="M109.4117 76.3000
L109.4178 76.2758
" />
<path d="M109.4178 76.2758
L109.4238 76.2637
" />
<path d="M109.4238 76.2637
L109.4299 76.2577
" />
<path d="M109.4299 76.2577
L109.4419 76.2516
" />
<path d="M109.6052 76.3786
L109.5327 76.3786
" />
<path d="M109.5689 76.3786
L109.5689 76.2516
" />
<path d="M109.5689 76.2516
L109.5569 76.2698
" />
<path d="M109.5569 76.2698
L109.5448 76.2819
" />
<path d="M109.5448 76.2819
L109.5327 76.2879
" />
<path d="M109.7141 76.2516
L109.6899 76.2516
" />
<path d="M109.6899 76.2516
L109.6778 76.2577
" />
<path d="M109.6778 76.2577
L109.6718 76.2637
" />
<path d="M109.6718 76.2637
L109.6597 76.2819
" />
<path d="M109.6597 76.2819
L109.6536 76.3061
" />
<path d="M109.6536 76.3061
L109.6536 76.3545
" />
<path d="M109.6536 76.3545
L109.6597 76.3666
" />
<path d="M109.6597 76.3666
L109.6657 76.3726
" />
<path d="M109.6657 76.3726
L109.6778 76.3786
" />
<path d="M109.6778 76.3786
L109.7020 76.3786
" />
<path d="M109.7020 76.3786
L109.7141 76.3726
" />
<path d="M109.7141 76.3726
L109.7201 76.3666
" />
<path d="M109.7201 76.3666
L109.7262 76.3545
" />
<path d="M109.7262 76.3545
L109.7262 76.3242
" />
<path d="M109.7262 76.3242
L109.7201 76.3121
" />
<path d="M109.7201 76.3121
L109.7141 76.3061
" />
<path d="M109.7141 76.3061
L109.7020 76.3000
" />
<path d="M109.7020 76.3000
L109.6778 76.3000
" />
<path d="M109.6778 76.3000
L109.6657 76.3061
" />
<path d="M109.6657 76.3061
L109.6597 76.3121
" />
<path d="M109.6597 76.3121
L109.6536 76.3242
" />
<path d="M109.8713 76.3424
L109.9318 76.3424
" />
<path d="M109.8592 76.3786
L109.9016 76.2516
" />
<path d="M109.9016 76.2516
L109.9439 76.3786
" />
<path d="M110.0407 76.3726
L110.0286 76.3786
" />
<path d="M110.0286 76.3786
L110.0044 76.3786
" />
<path d="M110.0044 76.3786
L109.9923 76.3726
" />
<path d="M109.9923 76.3726
L109.9862 76.3666
" />
<path d="M109.9862 76.3666
L109.9802 76.3545
" />
<path d="M109.9802 76.3545
L109.9802 76.3182
" />
<path d="M109.9802 76.3182
L109.9862 76.3061
" />
<path d="M109.9862 76.3061
L109.9923 76.3000
" />
<path d="M109.9923 76.3000
L110.0044 76.2940
" />
<path d="M110.0044 76.2940
L110.0286 76.2940
" />
<path d="M110.0286 76.2940
L110.0407 76.3000
" />
<path d="M110.1495 76.3726
L110.1374 76.3786
" />
<path d="M110.1374 76.3786
L110.1132 76.3786
" />
<path d="M110.1132 76.3786
L110.1011 76.3726
" />
<path d="M110.1011 76.3726
L110.0951 76.3666
" />
<path d="M110.0951 76.3666
L110.0890 76.3545
" />
<path d="M110.0890 76.3545
L110.0890 76.3182
" />
<path d="M110.0890 76.3182
L110.0951 76.3061
" />
<path d="M110.0951 76.3061
L110.1011 76.3000
" />
<path d="M110.1011 76.3000
L110.1132 76.2940
" />
<path d="M110.1132 76.2940
L110.1374 76.2940
" />
<path d="M110.1374 76.2940
L110.1495 76.3000
" />
<path d="M110.2523 76.3726
L110.2402 76.3786
" />
<path d="M110.2402 76.3786
L110.2160 76.3786
" />
<path d="M110.2160 76.3786
L110.2039 76.3726
" />
<path d="M110.2039 76.3726
L110.1979 76.3605
" />
<path d="M110.1979 76.3605
L110.1979 76.3121
" />
<path d="M110.1979 76.3121
L110.2039 76.3000
" />
<path d="M110.2039 76.3000
L110.2160 76.2940
" />
<path d="M110.2160 76.2940
L110.2402 76.2940
" />
<path d="M110.2402 76.2940
L110.2523 76.3000
" />
<path d="M110.2523 76.3000
L110.2584 76.3121
" />
<path d="M110.2584 76.3121
L110.2584 76.3242
" />
<path d="M110.2584 76.3242
L110.1979 76.3363
" />
<path d="M110.3309 76.3786
L110.3188 76.3726
" />
<path d="M110.3188 76.3726
L110.3128 76.3605
" />
<path d="M110.3128 76.3605
L110.3128 76.2516
" />
<path d="M110.4277 76.3726
L110.4156 76.3786
" />
<path d="M110.4156 76.3786
L110.3914 76.3786
" />
<path d="M110.3914 76.3786
L110.3793 76.3726
" />
<path d="M110.3793 76.3726
L110.3733 76.3605
" />
<path d="M110.3733 76.3605
L110.3733 76.3121
" />
<path d="M110.3733 76.3121
L110.3793 76.3000
" />
<path d="M110.3793 76.3000
L110.3914 76.2940
" />
<path d="M110.3914 76.2940
L110.4156 76.2940
" />
<path d="M110.4156 76.2940
L110.4277 76.3000
" />
<path d="M110.4277 76.3000
L110.4338 76.3121
" />
<path d="M110.4338 76.3121
L110.4338 76.3242
" />
<path d="M110.4338 76.3242
L110.3733 76.3363
" />
<path d="M110.4882 76.3786
L110.4882 76.2940
" />
<path d="M110.4882 76.3182
L110.4942 76.3061
" />
<path d="M110.4942 76.3061
L110.5003 76.3000
" />
<path d="M110.5003 76.3000
L110.5124 76.2940
" />
<path d="M110.5124 76.2940
L110.5245 76.2940
" />
<path d="M110.6212 76.3786
L110.6212 76.3121
" />
<path d="M110.6212 76.3121
L110.6152 76.3000
" />
<path d="M110.6152 76.3000
L110.6031 76.2940
" />
<path d="M110.6031 76.2940
L110.5789 76.2940
" />
<path d="M110.5789 76.2940
L110.5668 76.3000
" />
<path d="M110.6212 76.3726
L110.6091 76.3786
" />
<path d="M110.6091 76.3786
L110.5789 76.3786
" />
<path d="M110.5789 76.3786
L110.5668 76.3726
" />
<path d="M110.5668 76.3726
L110.5608 76.3605
" />
<path d="M110.5608 76.3605
L110.5608 76.3484
" />
<path d="M110.5608 76.3484
L110.5668 76.3363
" />
<path d="M110.5668 76.3363
L110.5789 76.3303
" />
<path d="M110.5789 76.3303
L110.6091 76.3303
" />
<path d="M110.6091 76.3303
L110.6212 76.3242
" />
<path d="M110.6636 76.2940
L110.7119 76.2940
" />
<path d="M110.6817 76.2516
L110.6817 76.3605
" />
<path d="M110.6817 76.3605
L110.6878 76.3726
" />
<path d="M110.6878 76.3726
L110.6998 76.3786
" />
<path d="M110.6998 76.3786
L110.7119 76.3786
" />
<path d="M110.8027 76.3726
L110.7906 76.3786
" />
<path d="M110.7906 76.3786
L110.7664 76.3786
" />
<path d="M110.7664 76.3786
L110.7543 76.3726
" />
<path d="M110.7543 76.3726
L110.7482 76.3605
" />
<path d="M110.7482 76.3605
L110.7482 76.3121
" />
<path d="M110.7482 76.3121
L110.7543 76.3000
" />
<path d="M110.7543 76.3000
L110.7664 76.2940
" />
<path d="M110.7664 76.2940
L110.7906 76.2940
" />
<path d="M110.7906 76.2940
L110.8027 76.3000
" />
<path d="M110.8027 76.3000
L110.8087 76.3121
" />
<path d="M110.8087 76.3121
L110.8087 76.3242
" />
<path d="M110.8087 76.3242
L110.7482 76.3363
" />
<path d="M110.9176 76.3786
L110.9176 76.2516
" />
<path d="M110.9176 76.3726
L110.9055 76.3786
" />
<path d="M110.9055 76.3786
L110.8813 76.3786
" />
<path d="M110.8813 76.3786
L110.8692 76.3726
" />
<path d="M110.8692 76.3726
L110.8631 76.3666
" />
<path d="M110.8631 76.3666
L110.8571 76.3545
" />
<path d="M110.8571 76.3545
L110.8571 76.3182
" />
<path d="M110.8571 76.3182
L110.8631 76.3061
" />
<path d="M110.8631 76.3061
L110.8692 76.3000
" />
<path d="M110.8692 76.3000
L110.8813 76.2940
" />
<path d="M110.8813 76.2940
L110.9055 76.2940
" />
<path d="M110.9055 76.2940
L110.9176 76.3000
" />
<path d="M111.0748 76.3786
L111.0748 76.2516
" />
<path d="M111.0748 76.2516
L111.1050 76.2516
" />
<path d="M111.1050 76.2516
L111.1232 76.2577
" />
<path d="M111.1232 76.2577
L111.1353 76.2698
" />
<path d="M111.1353 76.2698
L111.1413 76.2819
" />
<path d="M111.1413 76.2819
L111.1474 76.3061
" />
<path d="M111.1474 76.3061
L111.1474 76.3242
" />
<path d="M111.1474 76.3242
L111.1413 76.3484
" />
<path d="M111.1413 76.3484
L111.1353 76.3605
" />
<path d="M111.1353 76.3605
L111.1232 76.3726
" />
<path d="M111.1232 76.3726
L111.1050 76.3786
" />
<path d="M111.1050 76.3786
L111.0748 76.3786
" />
<path d="M111.2502 76.3726
L111.2381 76.3786
" />
<path d="M111.2381 76.3786
L111.2139 76.3786
" />
<path d="M111.2139 76.3786
L111.2018 76.3726
" />
<path d="M111.2018 76.3726
L111.1958 76.3605
" />
<path d="M111.1958 76.3605
L111.1958 76.3121
" />
<path d="M111.1958 76.3121
L111.2018 76.3000
" />
<path d="M111.2018 76.3000
L111.2139 76.2940
" />
<path d="M111.2139 76.2940
L111.2381 76.2940
" />
<path d="M111.2381 76.2940
L111.2502 76.3000
" />
<path d="M111.2502 76.3000
L111.2562 76.3121
" />
<path d="M111.2562 76.3121
L111.2562 76.3242
" />
<path d="M111.2562 76.3242
L111.1958 76.3363
" />
<path d="M111.3046 76.3726
L111.3167 76.3786
" />
<path d="M111.3167 76.3786
L111.3409 76.3786
" />
<path d="M111.3409 76.3786
L111.3530 76.3726
" />
<path d="M111.3530 76.3726
L111.3590 76.3605
" />
<path d="M111.3590 76.3605
L111.3590 76.3545
" />
<path d="M111.3590 76.3545
L111.3530 76.3424
" />
<path d="M111.3530 76.3424
L111.3409 76.3363
" />
<path d="M111.3409 76.3363
L111.3228 76.3363
" />
<path d="M111.3228 76.3363
L111.3107 76.3303
" />
<path d="M111.3107 76.3303
L111.3046 76.3182
" />
<path d="M111.3046 76.3182
L111.3046 76.3121
" />
<path d="M111.3046 76.3121
L111.3107 76.3000
" />
<path d="M111.3107 76.3000
L111.3228 76.2940
" />
<path d="M111.3228 76.2940
L111.3409 76.2940
" />
<path d="M111.3409 76.2940
L111.3530 76.3000
" />
<path d="M111.4135 76.3786
L111.4135 76.2940
" />
<path d="M111.4135 76.2516
L111.4074 76.2577
" />
<path d="M111.4074 76.2577
L111.4135 76.2637
" />
<path d="M111.4135 76.2637
L111.4195 76.2577
" />
<path d="M111.4195 76.2577
L111.4135 76.2516
" />
<path d="M111.4135 76.2516
L111.4135 76.2637
" />
<path d="M111.5284 76.2940
L111.5284 76.3968
" />
<path d="M111.5284 76.3968
L111.5223 76.4089
" />
<path d="M111.5223 76.4089
L111.5163 76.4149
" />
<path d="M111.5163 76.4149
L111.5042 76.4210
" />
<path d="M111.5042 76.4210
L111.4860 76.4210
" />
<path d="M111.4860 76.4210
L111.4739 76.4149
" />
<path d="M111.5284 76.3726
L111.5163 76.3786
" />
<path d="M111.5163 76.3786
L111.4921 76.3786
" />
<path d="M111.4921 76.3786
L111.4800 76.3726
" />
<path d="M111.4800 76.3726
L111.4739 76.3666
" />
<path d="M111.4739 76.3666
L111.4679 76.3545
" />
<path d="M111.4679 76.3545
L111.4679 76.3182
" />
<path d="M111.4679 76.3182
L111.4739 76.3061
" />
<path d="M111.4739 76.3061
L111.4800 76.3000
" />
<path d="M111.4800 76.3000
L111.4921 76.2940
" />
<path d="M111.4921 76.2940
L111.5163 76.2940
" />
<path d="M111.5163 76.2940
L111.5284 76.3000
" />
<path d="M111.5889 76.2940
L111.5889 76.3786
" />
<path d="M111.5889 76.3061
L111.5949 76.3000
" />
<path d="M111.5949 76.3000
L111.6070 76.2940
" />
<path d="M111.6070 76.2940
L111.6251 76.2940
" />
<path d="M111.6251 76.2940
L111.6372 76.3000
" />
<path d="M111.6372 76.3000
L111.6433 76.3121
" />
<path d="M111.6433 76.3121
L111.6433 76.3786
" />
<path d="M111.6977 76.3726
L111.7098 76.3786
" />
<path d="M111.7098 76.3786
L111.7340 76.3786
" />
<path d="M111.7340 76.3786
L111.7461 76.3726
" />
<path d="M111.7461 76.3726
L111.7521 76.3605
" />
<path d="M111.7521 76.3605
L111.7521 76.3545
" />
<path d="M111.7521 76.3545
L111.7461 76.3424
" />
<path d="M111.7461 76.3424
L111.7340 76.3363
" />
<path d="M111.7340 76.3363
L111.7159 76.3363
" />
<path d="M111.7159 76.3363
L111.7038 76.3303
" />
<path d="M111.7038 76.3303
L111.6977 76.3182
" />
<path d="M111.6977 76.3182
L111.6977 76.3121
" />
<path d="M111.6977 76.3121
L111.7038 76.3000
" />
<path d="M111.7038 76.3000
L111.7159 76.2940
" />
<path d="M111.7159 76.2940
L111.7340 76.2940
" />
<path d="M111.7340 76.2940
L111.7461 76.3000
" />
<path d="M111.8066 76.3666
L111.8126 76.3726
" />
<path d="M111.8126 76.3726
L111.8066 76.3786
" />
<path d="M111.8066 76.3786
L111.8005 76.3726
" />
<path d="M111.8005 76.3726
L111.8066 76.3666
" />
<path d="M111.8066 76.3666
L111.8066 76.3786
" />
<path d="M111.9578 76.3424
L112.0182 76.3424
" />
<path d="M111.9457 76.3786
L111.9880 76.2516
" />
<path d="M111.9880 76.2516
L112.0303 76.3786
" />
<path d="M112.0908 76.3786
L112.0787 76.3726
" />
<path d="M112.0787 76.3726
L112.0727 76.3605
" />
<path d="M112.0727 76.3605
L112.0727 76.2516
" />
<path d="M112.1573 76.3786
L112.1452 76.3726
" />
<path d="M112.1452 76.3726
L112.1392 76.3605
" />
<path d="M112.1392 76.3605
L112.1392 76.2516
" />
<path d="M112.3025 76.3786
L112.3025 76.2940
" />
<path d="M112.3025 76.3182
L112.3085 76.3061
" />
<path d="M112.3085 76.3061
L112.3146 76.3000
" />
<path d="M112.3146 76.3000
L112.3267 76.2940
" />
<path d="M112.3267 76.2940
L112.3388 76.2940
" />
<path d="M112.3811 76.3786
L112.3811 76.2940
" />
<path d="M112.3811 76.2516
L112.3750 76.2577
" />
<path d="M112.3750 76.2577
L112.3811 76.2637
" />
<path d="M112.3811 76.2637
L112.3871 76.2577
" />
<path d="M112.3871 76.2577
L112.3811 76.2516
" />
<path d="M112.3811 76.2516
L112.3811 76.2637
" />
<path d="M112.4960 76.2940
L112.4960 76.3968
" />
<path d="M112.4960 76.3968
L112.4899 76.4089
" />
<path d="M112.4899 76.4089
L112.4839 76.4149
" />
<path d="M112.4839 76.4149
L112.4718 76.4210
" />
<path d="M112.4718 76.4210
L112.4537 76.4210
" />
<path d="M112.4537 76.4210
L112.4416 76.4149
" />
<path d="M112.4960 76.3726
L112.4839 76.3786
" />
<path d="M112.4839 76.3786
L112.4597 76.3786
" />
<path d="M112.4597 76.3786
L112.4476 76.3726
" />
<path d="M112.4476 76.3726
L112.4416 76.3666
" />
<path d="M112.4416 76.3666
L112.4355 76.3545
" />
<path d="M112.4355 76.3545
L112.4355 76.3182
" />
<path d="M112.4355 76.3182
L112.4416 76.3061
" />
<path d="M112.4416 76.3061
L112.4476 76.3000
" />
<path d="M112.4476 76.3000
L112.4597 76.2940
" />
<path d="M112.4597 76.2940
L112.4839 76.2940
" />
<path d="M112.4839 76.2940
L112.4960 76.3000
" />
<path d="M112.5565 76.3786
L112.5565 76.2516
" />
<path d="M112.6109 76.3786
L112.6109 76.3121
" />
<path d="M112.6109 76.3121
L112.6049 76.3000
" />
<path d="M112.6049 76.3000
L112.5928 76.2940
" />
<path d="M112.5928 76.2940
L112.5746 76.2940
" />
<path d="M112.5746 76.2940
L112.5625 76.3000
" />
<path d="M112.5625 76.3000
L112.5565 76.3061
" />
<path d="M112.6532 76.2940
L112.7016 76.2940
" />
<path d="M112.6714 76.2516
L112.6714 76.3605
" />
<path d="M112.6714 76.3605
L112.6774 76.3726
" />
<path d="M112.6774 76.3726
L112.6895 76.3786
" />
<path d="M112.6895 76.3786
L112.7016 76.3786
" />
<path d="M112.7379 76.3726
L112.7500 76.3786
" />
<path d="M112.7500 76.3786
L112.7742 76.3786
" />
<path d="M112.7742 76.3786
L112.7863 76.3726
" />
<path d="M112.7863 76.3726
L112.7923 76.3605
" />
<path d="M112.7923 76.3605
L112.7923 76.3545
" />
<path d="M112.7923 76.3545
L112.7863 76.3424
" />
<path d="M112.7863 76.3424
L112.7742 76.3363
" />
<path d="M112.7742 76.3363
L112.7560 76.3363
" />
<path d="M112.7560 76.3363
L112.7439 76.3303
" />
<path d="M112.7439 76.3303
L112.7379 76.3182
" />
<path d="M112.7379 76.3182
L112.7379 76.3121
" />
<path d="M112.7379 76.3121
L112.7439 76.3000
" />
<path d="M112.7439 76.3000
L112.7560 76.2940
" />
<path d="M112.7560 76.2940
L112.7742 76.2940
" />
<path d="M112.7742 76.2940
L112.7863 76.3000
" />
<path d="M112.9435 76.3786
L112.9435 76.2940
" />
<path d="M112.9435 76.3182
L112.9496 76.3061
" />
<path d="M112.9496 76.3061
L112.9556 76.3000
" />
<path d="M112.9556 76.3000
L112.9677 76.2940
" />
<path d="M112.9677 76.2940
L112.9798 76.2940
" />
<path d="M113.0705 76.3726
L113.0584 76.3786
" />
<path d="M113.0584 76.3786
L113.0342 76.3786
" />
<path d="M113.0342 76.3786
L113.0221 76.3726
" />
<path d="M113.0221 76.3726
L113.0161 76.3605
" />
<path d="M113.0161 76.3605
L113.0161 76.3121
" />
<path d="M113.0161 76.3121
L113.0221 76.3000
" />
<path d="M113.0221 76.3000
L113.0342 76.2940
" />
<path d="M113.0342 76.2940
L113.0584 76.2940
" />
<path d="M113.0584 76.2940
L113.0705 76.3000
" />
<path d="M113.0705 76.3000
L113.0766 76.3121
" />
<path d="M113.0766 76.3121
L113.0766 76.3242
" />
<path d="M113.0766 76.3242
L113.0161 76.3363
" />
<path d="M113.1249 76.3726
L113.1370 76.3786
" />
<path d="M113.1370 76.3786
L113.1612 76.3786
" />
<path d="M113.1612 76.3786
L113.1733 76.3726
" />
<path d="M113.1733 76.3726
L113.1794 76.3605
" />
<path d="M113.1794 76.3605
L113.1794 76.3545
" />
<path d="M113.1794 76.3545
L113.1733 76.3424
" />
<path d="M113.1733 76.3424
L113.1612 76.3363
" />
<path d="M113.1612 76.3363
L113.1431 76.3363
" />
<path d="M113.1431 76.3363
L113.1310 76.3303
" />
<path d="M113.1310 76.3303
L113.1249 76.3182
" />
<path d="M113.1249 76.3182
L113.1249 76.3121
" />
<path d="M113.1249 76.3121
L113.1310 76.3000
" />
<path d="M113.1310 76.3000
L113.1431 76.2940
" />
<path d="M113.1431 76.2940
L113.1612 76.2940
" />
<path d="M113.1612 76.2940
L113.1733 76.3000
" />
<path d="M113.2822 76.3726
L113.2701 76.3786
" />
<path d="M113.2701 76.3786
L113.2459 76.3786
" />
<path d="M113.2459 76.3786
L113.2338 76.3726
" />
<path d="M113.2338 76.3726
L113.2278 76.3605
" />
<path d="M113.2278 76.3605
L113.2278 76.3121
" />
<path d="M113.2278 76.3121
L113.2338 76.3000
" />
<path d="M113.2338 76.3000
L113.2459 76.2940
" />
<path d="M113.2459 76.2940
L113.2701 76.2940
" />
<path d="M113.2701 76.2940
L113.2822 76.3000
" />
<path d="M113.2822 76.3000
L113.2882 76.3121
" />
<path d="M113.2882 76.3121
L113.2882 76.3242
" />
<path d="M113.2882 76.3242
L113.2278 76.3363
" />
<path d="M113.3427 76.3786
L113.3427 76.2940
" />
<path d="M113.3427 76.3182
L113.3487 76.3061
" />
<path d="M113.3487 76.3061
L113.3548 76.3000
" />
<path d="M113.3548 76.3000
L113.3669 76.2940
" />
<path d="M113.3669 76.2940
L113.3789 76.2940
" />
<path d="M113.4092 76.2940
L113.4394 76.3786
" />
<path d="M113.4394 76.3786
L113.4697 76.2940
" />
<path d="M113.5664 76.3726
L113.5543 76.3786
" />
<path d="M113.5543 76.3786
L113.5301 76.3786
" />
<path d="M113.5301 76.3786
L113.5180 76.3726
" />
<path d="M113.5180 76.3726
L113.5120 76.3605
" />
<path d="M113.5120 76.3605
L113.5120 76.3121
" />
<path d="M113.5120 76.3121
L113.5180 76.3000
" />
<path d="M113.5180 76.3000
L113.5301 76.2940
" />
<path d="M113.5301 76.2940
L113.5543 76.2940
" />
<path d="M113.5543 76.2940
L113.5664 76.3000
" />
<path d="M113.5664 76.3000
L113.5725 76.3121
" />
<path d="M113.5725 76.3121
L113.5725 76.3242
" />
<path d="M113.5725 76.3242
L113.5120 76.3363
" />
<path d="M113.6813 76.3786
L113.6813 76.2516
" />
<path d="M113.6813 76.3726
L113.6692 76.3786
" />
<path d="M113.6692 76.3786
L113.6450 76.3786
" />
<path d="M113.6450 76.3786
L113.6329 76.3726
" />
<path d="M113.6329 76.3726
L113.6269 76.3666
" />
<path d="M113.6269 76.3666
L113.6209 76.3545
" />
<path d="M113.6209 76.3545
L113.6209 76.3182
" />
<path d="M113.6209 76.3182
L113.6269 76.3061
" />
<path d="M113.6269 76.3061
L113.6329 76.3000
" />
<path d="M113.6329 76.3000
L113.6450 76.2940
" />
<path d="M113.6450 76.2940
L113.6692 76.2940
" />
<path d="M113.6692 76.2940
L113.6813 76.3000
" />
<path d="M113.7418 76.3666
L113.7479 76.3726
" />
<path d="M113.7479 76.3726
L113.7418 76.3786
" />
<path d="M113.7418 76.3786
L113.7358 76.3726
" />
<path d="M113.7358 76.3726
L113.7418 76.3666
" />
<path d="M113.7418 76.3666
L113.7418 76.3786
" />
</g><g >
</g>
<g >
</g>
<g >
</g>
<g >
</g>
<g >
</g>
<g >
</g>
<g >
</g>
<g >
</g>
<g >
</g>
<g >
</g>
<g >
</g>
<g >
</g>
<g >
</g>
<g >
</g>
<g >
</g>
<g >
</g>
<g >
</g>
<g >
</g>
<g >
</g>
<g >
</g>
<g >
</g>
<g >
</g>
<g >
</g>
<g >
</g>
<g >
</g>
<g >
</g>
<g >
</g>
<g >
</g>
<g >
</g>
<g >
</g>
<g >
</g>
<g >
</g>
<g >
</g>
<g >
</g>
<g >
</g>
<g >
</g>
<g >
</g>
<g >
</g>
<g >
</g>
<g >
</g>
</g>
<g style="fill:#000000; fill-opacity:0.0; 
stroke:#000000; stroke-width:0.0020; stroke-opacity:1; 
stroke-linecap:round; stroke-linejoin:round;">
</g>
<g style="fill:#D0D2CD; fill-opacity:0.0; 
stroke:#D0D2CD; stroke-width:0.0020; stroke-opacity:1; 
stroke-linecap:round; stroke-linejoin:round;">
</g>
<g style="fill:#D0D2CD; fill-opacity:0.0; 
stroke:#D0D2CD; stroke-width:0.1000; stroke-opacity:1; 
stroke-linecap:round; stroke-linejoin:round;">
<path style="fill:#D0D2CD; fill-opacity:0.0; 
stroke:#D0D2CD; stroke-width:0.1000; stroke-opacity:1; 
stroke-linecap:round; stroke-linejoin:round;fill:none"
d="M 99.7600,61.6701
189.7300,61.6701
189.7300,115.6801
99.7600,115.6801
Z" /> 
<g >
</g>
<g >
</g>
<g >
</g>
<g >
</g>
<g >
</g>
<g >
</g>
<g >
</g>
<g >
</g>
<g >
</g>
<g >
</g>
<g >
</g>
<g >
</g>
<g >
</g>
<g >
</g>
<g >
</g>
<g >
</g>
<g >
</g>
<g >
</g>
<g >
</g>
<g >
</g>
<g >
</g>
<g >
</g>
<g >
</g>
<g >
</g>
<g >
</g>
<g >
</g>
<g >
</g>
<g >
</g>
<g >
</g>
<g >
</g>
<g >
</g>
<g >
</g>
<g >
</g>
<g >
</g>
<g >
</g>
<g >
</g>
<g >
</g>
<g >
</g>
<g >
</g>
<g >
</g>
</g> 
</svg>
