%TF.GenerationSoftware,KiCad,Pcbnew,7.0.10*%
%TF.CreationDate,2024-05-16T11:59:50+01:00*%
%TF.ProjectId,RF_Race_Car,52465f52-6163-4655-9f43-61722e6b6963,rev?*%
%TF.SameCoordinates,Original*%
%TF.FileFunction,AssemblyDrawing,Top*%
%FSLAX46Y46*%
G04 Gerber Fmt 4.6, Leading zero omitted, Abs format (unit mm)*
G04 Created by KiCad (PCBNEW 7.0.10) date 2024-05-16 11:59:50*
%MOMM*%
%LPD*%
G01*
G04 APERTURE LIST*
%ADD10C,0.040000*%
%ADD11C,0.150000*%
%ADD12C,0.060000*%
%ADD13C,0.100000*%
%ADD14C,0.127000*%
%ADD15C,0.200000*%
%ADD16C,0.025400*%
%ADD17C,0.152400*%
G04 APERTURE END LIST*
D10*
X115408333Y-89789765D02*
X115396429Y-89801670D01*
X115396429Y-89801670D02*
X115360714Y-89813574D01*
X115360714Y-89813574D02*
X115336905Y-89813574D01*
X115336905Y-89813574D02*
X115301191Y-89801670D01*
X115301191Y-89801670D02*
X115277381Y-89777860D01*
X115277381Y-89777860D02*
X115265476Y-89754050D01*
X115265476Y-89754050D02*
X115253572Y-89706431D01*
X115253572Y-89706431D02*
X115253572Y-89670717D01*
X115253572Y-89670717D02*
X115265476Y-89623098D01*
X115265476Y-89623098D02*
X115277381Y-89599289D01*
X115277381Y-89599289D02*
X115301191Y-89575479D01*
X115301191Y-89575479D02*
X115336905Y-89563574D01*
X115336905Y-89563574D02*
X115360714Y-89563574D01*
X115360714Y-89563574D02*
X115396429Y-89575479D01*
X115396429Y-89575479D02*
X115408333Y-89587384D01*
X115622619Y-89646908D02*
X115622619Y-89813574D01*
X115563095Y-89551670D02*
X115503572Y-89730241D01*
X115503572Y-89730241D02*
X115658333Y-89730241D01*
D11*
X124054819Y-92042856D02*
X124054819Y-91947618D01*
X124054819Y-91947618D02*
X124102438Y-91852380D01*
X124102438Y-91852380D02*
X124150057Y-91804761D01*
X124150057Y-91804761D02*
X124245295Y-91757142D01*
X124245295Y-91757142D02*
X124435771Y-91709523D01*
X124435771Y-91709523D02*
X124673866Y-91709523D01*
X124673866Y-91709523D02*
X124864342Y-91757142D01*
X124864342Y-91757142D02*
X124959580Y-91804761D01*
X124959580Y-91804761D02*
X125007200Y-91852380D01*
X125007200Y-91852380D02*
X125054819Y-91947618D01*
X125054819Y-91947618D02*
X125054819Y-92042856D01*
X125054819Y-92042856D02*
X125007200Y-92138094D01*
X125007200Y-92138094D02*
X124959580Y-92185713D01*
X124959580Y-92185713D02*
X124864342Y-92233332D01*
X124864342Y-92233332D02*
X124673866Y-92280951D01*
X124673866Y-92280951D02*
X124435771Y-92280951D01*
X124435771Y-92280951D02*
X124245295Y-92233332D01*
X124245295Y-92233332D02*
X124150057Y-92185713D01*
X124150057Y-92185713D02*
X124102438Y-92138094D01*
X124102438Y-92138094D02*
X124054819Y-92042856D01*
X124959580Y-91280951D02*
X125007200Y-91233332D01*
X125007200Y-91233332D02*
X125054819Y-91280951D01*
X125054819Y-91280951D02*
X125007200Y-91328570D01*
X125007200Y-91328570D02*
X124959580Y-91280951D01*
X124959580Y-91280951D02*
X125054819Y-91280951D01*
X125054819Y-90280952D02*
X125054819Y-90852380D01*
X125054819Y-90566666D02*
X124054819Y-90566666D01*
X124054819Y-90566666D02*
X124197676Y-90661904D01*
X124197676Y-90661904D02*
X124292914Y-90757142D01*
X124292914Y-90757142D02*
X124340533Y-90852380D01*
X124388152Y-89423809D02*
X125054819Y-89423809D01*
X124388152Y-89852380D02*
X124911961Y-89852380D01*
X124911961Y-89852380D02*
X125007200Y-89804761D01*
X125007200Y-89804761D02*
X125054819Y-89709523D01*
X125054819Y-89709523D02*
X125054819Y-89566666D01*
X125054819Y-89566666D02*
X125007200Y-89471428D01*
X125007200Y-89471428D02*
X124959580Y-89423809D01*
X124531009Y-88614285D02*
X124531009Y-88947618D01*
X125054819Y-88947618D02*
X124054819Y-88947618D01*
X124054819Y-88947618D02*
X124054819Y-88471428D01*
D10*
X122289765Y-91091666D02*
X122301670Y-91103570D01*
X122301670Y-91103570D02*
X122313574Y-91139285D01*
X122313574Y-91139285D02*
X122313574Y-91163094D01*
X122313574Y-91163094D02*
X122301670Y-91198808D01*
X122301670Y-91198808D02*
X122277860Y-91222618D01*
X122277860Y-91222618D02*
X122254050Y-91234523D01*
X122254050Y-91234523D02*
X122206431Y-91246427D01*
X122206431Y-91246427D02*
X122170717Y-91246427D01*
X122170717Y-91246427D02*
X122123098Y-91234523D01*
X122123098Y-91234523D02*
X122099289Y-91222618D01*
X122099289Y-91222618D02*
X122075479Y-91198808D01*
X122075479Y-91198808D02*
X122063574Y-91163094D01*
X122063574Y-91163094D02*
X122063574Y-91139285D01*
X122063574Y-91139285D02*
X122075479Y-91103570D01*
X122075479Y-91103570D02*
X122087384Y-91091666D01*
X122063574Y-91008332D02*
X122063574Y-90853570D01*
X122063574Y-90853570D02*
X122158812Y-90936904D01*
X122158812Y-90936904D02*
X122158812Y-90901189D01*
X122158812Y-90901189D02*
X122170717Y-90877380D01*
X122170717Y-90877380D02*
X122182622Y-90865475D01*
X122182622Y-90865475D02*
X122206431Y-90853570D01*
X122206431Y-90853570D02*
X122265955Y-90853570D01*
X122265955Y-90853570D02*
X122289765Y-90865475D01*
X122289765Y-90865475D02*
X122301670Y-90877380D01*
X122301670Y-90877380D02*
X122313574Y-90901189D01*
X122313574Y-90901189D02*
X122313574Y-90972618D01*
X122313574Y-90972618D02*
X122301670Y-90996427D01*
X122301670Y-90996427D02*
X122289765Y-91008332D01*
D11*
X148645238Y-85738152D02*
X148645238Y-86404819D01*
X148407143Y-85357200D02*
X148169048Y-86071485D01*
X148169048Y-86071485D02*
X148788095Y-86071485D01*
X149073810Y-85404819D02*
X149740476Y-85404819D01*
X149740476Y-85404819D02*
X149311905Y-86404819D01*
X150121429Y-86309580D02*
X150169048Y-86357200D01*
X150169048Y-86357200D02*
X150121429Y-86404819D01*
X150121429Y-86404819D02*
X150073810Y-86357200D01*
X150073810Y-86357200D02*
X150121429Y-86309580D01*
X150121429Y-86309580D02*
X150121429Y-86404819D01*
X151073809Y-85404819D02*
X150597619Y-85404819D01*
X150597619Y-85404819D02*
X150550000Y-85881009D01*
X150550000Y-85881009D02*
X150597619Y-85833390D01*
X150597619Y-85833390D02*
X150692857Y-85785771D01*
X150692857Y-85785771D02*
X150930952Y-85785771D01*
X150930952Y-85785771D02*
X151026190Y-85833390D01*
X151026190Y-85833390D02*
X151073809Y-85881009D01*
X151073809Y-85881009D02*
X151121428Y-85976247D01*
X151121428Y-85976247D02*
X151121428Y-86214342D01*
X151121428Y-86214342D02*
X151073809Y-86309580D01*
X151073809Y-86309580D02*
X151026190Y-86357200D01*
X151026190Y-86357200D02*
X150930952Y-86404819D01*
X150930952Y-86404819D02*
X150692857Y-86404819D01*
X150692857Y-86404819D02*
X150597619Y-86357200D01*
X150597619Y-86357200D02*
X150550000Y-86309580D01*
X151550000Y-86404819D02*
X151550000Y-85404819D01*
X151645238Y-86023866D02*
X151930952Y-86404819D01*
X151930952Y-85738152D02*
X151550000Y-86119104D01*
D12*
X150929263Y-83394833D02*
X150738787Y-83528166D01*
X150929263Y-83623404D02*
X150529263Y-83623404D01*
X150529263Y-83623404D02*
X150529263Y-83471023D01*
X150529263Y-83471023D02*
X150548311Y-83432928D01*
X150548311Y-83432928D02*
X150567358Y-83413881D01*
X150567358Y-83413881D02*
X150605454Y-83394833D01*
X150605454Y-83394833D02*
X150662596Y-83394833D01*
X150662596Y-83394833D02*
X150700692Y-83413881D01*
X150700692Y-83413881D02*
X150719739Y-83432928D01*
X150719739Y-83432928D02*
X150738787Y-83471023D01*
X150738787Y-83471023D02*
X150738787Y-83623404D01*
X150929263Y-83013881D02*
X150929263Y-83242452D01*
X150929263Y-83128166D02*
X150529263Y-83128166D01*
X150529263Y-83128166D02*
X150586406Y-83166262D01*
X150586406Y-83166262D02*
X150624501Y-83204357D01*
X150624501Y-83204357D02*
X150643549Y-83242452D01*
D11*
X119496405Y-79338025D02*
X118496405Y-79338025D01*
X118496405Y-79338025D02*
X118496405Y-79099930D01*
X118496405Y-79099930D02*
X118544024Y-78957073D01*
X118544024Y-78957073D02*
X118639262Y-78861835D01*
X118639262Y-78861835D02*
X118734500Y-78814216D01*
X118734500Y-78814216D02*
X118924976Y-78766597D01*
X118924976Y-78766597D02*
X119067833Y-78766597D01*
X119067833Y-78766597D02*
X119258309Y-78814216D01*
X119258309Y-78814216D02*
X119353547Y-78861835D01*
X119353547Y-78861835D02*
X119448786Y-78957073D01*
X119448786Y-78957073D02*
X119496405Y-79099930D01*
X119496405Y-79099930D02*
X119496405Y-79338025D01*
X119496405Y-78338025D02*
X118496405Y-78338025D01*
X118496405Y-78338025D02*
X119496405Y-77766597D01*
X119496405Y-77766597D02*
X118496405Y-77766597D01*
X119496405Y-77290406D02*
X118496405Y-77290406D01*
X118496405Y-77290406D02*
X118496405Y-76909454D01*
X118496405Y-76909454D02*
X118544024Y-76814216D01*
X118544024Y-76814216D02*
X118591643Y-76766597D01*
X118591643Y-76766597D02*
X118686881Y-76718978D01*
X118686881Y-76718978D02*
X118829738Y-76718978D01*
X118829738Y-76718978D02*
X118924976Y-76766597D01*
X118924976Y-76766597D02*
X118972595Y-76814216D01*
X118972595Y-76814216D02*
X119020214Y-76909454D01*
X119020214Y-76909454D02*
X119020214Y-77290406D01*
D10*
X116710663Y-75913582D02*
X116722568Y-75925486D01*
X116722568Y-75925486D02*
X116734472Y-75961201D01*
X116734472Y-75961201D02*
X116734472Y-75985010D01*
X116734472Y-75985010D02*
X116722568Y-76020724D01*
X116722568Y-76020724D02*
X116698758Y-76044534D01*
X116698758Y-76044534D02*
X116674948Y-76056439D01*
X116674948Y-76056439D02*
X116627329Y-76068343D01*
X116627329Y-76068343D02*
X116591615Y-76068343D01*
X116591615Y-76068343D02*
X116543996Y-76056439D01*
X116543996Y-76056439D02*
X116520187Y-76044534D01*
X116520187Y-76044534D02*
X116496377Y-76020724D01*
X116496377Y-76020724D02*
X116484472Y-75985010D01*
X116484472Y-75985010D02*
X116484472Y-75961201D01*
X116484472Y-75961201D02*
X116496377Y-75925486D01*
X116496377Y-75925486D02*
X116508282Y-75913582D01*
X116734472Y-75675486D02*
X116734472Y-75818343D01*
X116734472Y-75746915D02*
X116484472Y-75746915D01*
X116484472Y-75746915D02*
X116520187Y-75770724D01*
X116520187Y-75770724D02*
X116543996Y-75794534D01*
X116543996Y-75794534D02*
X116555901Y-75818343D01*
X116567806Y-75461201D02*
X116734472Y-75461201D01*
X116472568Y-75520725D02*
X116651139Y-75580248D01*
X116651139Y-75580248D02*
X116651139Y-75425487D01*
D11*
X144212404Y-105661704D02*
X144879071Y-105661704D01*
X143831452Y-105899799D02*
X144545737Y-106137894D01*
X144545737Y-106137894D02*
X144545737Y-105518847D01*
X144783832Y-105137894D02*
X144831452Y-105090275D01*
X144831452Y-105090275D02*
X144879071Y-105137894D01*
X144879071Y-105137894D02*
X144831452Y-105185513D01*
X144831452Y-105185513D02*
X144783832Y-105137894D01*
X144783832Y-105137894D02*
X144879071Y-105137894D01*
X143879071Y-104756942D02*
X143879071Y-104090276D01*
X143879071Y-104090276D02*
X144879071Y-104518847D01*
X144212404Y-103280752D02*
X144879071Y-103280752D01*
X144212404Y-103709323D02*
X144736213Y-103709323D01*
X144736213Y-103709323D02*
X144831452Y-103661704D01*
X144831452Y-103661704D02*
X144879071Y-103566466D01*
X144879071Y-103566466D02*
X144879071Y-103423609D01*
X144879071Y-103423609D02*
X144831452Y-103328371D01*
X144831452Y-103328371D02*
X144783832Y-103280752D01*
X144355261Y-102471228D02*
X144355261Y-102804561D01*
X144879071Y-102804561D02*
X143879071Y-102804561D01*
X143879071Y-102804561D02*
X143879071Y-102328371D01*
D10*
X143354017Y-104417657D02*
X143365922Y-104429561D01*
X143365922Y-104429561D02*
X143377826Y-104465276D01*
X143377826Y-104465276D02*
X143377826Y-104489085D01*
X143377826Y-104489085D02*
X143365922Y-104524799D01*
X143365922Y-104524799D02*
X143342112Y-104548609D01*
X143342112Y-104548609D02*
X143318302Y-104560514D01*
X143318302Y-104560514D02*
X143270683Y-104572418D01*
X143270683Y-104572418D02*
X143234969Y-104572418D01*
X143234969Y-104572418D02*
X143187350Y-104560514D01*
X143187350Y-104560514D02*
X143163541Y-104548609D01*
X143163541Y-104548609D02*
X143139731Y-104524799D01*
X143139731Y-104524799D02*
X143127826Y-104489085D01*
X143127826Y-104489085D02*
X143127826Y-104465276D01*
X143127826Y-104465276D02*
X143139731Y-104429561D01*
X143139731Y-104429561D02*
X143151636Y-104417657D01*
X143377826Y-104179561D02*
X143377826Y-104322418D01*
X143377826Y-104250990D02*
X143127826Y-104250990D01*
X143127826Y-104250990D02*
X143163541Y-104274799D01*
X143163541Y-104274799D02*
X143187350Y-104298609D01*
X143187350Y-104298609D02*
X143199255Y-104322418D01*
X143127826Y-103953371D02*
X143127826Y-104072419D01*
X143127826Y-104072419D02*
X143246874Y-104084323D01*
X143246874Y-104084323D02*
X143234969Y-104072419D01*
X143234969Y-104072419D02*
X143223064Y-104048609D01*
X143223064Y-104048609D02*
X143223064Y-103989085D01*
X143223064Y-103989085D02*
X143234969Y-103965276D01*
X143234969Y-103965276D02*
X143246874Y-103953371D01*
X143246874Y-103953371D02*
X143270683Y-103941466D01*
X143270683Y-103941466D02*
X143330207Y-103941466D01*
X143330207Y-103941466D02*
X143354017Y-103953371D01*
X143354017Y-103953371D02*
X143365922Y-103965276D01*
X143365922Y-103965276D02*
X143377826Y-103989085D01*
X143377826Y-103989085D02*
X143377826Y-104048609D01*
X143377826Y-104048609D02*
X143365922Y-104072419D01*
X143365922Y-104072419D02*
X143354017Y-104084323D01*
D11*
X120590057Y-104338094D02*
X120542438Y-104290475D01*
X120542438Y-104290475D02*
X120494819Y-104195237D01*
X120494819Y-104195237D02*
X120494819Y-103957142D01*
X120494819Y-103957142D02*
X120542438Y-103861904D01*
X120542438Y-103861904D02*
X120590057Y-103814285D01*
X120590057Y-103814285D02*
X120685295Y-103766666D01*
X120685295Y-103766666D02*
X120780533Y-103766666D01*
X120780533Y-103766666D02*
X120923390Y-103814285D01*
X120923390Y-103814285D02*
X121494819Y-104385713D01*
X121494819Y-104385713D02*
X121494819Y-103766666D01*
X120590057Y-103385713D02*
X120542438Y-103338094D01*
X120542438Y-103338094D02*
X120494819Y-103242856D01*
X120494819Y-103242856D02*
X120494819Y-103004761D01*
X120494819Y-103004761D02*
X120542438Y-102909523D01*
X120542438Y-102909523D02*
X120590057Y-102861904D01*
X120590057Y-102861904D02*
X120685295Y-102814285D01*
X120685295Y-102814285D02*
X120780533Y-102814285D01*
X120780533Y-102814285D02*
X120923390Y-102861904D01*
X120923390Y-102861904D02*
X121494819Y-103433332D01*
X121494819Y-103433332D02*
X121494819Y-102814285D01*
X120494819Y-102195237D02*
X120494819Y-102099999D01*
X120494819Y-102099999D02*
X120542438Y-102004761D01*
X120542438Y-102004761D02*
X120590057Y-101957142D01*
X120590057Y-101957142D02*
X120685295Y-101909523D01*
X120685295Y-101909523D02*
X120875771Y-101861904D01*
X120875771Y-101861904D02*
X121113866Y-101861904D01*
X121113866Y-101861904D02*
X121304342Y-101909523D01*
X121304342Y-101909523D02*
X121399580Y-101957142D01*
X121399580Y-101957142D02*
X121447200Y-102004761D01*
X121447200Y-102004761D02*
X121494819Y-102099999D01*
X121494819Y-102099999D02*
X121494819Y-102195237D01*
X121494819Y-102195237D02*
X121447200Y-102290475D01*
X121447200Y-102290475D02*
X121399580Y-102338094D01*
X121399580Y-102338094D02*
X121304342Y-102385713D01*
X121304342Y-102385713D02*
X121113866Y-102433332D01*
X121113866Y-102433332D02*
X120875771Y-102433332D01*
X120875771Y-102433332D02*
X120685295Y-102385713D01*
X120685295Y-102385713D02*
X120590057Y-102338094D01*
X120590057Y-102338094D02*
X120542438Y-102290475D01*
X120542438Y-102290475D02*
X120494819Y-102195237D01*
D12*
X119581927Y-102551666D02*
X119391451Y-102684999D01*
X119581927Y-102780237D02*
X119181927Y-102780237D01*
X119181927Y-102780237D02*
X119181927Y-102627856D01*
X119181927Y-102627856D02*
X119200975Y-102589761D01*
X119200975Y-102589761D02*
X119220022Y-102570714D01*
X119220022Y-102570714D02*
X119258118Y-102551666D01*
X119258118Y-102551666D02*
X119315260Y-102551666D01*
X119315260Y-102551666D02*
X119353356Y-102570714D01*
X119353356Y-102570714D02*
X119372403Y-102589761D01*
X119372403Y-102589761D02*
X119391451Y-102627856D01*
X119391451Y-102627856D02*
X119391451Y-102780237D01*
X119181927Y-102418333D02*
X119181927Y-102170714D01*
X119181927Y-102170714D02*
X119334308Y-102304047D01*
X119334308Y-102304047D02*
X119334308Y-102246904D01*
X119334308Y-102246904D02*
X119353356Y-102208809D01*
X119353356Y-102208809D02*
X119372403Y-102189761D01*
X119372403Y-102189761D02*
X119410499Y-102170714D01*
X119410499Y-102170714D02*
X119505737Y-102170714D01*
X119505737Y-102170714D02*
X119543832Y-102189761D01*
X119543832Y-102189761D02*
X119562880Y-102208809D01*
X119562880Y-102208809D02*
X119581927Y-102246904D01*
X119581927Y-102246904D02*
X119581927Y-102361190D01*
X119581927Y-102361190D02*
X119562880Y-102399285D01*
X119562880Y-102399285D02*
X119543832Y-102418333D01*
X125493108Y-84672177D02*
X125302632Y-84672177D01*
X125302632Y-84672177D02*
X125302632Y-84272177D01*
X125835965Y-84672177D02*
X125607394Y-84672177D01*
X125721680Y-84672177D02*
X125721680Y-84272177D01*
X125721680Y-84272177D02*
X125683584Y-84329320D01*
X125683584Y-84329320D02*
X125645489Y-84367415D01*
X125645489Y-84367415D02*
X125607394Y-84386463D01*
D11*
X173363095Y-67708866D02*
X173410714Y-67661247D01*
X173410714Y-67661247D02*
X173505952Y-67613628D01*
X173505952Y-67613628D02*
X173696428Y-67708866D01*
X173696428Y-67708866D02*
X173791666Y-67661247D01*
X173791666Y-67661247D02*
X173839285Y-67613628D01*
D10*
X117989765Y-78560714D02*
X118001670Y-78572618D01*
X118001670Y-78572618D02*
X118013574Y-78608333D01*
X118013574Y-78608333D02*
X118013574Y-78632142D01*
X118013574Y-78632142D02*
X118001670Y-78667856D01*
X118001670Y-78667856D02*
X117977860Y-78691666D01*
X117977860Y-78691666D02*
X117954050Y-78703571D01*
X117954050Y-78703571D02*
X117906431Y-78715475D01*
X117906431Y-78715475D02*
X117870717Y-78715475D01*
X117870717Y-78715475D02*
X117823098Y-78703571D01*
X117823098Y-78703571D02*
X117799289Y-78691666D01*
X117799289Y-78691666D02*
X117775479Y-78667856D01*
X117775479Y-78667856D02*
X117763574Y-78632142D01*
X117763574Y-78632142D02*
X117763574Y-78608333D01*
X117763574Y-78608333D02*
X117775479Y-78572618D01*
X117775479Y-78572618D02*
X117787384Y-78560714D01*
X118013574Y-78322618D02*
X118013574Y-78465475D01*
X118013574Y-78394047D02*
X117763574Y-78394047D01*
X117763574Y-78394047D02*
X117799289Y-78417856D01*
X117799289Y-78417856D02*
X117823098Y-78441666D01*
X117823098Y-78441666D02*
X117835003Y-78465475D01*
X117763574Y-78167857D02*
X117763574Y-78144047D01*
X117763574Y-78144047D02*
X117775479Y-78120238D01*
X117775479Y-78120238D02*
X117787384Y-78108333D01*
X117787384Y-78108333D02*
X117811193Y-78096428D01*
X117811193Y-78096428D02*
X117858812Y-78084523D01*
X117858812Y-78084523D02*
X117918336Y-78084523D01*
X117918336Y-78084523D02*
X117965955Y-78096428D01*
X117965955Y-78096428D02*
X117989765Y-78108333D01*
X117989765Y-78108333D02*
X118001670Y-78120238D01*
X118001670Y-78120238D02*
X118013574Y-78144047D01*
X118013574Y-78144047D02*
X118013574Y-78167857D01*
X118013574Y-78167857D02*
X118001670Y-78191666D01*
X118001670Y-78191666D02*
X117989765Y-78203571D01*
X117989765Y-78203571D02*
X117965955Y-78215476D01*
X117965955Y-78215476D02*
X117918336Y-78227380D01*
X117918336Y-78227380D02*
X117858812Y-78227380D01*
X117858812Y-78227380D02*
X117811193Y-78215476D01*
X117811193Y-78215476D02*
X117787384Y-78203571D01*
X117787384Y-78203571D02*
X117775479Y-78191666D01*
X117775479Y-78191666D02*
X117763574Y-78167857D01*
D11*
X155897619Y-78481009D02*
X156040476Y-78528628D01*
X156040476Y-78528628D02*
X156088095Y-78576247D01*
X156088095Y-78576247D02*
X156135714Y-78671485D01*
X156135714Y-78671485D02*
X156135714Y-78814342D01*
X156135714Y-78814342D02*
X156088095Y-78909580D01*
X156088095Y-78909580D02*
X156040476Y-78957200D01*
X156040476Y-78957200D02*
X155945238Y-79004819D01*
X155945238Y-79004819D02*
X155564286Y-79004819D01*
X155564286Y-79004819D02*
X155564286Y-78004819D01*
X155564286Y-78004819D02*
X155897619Y-78004819D01*
X155897619Y-78004819D02*
X155992857Y-78052438D01*
X155992857Y-78052438D02*
X156040476Y-78100057D01*
X156040476Y-78100057D02*
X156088095Y-78195295D01*
X156088095Y-78195295D02*
X156088095Y-78290533D01*
X156088095Y-78290533D02*
X156040476Y-78385771D01*
X156040476Y-78385771D02*
X155992857Y-78433390D01*
X155992857Y-78433390D02*
X155897619Y-78481009D01*
X155897619Y-78481009D02*
X155564286Y-78481009D01*
X156469048Y-78004819D02*
X157088095Y-78004819D01*
X157088095Y-78004819D02*
X156754762Y-78385771D01*
X156754762Y-78385771D02*
X156897619Y-78385771D01*
X156897619Y-78385771D02*
X156992857Y-78433390D01*
X156992857Y-78433390D02*
X157040476Y-78481009D01*
X157040476Y-78481009D02*
X157088095Y-78576247D01*
X157088095Y-78576247D02*
X157088095Y-78814342D01*
X157088095Y-78814342D02*
X157040476Y-78909580D01*
X157040476Y-78909580D02*
X156992857Y-78957200D01*
X156992857Y-78957200D02*
X156897619Y-79004819D01*
X156897619Y-79004819D02*
X156611905Y-79004819D01*
X156611905Y-79004819D02*
X156516667Y-78957200D01*
X156516667Y-78957200D02*
X156469048Y-78909580D01*
X157516667Y-78004819D02*
X157516667Y-78814342D01*
X157516667Y-78814342D02*
X157564286Y-78909580D01*
X157564286Y-78909580D02*
X157611905Y-78957200D01*
X157611905Y-78957200D02*
X157707143Y-79004819D01*
X157707143Y-79004819D02*
X157897619Y-79004819D01*
X157897619Y-79004819D02*
X157992857Y-78957200D01*
X157992857Y-78957200D02*
X158040476Y-78909580D01*
X158040476Y-78909580D02*
X158088095Y-78814342D01*
X158088095Y-78814342D02*
X158088095Y-78004819D01*
X158564286Y-78623866D02*
X159326191Y-78623866D01*
X160326190Y-79004819D02*
X159754762Y-79004819D01*
X160040476Y-79004819D02*
X160040476Y-78004819D01*
X160040476Y-78004819D02*
X159945238Y-78147676D01*
X159945238Y-78147676D02*
X159850000Y-78242914D01*
X159850000Y-78242914D02*
X159754762Y-78290533D01*
X160945238Y-78004819D02*
X161040476Y-78004819D01*
X161040476Y-78004819D02*
X161135714Y-78052438D01*
X161135714Y-78052438D02*
X161183333Y-78100057D01*
X161183333Y-78100057D02*
X161230952Y-78195295D01*
X161230952Y-78195295D02*
X161278571Y-78385771D01*
X161278571Y-78385771D02*
X161278571Y-78623866D01*
X161278571Y-78623866D02*
X161230952Y-78814342D01*
X161230952Y-78814342D02*
X161183333Y-78909580D01*
X161183333Y-78909580D02*
X161135714Y-78957200D01*
X161135714Y-78957200D02*
X161040476Y-79004819D01*
X161040476Y-79004819D02*
X160945238Y-79004819D01*
X160945238Y-79004819D02*
X160850000Y-78957200D01*
X160850000Y-78957200D02*
X160802381Y-78909580D01*
X160802381Y-78909580D02*
X160754762Y-78814342D01*
X160754762Y-78814342D02*
X160707143Y-78623866D01*
X160707143Y-78623866D02*
X160707143Y-78385771D01*
X160707143Y-78385771D02*
X160754762Y-78195295D01*
X160754762Y-78195295D02*
X160802381Y-78100057D01*
X160802381Y-78100057D02*
X160850000Y-78052438D01*
X160850000Y-78052438D02*
X160945238Y-78004819D01*
X161897619Y-78004819D02*
X161992857Y-78004819D01*
X161992857Y-78004819D02*
X162088095Y-78052438D01*
X162088095Y-78052438D02*
X162135714Y-78100057D01*
X162135714Y-78100057D02*
X162183333Y-78195295D01*
X162183333Y-78195295D02*
X162230952Y-78385771D01*
X162230952Y-78385771D02*
X162230952Y-78623866D01*
X162230952Y-78623866D02*
X162183333Y-78814342D01*
X162183333Y-78814342D02*
X162135714Y-78909580D01*
X162135714Y-78909580D02*
X162088095Y-78957200D01*
X162088095Y-78957200D02*
X161992857Y-79004819D01*
X161992857Y-79004819D02*
X161897619Y-79004819D01*
X161897619Y-79004819D02*
X161802381Y-78957200D01*
X161802381Y-78957200D02*
X161754762Y-78909580D01*
X161754762Y-78909580D02*
X161707143Y-78814342D01*
X161707143Y-78814342D02*
X161659524Y-78623866D01*
X161659524Y-78623866D02*
X161659524Y-78385771D01*
X161659524Y-78385771D02*
X161707143Y-78195295D01*
X161707143Y-78195295D02*
X161754762Y-78100057D01*
X161754762Y-78100057D02*
X161802381Y-78052438D01*
X161802381Y-78052438D02*
X161897619Y-78004819D01*
X162850000Y-78004819D02*
X162945238Y-78004819D01*
X162945238Y-78004819D02*
X163040476Y-78052438D01*
X163040476Y-78052438D02*
X163088095Y-78100057D01*
X163088095Y-78100057D02*
X163135714Y-78195295D01*
X163135714Y-78195295D02*
X163183333Y-78385771D01*
X163183333Y-78385771D02*
X163183333Y-78623866D01*
X163183333Y-78623866D02*
X163135714Y-78814342D01*
X163135714Y-78814342D02*
X163088095Y-78909580D01*
X163088095Y-78909580D02*
X163040476Y-78957200D01*
X163040476Y-78957200D02*
X162945238Y-79004819D01*
X162945238Y-79004819D02*
X162850000Y-79004819D01*
X162850000Y-79004819D02*
X162754762Y-78957200D01*
X162754762Y-78957200D02*
X162707143Y-78909580D01*
X162707143Y-78909580D02*
X162659524Y-78814342D01*
X162659524Y-78814342D02*
X162611905Y-78623866D01*
X162611905Y-78623866D02*
X162611905Y-78385771D01*
X162611905Y-78385771D02*
X162659524Y-78195295D01*
X162659524Y-78195295D02*
X162707143Y-78100057D01*
X162707143Y-78100057D02*
X162754762Y-78052438D01*
X162754762Y-78052438D02*
X162850000Y-78004819D01*
X163611905Y-79004819D02*
X163611905Y-78004819D01*
X163611905Y-78004819D02*
X163992857Y-78004819D01*
X163992857Y-78004819D02*
X164088095Y-78052438D01*
X164088095Y-78052438D02*
X164135714Y-78100057D01*
X164135714Y-78100057D02*
X164183333Y-78195295D01*
X164183333Y-78195295D02*
X164183333Y-78338152D01*
X164183333Y-78338152D02*
X164135714Y-78433390D01*
X164135714Y-78433390D02*
X164088095Y-78481009D01*
X164088095Y-78481009D02*
X163992857Y-78528628D01*
X163992857Y-78528628D02*
X163611905Y-78528628D01*
D10*
X110878333Y-91789765D02*
X110866429Y-91801670D01*
X110866429Y-91801670D02*
X110830714Y-91813574D01*
X110830714Y-91813574D02*
X110806905Y-91813574D01*
X110806905Y-91813574D02*
X110771191Y-91801670D01*
X110771191Y-91801670D02*
X110747381Y-91777860D01*
X110747381Y-91777860D02*
X110735476Y-91754050D01*
X110735476Y-91754050D02*
X110723572Y-91706431D01*
X110723572Y-91706431D02*
X110723572Y-91670717D01*
X110723572Y-91670717D02*
X110735476Y-91623098D01*
X110735476Y-91623098D02*
X110747381Y-91599289D01*
X110747381Y-91599289D02*
X110771191Y-91575479D01*
X110771191Y-91575479D02*
X110806905Y-91563574D01*
X110806905Y-91563574D02*
X110830714Y-91563574D01*
X110830714Y-91563574D02*
X110866429Y-91575479D01*
X110866429Y-91575479D02*
X110878333Y-91587384D01*
X110973572Y-91587384D02*
X110985476Y-91575479D01*
X110985476Y-91575479D02*
X111009286Y-91563574D01*
X111009286Y-91563574D02*
X111068810Y-91563574D01*
X111068810Y-91563574D02*
X111092619Y-91575479D01*
X111092619Y-91575479D02*
X111104524Y-91587384D01*
X111104524Y-91587384D02*
X111116429Y-91611193D01*
X111116429Y-91611193D02*
X111116429Y-91635003D01*
X111116429Y-91635003D02*
X111104524Y-91670717D01*
X111104524Y-91670717D02*
X110961667Y-91813574D01*
X110961667Y-91813574D02*
X111116429Y-91813574D01*
D11*
X138071904Y-112860895D02*
X137595714Y-112860895D01*
X138167142Y-112575180D02*
X137833809Y-113575180D01*
X137833809Y-113575180D02*
X137500476Y-112575180D01*
X137167142Y-112575180D02*
X137167142Y-113575180D01*
X137167142Y-113575180D02*
X136786190Y-113575180D01*
X136786190Y-113575180D02*
X136690952Y-113527561D01*
X136690952Y-113527561D02*
X136643333Y-113479942D01*
X136643333Y-113479942D02*
X136595714Y-113384704D01*
X136595714Y-113384704D02*
X136595714Y-113241847D01*
X136595714Y-113241847D02*
X136643333Y-113146609D01*
X136643333Y-113146609D02*
X136690952Y-113098990D01*
X136690952Y-113098990D02*
X136786190Y-113051371D01*
X136786190Y-113051371D02*
X137167142Y-113051371D01*
X136214761Y-113479942D02*
X136167142Y-113527561D01*
X136167142Y-113527561D02*
X136071904Y-113575180D01*
X136071904Y-113575180D02*
X135833809Y-113575180D01*
X135833809Y-113575180D02*
X135738571Y-113527561D01*
X135738571Y-113527561D02*
X135690952Y-113479942D01*
X135690952Y-113479942D02*
X135643333Y-113384704D01*
X135643333Y-113384704D02*
X135643333Y-113289466D01*
X135643333Y-113289466D02*
X135690952Y-113146609D01*
X135690952Y-113146609D02*
X136262380Y-112575180D01*
X136262380Y-112575180D02*
X135643333Y-112575180D01*
X134690952Y-112575180D02*
X135262380Y-112575180D01*
X134976666Y-112575180D02*
X134976666Y-113575180D01*
X134976666Y-113575180D02*
X135071904Y-113432323D01*
X135071904Y-113432323D02*
X135167142Y-113337085D01*
X135167142Y-113337085D02*
X135262380Y-113289466D01*
X133738571Y-112575180D02*
X134309999Y-112575180D01*
X134024285Y-112575180D02*
X134024285Y-113575180D01*
X134024285Y-113575180D02*
X134119523Y-113432323D01*
X134119523Y-113432323D02*
X134214761Y-113337085D01*
X134214761Y-113337085D02*
X134309999Y-113289466D01*
X132881428Y-113241847D02*
X132881428Y-112575180D01*
X133119523Y-113622800D02*
X133357618Y-112908514D01*
X133357618Y-112908514D02*
X132738571Y-112908514D01*
X132357618Y-112575180D02*
X132357618Y-113575180D01*
X132357618Y-113098990D02*
X131786190Y-113098990D01*
X131786190Y-112575180D02*
X131786190Y-113575180D01*
X131357618Y-112860895D02*
X130881428Y-112860895D01*
X131452856Y-112575180D02*
X131119523Y-113575180D01*
X131119523Y-113575180D02*
X130786190Y-112575180D01*
X130452856Y-112956133D02*
X129690952Y-112956133D01*
X129309999Y-113575180D02*
X128690952Y-113575180D01*
X128690952Y-113575180D02*
X129024285Y-113194228D01*
X129024285Y-113194228D02*
X128881428Y-113194228D01*
X128881428Y-113194228D02*
X128786190Y-113146609D01*
X128786190Y-113146609D02*
X128738571Y-113098990D01*
X128738571Y-113098990D02*
X128690952Y-113003752D01*
X128690952Y-113003752D02*
X128690952Y-112765657D01*
X128690952Y-112765657D02*
X128738571Y-112670419D01*
X128738571Y-112670419D02*
X128786190Y-112622800D01*
X128786190Y-112622800D02*
X128881428Y-112575180D01*
X128881428Y-112575180D02*
X129167142Y-112575180D01*
X129167142Y-112575180D02*
X129262380Y-112622800D01*
X129262380Y-112622800D02*
X129309999Y-112670419D01*
X128262380Y-112670419D02*
X128214761Y-112622800D01*
X128214761Y-112622800D02*
X128262380Y-112575180D01*
X128262380Y-112575180D02*
X128309999Y-112622800D01*
X128309999Y-112622800D02*
X128262380Y-112670419D01*
X128262380Y-112670419D02*
X128262380Y-112575180D01*
X127881428Y-113575180D02*
X127262381Y-113575180D01*
X127262381Y-113575180D02*
X127595714Y-113194228D01*
X127595714Y-113194228D02*
X127452857Y-113194228D01*
X127452857Y-113194228D02*
X127357619Y-113146609D01*
X127357619Y-113146609D02*
X127310000Y-113098990D01*
X127310000Y-113098990D02*
X127262381Y-113003752D01*
X127262381Y-113003752D02*
X127262381Y-112765657D01*
X127262381Y-112765657D02*
X127310000Y-112670419D01*
X127310000Y-112670419D02*
X127357619Y-112622800D01*
X127357619Y-112622800D02*
X127452857Y-112575180D01*
X127452857Y-112575180D02*
X127738571Y-112575180D01*
X127738571Y-112575180D02*
X127833809Y-112622800D01*
X127833809Y-112622800D02*
X127881428Y-112670419D01*
X126976666Y-113575180D02*
X126405238Y-113575180D01*
X126690952Y-112575180D02*
X126690952Y-113575180D01*
X125500476Y-112575180D02*
X125833809Y-113051371D01*
X126071904Y-112575180D02*
X126071904Y-113575180D01*
X126071904Y-113575180D02*
X125690952Y-113575180D01*
X125690952Y-113575180D02*
X125595714Y-113527561D01*
X125595714Y-113527561D02*
X125548095Y-113479942D01*
X125548095Y-113479942D02*
X125500476Y-113384704D01*
X125500476Y-113384704D02*
X125500476Y-113241847D01*
X125500476Y-113241847D02*
X125548095Y-113146609D01*
X125548095Y-113146609D02*
X125595714Y-113098990D01*
X125595714Y-113098990D02*
X125690952Y-113051371D01*
X125690952Y-113051371D02*
X126071904Y-113051371D01*
X124548095Y-113527561D02*
X124643333Y-113575180D01*
X124643333Y-113575180D02*
X124786190Y-113575180D01*
X124786190Y-113575180D02*
X124929047Y-113527561D01*
X124929047Y-113527561D02*
X125024285Y-113432323D01*
X125024285Y-113432323D02*
X125071904Y-113337085D01*
X125071904Y-113337085D02*
X125119523Y-113146609D01*
X125119523Y-113146609D02*
X125119523Y-113003752D01*
X125119523Y-113003752D02*
X125071904Y-112813276D01*
X125071904Y-112813276D02*
X125024285Y-112718038D01*
X125024285Y-112718038D02*
X124929047Y-112622800D01*
X124929047Y-112622800D02*
X124786190Y-112575180D01*
X124786190Y-112575180D02*
X124690952Y-112575180D01*
X124690952Y-112575180D02*
X124548095Y-112622800D01*
X124548095Y-112622800D02*
X124500476Y-112670419D01*
X124500476Y-112670419D02*
X124500476Y-113003752D01*
X124500476Y-113003752D02*
X124690952Y-113003752D01*
X123548095Y-112575180D02*
X124119523Y-112575180D01*
X123833809Y-112575180D02*
X123833809Y-113575180D01*
X123833809Y-113575180D02*
X123929047Y-113432323D01*
X123929047Y-113432323D02*
X124024285Y-113337085D01*
X124024285Y-113337085D02*
X124119523Y-113289466D01*
X141731904Y-110499380D02*
X141731904Y-109689857D01*
X141731904Y-109689857D02*
X141684285Y-109594619D01*
X141684285Y-109594619D02*
X141636666Y-109547000D01*
X141636666Y-109547000D02*
X141541428Y-109499380D01*
X141541428Y-109499380D02*
X141350952Y-109499380D01*
X141350952Y-109499380D02*
X141255714Y-109547000D01*
X141255714Y-109547000D02*
X141208095Y-109594619D01*
X141208095Y-109594619D02*
X141160476Y-109689857D01*
X141160476Y-109689857D02*
X141160476Y-110499380D01*
X140160476Y-109499380D02*
X140731904Y-109499380D01*
X140446190Y-109499380D02*
X140446190Y-110499380D01*
X140446190Y-110499380D02*
X140541428Y-110356523D01*
X140541428Y-110356523D02*
X140636666Y-110261285D01*
X140636666Y-110261285D02*
X140731904Y-110213666D01*
D10*
X112433041Y-82693746D02*
X112421137Y-82705651D01*
X112421137Y-82705651D02*
X112385422Y-82717555D01*
X112385422Y-82717555D02*
X112361613Y-82717555D01*
X112361613Y-82717555D02*
X112325899Y-82705651D01*
X112325899Y-82705651D02*
X112302089Y-82681841D01*
X112302089Y-82681841D02*
X112290184Y-82658031D01*
X112290184Y-82658031D02*
X112278280Y-82610412D01*
X112278280Y-82610412D02*
X112278280Y-82574698D01*
X112278280Y-82574698D02*
X112290184Y-82527079D01*
X112290184Y-82527079D02*
X112302089Y-82503270D01*
X112302089Y-82503270D02*
X112325899Y-82479460D01*
X112325899Y-82479460D02*
X112361613Y-82467555D01*
X112361613Y-82467555D02*
X112385422Y-82467555D01*
X112385422Y-82467555D02*
X112421137Y-82479460D01*
X112421137Y-82479460D02*
X112433041Y-82491365D01*
X112575899Y-82574698D02*
X112552089Y-82562793D01*
X112552089Y-82562793D02*
X112540184Y-82550889D01*
X112540184Y-82550889D02*
X112528280Y-82527079D01*
X112528280Y-82527079D02*
X112528280Y-82515174D01*
X112528280Y-82515174D02*
X112540184Y-82491365D01*
X112540184Y-82491365D02*
X112552089Y-82479460D01*
X112552089Y-82479460D02*
X112575899Y-82467555D01*
X112575899Y-82467555D02*
X112623518Y-82467555D01*
X112623518Y-82467555D02*
X112647327Y-82479460D01*
X112647327Y-82479460D02*
X112659232Y-82491365D01*
X112659232Y-82491365D02*
X112671137Y-82515174D01*
X112671137Y-82515174D02*
X112671137Y-82527079D01*
X112671137Y-82527079D02*
X112659232Y-82550889D01*
X112659232Y-82550889D02*
X112647327Y-82562793D01*
X112647327Y-82562793D02*
X112623518Y-82574698D01*
X112623518Y-82574698D02*
X112575899Y-82574698D01*
X112575899Y-82574698D02*
X112552089Y-82586603D01*
X112552089Y-82586603D02*
X112540184Y-82598508D01*
X112540184Y-82598508D02*
X112528280Y-82622317D01*
X112528280Y-82622317D02*
X112528280Y-82669936D01*
X112528280Y-82669936D02*
X112540184Y-82693746D01*
X112540184Y-82693746D02*
X112552089Y-82705651D01*
X112552089Y-82705651D02*
X112575899Y-82717555D01*
X112575899Y-82717555D02*
X112623518Y-82717555D01*
X112623518Y-82717555D02*
X112647327Y-82705651D01*
X112647327Y-82705651D02*
X112659232Y-82693746D01*
X112659232Y-82693746D02*
X112671137Y-82669936D01*
X112671137Y-82669936D02*
X112671137Y-82622317D01*
X112671137Y-82622317D02*
X112659232Y-82598508D01*
X112659232Y-82598508D02*
X112647327Y-82586603D01*
X112647327Y-82586603D02*
X112623518Y-82574698D01*
D11*
X150038095Y-109873866D02*
X150085714Y-109826247D01*
X150085714Y-109826247D02*
X150180952Y-109778628D01*
X150180952Y-109778628D02*
X150371428Y-109873866D01*
X150371428Y-109873866D02*
X150466666Y-109826247D01*
X150466666Y-109826247D02*
X150514285Y-109778628D01*
D10*
X125431486Y-83224281D02*
X125419582Y-83236186D01*
X125419582Y-83236186D02*
X125383867Y-83248090D01*
X125383867Y-83248090D02*
X125360058Y-83248090D01*
X125360058Y-83248090D02*
X125324344Y-83236186D01*
X125324344Y-83236186D02*
X125300534Y-83212376D01*
X125300534Y-83212376D02*
X125288629Y-83188566D01*
X125288629Y-83188566D02*
X125276725Y-83140947D01*
X125276725Y-83140947D02*
X125276725Y-83105233D01*
X125276725Y-83105233D02*
X125288629Y-83057614D01*
X125288629Y-83057614D02*
X125300534Y-83033805D01*
X125300534Y-83033805D02*
X125324344Y-83009995D01*
X125324344Y-83009995D02*
X125360058Y-82998090D01*
X125360058Y-82998090D02*
X125383867Y-82998090D01*
X125383867Y-82998090D02*
X125419582Y-83009995D01*
X125419582Y-83009995D02*
X125431486Y-83021900D01*
X125645772Y-82998090D02*
X125598153Y-82998090D01*
X125598153Y-82998090D02*
X125574344Y-83009995D01*
X125574344Y-83009995D02*
X125562439Y-83021900D01*
X125562439Y-83021900D02*
X125538629Y-83057614D01*
X125538629Y-83057614D02*
X125526725Y-83105233D01*
X125526725Y-83105233D02*
X125526725Y-83200471D01*
X125526725Y-83200471D02*
X125538629Y-83224281D01*
X125538629Y-83224281D02*
X125550534Y-83236186D01*
X125550534Y-83236186D02*
X125574344Y-83248090D01*
X125574344Y-83248090D02*
X125621963Y-83248090D01*
X125621963Y-83248090D02*
X125645772Y-83236186D01*
X125645772Y-83236186D02*
X125657677Y-83224281D01*
X125657677Y-83224281D02*
X125669582Y-83200471D01*
X125669582Y-83200471D02*
X125669582Y-83140947D01*
X125669582Y-83140947D02*
X125657677Y-83117138D01*
X125657677Y-83117138D02*
X125645772Y-83105233D01*
X125645772Y-83105233D02*
X125621963Y-83093328D01*
X125621963Y-83093328D02*
X125574344Y-83093328D01*
X125574344Y-83093328D02*
X125550534Y-83105233D01*
X125550534Y-83105233D02*
X125538629Y-83117138D01*
X125538629Y-83117138D02*
X125526725Y-83140947D01*
D11*
X120764819Y-80022856D02*
X120764819Y-79927618D01*
X120764819Y-79927618D02*
X120812438Y-79832380D01*
X120812438Y-79832380D02*
X120860057Y-79784761D01*
X120860057Y-79784761D02*
X120955295Y-79737142D01*
X120955295Y-79737142D02*
X121145771Y-79689523D01*
X121145771Y-79689523D02*
X121383866Y-79689523D01*
X121383866Y-79689523D02*
X121574342Y-79737142D01*
X121574342Y-79737142D02*
X121669580Y-79784761D01*
X121669580Y-79784761D02*
X121717200Y-79832380D01*
X121717200Y-79832380D02*
X121764819Y-79927618D01*
X121764819Y-79927618D02*
X121764819Y-80022856D01*
X121764819Y-80022856D02*
X121717200Y-80118094D01*
X121717200Y-80118094D02*
X121669580Y-80165713D01*
X121669580Y-80165713D02*
X121574342Y-80213332D01*
X121574342Y-80213332D02*
X121383866Y-80260951D01*
X121383866Y-80260951D02*
X121145771Y-80260951D01*
X121145771Y-80260951D02*
X120955295Y-80213332D01*
X120955295Y-80213332D02*
X120860057Y-80165713D01*
X120860057Y-80165713D02*
X120812438Y-80118094D01*
X120812438Y-80118094D02*
X120764819Y-80022856D01*
X121669580Y-79260951D02*
X121717200Y-79213332D01*
X121717200Y-79213332D02*
X121764819Y-79260951D01*
X121764819Y-79260951D02*
X121717200Y-79308570D01*
X121717200Y-79308570D02*
X121669580Y-79260951D01*
X121669580Y-79260951D02*
X121764819Y-79260951D01*
X121764819Y-78260952D02*
X121764819Y-78832380D01*
X121764819Y-78546666D02*
X120764819Y-78546666D01*
X120764819Y-78546666D02*
X120907676Y-78641904D01*
X120907676Y-78641904D02*
X121002914Y-78737142D01*
X121002914Y-78737142D02*
X121050533Y-78832380D01*
X121098152Y-77403809D02*
X121764819Y-77403809D01*
X121098152Y-77832380D02*
X121621961Y-77832380D01*
X121621961Y-77832380D02*
X121717200Y-77784761D01*
X121717200Y-77784761D02*
X121764819Y-77689523D01*
X121764819Y-77689523D02*
X121764819Y-77546666D01*
X121764819Y-77546666D02*
X121717200Y-77451428D01*
X121717200Y-77451428D02*
X121669580Y-77403809D01*
X121241009Y-76594285D02*
X121241009Y-76927618D01*
X121764819Y-76927618D02*
X120764819Y-76927618D01*
X120764819Y-76927618D02*
X120764819Y-76451428D01*
D10*
X120239765Y-78421666D02*
X120251670Y-78433570D01*
X120251670Y-78433570D02*
X120263574Y-78469285D01*
X120263574Y-78469285D02*
X120263574Y-78493094D01*
X120263574Y-78493094D02*
X120251670Y-78528808D01*
X120251670Y-78528808D02*
X120227860Y-78552618D01*
X120227860Y-78552618D02*
X120204050Y-78564523D01*
X120204050Y-78564523D02*
X120156431Y-78576427D01*
X120156431Y-78576427D02*
X120120717Y-78576427D01*
X120120717Y-78576427D02*
X120073098Y-78564523D01*
X120073098Y-78564523D02*
X120049289Y-78552618D01*
X120049289Y-78552618D02*
X120025479Y-78528808D01*
X120025479Y-78528808D02*
X120013574Y-78493094D01*
X120013574Y-78493094D02*
X120013574Y-78469285D01*
X120013574Y-78469285D02*
X120025479Y-78433570D01*
X120025479Y-78433570D02*
X120037384Y-78421666D01*
X120013574Y-78338332D02*
X120013574Y-78171666D01*
X120013574Y-78171666D02*
X120263574Y-78278808D01*
D11*
X151008838Y-67407533D02*
X151075505Y-67340866D01*
X151075505Y-67340866D02*
X151208838Y-67274200D01*
X151208838Y-67274200D02*
X151475505Y-67407533D01*
X151475505Y-67407533D02*
X151608838Y-67340866D01*
X151608838Y-67340866D02*
X151675505Y-67274200D01*
X145552438Y-101488095D02*
X145504819Y-101583333D01*
X145504819Y-101583333D02*
X145504819Y-101726190D01*
X145504819Y-101726190D02*
X145552438Y-101869047D01*
X145552438Y-101869047D02*
X145647676Y-101964285D01*
X145647676Y-101964285D02*
X145742914Y-102011904D01*
X145742914Y-102011904D02*
X145933390Y-102059523D01*
X145933390Y-102059523D02*
X146076247Y-102059523D01*
X146076247Y-102059523D02*
X146266723Y-102011904D01*
X146266723Y-102011904D02*
X146361961Y-101964285D01*
X146361961Y-101964285D02*
X146457200Y-101869047D01*
X146457200Y-101869047D02*
X146504819Y-101726190D01*
X146504819Y-101726190D02*
X146504819Y-101630952D01*
X146504819Y-101630952D02*
X146457200Y-101488095D01*
X146457200Y-101488095D02*
X146409580Y-101440476D01*
X146409580Y-101440476D02*
X146076247Y-101440476D01*
X146076247Y-101440476D02*
X146076247Y-101630952D01*
X146504819Y-100440476D02*
X146028628Y-100773809D01*
X146504819Y-101011904D02*
X145504819Y-101011904D01*
X145504819Y-101011904D02*
X145504819Y-100630952D01*
X145504819Y-100630952D02*
X145552438Y-100535714D01*
X145552438Y-100535714D02*
X145600057Y-100488095D01*
X145600057Y-100488095D02*
X145695295Y-100440476D01*
X145695295Y-100440476D02*
X145838152Y-100440476D01*
X145838152Y-100440476D02*
X145933390Y-100488095D01*
X145933390Y-100488095D02*
X145981009Y-100535714D01*
X145981009Y-100535714D02*
X146028628Y-100630952D01*
X146028628Y-100630952D02*
X146028628Y-101011904D01*
X146504819Y-100011904D02*
X145504819Y-100011904D01*
X145504819Y-100011904D02*
X145504819Y-99630952D01*
X145504819Y-99630952D02*
X145552438Y-99535714D01*
X145552438Y-99535714D02*
X145600057Y-99488095D01*
X145600057Y-99488095D02*
X145695295Y-99440476D01*
X145695295Y-99440476D02*
X145838152Y-99440476D01*
X145838152Y-99440476D02*
X145933390Y-99488095D01*
X145933390Y-99488095D02*
X145981009Y-99535714D01*
X145981009Y-99535714D02*
X146028628Y-99630952D01*
X146028628Y-99630952D02*
X146028628Y-100011904D01*
X145981009Y-98678571D02*
X146028628Y-98535714D01*
X146028628Y-98535714D02*
X146076247Y-98488095D01*
X146076247Y-98488095D02*
X146171485Y-98440476D01*
X146171485Y-98440476D02*
X146314342Y-98440476D01*
X146314342Y-98440476D02*
X146409580Y-98488095D01*
X146409580Y-98488095D02*
X146457200Y-98535714D01*
X146457200Y-98535714D02*
X146504819Y-98630952D01*
X146504819Y-98630952D02*
X146504819Y-99011904D01*
X146504819Y-99011904D02*
X145504819Y-99011904D01*
X145504819Y-99011904D02*
X145504819Y-98678571D01*
X145504819Y-98678571D02*
X145552438Y-98583333D01*
X145552438Y-98583333D02*
X145600057Y-98535714D01*
X145600057Y-98535714D02*
X145695295Y-98488095D01*
X145695295Y-98488095D02*
X145790533Y-98488095D01*
X145790533Y-98488095D02*
X145885771Y-98535714D01*
X145885771Y-98535714D02*
X145933390Y-98583333D01*
X145933390Y-98583333D02*
X145981009Y-98678571D01*
X145981009Y-98678571D02*
X145981009Y-99011904D01*
X145504819Y-97821428D02*
X145504819Y-97726190D01*
X145504819Y-97726190D02*
X145552438Y-97630952D01*
X145552438Y-97630952D02*
X145600057Y-97583333D01*
X145600057Y-97583333D02*
X145695295Y-97535714D01*
X145695295Y-97535714D02*
X145885771Y-97488095D01*
X145885771Y-97488095D02*
X146123866Y-97488095D01*
X146123866Y-97488095D02*
X146314342Y-97535714D01*
X146314342Y-97535714D02*
X146409580Y-97583333D01*
X146409580Y-97583333D02*
X146457200Y-97630952D01*
X146457200Y-97630952D02*
X146504819Y-97726190D01*
X146504819Y-97726190D02*
X146504819Y-97821428D01*
X146504819Y-97821428D02*
X146457200Y-97916666D01*
X146457200Y-97916666D02*
X146409580Y-97964285D01*
X146409580Y-97964285D02*
X146314342Y-98011904D01*
X146314342Y-98011904D02*
X146123866Y-98059523D01*
X146123866Y-98059523D02*
X145885771Y-98059523D01*
X145885771Y-98059523D02*
X145695295Y-98011904D01*
X145695295Y-98011904D02*
X145600057Y-97964285D01*
X145600057Y-97964285D02*
X145552438Y-97916666D01*
X145552438Y-97916666D02*
X145504819Y-97821428D01*
X145504819Y-96583333D02*
X145504819Y-97059523D01*
X145504819Y-97059523D02*
X145981009Y-97107142D01*
X145981009Y-97107142D02*
X145933390Y-97059523D01*
X145933390Y-97059523D02*
X145885771Y-96964285D01*
X145885771Y-96964285D02*
X145885771Y-96726190D01*
X145885771Y-96726190D02*
X145933390Y-96630952D01*
X145933390Y-96630952D02*
X145981009Y-96583333D01*
X145981009Y-96583333D02*
X146076247Y-96535714D01*
X146076247Y-96535714D02*
X146314342Y-96535714D01*
X146314342Y-96535714D02*
X146409580Y-96583333D01*
X146409580Y-96583333D02*
X146457200Y-96630952D01*
X146457200Y-96630952D02*
X146504819Y-96726190D01*
X146504819Y-96726190D02*
X146504819Y-96964285D01*
X146504819Y-96964285D02*
X146457200Y-97059523D01*
X146457200Y-97059523D02*
X146409580Y-97107142D01*
X145600057Y-96154761D02*
X145552438Y-96107142D01*
X145552438Y-96107142D02*
X145504819Y-96011904D01*
X145504819Y-96011904D02*
X145504819Y-95773809D01*
X145504819Y-95773809D02*
X145552438Y-95678571D01*
X145552438Y-95678571D02*
X145600057Y-95630952D01*
X145600057Y-95630952D02*
X145695295Y-95583333D01*
X145695295Y-95583333D02*
X145790533Y-95583333D01*
X145790533Y-95583333D02*
X145933390Y-95630952D01*
X145933390Y-95630952D02*
X146504819Y-96202380D01*
X146504819Y-96202380D02*
X146504819Y-95583333D01*
X145504819Y-95297618D02*
X146504819Y-94964285D01*
X146504819Y-94964285D02*
X145504819Y-94630952D01*
X145504819Y-94392856D02*
X146504819Y-94154761D01*
X146504819Y-94154761D02*
X145790533Y-93964285D01*
X145790533Y-93964285D02*
X146504819Y-93773809D01*
X146504819Y-93773809D02*
X145504819Y-93535714D01*
X145504819Y-93297618D02*
X146504819Y-92964285D01*
X146504819Y-92964285D02*
X145504819Y-92630952D01*
X146504819Y-92297618D02*
X145504819Y-92297618D01*
X145504819Y-92297618D02*
X146504819Y-91726190D01*
X146504819Y-91726190D02*
X145504819Y-91726190D01*
X146123866Y-91249999D02*
X146123866Y-90488095D01*
X146504819Y-89440476D02*
X146028628Y-89773809D01*
X146504819Y-90011904D02*
X145504819Y-90011904D01*
X145504819Y-90011904D02*
X145504819Y-89630952D01*
X145504819Y-89630952D02*
X145552438Y-89535714D01*
X145552438Y-89535714D02*
X145600057Y-89488095D01*
X145600057Y-89488095D02*
X145695295Y-89440476D01*
X145695295Y-89440476D02*
X145838152Y-89440476D01*
X145838152Y-89440476D02*
X145933390Y-89488095D01*
X145933390Y-89488095D02*
X145981009Y-89535714D01*
X145981009Y-89535714D02*
X146028628Y-89630952D01*
X146028628Y-89630952D02*
X146028628Y-90011904D01*
X146409580Y-88440476D02*
X146457200Y-88488095D01*
X146457200Y-88488095D02*
X146504819Y-88630952D01*
X146504819Y-88630952D02*
X146504819Y-88726190D01*
X146504819Y-88726190D02*
X146457200Y-88869047D01*
X146457200Y-88869047D02*
X146361961Y-88964285D01*
X146361961Y-88964285D02*
X146266723Y-89011904D01*
X146266723Y-89011904D02*
X146076247Y-89059523D01*
X146076247Y-89059523D02*
X145933390Y-89059523D01*
X145933390Y-89059523D02*
X145742914Y-89011904D01*
X145742914Y-89011904D02*
X145647676Y-88964285D01*
X145647676Y-88964285D02*
X145552438Y-88869047D01*
X145552438Y-88869047D02*
X145504819Y-88726190D01*
X145504819Y-88726190D02*
X145504819Y-88630952D01*
X145504819Y-88630952D02*
X145552438Y-88488095D01*
X145552438Y-88488095D02*
X145600057Y-88440476D01*
X132073006Y-110556844D02*
X132120625Y-110413987D01*
X132120625Y-110413987D02*
X132168244Y-110366368D01*
X132168244Y-110366368D02*
X132263482Y-110318749D01*
X132263482Y-110318749D02*
X132406339Y-110318749D01*
X132406339Y-110318749D02*
X132501577Y-110366368D01*
X132501577Y-110366368D02*
X132549197Y-110413987D01*
X132549197Y-110413987D02*
X132596816Y-110509225D01*
X132596816Y-110509225D02*
X132596816Y-110890177D01*
X132596816Y-110890177D02*
X131596816Y-110890177D01*
X131596816Y-110890177D02*
X131596816Y-110556844D01*
X131596816Y-110556844D02*
X131644435Y-110461606D01*
X131644435Y-110461606D02*
X131692054Y-110413987D01*
X131692054Y-110413987D02*
X131787292Y-110366368D01*
X131787292Y-110366368D02*
X131882530Y-110366368D01*
X131882530Y-110366368D02*
X131977768Y-110413987D01*
X131977768Y-110413987D02*
X132025387Y-110461606D01*
X132025387Y-110461606D02*
X132073006Y-110556844D01*
X132073006Y-110556844D02*
X132073006Y-110890177D01*
X132596816Y-109413987D02*
X132596816Y-109890177D01*
X132596816Y-109890177D02*
X131596816Y-109890177D01*
X132596816Y-109080653D02*
X131596816Y-109080653D01*
X131596816Y-109080653D02*
X132311101Y-108747320D01*
X132311101Y-108747320D02*
X131596816Y-108413987D01*
X131596816Y-108413987D02*
X132596816Y-108413987D01*
X132596816Y-107413987D02*
X132596816Y-107985415D01*
X132596816Y-107699701D02*
X131596816Y-107699701D01*
X131596816Y-107699701D02*
X131739673Y-107794939D01*
X131739673Y-107794939D02*
X131834911Y-107890177D01*
X131834911Y-107890177D02*
X131882530Y-107985415D01*
X132025387Y-106842558D02*
X131977768Y-106937796D01*
X131977768Y-106937796D02*
X131930149Y-106985415D01*
X131930149Y-106985415D02*
X131834911Y-107033034D01*
X131834911Y-107033034D02*
X131787292Y-107033034D01*
X131787292Y-107033034D02*
X131692054Y-106985415D01*
X131692054Y-106985415D02*
X131644435Y-106937796D01*
X131644435Y-106937796D02*
X131596816Y-106842558D01*
X131596816Y-106842558D02*
X131596816Y-106652082D01*
X131596816Y-106652082D02*
X131644435Y-106556844D01*
X131644435Y-106556844D02*
X131692054Y-106509225D01*
X131692054Y-106509225D02*
X131787292Y-106461606D01*
X131787292Y-106461606D02*
X131834911Y-106461606D01*
X131834911Y-106461606D02*
X131930149Y-106509225D01*
X131930149Y-106509225D02*
X131977768Y-106556844D01*
X131977768Y-106556844D02*
X132025387Y-106652082D01*
X132025387Y-106652082D02*
X132025387Y-106842558D01*
X132025387Y-106842558D02*
X132073006Y-106937796D01*
X132073006Y-106937796D02*
X132120625Y-106985415D01*
X132120625Y-106985415D02*
X132215863Y-107033034D01*
X132215863Y-107033034D02*
X132406339Y-107033034D01*
X132406339Y-107033034D02*
X132501577Y-106985415D01*
X132501577Y-106985415D02*
X132549197Y-106937796D01*
X132549197Y-106937796D02*
X132596816Y-106842558D01*
X132596816Y-106842558D02*
X132596816Y-106652082D01*
X132596816Y-106652082D02*
X132549197Y-106556844D01*
X132549197Y-106556844D02*
X132501577Y-106509225D01*
X132501577Y-106509225D02*
X132406339Y-106461606D01*
X132406339Y-106461606D02*
X132215863Y-106461606D01*
X132215863Y-106461606D02*
X132120625Y-106509225D01*
X132120625Y-106509225D02*
X132073006Y-106556844D01*
X132073006Y-106556844D02*
X132025387Y-106652082D01*
X132596816Y-106033034D02*
X131596816Y-106033034D01*
X132073006Y-106033034D02*
X132073006Y-105461606D01*
X132596816Y-105461606D02*
X131596816Y-105461606D01*
X132073006Y-104985415D02*
X132073006Y-104652082D01*
X132596816Y-104509225D02*
X132596816Y-104985415D01*
X132596816Y-104985415D02*
X131596816Y-104985415D01*
X131596816Y-104985415D02*
X131596816Y-104509225D01*
X132596816Y-103556844D02*
X132596816Y-104128272D01*
X132596816Y-103842558D02*
X131596816Y-103842558D01*
X131596816Y-103842558D02*
X131739673Y-103937796D01*
X131739673Y-103937796D02*
X131834911Y-104033034D01*
X131834911Y-104033034D02*
X131882530Y-104128272D01*
X131596816Y-102652082D02*
X131596816Y-103128272D01*
X131596816Y-103128272D02*
X132073006Y-103175891D01*
X132073006Y-103175891D02*
X132025387Y-103128272D01*
X132025387Y-103128272D02*
X131977768Y-103033034D01*
X131977768Y-103033034D02*
X131977768Y-102794939D01*
X131977768Y-102794939D02*
X132025387Y-102699701D01*
X132025387Y-102699701D02*
X132073006Y-102652082D01*
X132073006Y-102652082D02*
X132168244Y-102604463D01*
X132168244Y-102604463D02*
X132406339Y-102604463D01*
X132406339Y-102604463D02*
X132501577Y-102652082D01*
X132501577Y-102652082D02*
X132549197Y-102699701D01*
X132549197Y-102699701D02*
X132596816Y-102794939D01*
X132596816Y-102794939D02*
X132596816Y-103033034D01*
X132596816Y-103033034D02*
X132549197Y-103128272D01*
X132549197Y-103128272D02*
X132501577Y-103175891D01*
X131692054Y-102223510D02*
X131644435Y-102175891D01*
X131644435Y-102175891D02*
X131596816Y-102080653D01*
X131596816Y-102080653D02*
X131596816Y-101842558D01*
X131596816Y-101842558D02*
X131644435Y-101747320D01*
X131644435Y-101747320D02*
X131692054Y-101699701D01*
X131692054Y-101699701D02*
X131787292Y-101652082D01*
X131787292Y-101652082D02*
X131882530Y-101652082D01*
X131882530Y-101652082D02*
X132025387Y-101699701D01*
X132025387Y-101699701D02*
X132596816Y-102271129D01*
X132596816Y-102271129D02*
X132596816Y-101652082D01*
X132549197Y-101271129D02*
X132596816Y-101128272D01*
X132596816Y-101128272D02*
X132596816Y-100890177D01*
X132596816Y-100890177D02*
X132549197Y-100794939D01*
X132549197Y-100794939D02*
X132501577Y-100747320D01*
X132501577Y-100747320D02*
X132406339Y-100699701D01*
X132406339Y-100699701D02*
X132311101Y-100699701D01*
X132311101Y-100699701D02*
X132215863Y-100747320D01*
X132215863Y-100747320D02*
X132168244Y-100794939D01*
X132168244Y-100794939D02*
X132120625Y-100890177D01*
X132120625Y-100890177D02*
X132073006Y-101080653D01*
X132073006Y-101080653D02*
X132025387Y-101175891D01*
X132025387Y-101175891D02*
X131977768Y-101223510D01*
X131977768Y-101223510D02*
X131882530Y-101271129D01*
X131882530Y-101271129D02*
X131787292Y-101271129D01*
X131787292Y-101271129D02*
X131692054Y-101223510D01*
X131692054Y-101223510D02*
X131644435Y-101175891D01*
X131644435Y-101175891D02*
X131596816Y-101080653D01*
X131596816Y-101080653D02*
X131596816Y-100842558D01*
X131596816Y-100842558D02*
X131644435Y-100699701D01*
X132596816Y-100271129D02*
X131596816Y-100271129D01*
X131596816Y-100271129D02*
X132596816Y-99699701D01*
X132596816Y-99699701D02*
X131596816Y-99699701D01*
X132596816Y-98699701D02*
X132596816Y-99271129D01*
X132596816Y-98985415D02*
X131596816Y-98985415D01*
X131596816Y-98985415D02*
X131739673Y-99080653D01*
X131739673Y-99080653D02*
X131834911Y-99175891D01*
X131834911Y-99175891D02*
X131882530Y-99271129D01*
X132596816Y-98271129D02*
X131596816Y-98271129D01*
X131596816Y-98271129D02*
X131596816Y-98033034D01*
X131596816Y-98033034D02*
X131644435Y-97890177D01*
X131644435Y-97890177D02*
X131739673Y-97794939D01*
X131739673Y-97794939D02*
X131834911Y-97747320D01*
X131834911Y-97747320D02*
X132025387Y-97699701D01*
X132025387Y-97699701D02*
X132168244Y-97699701D01*
X132168244Y-97699701D02*
X132358720Y-97747320D01*
X132358720Y-97747320D02*
X132453958Y-97794939D01*
X132453958Y-97794939D02*
X132549197Y-97890177D01*
X132549197Y-97890177D02*
X132596816Y-98033034D01*
X132596816Y-98033034D02*
X132596816Y-98271129D01*
X118687143Y-87894819D02*
X118782381Y-87894819D01*
X118782381Y-87894819D02*
X118877619Y-87942438D01*
X118877619Y-87942438D02*
X118925238Y-87990057D01*
X118925238Y-87990057D02*
X118972857Y-88085295D01*
X118972857Y-88085295D02*
X119020476Y-88275771D01*
X119020476Y-88275771D02*
X119020476Y-88513866D01*
X119020476Y-88513866D02*
X118972857Y-88704342D01*
X118972857Y-88704342D02*
X118925238Y-88799580D01*
X118925238Y-88799580D02*
X118877619Y-88847200D01*
X118877619Y-88847200D02*
X118782381Y-88894819D01*
X118782381Y-88894819D02*
X118687143Y-88894819D01*
X118687143Y-88894819D02*
X118591905Y-88847200D01*
X118591905Y-88847200D02*
X118544286Y-88799580D01*
X118544286Y-88799580D02*
X118496667Y-88704342D01*
X118496667Y-88704342D02*
X118449048Y-88513866D01*
X118449048Y-88513866D02*
X118449048Y-88275771D01*
X118449048Y-88275771D02*
X118496667Y-88085295D01*
X118496667Y-88085295D02*
X118544286Y-87990057D01*
X118544286Y-87990057D02*
X118591905Y-87942438D01*
X118591905Y-87942438D02*
X118687143Y-87894819D01*
X119449048Y-88799580D02*
X119496667Y-88847200D01*
X119496667Y-88847200D02*
X119449048Y-88894819D01*
X119449048Y-88894819D02*
X119401429Y-88847200D01*
X119401429Y-88847200D02*
X119449048Y-88799580D01*
X119449048Y-88799580D02*
X119449048Y-88894819D01*
X120449047Y-88894819D02*
X119877619Y-88894819D01*
X120163333Y-88894819D02*
X120163333Y-87894819D01*
X120163333Y-87894819D02*
X120068095Y-88037676D01*
X120068095Y-88037676D02*
X119972857Y-88132914D01*
X119972857Y-88132914D02*
X119877619Y-88180533D01*
X121306190Y-88228152D02*
X121306190Y-88894819D01*
X120877619Y-88228152D02*
X120877619Y-88751961D01*
X120877619Y-88751961D02*
X120925238Y-88847200D01*
X120925238Y-88847200D02*
X121020476Y-88894819D01*
X121020476Y-88894819D02*
X121163333Y-88894819D01*
X121163333Y-88894819D02*
X121258571Y-88847200D01*
X121258571Y-88847200D02*
X121306190Y-88799580D01*
X122115714Y-88371009D02*
X121782381Y-88371009D01*
X121782381Y-88894819D02*
X121782381Y-87894819D01*
X121782381Y-87894819D02*
X122258571Y-87894819D01*
D10*
X120288333Y-89689765D02*
X120276429Y-89701670D01*
X120276429Y-89701670D02*
X120240714Y-89713574D01*
X120240714Y-89713574D02*
X120216905Y-89713574D01*
X120216905Y-89713574D02*
X120181191Y-89701670D01*
X120181191Y-89701670D02*
X120157381Y-89677860D01*
X120157381Y-89677860D02*
X120145476Y-89654050D01*
X120145476Y-89654050D02*
X120133572Y-89606431D01*
X120133572Y-89606431D02*
X120133572Y-89570717D01*
X120133572Y-89570717D02*
X120145476Y-89523098D01*
X120145476Y-89523098D02*
X120157381Y-89499289D01*
X120157381Y-89499289D02*
X120181191Y-89475479D01*
X120181191Y-89475479D02*
X120216905Y-89463574D01*
X120216905Y-89463574D02*
X120240714Y-89463574D01*
X120240714Y-89463574D02*
X120276429Y-89475479D01*
X120276429Y-89475479D02*
X120288333Y-89487384D01*
X120514524Y-89463574D02*
X120395476Y-89463574D01*
X120395476Y-89463574D02*
X120383572Y-89582622D01*
X120383572Y-89582622D02*
X120395476Y-89570717D01*
X120395476Y-89570717D02*
X120419286Y-89558812D01*
X120419286Y-89558812D02*
X120478810Y-89558812D01*
X120478810Y-89558812D02*
X120502619Y-89570717D01*
X120502619Y-89570717D02*
X120514524Y-89582622D01*
X120514524Y-89582622D02*
X120526429Y-89606431D01*
X120526429Y-89606431D02*
X120526429Y-89665955D01*
X120526429Y-89665955D02*
X120514524Y-89689765D01*
X120514524Y-89689765D02*
X120502619Y-89701670D01*
X120502619Y-89701670D02*
X120478810Y-89713574D01*
X120478810Y-89713574D02*
X120419286Y-89713574D01*
X120419286Y-89713574D02*
X120395476Y-89701670D01*
X120395476Y-89701670D02*
X120383572Y-89689765D01*
D11*
X175262034Y-70322567D02*
X175309653Y-70179710D01*
X175309653Y-70179710D02*
X175357272Y-70132091D01*
X175357272Y-70132091D02*
X175452510Y-70084472D01*
X175452510Y-70084472D02*
X175595367Y-70084472D01*
X175595367Y-70084472D02*
X175690605Y-70132091D01*
X175690605Y-70132091D02*
X175738225Y-70179710D01*
X175738225Y-70179710D02*
X175785844Y-70274948D01*
X175785844Y-70274948D02*
X175785844Y-70655900D01*
X175785844Y-70655900D02*
X174785844Y-70655900D01*
X174785844Y-70655900D02*
X174785844Y-70322567D01*
X174785844Y-70322567D02*
X174833463Y-70227329D01*
X174833463Y-70227329D02*
X174881082Y-70179710D01*
X174881082Y-70179710D02*
X174976320Y-70132091D01*
X174976320Y-70132091D02*
X175071558Y-70132091D01*
X175071558Y-70132091D02*
X175166796Y-70179710D01*
X175166796Y-70179710D02*
X175214415Y-70227329D01*
X175214415Y-70227329D02*
X175262034Y-70322567D01*
X175262034Y-70322567D02*
X175262034Y-70655900D01*
X174785844Y-69751138D02*
X174785844Y-69132091D01*
X174785844Y-69132091D02*
X175166796Y-69465424D01*
X175166796Y-69465424D02*
X175166796Y-69322567D01*
X175166796Y-69322567D02*
X175214415Y-69227329D01*
X175214415Y-69227329D02*
X175262034Y-69179710D01*
X175262034Y-69179710D02*
X175357272Y-69132091D01*
X175357272Y-69132091D02*
X175595367Y-69132091D01*
X175595367Y-69132091D02*
X175690605Y-69179710D01*
X175690605Y-69179710D02*
X175738225Y-69227329D01*
X175738225Y-69227329D02*
X175785844Y-69322567D01*
X175785844Y-69322567D02*
X175785844Y-69608281D01*
X175785844Y-69608281D02*
X175738225Y-69703519D01*
X175738225Y-69703519D02*
X175690605Y-69751138D01*
X174785844Y-68703519D02*
X175595367Y-68703519D01*
X175595367Y-68703519D02*
X175690605Y-68655900D01*
X175690605Y-68655900D02*
X175738225Y-68608281D01*
X175738225Y-68608281D02*
X175785844Y-68513043D01*
X175785844Y-68513043D02*
X175785844Y-68322567D01*
X175785844Y-68322567D02*
X175738225Y-68227329D01*
X175738225Y-68227329D02*
X175690605Y-68179710D01*
X175690605Y-68179710D02*
X175595367Y-68132091D01*
X175595367Y-68132091D02*
X174785844Y-68132091D01*
X175404891Y-67655900D02*
X175404891Y-66893996D01*
X175785844Y-65893996D02*
X175785844Y-66465424D01*
X175785844Y-66179710D02*
X174785844Y-66179710D01*
X174785844Y-66179710D02*
X174928701Y-66274948D01*
X174928701Y-66274948D02*
X175023939Y-66370186D01*
X175023939Y-66370186D02*
X175071558Y-66465424D01*
X174785844Y-65274948D02*
X174785844Y-65179710D01*
X174785844Y-65179710D02*
X174833463Y-65084472D01*
X174833463Y-65084472D02*
X174881082Y-65036853D01*
X174881082Y-65036853D02*
X174976320Y-64989234D01*
X174976320Y-64989234D02*
X175166796Y-64941615D01*
X175166796Y-64941615D02*
X175404891Y-64941615D01*
X175404891Y-64941615D02*
X175595367Y-64989234D01*
X175595367Y-64989234D02*
X175690605Y-65036853D01*
X175690605Y-65036853D02*
X175738225Y-65084472D01*
X175738225Y-65084472D02*
X175785844Y-65179710D01*
X175785844Y-65179710D02*
X175785844Y-65274948D01*
X175785844Y-65274948D02*
X175738225Y-65370186D01*
X175738225Y-65370186D02*
X175690605Y-65417805D01*
X175690605Y-65417805D02*
X175595367Y-65465424D01*
X175595367Y-65465424D02*
X175404891Y-65513043D01*
X175404891Y-65513043D02*
X175166796Y-65513043D01*
X175166796Y-65513043D02*
X174976320Y-65465424D01*
X174976320Y-65465424D02*
X174881082Y-65417805D01*
X174881082Y-65417805D02*
X174833463Y-65370186D01*
X174833463Y-65370186D02*
X174785844Y-65274948D01*
X174785844Y-64322567D02*
X174785844Y-64227329D01*
X174785844Y-64227329D02*
X174833463Y-64132091D01*
X174833463Y-64132091D02*
X174881082Y-64084472D01*
X174881082Y-64084472D02*
X174976320Y-64036853D01*
X174976320Y-64036853D02*
X175166796Y-63989234D01*
X175166796Y-63989234D02*
X175404891Y-63989234D01*
X175404891Y-63989234D02*
X175595367Y-64036853D01*
X175595367Y-64036853D02*
X175690605Y-64084472D01*
X175690605Y-64084472D02*
X175738225Y-64132091D01*
X175738225Y-64132091D02*
X175785844Y-64227329D01*
X175785844Y-64227329D02*
X175785844Y-64322567D01*
X175785844Y-64322567D02*
X175738225Y-64417805D01*
X175738225Y-64417805D02*
X175690605Y-64465424D01*
X175690605Y-64465424D02*
X175595367Y-64513043D01*
X175595367Y-64513043D02*
X175404891Y-64560662D01*
X175404891Y-64560662D02*
X175166796Y-64560662D01*
X175166796Y-64560662D02*
X174976320Y-64513043D01*
X174976320Y-64513043D02*
X174881082Y-64465424D01*
X174881082Y-64465424D02*
X174833463Y-64417805D01*
X174833463Y-64417805D02*
X174785844Y-64322567D01*
X174785844Y-63370186D02*
X174785844Y-63274948D01*
X174785844Y-63274948D02*
X174833463Y-63179710D01*
X174833463Y-63179710D02*
X174881082Y-63132091D01*
X174881082Y-63132091D02*
X174976320Y-63084472D01*
X174976320Y-63084472D02*
X175166796Y-63036853D01*
X175166796Y-63036853D02*
X175404891Y-63036853D01*
X175404891Y-63036853D02*
X175595367Y-63084472D01*
X175595367Y-63084472D02*
X175690605Y-63132091D01*
X175690605Y-63132091D02*
X175738225Y-63179710D01*
X175738225Y-63179710D02*
X175785844Y-63274948D01*
X175785844Y-63274948D02*
X175785844Y-63370186D01*
X175785844Y-63370186D02*
X175738225Y-63465424D01*
X175738225Y-63465424D02*
X175690605Y-63513043D01*
X175690605Y-63513043D02*
X175595367Y-63560662D01*
X175595367Y-63560662D02*
X175404891Y-63608281D01*
X175404891Y-63608281D02*
X175166796Y-63608281D01*
X175166796Y-63608281D02*
X174976320Y-63560662D01*
X174976320Y-63560662D02*
X174881082Y-63513043D01*
X174881082Y-63513043D02*
X174833463Y-63465424D01*
X174833463Y-63465424D02*
X174785844Y-63370186D01*
X175785844Y-62608281D02*
X174785844Y-62608281D01*
X174785844Y-62608281D02*
X174785844Y-62227329D01*
X174785844Y-62227329D02*
X174833463Y-62132091D01*
X174833463Y-62132091D02*
X174881082Y-62084472D01*
X174881082Y-62084472D02*
X174976320Y-62036853D01*
X174976320Y-62036853D02*
X175119177Y-62036853D01*
X175119177Y-62036853D02*
X175214415Y-62084472D01*
X175214415Y-62084472D02*
X175262034Y-62132091D01*
X175262034Y-62132091D02*
X175309653Y-62227329D01*
X175309653Y-62227329D02*
X175309653Y-62608281D01*
X117405404Y-77039190D02*
X117405404Y-76943952D01*
X117405404Y-76943952D02*
X117453023Y-76848714D01*
X117453023Y-76848714D02*
X117500642Y-76801095D01*
X117500642Y-76801095D02*
X117595880Y-76753476D01*
X117595880Y-76753476D02*
X117786356Y-76705857D01*
X117786356Y-76705857D02*
X118024451Y-76705857D01*
X118024451Y-76705857D02*
X118214927Y-76753476D01*
X118214927Y-76753476D02*
X118310165Y-76801095D01*
X118310165Y-76801095D02*
X118357785Y-76848714D01*
X118357785Y-76848714D02*
X118405404Y-76943952D01*
X118405404Y-76943952D02*
X118405404Y-77039190D01*
X118405404Y-77039190D02*
X118357785Y-77134428D01*
X118357785Y-77134428D02*
X118310165Y-77182047D01*
X118310165Y-77182047D02*
X118214927Y-77229666D01*
X118214927Y-77229666D02*
X118024451Y-77277285D01*
X118024451Y-77277285D02*
X117786356Y-77277285D01*
X117786356Y-77277285D02*
X117595880Y-77229666D01*
X117595880Y-77229666D02*
X117500642Y-77182047D01*
X117500642Y-77182047D02*
X117453023Y-77134428D01*
X117453023Y-77134428D02*
X117405404Y-77039190D01*
X118310165Y-76277285D02*
X118357785Y-76229666D01*
X118357785Y-76229666D02*
X118405404Y-76277285D01*
X118405404Y-76277285D02*
X118357785Y-76324904D01*
X118357785Y-76324904D02*
X118310165Y-76277285D01*
X118310165Y-76277285D02*
X118405404Y-76277285D01*
X118405404Y-75277286D02*
X118405404Y-75848714D01*
X118405404Y-75563000D02*
X117405404Y-75563000D01*
X117405404Y-75563000D02*
X117548261Y-75658238D01*
X117548261Y-75658238D02*
X117643499Y-75753476D01*
X117643499Y-75753476D02*
X117691118Y-75848714D01*
X117738737Y-74420143D02*
X118405404Y-74420143D01*
X117738737Y-74848714D02*
X118262546Y-74848714D01*
X118262546Y-74848714D02*
X118357785Y-74801095D01*
X118357785Y-74801095D02*
X118405404Y-74705857D01*
X118405404Y-74705857D02*
X118405404Y-74563000D01*
X118405404Y-74563000D02*
X118357785Y-74467762D01*
X118357785Y-74467762D02*
X118310165Y-74420143D01*
X117881594Y-73610619D02*
X117881594Y-73943952D01*
X118405404Y-73943952D02*
X117405404Y-73943952D01*
X117405404Y-73943952D02*
X117405404Y-73467762D01*
D10*
X115489765Y-78540714D02*
X115501670Y-78552618D01*
X115501670Y-78552618D02*
X115513574Y-78588333D01*
X115513574Y-78588333D02*
X115513574Y-78612142D01*
X115513574Y-78612142D02*
X115501670Y-78647856D01*
X115501670Y-78647856D02*
X115477860Y-78671666D01*
X115477860Y-78671666D02*
X115454050Y-78683571D01*
X115454050Y-78683571D02*
X115406431Y-78695475D01*
X115406431Y-78695475D02*
X115370717Y-78695475D01*
X115370717Y-78695475D02*
X115323098Y-78683571D01*
X115323098Y-78683571D02*
X115299289Y-78671666D01*
X115299289Y-78671666D02*
X115275479Y-78647856D01*
X115275479Y-78647856D02*
X115263574Y-78612142D01*
X115263574Y-78612142D02*
X115263574Y-78588333D01*
X115263574Y-78588333D02*
X115275479Y-78552618D01*
X115275479Y-78552618D02*
X115287384Y-78540714D01*
X115513574Y-78302618D02*
X115513574Y-78445475D01*
X115513574Y-78374047D02*
X115263574Y-78374047D01*
X115263574Y-78374047D02*
X115299289Y-78397856D01*
X115299289Y-78397856D02*
X115323098Y-78421666D01*
X115323098Y-78421666D02*
X115335003Y-78445475D01*
X115513574Y-78064523D02*
X115513574Y-78207380D01*
X115513574Y-78135952D02*
X115263574Y-78135952D01*
X115263574Y-78135952D02*
X115299289Y-78159761D01*
X115299289Y-78159761D02*
X115323098Y-78183571D01*
X115323098Y-78183571D02*
X115335003Y-78207380D01*
D11*
X107728571Y-96554819D02*
X107157143Y-96554819D01*
X107442857Y-96554819D02*
X107442857Y-95554819D01*
X107442857Y-95554819D02*
X107347619Y-95697676D01*
X107347619Y-95697676D02*
X107252381Y-95792914D01*
X107252381Y-95792914D02*
X107157143Y-95840533D01*
X108109524Y-95650057D02*
X108157143Y-95602438D01*
X108157143Y-95602438D02*
X108252381Y-95554819D01*
X108252381Y-95554819D02*
X108490476Y-95554819D01*
X108490476Y-95554819D02*
X108585714Y-95602438D01*
X108585714Y-95602438D02*
X108633333Y-95650057D01*
X108633333Y-95650057D02*
X108680952Y-95745295D01*
X108680952Y-95745295D02*
X108680952Y-95840533D01*
X108680952Y-95840533D02*
X108633333Y-95983390D01*
X108633333Y-95983390D02*
X108061905Y-96554819D01*
X108061905Y-96554819D02*
X108680952Y-96554819D01*
X109109524Y-95888152D02*
X109109524Y-96888152D01*
X109109524Y-95935771D02*
X109204762Y-95888152D01*
X109204762Y-95888152D02*
X109395238Y-95888152D01*
X109395238Y-95888152D02*
X109490476Y-95935771D01*
X109490476Y-95935771D02*
X109538095Y-95983390D01*
X109538095Y-95983390D02*
X109585714Y-96078628D01*
X109585714Y-96078628D02*
X109585714Y-96364342D01*
X109585714Y-96364342D02*
X109538095Y-96459580D01*
X109538095Y-96459580D02*
X109490476Y-96507200D01*
X109490476Y-96507200D02*
X109395238Y-96554819D01*
X109395238Y-96554819D02*
X109204762Y-96554819D01*
X109204762Y-96554819D02*
X109109524Y-96507200D01*
X110347619Y-96031009D02*
X110014286Y-96031009D01*
X110014286Y-96554819D02*
X110014286Y-95554819D01*
X110014286Y-95554819D02*
X110490476Y-95554819D01*
D10*
X108914397Y-91762538D02*
X108902493Y-91774443D01*
X108902493Y-91774443D02*
X108866778Y-91786347D01*
X108866778Y-91786347D02*
X108842969Y-91786347D01*
X108842969Y-91786347D02*
X108807255Y-91774443D01*
X108807255Y-91774443D02*
X108783445Y-91750633D01*
X108783445Y-91750633D02*
X108771540Y-91726823D01*
X108771540Y-91726823D02*
X108759636Y-91679204D01*
X108759636Y-91679204D02*
X108759636Y-91643490D01*
X108759636Y-91643490D02*
X108771540Y-91595871D01*
X108771540Y-91595871D02*
X108783445Y-91572062D01*
X108783445Y-91572062D02*
X108807255Y-91548252D01*
X108807255Y-91548252D02*
X108842969Y-91536347D01*
X108842969Y-91536347D02*
X108866778Y-91536347D01*
X108866778Y-91536347D02*
X108902493Y-91548252D01*
X108902493Y-91548252D02*
X108914397Y-91560157D01*
X109152493Y-91786347D02*
X109009636Y-91786347D01*
X109081064Y-91786347D02*
X109081064Y-91536347D01*
X109081064Y-91536347D02*
X109057255Y-91572062D01*
X109057255Y-91572062D02*
X109033445Y-91595871D01*
X109033445Y-91595871D02*
X109009636Y-91607776D01*
D11*
X122374819Y-107505357D02*
X122374819Y-107981547D01*
X122374819Y-107981547D02*
X121374819Y-107981547D01*
X121851009Y-107172023D02*
X121851009Y-106838690D01*
X122374819Y-106695833D02*
X122374819Y-107172023D01*
X122374819Y-107172023D02*
X121374819Y-107172023D01*
X121374819Y-107172023D02*
X121374819Y-106695833D01*
X122374819Y-106267261D02*
X121374819Y-106267261D01*
X121374819Y-106267261D02*
X121374819Y-106029166D01*
X121374819Y-106029166D02*
X121422438Y-105886309D01*
X121422438Y-105886309D02*
X121517676Y-105791071D01*
X121517676Y-105791071D02*
X121612914Y-105743452D01*
X121612914Y-105743452D02*
X121803390Y-105695833D01*
X121803390Y-105695833D02*
X121946247Y-105695833D01*
X121946247Y-105695833D02*
X122136723Y-105743452D01*
X122136723Y-105743452D02*
X122231961Y-105791071D01*
X122231961Y-105791071D02*
X122327200Y-105886309D01*
X122327200Y-105886309D02*
X122374819Y-106029166D01*
X122374819Y-106029166D02*
X122374819Y-106267261D01*
D12*
X119650595Y-106157745D02*
X119250595Y-106157745D01*
X119250595Y-106157745D02*
X119250595Y-106062507D01*
X119250595Y-106062507D02*
X119269643Y-106005364D01*
X119269643Y-106005364D02*
X119307738Y-105967269D01*
X119307738Y-105967269D02*
X119345833Y-105948222D01*
X119345833Y-105948222D02*
X119422024Y-105929174D01*
X119422024Y-105929174D02*
X119479167Y-105929174D01*
X119479167Y-105929174D02*
X119555357Y-105948222D01*
X119555357Y-105948222D02*
X119593452Y-105967269D01*
X119593452Y-105967269D02*
X119631548Y-106005364D01*
X119631548Y-106005364D02*
X119650595Y-106062507D01*
X119650595Y-106062507D02*
X119650595Y-106157745D01*
X119250595Y-105795841D02*
X119250595Y-105548222D01*
X119250595Y-105548222D02*
X119402976Y-105681555D01*
X119402976Y-105681555D02*
X119402976Y-105624412D01*
X119402976Y-105624412D02*
X119422024Y-105586317D01*
X119422024Y-105586317D02*
X119441071Y-105567269D01*
X119441071Y-105567269D02*
X119479167Y-105548222D01*
X119479167Y-105548222D02*
X119574405Y-105548222D01*
X119574405Y-105548222D02*
X119612500Y-105567269D01*
X119612500Y-105567269D02*
X119631548Y-105586317D01*
X119631548Y-105586317D02*
X119650595Y-105624412D01*
X119650595Y-105624412D02*
X119650595Y-105738698D01*
X119650595Y-105738698D02*
X119631548Y-105776793D01*
X119631548Y-105776793D02*
X119612500Y-105795841D01*
D11*
X112669644Y-78177113D02*
X112669644Y-78415208D01*
X112431549Y-78319970D02*
X112669644Y-78415208D01*
X112669644Y-78415208D02*
X112907739Y-78319970D01*
X112526787Y-78605684D02*
X112669644Y-78415208D01*
X112669644Y-78415208D02*
X112812501Y-78605684D01*
X117047450Y-74401631D02*
X116047450Y-74401631D01*
X116047450Y-74401631D02*
X116047450Y-74163536D01*
X116047450Y-74163536D02*
X116095069Y-74020679D01*
X116095069Y-74020679D02*
X116190307Y-73925441D01*
X116190307Y-73925441D02*
X116285545Y-73877822D01*
X116285545Y-73877822D02*
X116476021Y-73830203D01*
X116476021Y-73830203D02*
X116618878Y-73830203D01*
X116618878Y-73830203D02*
X116809354Y-73877822D01*
X116809354Y-73877822D02*
X116904592Y-73925441D01*
X116904592Y-73925441D02*
X116999831Y-74020679D01*
X116999831Y-74020679D02*
X117047450Y-74163536D01*
X117047450Y-74163536D02*
X117047450Y-74401631D01*
X117047450Y-73401631D02*
X116047450Y-73401631D01*
X116047450Y-73401631D02*
X117047450Y-72830203D01*
X117047450Y-72830203D02*
X116047450Y-72830203D01*
X117047450Y-72354012D02*
X116047450Y-72354012D01*
X116047450Y-72354012D02*
X116047450Y-71973060D01*
X116047450Y-71973060D02*
X116095069Y-71877822D01*
X116095069Y-71877822D02*
X116142688Y-71830203D01*
X116142688Y-71830203D02*
X116237926Y-71782584D01*
X116237926Y-71782584D02*
X116380783Y-71782584D01*
X116380783Y-71782584D02*
X116476021Y-71830203D01*
X116476021Y-71830203D02*
X116523640Y-71877822D01*
X116523640Y-71877822D02*
X116571259Y-71973060D01*
X116571259Y-71973060D02*
X116571259Y-72354012D01*
D10*
X115453084Y-75923807D02*
X115464989Y-75935711D01*
X115464989Y-75935711D02*
X115476893Y-75971426D01*
X115476893Y-75971426D02*
X115476893Y-75995235D01*
X115476893Y-75995235D02*
X115464989Y-76030949D01*
X115464989Y-76030949D02*
X115441179Y-76054759D01*
X115441179Y-76054759D02*
X115417369Y-76066664D01*
X115417369Y-76066664D02*
X115369750Y-76078568D01*
X115369750Y-76078568D02*
X115334036Y-76078568D01*
X115334036Y-76078568D02*
X115286417Y-76066664D01*
X115286417Y-76066664D02*
X115262608Y-76054759D01*
X115262608Y-76054759D02*
X115238798Y-76030949D01*
X115238798Y-76030949D02*
X115226893Y-75995235D01*
X115226893Y-75995235D02*
X115226893Y-75971426D01*
X115226893Y-75971426D02*
X115238798Y-75935711D01*
X115238798Y-75935711D02*
X115250703Y-75923807D01*
X115476893Y-75685711D02*
X115476893Y-75828568D01*
X115476893Y-75757140D02*
X115226893Y-75757140D01*
X115226893Y-75757140D02*
X115262608Y-75780949D01*
X115262608Y-75780949D02*
X115286417Y-75804759D01*
X115286417Y-75804759D02*
X115298322Y-75828568D01*
X115226893Y-75602378D02*
X115226893Y-75447616D01*
X115226893Y-75447616D02*
X115322131Y-75530950D01*
X115322131Y-75530950D02*
X115322131Y-75495235D01*
X115322131Y-75495235D02*
X115334036Y-75471426D01*
X115334036Y-75471426D02*
X115345941Y-75459521D01*
X115345941Y-75459521D02*
X115369750Y-75447616D01*
X115369750Y-75447616D02*
X115429274Y-75447616D01*
X115429274Y-75447616D02*
X115453084Y-75459521D01*
X115453084Y-75459521D02*
X115464989Y-75471426D01*
X115464989Y-75471426D02*
X115476893Y-75495235D01*
X115476893Y-75495235D02*
X115476893Y-75566664D01*
X115476893Y-75566664D02*
X115464989Y-75590473D01*
X115464989Y-75590473D02*
X115453084Y-75602378D01*
D11*
X130619114Y-85517100D02*
X130571495Y-85469481D01*
X130571495Y-85469481D02*
X130523876Y-85374243D01*
X130523876Y-85374243D02*
X130523876Y-85136148D01*
X130523876Y-85136148D02*
X130571495Y-85040910D01*
X130571495Y-85040910D02*
X130619114Y-84993291D01*
X130619114Y-84993291D02*
X130714352Y-84945672D01*
X130714352Y-84945672D02*
X130809590Y-84945672D01*
X130809590Y-84945672D02*
X130952447Y-84993291D01*
X130952447Y-84993291D02*
X131523876Y-85564719D01*
X131523876Y-85564719D02*
X131523876Y-84945672D01*
X130619114Y-84564719D02*
X130571495Y-84517100D01*
X130571495Y-84517100D02*
X130523876Y-84421862D01*
X130523876Y-84421862D02*
X130523876Y-84183767D01*
X130523876Y-84183767D02*
X130571495Y-84088529D01*
X130571495Y-84088529D02*
X130619114Y-84040910D01*
X130619114Y-84040910D02*
X130714352Y-83993291D01*
X130714352Y-83993291D02*
X130809590Y-83993291D01*
X130809590Y-83993291D02*
X130952447Y-84040910D01*
X130952447Y-84040910D02*
X131523876Y-84612338D01*
X131523876Y-84612338D02*
X131523876Y-83993291D01*
X130857209Y-83136148D02*
X131523876Y-83136148D01*
X130857209Y-83564719D02*
X131381018Y-83564719D01*
X131381018Y-83564719D02*
X131476257Y-83517100D01*
X131476257Y-83517100D02*
X131523876Y-83421862D01*
X131523876Y-83421862D02*
X131523876Y-83279005D01*
X131523876Y-83279005D02*
X131476257Y-83183767D01*
X131476257Y-83183767D02*
X131428637Y-83136148D01*
X131000066Y-82326624D02*
X131000066Y-82659957D01*
X131523876Y-82659957D02*
X130523876Y-82659957D01*
X130523876Y-82659957D02*
X130523876Y-82183767D01*
D10*
X129939810Y-83924243D02*
X129951715Y-83936147D01*
X129951715Y-83936147D02*
X129963619Y-83971862D01*
X129963619Y-83971862D02*
X129963619Y-83995671D01*
X129963619Y-83995671D02*
X129951715Y-84031385D01*
X129951715Y-84031385D02*
X129927905Y-84055195D01*
X129927905Y-84055195D02*
X129904095Y-84067100D01*
X129904095Y-84067100D02*
X129856476Y-84079004D01*
X129856476Y-84079004D02*
X129820762Y-84079004D01*
X129820762Y-84079004D02*
X129773143Y-84067100D01*
X129773143Y-84067100D02*
X129749334Y-84055195D01*
X129749334Y-84055195D02*
X129725524Y-84031385D01*
X129725524Y-84031385D02*
X129713619Y-83995671D01*
X129713619Y-83995671D02*
X129713619Y-83971862D01*
X129713619Y-83971862D02*
X129725524Y-83936147D01*
X129725524Y-83936147D02*
X129737429Y-83924243D01*
X129963619Y-83805195D02*
X129963619Y-83757576D01*
X129963619Y-83757576D02*
X129951715Y-83733766D01*
X129951715Y-83733766D02*
X129939810Y-83721862D01*
X129939810Y-83721862D02*
X129904095Y-83698052D01*
X129904095Y-83698052D02*
X129856476Y-83686147D01*
X129856476Y-83686147D02*
X129761238Y-83686147D01*
X129761238Y-83686147D02*
X129737429Y-83698052D01*
X129737429Y-83698052D02*
X129725524Y-83709957D01*
X129725524Y-83709957D02*
X129713619Y-83733766D01*
X129713619Y-83733766D02*
X129713619Y-83781385D01*
X129713619Y-83781385D02*
X129725524Y-83805195D01*
X129725524Y-83805195D02*
X129737429Y-83817100D01*
X129737429Y-83817100D02*
X129761238Y-83829004D01*
X129761238Y-83829004D02*
X129820762Y-83829004D01*
X129820762Y-83829004D02*
X129844572Y-83817100D01*
X129844572Y-83817100D02*
X129856476Y-83805195D01*
X129856476Y-83805195D02*
X129868381Y-83781385D01*
X129868381Y-83781385D02*
X129868381Y-83733766D01*
X129868381Y-83733766D02*
X129856476Y-83709957D01*
X129856476Y-83709957D02*
X129844572Y-83698052D01*
X129844572Y-83698052D02*
X129820762Y-83686147D01*
D11*
X119577343Y-107499901D02*
X119577343Y-107976091D01*
X119577343Y-107976091D02*
X118577343Y-107976091D01*
X119053533Y-107166567D02*
X119053533Y-106833234D01*
X119577343Y-106690377D02*
X119577343Y-107166567D01*
X119577343Y-107166567D02*
X118577343Y-107166567D01*
X118577343Y-107166567D02*
X118577343Y-106690377D01*
X119577343Y-106261805D02*
X118577343Y-106261805D01*
X118577343Y-106261805D02*
X118577343Y-106023710D01*
X118577343Y-106023710D02*
X118624962Y-105880853D01*
X118624962Y-105880853D02*
X118720200Y-105785615D01*
X118720200Y-105785615D02*
X118815438Y-105737996D01*
X118815438Y-105737996D02*
X119005914Y-105690377D01*
X119005914Y-105690377D02*
X119148771Y-105690377D01*
X119148771Y-105690377D02*
X119339247Y-105737996D01*
X119339247Y-105737996D02*
X119434485Y-105785615D01*
X119434485Y-105785615D02*
X119529724Y-105880853D01*
X119529724Y-105880853D02*
X119577343Y-106023710D01*
X119577343Y-106023710D02*
X119577343Y-106261805D01*
D12*
X117963119Y-106152289D02*
X117563119Y-106152289D01*
X117563119Y-106152289D02*
X117563119Y-106057051D01*
X117563119Y-106057051D02*
X117582167Y-105999908D01*
X117582167Y-105999908D02*
X117620262Y-105961813D01*
X117620262Y-105961813D02*
X117658357Y-105942766D01*
X117658357Y-105942766D02*
X117734548Y-105923718D01*
X117734548Y-105923718D02*
X117791691Y-105923718D01*
X117791691Y-105923718D02*
X117867881Y-105942766D01*
X117867881Y-105942766D02*
X117905976Y-105961813D01*
X117905976Y-105961813D02*
X117944072Y-105999908D01*
X117944072Y-105999908D02*
X117963119Y-106057051D01*
X117963119Y-106057051D02*
X117963119Y-106152289D01*
X117601214Y-105771337D02*
X117582167Y-105752289D01*
X117582167Y-105752289D02*
X117563119Y-105714194D01*
X117563119Y-105714194D02*
X117563119Y-105618956D01*
X117563119Y-105618956D02*
X117582167Y-105580861D01*
X117582167Y-105580861D02*
X117601214Y-105561813D01*
X117601214Y-105561813D02*
X117639310Y-105542766D01*
X117639310Y-105542766D02*
X117677405Y-105542766D01*
X117677405Y-105542766D02*
X117734548Y-105561813D01*
X117734548Y-105561813D02*
X117963119Y-105790385D01*
X117963119Y-105790385D02*
X117963119Y-105542766D01*
D11*
X158848276Y-88940476D02*
X158848276Y-88574762D01*
X159488276Y-88757619D02*
X158848276Y-88757619D01*
X159488276Y-88361429D02*
X158848276Y-88361429D01*
X158848276Y-88361429D02*
X158848276Y-88117619D01*
X158848276Y-88117619D02*
X158878752Y-88056667D01*
X158878752Y-88056667D02*
X158909228Y-88026190D01*
X158909228Y-88026190D02*
X158970180Y-87995714D01*
X158970180Y-87995714D02*
X159061609Y-87995714D01*
X159061609Y-87995714D02*
X159122561Y-88026190D01*
X159122561Y-88026190D02*
X159153038Y-88056667D01*
X159153038Y-88056667D02*
X159183514Y-88117619D01*
X159183514Y-88117619D02*
X159183514Y-88361429D01*
X159488276Y-87721429D02*
X158848276Y-87721429D01*
X158848276Y-87721429D02*
X158848276Y-87569048D01*
X158848276Y-87569048D02*
X158878752Y-87477619D01*
X158878752Y-87477619D02*
X158939704Y-87416667D01*
X158939704Y-87416667D02*
X159000657Y-87386190D01*
X159000657Y-87386190D02*
X159122561Y-87355714D01*
X159122561Y-87355714D02*
X159213990Y-87355714D01*
X159213990Y-87355714D02*
X159335895Y-87386190D01*
X159335895Y-87386190D02*
X159396847Y-87416667D01*
X159396847Y-87416667D02*
X159457800Y-87477619D01*
X159457800Y-87477619D02*
X159488276Y-87569048D01*
X159488276Y-87569048D02*
X159488276Y-87721429D01*
X159488276Y-86746190D02*
X159488276Y-87111905D01*
X159488276Y-86929048D02*
X158848276Y-86929048D01*
X158848276Y-86929048D02*
X158939704Y-86990000D01*
X158939704Y-86990000D02*
X159000657Y-87050952D01*
X159000657Y-87050952D02*
X159031133Y-87111905D01*
X159153038Y-86471905D02*
X159153038Y-86258571D01*
X159488276Y-86167143D02*
X159488276Y-86471905D01*
X159488276Y-86471905D02*
X158848276Y-86471905D01*
X158848276Y-86471905D02*
X158848276Y-86167143D01*
X159488276Y-85557618D02*
X159488276Y-85923333D01*
X159488276Y-85740476D02*
X158848276Y-85740476D01*
X158848276Y-85740476D02*
X158939704Y-85801428D01*
X158939704Y-85801428D02*
X159000657Y-85862380D01*
X159000657Y-85862380D02*
X159031133Y-85923333D01*
X158848276Y-85161428D02*
X158848276Y-85100475D01*
X158848276Y-85100475D02*
X158878752Y-85039523D01*
X158878752Y-85039523D02*
X158909228Y-85009047D01*
X158909228Y-85009047D02*
X158970180Y-84978571D01*
X158970180Y-84978571D02*
X159092085Y-84948094D01*
X159092085Y-84948094D02*
X159244466Y-84948094D01*
X159244466Y-84948094D02*
X159366371Y-84978571D01*
X159366371Y-84978571D02*
X159427323Y-85009047D01*
X159427323Y-85009047D02*
X159457800Y-85039523D01*
X159457800Y-85039523D02*
X159488276Y-85100475D01*
X159488276Y-85100475D02*
X159488276Y-85161428D01*
X159488276Y-85161428D02*
X159457800Y-85222380D01*
X159457800Y-85222380D02*
X159427323Y-85252856D01*
X159427323Y-85252856D02*
X159366371Y-85283333D01*
X159366371Y-85283333D02*
X159244466Y-85313809D01*
X159244466Y-85313809D02*
X159092085Y-85313809D01*
X159092085Y-85313809D02*
X158970180Y-85283333D01*
X158970180Y-85283333D02*
X158909228Y-85252856D01*
X158909228Y-85252856D02*
X158878752Y-85222380D01*
X158878752Y-85222380D02*
X158848276Y-85161428D01*
X159153038Y-84460475D02*
X159183514Y-84369047D01*
X159183514Y-84369047D02*
X159213990Y-84338570D01*
X159213990Y-84338570D02*
X159274942Y-84308094D01*
X159274942Y-84308094D02*
X159366371Y-84308094D01*
X159366371Y-84308094D02*
X159427323Y-84338570D01*
X159427323Y-84338570D02*
X159457800Y-84369047D01*
X159457800Y-84369047D02*
X159488276Y-84429999D01*
X159488276Y-84429999D02*
X159488276Y-84673809D01*
X159488276Y-84673809D02*
X158848276Y-84673809D01*
X158848276Y-84673809D02*
X158848276Y-84460475D01*
X158848276Y-84460475D02*
X158878752Y-84399523D01*
X158878752Y-84399523D02*
X158909228Y-84369047D01*
X158909228Y-84369047D02*
X158970180Y-84338570D01*
X158970180Y-84338570D02*
X159031133Y-84338570D01*
X159031133Y-84338570D02*
X159092085Y-84369047D01*
X159092085Y-84369047D02*
X159122561Y-84399523D01*
X159122561Y-84399523D02*
X159153038Y-84460475D01*
X159153038Y-84460475D02*
X159153038Y-84673809D01*
X158848276Y-83911904D02*
X158848276Y-83850951D01*
X158848276Y-83850951D02*
X158878752Y-83789999D01*
X158878752Y-83789999D02*
X158909228Y-83759523D01*
X158909228Y-83759523D02*
X158970180Y-83729047D01*
X158970180Y-83729047D02*
X159092085Y-83698570D01*
X159092085Y-83698570D02*
X159244466Y-83698570D01*
X159244466Y-83698570D02*
X159366371Y-83729047D01*
X159366371Y-83729047D02*
X159427323Y-83759523D01*
X159427323Y-83759523D02*
X159457800Y-83789999D01*
X159457800Y-83789999D02*
X159488276Y-83850951D01*
X159488276Y-83850951D02*
X159488276Y-83911904D01*
X159488276Y-83911904D02*
X159457800Y-83972856D01*
X159457800Y-83972856D02*
X159427323Y-84003332D01*
X159427323Y-84003332D02*
X159366371Y-84033809D01*
X159366371Y-84033809D02*
X159244466Y-84064285D01*
X159244466Y-84064285D02*
X159092085Y-84064285D01*
X159092085Y-84064285D02*
X158970180Y-84033809D01*
X158970180Y-84033809D02*
X158909228Y-84003332D01*
X158909228Y-84003332D02*
X158878752Y-83972856D01*
X158878752Y-83972856D02*
X158848276Y-83911904D01*
X158848276Y-83149999D02*
X158848276Y-83271904D01*
X158848276Y-83271904D02*
X158878752Y-83332856D01*
X158878752Y-83332856D02*
X158909228Y-83363332D01*
X158909228Y-83363332D02*
X159000657Y-83424285D01*
X159000657Y-83424285D02*
X159122561Y-83454761D01*
X159122561Y-83454761D02*
X159366371Y-83454761D01*
X159366371Y-83454761D02*
X159427323Y-83424285D01*
X159427323Y-83424285D02*
X159457800Y-83393808D01*
X159457800Y-83393808D02*
X159488276Y-83332856D01*
X159488276Y-83332856D02*
X159488276Y-83210951D01*
X159488276Y-83210951D02*
X159457800Y-83149999D01*
X159457800Y-83149999D02*
X159427323Y-83119523D01*
X159427323Y-83119523D02*
X159366371Y-83089046D01*
X159366371Y-83089046D02*
X159213990Y-83089046D01*
X159213990Y-83089046D02*
X159153038Y-83119523D01*
X159153038Y-83119523D02*
X159122561Y-83149999D01*
X159122561Y-83149999D02*
X159092085Y-83210951D01*
X159092085Y-83210951D02*
X159092085Y-83332856D01*
X159092085Y-83332856D02*
X159122561Y-83393808D01*
X159122561Y-83393808D02*
X159153038Y-83424285D01*
X159153038Y-83424285D02*
X159213990Y-83454761D01*
X159488276Y-82814761D02*
X158848276Y-82814761D01*
X158848276Y-82814761D02*
X158848276Y-82662380D01*
X158848276Y-82662380D02*
X158878752Y-82570951D01*
X158878752Y-82570951D02*
X158939704Y-82509999D01*
X158939704Y-82509999D02*
X159000657Y-82479522D01*
X159000657Y-82479522D02*
X159122561Y-82449046D01*
X159122561Y-82449046D02*
X159213990Y-82449046D01*
X159213990Y-82449046D02*
X159335895Y-82479522D01*
X159335895Y-82479522D02*
X159396847Y-82509999D01*
X159396847Y-82509999D02*
X159457800Y-82570951D01*
X159457800Y-82570951D02*
X159488276Y-82662380D01*
X159488276Y-82662380D02*
X159488276Y-82814761D01*
X159488276Y-82174761D02*
X158848276Y-82174761D01*
X158848276Y-82174761D02*
X158848276Y-81930951D01*
X158848276Y-81930951D02*
X158878752Y-81869999D01*
X158878752Y-81869999D02*
X158909228Y-81839522D01*
X158909228Y-81839522D02*
X158970180Y-81809046D01*
X158970180Y-81809046D02*
X159061609Y-81809046D01*
X159061609Y-81809046D02*
X159122561Y-81839522D01*
X159122561Y-81839522D02*
X159153038Y-81869999D01*
X159153038Y-81869999D02*
X159183514Y-81930951D01*
X159183514Y-81930951D02*
X159183514Y-82174761D01*
X159183514Y-81412856D02*
X159488276Y-81412856D01*
X158848276Y-81626189D02*
X159183514Y-81412856D01*
X159183514Y-81412856D02*
X158848276Y-81199522D01*
X159488276Y-80620475D02*
X159183514Y-80833809D01*
X159488276Y-80986190D02*
X158848276Y-80986190D01*
X158848276Y-80986190D02*
X158848276Y-80742380D01*
X158848276Y-80742380D02*
X158878752Y-80681428D01*
X158878752Y-80681428D02*
X158909228Y-80650951D01*
X158909228Y-80650951D02*
X158970180Y-80620475D01*
X158970180Y-80620475D02*
X159061609Y-80620475D01*
X159061609Y-80620475D02*
X159122561Y-80650951D01*
X159122561Y-80650951D02*
X159153038Y-80681428D01*
X159153038Y-80681428D02*
X159183514Y-80742380D01*
X159183514Y-80742380D02*
X159183514Y-80986190D01*
X139490262Y-105316551D02*
X140156929Y-105316551D01*
X139109310Y-105554646D02*
X139823595Y-105792741D01*
X139823595Y-105792741D02*
X139823595Y-105173694D01*
X140061690Y-104792741D02*
X140109310Y-104745122D01*
X140109310Y-104745122D02*
X140156929Y-104792741D01*
X140156929Y-104792741D02*
X140109310Y-104840360D01*
X140109310Y-104840360D02*
X140061690Y-104792741D01*
X140061690Y-104792741D02*
X140156929Y-104792741D01*
X139156929Y-104411789D02*
X139156929Y-103745123D01*
X139156929Y-103745123D02*
X140156929Y-104173694D01*
X139490262Y-102935599D02*
X140156929Y-102935599D01*
X139490262Y-103364170D02*
X140014071Y-103364170D01*
X140014071Y-103364170D02*
X140109310Y-103316551D01*
X140109310Y-103316551D02*
X140156929Y-103221313D01*
X140156929Y-103221313D02*
X140156929Y-103078456D01*
X140156929Y-103078456D02*
X140109310Y-102983218D01*
X140109310Y-102983218D02*
X140061690Y-102935599D01*
X139633119Y-102126075D02*
X139633119Y-102459408D01*
X140156929Y-102459408D02*
X139156929Y-102459408D01*
X139156929Y-102459408D02*
X139156929Y-101983218D01*
D10*
X138745209Y-104417657D02*
X138757114Y-104429561D01*
X138757114Y-104429561D02*
X138769018Y-104465276D01*
X138769018Y-104465276D02*
X138769018Y-104489085D01*
X138769018Y-104489085D02*
X138757114Y-104524799D01*
X138757114Y-104524799D02*
X138733304Y-104548609D01*
X138733304Y-104548609D02*
X138709494Y-104560514D01*
X138709494Y-104560514D02*
X138661875Y-104572418D01*
X138661875Y-104572418D02*
X138626161Y-104572418D01*
X138626161Y-104572418D02*
X138578542Y-104560514D01*
X138578542Y-104560514D02*
X138554733Y-104548609D01*
X138554733Y-104548609D02*
X138530923Y-104524799D01*
X138530923Y-104524799D02*
X138519018Y-104489085D01*
X138519018Y-104489085D02*
X138519018Y-104465276D01*
X138519018Y-104465276D02*
X138530923Y-104429561D01*
X138530923Y-104429561D02*
X138542828Y-104417657D01*
X138769018Y-104179561D02*
X138769018Y-104322418D01*
X138769018Y-104250990D02*
X138519018Y-104250990D01*
X138519018Y-104250990D02*
X138554733Y-104274799D01*
X138554733Y-104274799D02*
X138578542Y-104298609D01*
X138578542Y-104298609D02*
X138590447Y-104322418D01*
X138519018Y-103965276D02*
X138519018Y-104012895D01*
X138519018Y-104012895D02*
X138530923Y-104036704D01*
X138530923Y-104036704D02*
X138542828Y-104048609D01*
X138542828Y-104048609D02*
X138578542Y-104072419D01*
X138578542Y-104072419D02*
X138626161Y-104084323D01*
X138626161Y-104084323D02*
X138721399Y-104084323D01*
X138721399Y-104084323D02*
X138745209Y-104072419D01*
X138745209Y-104072419D02*
X138757114Y-104060514D01*
X138757114Y-104060514D02*
X138769018Y-104036704D01*
X138769018Y-104036704D02*
X138769018Y-103989085D01*
X138769018Y-103989085D02*
X138757114Y-103965276D01*
X138757114Y-103965276D02*
X138745209Y-103953371D01*
X138745209Y-103953371D02*
X138721399Y-103941466D01*
X138721399Y-103941466D02*
X138661875Y-103941466D01*
X138661875Y-103941466D02*
X138638066Y-103953371D01*
X138638066Y-103953371D02*
X138626161Y-103965276D01*
X138626161Y-103965276D02*
X138614256Y-103989085D01*
X138614256Y-103989085D02*
X138614256Y-104036704D01*
X138614256Y-104036704D02*
X138626161Y-104060514D01*
X138626161Y-104060514D02*
X138638066Y-104072419D01*
X138638066Y-104072419D02*
X138661875Y-104084323D01*
D11*
X113486819Y-82991004D02*
X114296342Y-82991004D01*
X114296342Y-82991004D02*
X114391580Y-82943385D01*
X114391580Y-82943385D02*
X114439200Y-82895766D01*
X114439200Y-82895766D02*
X114486819Y-82800528D01*
X114486819Y-82800528D02*
X114486819Y-82610052D01*
X114486819Y-82610052D02*
X114439200Y-82514814D01*
X114439200Y-82514814D02*
X114391580Y-82467195D01*
X114391580Y-82467195D02*
X114296342Y-82419576D01*
X114296342Y-82419576D02*
X113486819Y-82419576D01*
X113582057Y-81991004D02*
X113534438Y-81943385D01*
X113534438Y-81943385D02*
X113486819Y-81848147D01*
X113486819Y-81848147D02*
X113486819Y-81610052D01*
X113486819Y-81610052D02*
X113534438Y-81514814D01*
X113534438Y-81514814D02*
X113582057Y-81467195D01*
X113582057Y-81467195D02*
X113677295Y-81419576D01*
X113677295Y-81419576D02*
X113772533Y-81419576D01*
X113772533Y-81419576D02*
X113915390Y-81467195D01*
X113915390Y-81467195D02*
X114486819Y-82038623D01*
X114486819Y-82038623D02*
X114486819Y-81419576D01*
X154361352Y-84820625D02*
X154361352Y-84725387D01*
X154361352Y-84725387D02*
X154408971Y-84630149D01*
X154408971Y-84630149D02*
X154456590Y-84582530D01*
X154456590Y-84582530D02*
X154551828Y-84534911D01*
X154551828Y-84534911D02*
X154742304Y-84487292D01*
X154742304Y-84487292D02*
X154980399Y-84487292D01*
X154980399Y-84487292D02*
X155170875Y-84534911D01*
X155170875Y-84534911D02*
X155266113Y-84582530D01*
X155266113Y-84582530D02*
X155313733Y-84630149D01*
X155313733Y-84630149D02*
X155361352Y-84725387D01*
X155361352Y-84725387D02*
X155361352Y-84820625D01*
X155361352Y-84820625D02*
X155313733Y-84915863D01*
X155313733Y-84915863D02*
X155266113Y-84963482D01*
X155266113Y-84963482D02*
X155170875Y-85011101D01*
X155170875Y-85011101D02*
X154980399Y-85058720D01*
X154980399Y-85058720D02*
X154742304Y-85058720D01*
X154742304Y-85058720D02*
X154551828Y-85011101D01*
X154551828Y-85011101D02*
X154456590Y-84963482D01*
X154456590Y-84963482D02*
X154408971Y-84915863D01*
X154408971Y-84915863D02*
X154361352Y-84820625D01*
X155266113Y-84058720D02*
X155313733Y-84011101D01*
X155313733Y-84011101D02*
X155361352Y-84058720D01*
X155361352Y-84058720D02*
X155313733Y-84106339D01*
X155313733Y-84106339D02*
X155266113Y-84058720D01*
X155266113Y-84058720D02*
X155361352Y-84058720D01*
X155361352Y-83058721D02*
X155361352Y-83630149D01*
X155361352Y-83344435D02*
X154361352Y-83344435D01*
X154361352Y-83344435D02*
X154504209Y-83439673D01*
X154504209Y-83439673D02*
X154599447Y-83534911D01*
X154599447Y-83534911D02*
X154647066Y-83630149D01*
X154694685Y-82201578D02*
X155361352Y-82201578D01*
X154694685Y-82630149D02*
X155218494Y-82630149D01*
X155218494Y-82630149D02*
X155313733Y-82582530D01*
X155313733Y-82582530D02*
X155361352Y-82487292D01*
X155361352Y-82487292D02*
X155361352Y-82344435D01*
X155361352Y-82344435D02*
X155313733Y-82249197D01*
X155313733Y-82249197D02*
X155266113Y-82201578D01*
X154837542Y-81392054D02*
X154837542Y-81725387D01*
X155361352Y-81725387D02*
X154361352Y-81725387D01*
X154361352Y-81725387D02*
X154361352Y-81249197D01*
D10*
X153028491Y-83460873D02*
X153040396Y-83472777D01*
X153040396Y-83472777D02*
X153052300Y-83508492D01*
X153052300Y-83508492D02*
X153052300Y-83532301D01*
X153052300Y-83532301D02*
X153040396Y-83568015D01*
X153040396Y-83568015D02*
X153016586Y-83591825D01*
X153016586Y-83591825D02*
X152992776Y-83603730D01*
X152992776Y-83603730D02*
X152945157Y-83615634D01*
X152945157Y-83615634D02*
X152909443Y-83615634D01*
X152909443Y-83615634D02*
X152861824Y-83603730D01*
X152861824Y-83603730D02*
X152838015Y-83591825D01*
X152838015Y-83591825D02*
X152814205Y-83568015D01*
X152814205Y-83568015D02*
X152802300Y-83532301D01*
X152802300Y-83532301D02*
X152802300Y-83508492D01*
X152802300Y-83508492D02*
X152814205Y-83472777D01*
X152814205Y-83472777D02*
X152826110Y-83460873D01*
X153052300Y-83222777D02*
X153052300Y-83365634D01*
X153052300Y-83294206D02*
X152802300Y-83294206D01*
X152802300Y-83294206D02*
X152838015Y-83318015D01*
X152838015Y-83318015D02*
X152861824Y-83341825D01*
X152861824Y-83341825D02*
X152873729Y-83365634D01*
X152826110Y-83127539D02*
X152814205Y-83115635D01*
X152814205Y-83115635D02*
X152802300Y-83091825D01*
X152802300Y-83091825D02*
X152802300Y-83032301D01*
X152802300Y-83032301D02*
X152814205Y-83008492D01*
X152814205Y-83008492D02*
X152826110Y-82996587D01*
X152826110Y-82996587D02*
X152849919Y-82984682D01*
X152849919Y-82984682D02*
X152873729Y-82984682D01*
X152873729Y-82984682D02*
X152909443Y-82996587D01*
X152909443Y-82996587D02*
X153052300Y-83139444D01*
X153052300Y-83139444D02*
X153052300Y-82984682D01*
D12*
X117882875Y-102525697D02*
X117692399Y-102659030D01*
X117882875Y-102754268D02*
X117482875Y-102754268D01*
X117482875Y-102754268D02*
X117482875Y-102601887D01*
X117482875Y-102601887D02*
X117501923Y-102563792D01*
X117501923Y-102563792D02*
X117520970Y-102544745D01*
X117520970Y-102544745D02*
X117559066Y-102525697D01*
X117559066Y-102525697D02*
X117616208Y-102525697D01*
X117616208Y-102525697D02*
X117654304Y-102544745D01*
X117654304Y-102544745D02*
X117673351Y-102563792D01*
X117673351Y-102563792D02*
X117692399Y-102601887D01*
X117692399Y-102601887D02*
X117692399Y-102754268D01*
X117520970Y-102373316D02*
X117501923Y-102354268D01*
X117501923Y-102354268D02*
X117482875Y-102316173D01*
X117482875Y-102316173D02*
X117482875Y-102220935D01*
X117482875Y-102220935D02*
X117501923Y-102182840D01*
X117501923Y-102182840D02*
X117520970Y-102163792D01*
X117520970Y-102163792D02*
X117559066Y-102144745D01*
X117559066Y-102144745D02*
X117597161Y-102144745D01*
X117597161Y-102144745D02*
X117654304Y-102163792D01*
X117654304Y-102163792D02*
X117882875Y-102392364D01*
X117882875Y-102392364D02*
X117882875Y-102144745D01*
D13*
%TO.C,C4*%
X115950000Y-89950000D02*
X114950000Y-89950000D01*
X115950000Y-89450000D02*
X115950000Y-89950000D01*
X114950000Y-89950000D02*
X114950000Y-89450000D01*
X114950000Y-89450000D02*
X115950000Y-89450000D01*
%TO.C,C3*%
X122450000Y-90550000D02*
X122450000Y-91550000D01*
X121950000Y-90550000D02*
X122450000Y-90550000D01*
X122450000Y-91550000D02*
X121950000Y-91550000D01*
X121950000Y-91550000D02*
X121950000Y-90550000D01*
%TO.C,R1*%
X150334836Y-84128167D02*
X150334836Y-82528167D01*
X151159836Y-84128167D02*
X150334836Y-84128167D01*
X150334836Y-82528167D02*
X151159836Y-82528167D01*
X151159836Y-82528167D02*
X151159836Y-84128167D01*
%TO.C,C14*%
X116870898Y-75252868D02*
X116870898Y-76252868D01*
X116370898Y-75252868D02*
X116870898Y-75252868D01*
X116870898Y-76252868D02*
X116370898Y-76252868D01*
X116370898Y-76252868D02*
X116370898Y-75252868D01*
%TO.C,C15*%
X143014252Y-104756943D02*
X143014252Y-103756943D01*
X143514252Y-104756943D02*
X143014252Y-104756943D01*
X143014252Y-103756943D02*
X143514252Y-103756943D01*
X143514252Y-103756943D02*
X143514252Y-104756943D01*
%TO.C,R3*%
X119812500Y-101685000D02*
X119812500Y-103285000D01*
X118987500Y-101685000D02*
X119812500Y-101685000D01*
X119812500Y-103285000D02*
X118987500Y-103285000D01*
X118987500Y-103285000D02*
X118987500Y-101685000D01*
%TO.C,L1*%
X124759775Y-84090250D02*
X126359775Y-84090250D01*
X124759775Y-84890250D02*
X124759775Y-84090250D01*
X126359775Y-84090250D02*
X126359775Y-84890250D01*
X126359775Y-84890250D02*
X124759775Y-84890250D01*
D14*
%TO.C,J5*%
X167640000Y-63520000D02*
X187960000Y-63520000D01*
X167640000Y-66020000D02*
X167640000Y-63520000D01*
X167640000Y-66020000D02*
X167640000Y-66020000D01*
X167640000Y-66020000D02*
X187960000Y-66020000D01*
X187960000Y-63520000D02*
X187960000Y-66020000D01*
X187960000Y-66020000D02*
X167640000Y-66020000D01*
X187960000Y-66020000D02*
X187960000Y-66020000D01*
D15*
X167090000Y-64770000D02*
G75*
G03*
X166890000Y-64770000I-100000J0D01*
G01*
X166890000Y-64770000D02*
G75*
G03*
X167090000Y-64770000I100000J0D01*
G01*
D13*
%TO.C,IC1*%
X115600000Y-81350000D02*
X122600000Y-81350000D01*
X115600000Y-81850000D02*
X116100000Y-81350000D01*
X115600000Y-88350000D02*
X115600000Y-81350000D01*
X122600000Y-81350000D02*
X122600000Y-88350000D01*
X122600000Y-88350000D02*
X115600000Y-88350000D01*
%TO.C,C10*%
X117650000Y-78900000D02*
X117650000Y-77900000D01*
X118150000Y-78900000D02*
X117650000Y-78900000D01*
X117650000Y-77900000D02*
X118150000Y-77900000D01*
X118150000Y-77900000D02*
X118150000Y-78900000D01*
D14*
%TO.C,S1*%
X150952171Y-81330549D02*
X150952171Y-78830549D01*
X153952171Y-78830549D02*
X150952171Y-78830549D01*
X153952171Y-78830549D02*
X153952171Y-81330549D01*
X153952171Y-81330549D02*
X150952171Y-81330549D01*
D15*
X149852171Y-79880549D02*
G75*
G03*
X149652171Y-79880549I-100000J0D01*
G01*
X149652171Y-79880549D02*
G75*
G03*
X149852171Y-79880549I100000J0D01*
G01*
D13*
%TO.C,C2*%
X111420000Y-91950000D02*
X110420000Y-91950000D01*
X111420000Y-91450000D02*
X111420000Y-91950000D01*
X110420000Y-91950000D02*
X110420000Y-91450000D01*
X110420000Y-91450000D02*
X111420000Y-91450000D01*
D16*
%TO.C,U1*%
X144245000Y-111729200D02*
X144245000Y-108179200D01*
X144245000Y-108179200D02*
X137695000Y-108179200D01*
X143670000Y-108179200D02*
X143670000Y-106404200D01*
X143670000Y-106404200D02*
X142870000Y-106404200D01*
X142870000Y-108179200D02*
X143670000Y-108179200D01*
X142870000Y-106404200D02*
X142870000Y-108179200D01*
X142519999Y-113504200D02*
X142519999Y-111729200D01*
X142519999Y-111729200D02*
X139420001Y-111729200D01*
X141370000Y-108179200D02*
X141370000Y-106404200D01*
X141370000Y-106404200D02*
X140570000Y-106404200D01*
X140570000Y-108179200D02*
X141370000Y-108179200D01*
X140570000Y-106404200D02*
X140570000Y-108179200D01*
X139420001Y-113504200D02*
X142519999Y-113504200D01*
X139420001Y-111729200D02*
X139420001Y-113504200D01*
X139070000Y-108179200D02*
X139070000Y-106404200D01*
X139070000Y-106404200D02*
X138270000Y-106404200D01*
X138270000Y-108179200D02*
X139070000Y-108179200D01*
X138270000Y-106404200D02*
X138270000Y-108179200D01*
X137695000Y-111729200D02*
X144245000Y-111729200D01*
X137695000Y-108179200D02*
X137695000Y-111729200D01*
X144118000Y-108433200D02*
G75*
G03*
X143864000Y-108433200I-127000J0D01*
G01*
X143864000Y-108433200D02*
G75*
G03*
X144118000Y-108433200I127000J0D01*
G01*
D13*
%TO.C,C8*%
X111362165Y-82366583D02*
X112362165Y-82366583D01*
X111362165Y-82866583D02*
X111362165Y-82366583D01*
X112362165Y-82366583D02*
X112362165Y-82866583D01*
X112362165Y-82866583D02*
X111362165Y-82866583D01*
D14*
%TO.C,J3*%
X149860000Y-111780000D02*
X170180000Y-111780000D01*
X149860000Y-114280000D02*
X149860000Y-111780000D01*
X149860000Y-114280000D02*
X149860000Y-114280000D01*
X149860000Y-114280000D02*
X170180000Y-114280000D01*
X170180000Y-111780000D02*
X170180000Y-114280000D01*
X170180000Y-114280000D02*
X149860000Y-114280000D01*
X170180000Y-114280000D02*
X170180000Y-114280000D01*
D15*
X149310000Y-113030000D02*
G75*
G03*
X149110000Y-113030000I-100000J0D01*
G01*
X149110000Y-113030000D02*
G75*
G03*
X149310000Y-113030000I100000J0D01*
G01*
D13*
%TO.C,C6*%
X124973153Y-82884516D02*
X125973153Y-82884516D01*
X124973153Y-83384516D02*
X124973153Y-82884516D01*
X125973153Y-82884516D02*
X125973153Y-83384516D01*
X125973153Y-83384516D02*
X124973153Y-83384516D01*
%TO.C,C7*%
X119900000Y-78880000D02*
X119900000Y-77880000D01*
X120400000Y-78880000D02*
X119900000Y-78880000D01*
X119900000Y-77880000D02*
X120400000Y-77880000D01*
X120400000Y-77880000D02*
X120400000Y-78880000D01*
D14*
%TO.C,J4*%
X140818505Y-63600000D02*
X165818505Y-63600000D01*
X140818505Y-65940000D02*
X140818505Y-63600000D01*
X165818505Y-63600000D02*
X165818505Y-65940000D01*
X165818505Y-65940000D02*
X140818505Y-65940000D01*
D15*
X141988505Y-62600000D02*
G75*
G03*
X141788505Y-62600000I-100000J0D01*
G01*
X141788505Y-62600000D02*
G75*
G03*
X141988505Y-62600000I100000J0D01*
G01*
D14*
%TO.C,J2*%
X139905000Y-98425000D02*
X139905000Y-92075000D01*
X143305000Y-98425000D02*
X139905000Y-98425000D01*
X139905000Y-92075000D02*
X143305000Y-92075000D01*
X143305000Y-92075000D02*
X143305000Y-98425000D01*
D15*
X142340000Y-99000000D02*
G75*
G03*
X142140000Y-99000000I-100000J0D01*
G01*
X142140000Y-99000000D02*
G75*
G03*
X142340000Y-99000000I100000J0D01*
G01*
D14*
%TO.C,FL1*%
X131250000Y-106810000D02*
X130290000Y-106810000D01*
X130290000Y-105050000D02*
X130290000Y-106810000D01*
X131250000Y-105050000D02*
X131250000Y-106810000D01*
X131250000Y-105050000D02*
X130290000Y-105050000D01*
D13*
%TO.C,C5*%
X120830000Y-89850000D02*
X119830000Y-89850000D01*
X120830000Y-89350000D02*
X120830000Y-89850000D01*
X119830000Y-89850000D02*
X119830000Y-89350000D01*
X119830000Y-89350000D02*
X120830000Y-89350000D01*
D14*
%TO.C,S2*%
X174316025Y-72790187D02*
X171816025Y-72790187D01*
X171816025Y-69790187D02*
X171816025Y-72790187D01*
X171816025Y-69790187D02*
X174316025Y-69790187D01*
X174316025Y-69790187D02*
X174316025Y-72790187D01*
D15*
X172966025Y-73990187D02*
G75*
G03*
X172766025Y-73990187I-100000J0D01*
G01*
X172766025Y-73990187D02*
G75*
G03*
X172966025Y-73990187I100000J0D01*
G01*
%TO.C,*%
X107000000Y-93350000D02*
X107000000Y-72350000D01*
X128000000Y-93350000D02*
X107000000Y-93350000D01*
X107000000Y-72350000D02*
X128000000Y-72350000D01*
X128000000Y-72350000D02*
X128000000Y-93350000D01*
D13*
%TO.C,C11*%
X115150000Y-78880000D02*
X115150000Y-77880000D01*
X115650000Y-78880000D02*
X115150000Y-78880000D01*
X115150000Y-77880000D02*
X115650000Y-77880000D01*
X115650000Y-77880000D02*
X115650000Y-78880000D01*
%TO.C,C1*%
X108456064Y-91422773D02*
X109456064Y-91422773D01*
X108456064Y-91922773D02*
X108456064Y-91422773D01*
X109456064Y-91422773D02*
X109456064Y-91922773D01*
X109456064Y-91922773D02*
X108456064Y-91922773D01*
%TO.C,D3*%
X119280000Y-107662500D02*
X119780000Y-107662500D01*
X119780000Y-107662500D02*
X119780000Y-106062500D01*
X118980000Y-107362500D02*
X119280000Y-107662500D01*
X118980000Y-106062500D02*
X118980000Y-107362500D01*
X119780000Y-106062500D02*
X118980000Y-106062500D01*
D17*
%TO.C,Y1*%
X113990444Y-78022494D02*
X113990444Y-78022494D01*
X113990444Y-78022494D02*
X113990444Y-74822094D01*
X113990444Y-78016794D02*
X113914244Y-78016794D01*
X113990444Y-77127794D02*
X113990444Y-78016794D01*
X113990444Y-76752494D02*
X112720444Y-78022494D01*
X113990444Y-75716794D02*
X113914244Y-75716794D01*
X113990444Y-74827794D02*
X113990444Y-75716794D01*
X113990444Y-74822094D02*
X113990444Y-74822094D01*
X113990444Y-74822094D02*
X108986644Y-74822094D01*
X113914244Y-78016794D02*
X113914244Y-77127794D01*
X113914244Y-77127794D02*
X113990444Y-77127794D01*
X113914244Y-75716794D02*
X113914244Y-74827794D01*
X113914244Y-74827794D02*
X113990444Y-74827794D01*
X109062844Y-78016794D02*
X108986644Y-78016794D01*
X109062844Y-77127794D02*
X109062844Y-78016794D01*
X109062844Y-75716794D02*
X108986644Y-75716794D01*
X109062844Y-74827794D02*
X109062844Y-75716794D01*
X108986644Y-78022494D02*
X113990444Y-78022494D01*
X108986644Y-78022494D02*
X108986644Y-78022494D01*
X108986644Y-78016794D02*
X108986644Y-77127794D01*
X108986644Y-77127794D02*
X109062844Y-77127794D01*
X108986644Y-75716794D02*
X108986644Y-74827794D01*
X108986644Y-74827794D02*
X109062844Y-74827794D01*
X108986644Y-74822094D02*
X108986644Y-78022494D01*
X108986644Y-74822094D02*
X108986644Y-74822094D01*
D13*
%TO.C,C13*%
X115613319Y-75263093D02*
X115613319Y-76263093D01*
X115113319Y-75263093D02*
X115613319Y-75263093D01*
X115613319Y-76263093D02*
X115113319Y-76263093D01*
X115113319Y-76263093D02*
X115113319Y-75263093D01*
%TO.C,C9*%
X129600045Y-84382577D02*
X129600045Y-83382577D01*
X130100045Y-84382577D02*
X129600045Y-84382577D01*
X129600045Y-83382577D02*
X130100045Y-83382577D01*
X130100045Y-83382577D02*
X130100045Y-84382577D01*
%TO.C,D2*%
X117592524Y-107657044D02*
X118092524Y-107657044D01*
X118092524Y-107657044D02*
X118092524Y-106057044D01*
X117292524Y-107357044D02*
X117592524Y-107657044D01*
X117292524Y-106057044D02*
X117292524Y-107357044D01*
X118092524Y-106057044D02*
X117292524Y-106057044D01*
D14*
%TO.C,D1*%
X156510000Y-82820000D02*
X155910000Y-82820000D01*
X155910000Y-82820000D02*
X155910000Y-83820000D01*
X156510000Y-83820000D02*
X156510000Y-82820000D01*
X155910000Y-83820000D02*
X156510000Y-83820000D01*
D11*
X156285000Y-81920000D02*
G75*
G03*
X156135000Y-81920000I-75000J0D01*
G01*
X156135000Y-81920000D02*
G75*
G03*
X156285000Y-81920000I75000J0D01*
G01*
D14*
%TO.C,J7*%
X172680000Y-111845000D02*
X187920000Y-111845000D01*
X172680000Y-114255000D02*
X172680000Y-111845000D01*
X172680000Y-114255000D02*
X172680000Y-114255000D01*
X172680000Y-114255000D02*
X187920000Y-114255000D01*
X187920000Y-111845000D02*
X187920000Y-114255000D01*
X187920000Y-114255000D02*
X172680000Y-114255000D01*
X187920000Y-114255000D02*
X187920000Y-114255000D01*
D15*
X172130000Y-113050000D02*
G75*
G03*
X171930000Y-113050000I-100000J0D01*
G01*
X171930000Y-113050000D02*
G75*
G03*
X172130000Y-113050000I100000J0D01*
G01*
D13*
%TO.C,J1*%
X100370000Y-87335000D02*
X100370000Y-77815000D01*
X105750000Y-87335000D02*
X100370000Y-87335000D01*
X105750000Y-87335000D02*
X105750000Y-77815000D01*
X107020000Y-87335000D02*
X105750000Y-87335000D01*
X107020000Y-87335000D02*
X107020000Y-85750000D01*
X107020000Y-85750000D02*
X114640000Y-85750000D01*
X107020000Y-79400000D02*
X114640000Y-79400000D01*
X107020000Y-79400000D02*
X107020000Y-77815000D01*
X114640000Y-79400000D02*
X114640000Y-85750000D01*
X100370000Y-77815000D02*
X105750000Y-77815000D01*
X105750000Y-77815000D02*
X107020000Y-77815000D01*
%TO.C,C16*%
X138405444Y-104756943D02*
X138405444Y-103756943D01*
X138905444Y-104756943D02*
X138405444Y-104756943D01*
X138405444Y-103756943D02*
X138905444Y-103756943D01*
X138905444Y-103756943D02*
X138905444Y-104756943D01*
D14*
%TO.C,Y2*%
X108475586Y-88705584D02*
X108475586Y-90205584D01*
X108475586Y-88705584D02*
X111675586Y-88705584D01*
X108475586Y-90205584D02*
X111675586Y-90205584D01*
X111675586Y-88705584D02*
X111675586Y-90205584D01*
D16*
%TO.C,U2*%
X113181100Y-82673600D02*
X114882900Y-82673600D01*
X114882900Y-82673600D02*
X114882900Y-81784600D01*
X113181100Y-81784600D02*
X113181100Y-82673600D01*
X114882900Y-81784600D02*
X113181100Y-81784600D01*
X113181100Y-82533900D02*
G75*
G03*
X113181100Y-81924300I0J304800D01*
G01*
X113600200Y-82419600D02*
G75*
G03*
X113447800Y-82419600I-76200J0D01*
G01*
X113447800Y-82419600D02*
G75*
G03*
X113600200Y-82419600I76200J0D01*
G01*
D13*
%TO.C,C12*%
X153188726Y-82800159D02*
X153188726Y-83800159D01*
X152688726Y-82800159D02*
X153188726Y-82800159D01*
X153188726Y-83800159D02*
X152688726Y-83800159D01*
X152688726Y-83800159D02*
X152688726Y-82800159D01*
%TO.C,R2*%
X118113448Y-101659031D02*
X118113448Y-103259031D01*
X117288448Y-101659031D02*
X118113448Y-101659031D01*
X118113448Y-103259031D02*
X117288448Y-103259031D01*
X117288448Y-103259031D02*
X117288448Y-101659031D01*
%TD*%
M02*
