%TF.GenerationSoftware,KiCad,Pcbnew,7.0.10*%
%TF.CreationDate,2024-05-16T11:59:50+01:00*%
%TF.ProjectId,RF_Race_Car,52465f52-6163-4655-9f43-61722e6b6963,rev?*%
%TF.SameCoordinates,Original*%
%TF.FileFunction,Copper,L2,Bot*%
%TF.FilePolarity,Positive*%
%FSLAX46Y46*%
G04 Gerber Fmt 4.6, Leading zero omitted, Abs format (unit mm)*
G04 Created by KiCad (PCBNEW 7.0.10) date 2024-05-16 11:59:50*
%MOMM*%
%LPD*%
G01*
G04 APERTURE LIST*
%TA.AperFunction,ComponentPad*%
%ADD10R,1.350000X1.350000*%
%TD*%
%TA.AperFunction,ComponentPad*%
%ADD11C,1.350000*%
%TD*%
%TA.AperFunction,ComponentPad*%
%ADD12R,1.398000X1.398000*%
%TD*%
%TA.AperFunction,ComponentPad*%
%ADD13C,1.398000*%
%TD*%
%TA.AperFunction,ComponentPad*%
%ADD14R,1.050000X1.050000*%
%TD*%
%TA.AperFunction,ComponentPad*%
%ADD15C,1.050000*%
%TD*%
%TA.AperFunction,ComponentPad*%
%ADD16R,1.650000X1.650000*%
%TD*%
%TA.AperFunction,ComponentPad*%
%ADD17C,1.650000*%
%TD*%
%TA.AperFunction,SMDPad,CuDef*%
%ADD18R,5.600000X1.650000*%
%TD*%
%TA.AperFunction,ViaPad*%
%ADD19C,0.500000*%
%TD*%
%TA.AperFunction,Conductor*%
%ADD20C,0.250000*%
%TD*%
%TA.AperFunction,Conductor*%
%ADD21C,0.750000*%
%TD*%
%TA.AperFunction,Conductor*%
%ADD22C,1.000000*%
%TD*%
%TA.AperFunction,Conductor*%
%ADD23C,0.200000*%
%TD*%
G04 APERTURE END LIST*
D10*
%TO.P,J5,1,1*%
%TO.N,unconnected-(J5-Pad1)*%
X168910000Y-64770000D03*
D11*
%TO.P,J5,2,2*%
%TO.N,unconnected-(J5-Pad2)*%
X171450000Y-64770000D03*
%TO.P,J5,3,3*%
%TO.N,unconnected-(J5-Pad3)*%
X173990000Y-64770000D03*
%TO.P,J5,4,4*%
%TO.N,unconnected-(J5-Pad4)*%
X176530000Y-64770000D03*
%TO.P,J5,5,5*%
%TO.N,unconnected-(J5-Pad5)*%
X179070000Y-64770000D03*
%TO.P,J5,6,6*%
%TO.N,/DIO_20_PB1*%
X181610000Y-64770000D03*
%TO.P,J5,7,7*%
%TO.N,/DIO_19*%
X184150000Y-64770000D03*
%TO.P,J5,8,8*%
%TO.N,/DIO_18*%
X186690000Y-64770000D03*
%TD*%
D10*
%TO.P,J3,1,1*%
%TO.N,unconnected-(J3-Pad1)*%
X151130000Y-113030000D03*
D11*
%TO.P,J3,2,2*%
%TO.N,unconnected-(J3-Pad2)*%
X153670000Y-113030000D03*
%TO.P,J3,3,3*%
%TO.N,unconnected-(J3-Pad3)*%
X156210000Y-113030000D03*
%TO.P,J3,4,4*%
%TO.N,+3.3V*%
X158750000Y-113030000D03*
%TO.P,J3,5,5*%
%TO.N,unconnected-(J3-Pad5)*%
X161290000Y-113030000D03*
%TO.P,J3,6,6*%
%TO.N,GND*%
X163830000Y-113030000D03*
%TO.P,J3,7,7*%
X166370000Y-113030000D03*
%TO.P,J3,8,8*%
%TO.N,unconnected-(J3-Pad8)*%
X168910000Y-113030000D03*
%TD*%
D12*
%TO.P,J4,1,1*%
%TO.N,unconnected-(J4-Pad1)*%
X141888505Y-64770000D03*
D13*
%TO.P,J4,2,2*%
%TO.N,unconnected-(J4-Pad2)*%
X144428505Y-64770000D03*
%TO.P,J4,3,3*%
%TO.N,unconnected-(J4-Pad3)*%
X146968505Y-64770000D03*
%TO.P,J4,4,4*%
%TO.N,GND*%
X149508505Y-64770000D03*
%TO.P,J4,5,5*%
%TO.N,/DIO_7_SPI_SCK*%
X152048505Y-64770000D03*
%TO.P,J4,6,6*%
%TO.N,/DIO_6_SPI_CIPO*%
X154588505Y-64770000D03*
%TO.P,J4,7,7*%
%TO.N,/DIO_5_SPI_COPI*%
X157128505Y-64770000D03*
%TO.P,J4,8,8*%
%TO.N,/DIO_4_SPI_CS*%
X159668505Y-64770000D03*
%TO.P,J4,9,9*%
%TO.N,unconnected-(J4-Pad9)*%
X162208505Y-64770000D03*
%TO.P,J4,10,10*%
%TO.N,unconnected-(J4-Pad10)*%
X164748505Y-64770000D03*
%TD*%
D14*
%TO.P,J2,1,1*%
%TO.N,/VDDS*%
X142240000Y-97790000D03*
D15*
%TO.P,J2,2,2*%
%TO.N,/JTAG_TMSC*%
X140970000Y-97790000D03*
%TO.P,J2,3,3*%
%TO.N,GND*%
X142240000Y-96520000D03*
%TO.P,J2,4,4*%
%TO.N,/JTAG_TCKC*%
X140970000Y-96520000D03*
%TO.P,J2,5,5*%
%TO.N,/DIO_7_SPI_SCK*%
X142240000Y-95250000D03*
%TO.P,J2,6,6*%
%TO.N,/DIO_16_JTAG_TDO*%
X140970000Y-95250000D03*
%TO.P,J2,7,7*%
%TO.N,/DIO_5_SPI_COPI*%
X142240000Y-93980000D03*
%TO.P,J2,8,8*%
%TO.N,/DIO_17_JTAG_TDI*%
X140970000Y-93980000D03*
%TO.P,J2,9,9*%
%TO.N,/DIO_6_SPI_CIPO*%
X142240000Y-92710000D03*
%TO.P,J2,10,10*%
%TO.N,/RESET_N*%
X140970000Y-92710000D03*
%TD*%
D16*
%TO.P,J7,01,01*%
%TO.N,unconnected-(J7-Pad01)*%
X173950000Y-113050000D03*
D17*
%TO.P,J7,02,02*%
%TO.N,unconnected-(J7-Pad02)*%
X176490000Y-113050000D03*
%TO.P,J7,03,03*%
%TO.N,unconnected-(J7-Pad03)*%
X179030000Y-113050000D03*
%TO.P,J7,04,04*%
%TO.N,/DIO_23*%
X181570000Y-113050000D03*
%TO.P,J7,05,05*%
%TO.N,/DIO_24*%
X184110000Y-113050000D03*
%TO.P,J7,06,06*%
%TO.N,/DIO_25*%
X186650000Y-113050000D03*
%TD*%
D18*
%TO.P,J1,4*%
%TO.N,GND*%
X102950000Y-86700000D03*
%TO.P,J1,5*%
X102950000Y-78450000D03*
%TD*%
D19*
%TO.N,GND*%
X119140000Y-84890000D03*
X110490000Y-111760000D03*
X175260000Y-96520000D03*
X121255956Y-91976035D03*
X175260000Y-85090000D03*
X104140000Y-97790000D03*
X125730000Y-109220000D03*
X185420000Y-100330000D03*
X143510000Y-68580000D03*
X107584017Y-84005205D03*
X105410000Y-88900000D03*
X105410000Y-105410000D03*
X101600000Y-63500000D03*
X116920000Y-82670000D03*
X139700000Y-78740000D03*
X132239380Y-83201330D03*
X119030000Y-82720000D03*
X106680000Y-101600000D03*
X187960000Y-77470000D03*
X116930000Y-84930000D03*
X101600000Y-64770000D03*
X142240000Y-82550000D03*
X120650000Y-69850000D03*
X124460000Y-68580000D03*
X113334841Y-76508371D03*
X153180000Y-68840000D03*
X146050000Y-91440000D03*
X158750000Y-102870000D03*
X172720000Y-95250000D03*
X104140000Y-67310000D03*
X101395449Y-92776131D03*
X157930000Y-67080000D03*
X100700990Y-80773161D03*
X119170000Y-87050000D03*
X126373279Y-86034105D03*
X156210000Y-71330000D03*
X161190000Y-70870000D03*
X175260000Y-67310000D03*
X176049747Y-103765654D03*
X168910000Y-70798146D03*
X102346612Y-80747843D03*
X125730000Y-69850000D03*
X148590000Y-77470000D03*
X172720000Y-91440000D03*
X101940716Y-76297322D03*
X123650000Y-84450000D03*
X175260000Y-105410000D03*
X104140000Y-113030000D03*
X151740000Y-68350000D03*
X153200000Y-67090000D03*
X105410000Y-69850000D03*
X146050000Y-86360000D03*
X158750000Y-99060000D03*
X101600000Y-100330000D03*
X139700000Y-81280000D03*
X106680000Y-66040000D03*
X101600000Y-95250000D03*
X140298189Y-73017418D03*
X128270000Y-106680000D03*
X139072431Y-97262250D03*
X116840000Y-87160000D03*
X121444188Y-98803293D03*
X187960000Y-73660000D03*
X157380000Y-107960000D03*
X111760000Y-69850000D03*
X181730000Y-105290000D03*
X115059343Y-88584913D03*
X166370000Y-102870000D03*
X187960000Y-81280000D03*
X109220000Y-67310000D03*
X102870000Y-88900000D03*
X173120000Y-107200000D03*
X135890000Y-69850000D03*
X136850000Y-114270000D03*
X140970000Y-104140000D03*
X161400000Y-67060000D03*
X111094913Y-100490944D03*
X146900000Y-105200000D03*
X105410000Y-73660000D03*
X150840000Y-66960000D03*
X155590000Y-67290000D03*
X181520000Y-109210000D03*
X119010000Y-108910000D03*
X145550000Y-114250000D03*
X110150000Y-114360000D03*
X121200000Y-84890000D03*
X100925976Y-90611339D03*
X124200000Y-114310000D03*
X104140000Y-92710000D03*
X146230000Y-80150000D03*
X101250000Y-110660000D03*
X121920000Y-63500000D03*
X187960000Y-85090000D03*
X121266760Y-100991650D03*
X134620000Y-77470000D03*
X163440000Y-86940000D03*
X101600000Y-106680000D03*
X117900000Y-109220000D03*
X163150000Y-67080000D03*
X178530000Y-108860000D03*
X167290000Y-96030000D03*
X188490000Y-68290000D03*
X166430000Y-69150000D03*
X152400000Y-99060000D03*
X134620000Y-91440000D03*
X120650000Y-74930000D03*
X167390000Y-93730000D03*
X150736203Y-101186527D03*
X145910000Y-96540000D03*
X129570000Y-114290000D03*
X163860000Y-83850000D03*
X168080000Y-108800000D03*
X147320000Y-114230000D03*
X163600000Y-77250000D03*
X149860000Y-105410000D03*
X172469819Y-80853170D03*
X167640000Y-73510000D03*
X144780000Y-76200000D03*
X101600000Y-68580000D03*
X140970000Y-86360000D03*
X154820000Y-96130000D03*
X131320000Y-114270000D03*
X155670000Y-97160000D03*
X104903654Y-84039087D03*
X164460000Y-110650000D03*
X136590000Y-103930000D03*
X121360000Y-87130000D03*
X146050000Y-69850000D03*
X121280000Y-82670000D03*
X162410000Y-80480000D03*
X172720000Y-87630000D03*
X161320000Y-101330000D03*
X156810000Y-104530000D03*
X169200299Y-96693666D03*
X112660000Y-107660000D03*
X116260000Y-114340000D03*
X174900000Y-108270000D03*
X145800000Y-97810000D03*
X120070000Y-113010000D03*
X134840000Y-114270000D03*
X168350000Y-110650000D03*
X128490000Y-111830000D03*
X169200000Y-80700000D03*
X105410000Y-63500000D03*
X118680000Y-104600000D03*
X157830000Y-94210000D03*
X186000000Y-108970000D03*
X133350000Y-107950000D03*
X118110000Y-63500000D03*
X147650000Y-93470000D03*
X164493003Y-68008449D03*
X154400000Y-97230000D03*
X154080000Y-75960000D03*
X120650000Y-96520000D03*
X144650000Y-105430000D03*
X170300000Y-110630000D03*
X167160000Y-76410000D03*
X125970000Y-114290000D03*
X109158264Y-84066940D03*
X162190000Y-78630000D03*
X168910000Y-105410000D03*
X118945416Y-89504984D03*
X176400000Y-76420000D03*
X177090000Y-110580000D03*
X113030000Y-95250000D03*
X136778461Y-111017881D03*
X116202698Y-77145673D03*
X117110000Y-67700000D03*
X144240000Y-94750000D03*
X101600000Y-88900000D03*
X104321358Y-80671892D03*
X109360000Y-80070000D03*
X155930000Y-101270000D03*
X170120000Y-67090000D03*
X150902023Y-109002429D03*
X114490000Y-114360000D03*
X162800000Y-106250000D03*
X107640000Y-81000000D03*
X115770000Y-73200000D03*
X150260000Y-69770000D03*
X156210000Y-75820000D03*
X133350000Y-69850000D03*
X160760000Y-110610000D03*
X133350000Y-86360000D03*
X155760000Y-107220000D03*
X160350000Y-91630000D03*
X175630000Y-88160000D03*
X149170000Y-110610000D03*
X156740000Y-109230000D03*
X103360000Y-84040000D03*
X165190000Y-88230000D03*
X101187360Y-98000931D03*
X107580000Y-108190000D03*
X134929536Y-97276585D03*
X101210000Y-103370000D03*
X101220000Y-114380000D03*
X124890000Y-98460000D03*
X187960000Y-91440000D03*
X108210000Y-114360000D03*
X121830000Y-104870000D03*
X161920000Y-95700000D03*
X127705557Y-99637272D03*
X116830000Y-71760000D03*
X136859674Y-107606957D03*
X181610000Y-93980000D03*
X162560000Y-99490000D03*
X124310000Y-100660000D03*
X155690000Y-69360000D03*
X146950000Y-99030000D03*
X113040000Y-62630000D03*
X154420000Y-110610000D03*
X114300000Y-78740000D03*
X116480000Y-68760000D03*
X164600000Y-85540000D03*
X101090000Y-73710000D03*
X166240000Y-99370000D03*
X105010000Y-109500000D03*
X164860000Y-93630000D03*
X125730000Y-63500000D03*
X136920583Y-105759374D03*
X100710000Y-84010000D03*
X153140000Y-96560000D03*
X159010000Y-110590000D03*
X108540000Y-85430000D03*
X178470000Y-74760000D03*
X155210000Y-87310000D03*
X172500000Y-75540000D03*
X188460000Y-98090000D03*
X182080000Y-76140000D03*
X171540000Y-101770000D03*
X145500000Y-93320000D03*
X175630000Y-92160000D03*
X153340000Y-105830000D03*
X123390000Y-101580000D03*
X159960000Y-93280000D03*
X104980000Y-76530000D03*
X122580000Y-76250000D03*
X162320000Y-104530000D03*
X150250000Y-74900000D03*
X101060000Y-66690000D03*
X123090000Y-70570000D03*
X134730000Y-112750000D03*
X109220000Y-105410000D03*
X140250000Y-90450000D03*
X147480000Y-81060000D03*
X188500000Y-103520000D03*
X114419997Y-98102640D03*
X109220000Y-63500000D03*
X129540000Y-86360000D03*
X116470000Y-102730000D03*
X107240000Y-97150000D03*
X124460000Y-113030000D03*
X101070000Y-71960000D03*
X120060000Y-67370000D03*
X138483923Y-112784252D03*
X145940000Y-94900000D03*
X159410000Y-80960000D03*
X134410000Y-79970000D03*
X125730000Y-91440000D03*
X155980000Y-81440000D03*
X105410000Y-95250000D03*
X145701090Y-108468161D03*
X142900000Y-91160000D03*
X141955756Y-104866036D03*
X111050000Y-85380000D03*
X140392416Y-114773957D03*
X132770000Y-91900000D03*
X120060000Y-77080000D03*
X152400000Y-91440000D03*
X143580000Y-112700000D03*
X185660000Y-72650000D03*
X116210000Y-96820000D03*
X153740000Y-102180000D03*
X161070000Y-92230000D03*
X161250000Y-77430000D03*
%TO.N,/DIO_7_SPI_SCK*%
X146950000Y-95600000D03*
%TO.N,/DIO_5_SPI_COPI*%
X148127164Y-94222836D03*
%TO.N,/DIO_6_SPI_CIPO*%
X116024994Y-98911445D03*
X148439401Y-92651581D03*
X114125306Y-99300000D03*
%TO.N,/VDDR*%
X118941786Y-66017607D03*
X118110000Y-66040000D03*
X137160000Y-84394307D03*
X116314950Y-78860000D03*
X116850000Y-77780000D03*
X136499997Y-84394307D03*
%TO.N,/RESET_N*%
X139100000Y-87100000D03*
X139050000Y-91100000D03*
%TO.N,/VDDS*%
X130811068Y-73256565D03*
X130780000Y-104009434D03*
X130810000Y-72390000D03*
X119983992Y-90734787D03*
X130780000Y-103210567D03*
X130806598Y-98883096D03*
X117464767Y-91085234D03*
X116889766Y-90510234D03*
X121250000Y-78950000D03*
X126204930Y-81364865D03*
X121950000Y-78950000D03*
X130819288Y-99542977D03*
X125398704Y-81364865D03*
X120779211Y-90692033D03*
%TO.N,/DIO_23*%
X166370000Y-91440000D03*
X165032976Y-74453933D03*
%TO.N,/DIO_24*%
X166272914Y-73549113D03*
X168178512Y-91471422D03*
%TO.N,/X24M_N*%
X112861393Y-78934363D03*
X116840000Y-79900000D03*
%TO.N,/X24M_P*%
X110870337Y-78652730D03*
X115831380Y-80181773D03*
%TO.N,/DIO_25*%
X170027403Y-91489372D03*
X167640000Y-72390000D03*
%TD*%
D20*
%TO.N,GND*%
X102550000Y-87303381D02*
X103136663Y-86716718D01*
%TO.N,/DIO_7_SPI_SCK*%
X153938026Y-62880479D02*
X152048505Y-64770000D01*
X166907177Y-63961860D02*
X165825796Y-62880479D01*
X165825796Y-62880479D02*
X153938026Y-62880479D01*
X147475257Y-95074743D02*
X155115257Y-95074743D01*
X146950000Y-95600000D02*
X147475257Y-95074743D01*
X155115257Y-95074743D02*
X160020000Y-90170000D01*
X166907177Y-67074358D02*
X166907177Y-63961860D01*
X160020000Y-73961535D02*
X166907177Y-67074358D01*
X160020000Y-90170000D02*
X160020000Y-73961535D01*
%TO.N,/DIO_5_SPI_COPI*%
X158750000Y-90170000D02*
X158750000Y-77661128D01*
X158750000Y-77661128D02*
X157128505Y-76039633D01*
X154670000Y-94250000D02*
X158750000Y-90170000D01*
X148127164Y-94222836D02*
X148154328Y-94250000D01*
X157128505Y-76039633D02*
X157128505Y-64770000D01*
X148154328Y-94250000D02*
X154670000Y-94250000D01*
X156389429Y-64770000D02*
X157128505Y-64770000D01*
%TO.N,/DIO_6_SPI_CIPO*%
X157480000Y-78260083D02*
X154588505Y-75368588D01*
X154998419Y-92651581D02*
X157480000Y-90170000D01*
X157480000Y-90170000D02*
X157480000Y-78260083D01*
X154588505Y-75368588D02*
X154588505Y-64770000D01*
X114513861Y-98911445D02*
X114125306Y-99300000D01*
X116024994Y-98911445D02*
X114513861Y-98911445D01*
X148439401Y-92651581D02*
X154998419Y-92651581D01*
D21*
%TO.N,/VDDR*%
X116850000Y-77780000D02*
X116430000Y-78200000D01*
X137160000Y-76014221D02*
X137160000Y-84394307D01*
D20*
X118919393Y-66040000D02*
X118941786Y-66017607D01*
D21*
X127185779Y-66040000D02*
X137160000Y-76014221D01*
X118941786Y-66017607D02*
X118964179Y-66040000D01*
X116850000Y-77780000D02*
X118110000Y-76520000D01*
X118110000Y-76520000D02*
X118110000Y-66040000D01*
X116430000Y-78200000D02*
X116430000Y-78744950D01*
X118964179Y-66040000D02*
X127185779Y-66040000D01*
D20*
X116430000Y-78744950D02*
X116314950Y-78860000D01*
D21*
X118110000Y-66040000D02*
X118919393Y-66040000D01*
D20*
%TO.N,/RESET_N*%
X139050000Y-91100000D02*
X139100000Y-91050000D01*
X139100000Y-91050000D02*
X139100000Y-87100000D01*
D22*
%TO.N,/VDDS*%
X119415154Y-90734787D02*
X119983992Y-90734787D01*
X130810000Y-99060000D02*
X130810000Y-103979434D01*
X123950000Y-79405635D02*
X124594365Y-80050000D01*
X121950000Y-78950000D02*
X121250000Y-78950000D01*
X125398704Y-80798704D02*
X125398704Y-81364865D01*
X124650000Y-80050000D02*
X125398704Y-80798704D01*
X123550000Y-78950000D02*
X123950000Y-79350000D01*
X130810000Y-96720000D02*
X124015145Y-96720000D01*
X120779211Y-90692033D02*
X120745008Y-90734787D01*
X125398704Y-81364865D02*
X125412849Y-81379010D01*
X117806930Y-91427398D02*
X118722543Y-91427398D01*
X130810000Y-72390000D02*
X130810000Y-73255497D01*
X130810000Y-99060000D02*
X130810000Y-96720000D01*
X130810000Y-83353238D02*
X130810000Y-73257633D01*
X130810000Y-103979434D02*
X130780000Y-104009434D01*
X130810000Y-73257633D02*
X130811068Y-73256565D01*
X124015145Y-96720000D02*
X118722543Y-91427398D01*
X130780000Y-103210567D02*
X130780000Y-104009434D01*
X128835772Y-81379010D02*
X126204930Y-81364865D01*
X124594365Y-80050000D02*
X124650000Y-80050000D01*
X118722543Y-91427398D02*
X119415154Y-90734787D01*
D20*
X120026746Y-90692033D02*
X119983992Y-90734787D01*
D22*
X121250000Y-78950000D02*
X123550000Y-78950000D01*
X116889766Y-90510234D02*
X117806930Y-91427398D01*
X130810000Y-83353238D02*
X130810000Y-96720000D01*
X130810000Y-83353238D02*
X129557132Y-82100370D01*
X123950000Y-79350000D02*
X123950000Y-79405635D01*
X120745008Y-90734787D02*
X120702254Y-90734787D01*
D20*
X130810000Y-73255497D02*
X130811068Y-73256565D01*
D22*
X120779211Y-90692033D02*
X120026746Y-90692033D01*
X129557132Y-82100370D02*
X128835772Y-81379010D01*
D20*
%TO.N,/DIO_23*%
X165032976Y-74453933D02*
X166370000Y-75790957D01*
X166370000Y-75790957D02*
X166370000Y-91440000D01*
%TO.N,/DIO_24*%
X168178512Y-75454711D02*
X168178512Y-91471422D01*
X166272914Y-73549113D02*
X168178512Y-75454711D01*
D23*
%TO.N,/X24M_N*%
X112861393Y-78934363D02*
X112839797Y-79074737D01*
X113477030Y-79550000D02*
X112861393Y-78934363D01*
X116490000Y-79550000D02*
X113477030Y-79550000D01*
X116840000Y-79900000D02*
X116490000Y-79550000D01*
%TO.N,/X24M_P*%
X115831380Y-80181773D02*
X115679607Y-80030000D01*
X112247607Y-80030000D02*
X110870337Y-78652730D01*
X115679607Y-80030000D02*
X112247607Y-80030000D01*
D20*
%TO.N,/DIO_25*%
X170027403Y-74777403D02*
X170027403Y-91489372D01*
X167640000Y-72390000D02*
X170027403Y-74777403D01*
%TD*%
%TA.AperFunction,Conductor*%
%TO.N,GND*%
G36*
X189388690Y-61989510D02*
G01*
X189424654Y-62039010D01*
X189429499Y-62069603D01*
X189429499Y-115280603D01*
X189410592Y-115338794D01*
X189361092Y-115374758D01*
X189330499Y-115379603D01*
X100159499Y-115379603D01*
X100101308Y-115360696D01*
X100065344Y-115311196D01*
X100060499Y-115280603D01*
X100060499Y-113724746D01*
X150254500Y-113724746D01*
X150254501Y-113724758D01*
X150266132Y-113783227D01*
X150266134Y-113783233D01*
X150272249Y-113792384D01*
X150310448Y-113849552D01*
X150376769Y-113893867D01*
X150421231Y-113902711D01*
X150435241Y-113905498D01*
X150435246Y-113905498D01*
X150435252Y-113905500D01*
X150435253Y-113905500D01*
X151824747Y-113905500D01*
X151824748Y-113905500D01*
X151883231Y-113893867D01*
X151949552Y-113849552D01*
X151993867Y-113783231D01*
X152005500Y-113724748D01*
X152005500Y-113030000D01*
X152789678Y-113030000D01*
X152808916Y-113213034D01*
X152865784Y-113388054D01*
X152865790Y-113388068D01*
X152898283Y-113444346D01*
X152957805Y-113547440D01*
X153080950Y-113684207D01*
X153229839Y-113792381D01*
X153229843Y-113792383D01*
X153229845Y-113792384D01*
X153285485Y-113817156D01*
X153397966Y-113867236D01*
X153577981Y-113905500D01*
X153577983Y-113905500D01*
X153762017Y-113905500D01*
X153762019Y-113905500D01*
X153942034Y-113867236D01*
X154110161Y-113792381D01*
X154259050Y-113684207D01*
X154382195Y-113547440D01*
X154474214Y-113388059D01*
X154531085Y-113213029D01*
X154550322Y-113030000D01*
X155329678Y-113030000D01*
X155348916Y-113213034D01*
X155405784Y-113388054D01*
X155405790Y-113388068D01*
X155438283Y-113444346D01*
X155497805Y-113547440D01*
X155620950Y-113684207D01*
X155769839Y-113792381D01*
X155769843Y-113792383D01*
X155769845Y-113792384D01*
X155825485Y-113817156D01*
X155937966Y-113867236D01*
X156117981Y-113905500D01*
X156117983Y-113905500D01*
X156302017Y-113905500D01*
X156302019Y-113905500D01*
X156482034Y-113867236D01*
X156650161Y-113792381D01*
X156799050Y-113684207D01*
X156922195Y-113547440D01*
X157014214Y-113388059D01*
X157071085Y-113213029D01*
X157090322Y-113030000D01*
X157869678Y-113030000D01*
X157888916Y-113213034D01*
X157945784Y-113388054D01*
X157945790Y-113388068D01*
X157978283Y-113444346D01*
X158037805Y-113547440D01*
X158160950Y-113684207D01*
X158309839Y-113792381D01*
X158309843Y-113792383D01*
X158309845Y-113792384D01*
X158365485Y-113817156D01*
X158477966Y-113867236D01*
X158657981Y-113905500D01*
X158657983Y-113905500D01*
X158842017Y-113905500D01*
X158842019Y-113905500D01*
X159022034Y-113867236D01*
X159190161Y-113792381D01*
X159339050Y-113684207D01*
X159462195Y-113547440D01*
X159554214Y-113388059D01*
X159611085Y-113213029D01*
X159630322Y-113030000D01*
X160409678Y-113030000D01*
X160428916Y-113213034D01*
X160485784Y-113388054D01*
X160485790Y-113388068D01*
X160518283Y-113444346D01*
X160577805Y-113547440D01*
X160700950Y-113684207D01*
X160849839Y-113792381D01*
X160849843Y-113792383D01*
X160849845Y-113792384D01*
X160905485Y-113817156D01*
X161017966Y-113867236D01*
X161197981Y-113905500D01*
X161197983Y-113905500D01*
X161382017Y-113905500D01*
X161382019Y-113905500D01*
X161562034Y-113867236D01*
X161730161Y-113792381D01*
X161879050Y-113684207D01*
X162002195Y-113547440D01*
X162094214Y-113388059D01*
X162151085Y-113213029D01*
X162170322Y-113030000D01*
X168029678Y-113030000D01*
X168048916Y-113213034D01*
X168105784Y-113388054D01*
X168105790Y-113388068D01*
X168138283Y-113444346D01*
X168197805Y-113547440D01*
X168320950Y-113684207D01*
X168469839Y-113792381D01*
X168469843Y-113792383D01*
X168469845Y-113792384D01*
X168525485Y-113817156D01*
X168637966Y-113867236D01*
X168817981Y-113905500D01*
X168817983Y-113905500D01*
X169002017Y-113905500D01*
X169002019Y-113905500D01*
X169052612Y-113894746D01*
X172924500Y-113894746D01*
X172924501Y-113894758D01*
X172936132Y-113953227D01*
X172936134Y-113953233D01*
X172968735Y-114002023D01*
X172980448Y-114019552D01*
X173046769Y-114063867D01*
X173091231Y-114072711D01*
X173105241Y-114075498D01*
X173105246Y-114075498D01*
X173105252Y-114075500D01*
X173105253Y-114075500D01*
X174794747Y-114075500D01*
X174794748Y-114075500D01*
X174853231Y-114063867D01*
X174919552Y-114019552D01*
X174963867Y-113953231D01*
X174975500Y-113894748D01*
X174975500Y-113050003D01*
X175459538Y-113050003D01*
X175479336Y-113251028D01*
X175479337Y-113251033D01*
X175537977Y-113444341D01*
X175537979Y-113444346D01*
X175633199Y-113622491D01*
X175761348Y-113778641D01*
X175761353Y-113778647D01*
X175761358Y-113778651D01*
X175917508Y-113906800D01*
X176095653Y-114002020D01*
X176095659Y-114002023D01*
X176230327Y-114042873D01*
X176288966Y-114060662D01*
X176288971Y-114060663D01*
X176489997Y-114080462D01*
X176490000Y-114080462D01*
X176490003Y-114080462D01*
X176691028Y-114060663D01*
X176691033Y-114060662D01*
X176884341Y-114002023D01*
X176964925Y-113958949D01*
X177062491Y-113906800D01*
X177062492Y-113906798D01*
X177062494Y-113906798D01*
X177218647Y-113778647D01*
X177346798Y-113622494D01*
X177386918Y-113547436D01*
X177442020Y-113444346D01*
X177442023Y-113444341D01*
X177500662Y-113251033D01*
X177500663Y-113251028D01*
X177520462Y-113050003D01*
X177999538Y-113050003D01*
X178019336Y-113251028D01*
X178019337Y-113251033D01*
X178077977Y-113444341D01*
X178077979Y-113444346D01*
X178173199Y-113622491D01*
X178301348Y-113778641D01*
X178301353Y-113778647D01*
X178301358Y-113778651D01*
X178457508Y-113906800D01*
X178635653Y-114002020D01*
X178635659Y-114002023D01*
X178770327Y-114042873D01*
X178828966Y-114060662D01*
X178828971Y-114060663D01*
X179029997Y-114080462D01*
X179030000Y-114080462D01*
X179030003Y-114080462D01*
X179231028Y-114060663D01*
X179231033Y-114060662D01*
X179424341Y-114002023D01*
X179504925Y-113958949D01*
X179602491Y-113906800D01*
X179602492Y-113906798D01*
X179602494Y-113906798D01*
X179758647Y-113778647D01*
X179886798Y-113622494D01*
X179926918Y-113547436D01*
X179982020Y-113444346D01*
X179982023Y-113444341D01*
X180040662Y-113251033D01*
X180040663Y-113251028D01*
X180060462Y-113050003D01*
X180539538Y-113050003D01*
X180559336Y-113251028D01*
X180559337Y-113251033D01*
X180617977Y-113444341D01*
X180617979Y-113444346D01*
X180713199Y-113622491D01*
X180841348Y-113778641D01*
X180841353Y-113778647D01*
X180841358Y-113778651D01*
X180997508Y-113906800D01*
X181175653Y-114002020D01*
X181175659Y-114002023D01*
X181310327Y-114042873D01*
X181368966Y-114060662D01*
X181368971Y-114060663D01*
X181569997Y-114080462D01*
X181570000Y-114080462D01*
X181570003Y-114080462D01*
X181771028Y-114060663D01*
X181771033Y-114060662D01*
X181964341Y-114002023D01*
X182044925Y-113958949D01*
X182142491Y-113906800D01*
X182142492Y-113906798D01*
X182142494Y-113906798D01*
X182298647Y-113778647D01*
X182426798Y-113622494D01*
X182466918Y-113547436D01*
X182522020Y-113444346D01*
X182522023Y-113444341D01*
X182580662Y-113251033D01*
X182580663Y-113251028D01*
X182600462Y-113050003D01*
X183079538Y-113050003D01*
X183099336Y-113251028D01*
X183099337Y-113251033D01*
X183157977Y-113444341D01*
X183157979Y-113444346D01*
X183253199Y-113622491D01*
X183381348Y-113778641D01*
X183381353Y-113778647D01*
X183381358Y-113778651D01*
X183537508Y-113906800D01*
X183715653Y-114002020D01*
X183715659Y-114002023D01*
X183850327Y-114042873D01*
X183908966Y-114060662D01*
X183908971Y-114060663D01*
X184109997Y-114080462D01*
X184110000Y-114080462D01*
X184110003Y-114080462D01*
X184311028Y-114060663D01*
X184311033Y-114060662D01*
X184504341Y-114002023D01*
X184584925Y-113958949D01*
X184682491Y-113906800D01*
X184682492Y-113906798D01*
X184682494Y-113906798D01*
X184838647Y-113778647D01*
X184966798Y-113622494D01*
X185006918Y-113547436D01*
X185062020Y-113444346D01*
X185062023Y-113444341D01*
X185120662Y-113251033D01*
X185120663Y-113251028D01*
X185140462Y-113050003D01*
X185619538Y-113050003D01*
X185639336Y-113251028D01*
X185639337Y-113251033D01*
X185697977Y-113444341D01*
X185697979Y-113444346D01*
X185793199Y-113622491D01*
X185921348Y-113778641D01*
X185921353Y-113778647D01*
X185921358Y-113778651D01*
X186077508Y-113906800D01*
X186255653Y-114002020D01*
X186255659Y-114002023D01*
X186390327Y-114042873D01*
X186448966Y-114060662D01*
X186448971Y-114060663D01*
X186649997Y-114080462D01*
X186650000Y-114080462D01*
X186650003Y-114080462D01*
X186851028Y-114060663D01*
X186851033Y-114060662D01*
X187044341Y-114002023D01*
X187124925Y-113958949D01*
X187222491Y-113906800D01*
X187222492Y-113906798D01*
X187222494Y-113906798D01*
X187378647Y-113778647D01*
X187506798Y-113622494D01*
X187546918Y-113547436D01*
X187602020Y-113444346D01*
X187602023Y-113444341D01*
X187660662Y-113251033D01*
X187660663Y-113251028D01*
X187680462Y-113050003D01*
X187680462Y-113049996D01*
X187660663Y-112848971D01*
X187660662Y-112848966D01*
X187606963Y-112671945D01*
X187602023Y-112655659D01*
X187602020Y-112655653D01*
X187506800Y-112477508D01*
X187390054Y-112335252D01*
X187378647Y-112321353D01*
X187324321Y-112276769D01*
X187222491Y-112193199D01*
X187044346Y-112097979D01*
X187044341Y-112097977D01*
X186851033Y-112039337D01*
X186851028Y-112039336D01*
X186650003Y-112019538D01*
X186649997Y-112019538D01*
X186448971Y-112039336D01*
X186448966Y-112039337D01*
X186255658Y-112097977D01*
X186255653Y-112097979D01*
X186077508Y-112193199D01*
X185921358Y-112321348D01*
X185921348Y-112321358D01*
X185793199Y-112477508D01*
X185697979Y-112655653D01*
X185697977Y-112655658D01*
X185639337Y-112848966D01*
X185639336Y-112848971D01*
X185619538Y-113049996D01*
X185619538Y-113050003D01*
X185140462Y-113050003D01*
X185140462Y-113049996D01*
X185120663Y-112848971D01*
X185120662Y-112848966D01*
X185066963Y-112671945D01*
X185062023Y-112655659D01*
X185062020Y-112655653D01*
X184966800Y-112477508D01*
X184850054Y-112335252D01*
X184838647Y-112321353D01*
X184784321Y-112276769D01*
X184682491Y-112193199D01*
X184504346Y-112097979D01*
X184504341Y-112097977D01*
X184311033Y-112039337D01*
X184311028Y-112039336D01*
X184110003Y-112019538D01*
X184109997Y-112019538D01*
X183908971Y-112039336D01*
X183908966Y-112039337D01*
X183715658Y-112097977D01*
X183715653Y-112097979D01*
X183537508Y-112193199D01*
X183381358Y-112321348D01*
X183381348Y-112321358D01*
X183253199Y-112477508D01*
X183157979Y-112655653D01*
X183157977Y-112655658D01*
X183099337Y-112848966D01*
X183099336Y-112848971D01*
X183079538Y-113049996D01*
X183079538Y-113050003D01*
X182600462Y-113050003D01*
X182600462Y-113049996D01*
X182580663Y-112848971D01*
X182580662Y-112848966D01*
X182526963Y-112671945D01*
X182522023Y-112655659D01*
X182522020Y-112655653D01*
X182426800Y-112477508D01*
X182310054Y-112335252D01*
X182298647Y-112321353D01*
X182244321Y-112276769D01*
X182142491Y-112193199D01*
X181964346Y-112097979D01*
X181964341Y-112097977D01*
X181771033Y-112039337D01*
X181771028Y-112039336D01*
X181570003Y-112019538D01*
X181569997Y-112019538D01*
X181368971Y-112039336D01*
X181368966Y-112039337D01*
X181175658Y-112097977D01*
X181175653Y-112097979D01*
X180997508Y-112193199D01*
X180841358Y-112321348D01*
X180841348Y-112321358D01*
X180713199Y-112477508D01*
X180617979Y-112655653D01*
X180617977Y-112655658D01*
X180559337Y-112848966D01*
X180559336Y-112848971D01*
X180539538Y-113049996D01*
X180539538Y-113050003D01*
X180060462Y-113050003D01*
X180060462Y-113049996D01*
X180040663Y-112848971D01*
X180040662Y-112848966D01*
X179986963Y-112671945D01*
X179982023Y-112655659D01*
X179982020Y-112655653D01*
X179886800Y-112477508D01*
X179770054Y-112335252D01*
X179758647Y-112321353D01*
X179704321Y-112276769D01*
X179602491Y-112193199D01*
X179424346Y-112097979D01*
X179424341Y-112097977D01*
X179231033Y-112039337D01*
X179231028Y-112039336D01*
X179030003Y-112019538D01*
X179029997Y-112019538D01*
X178828971Y-112039336D01*
X178828966Y-112039337D01*
X178635658Y-112097977D01*
X178635653Y-112097979D01*
X178457508Y-112193199D01*
X178301358Y-112321348D01*
X178301348Y-112321358D01*
X178173199Y-112477508D01*
X178077979Y-112655653D01*
X178077977Y-112655658D01*
X178019337Y-112848966D01*
X178019336Y-112848971D01*
X177999538Y-113049996D01*
X177999538Y-113050003D01*
X177520462Y-113050003D01*
X177520462Y-113049996D01*
X177500663Y-112848971D01*
X177500662Y-112848966D01*
X177446963Y-112671945D01*
X177442023Y-112655659D01*
X177442020Y-112655653D01*
X177346800Y-112477508D01*
X177230054Y-112335252D01*
X177218647Y-112321353D01*
X177164321Y-112276769D01*
X177062491Y-112193199D01*
X176884346Y-112097979D01*
X176884341Y-112097977D01*
X176691033Y-112039337D01*
X176691028Y-112039336D01*
X176490003Y-112019538D01*
X176489997Y-112019538D01*
X176288971Y-112039336D01*
X176288966Y-112039337D01*
X176095658Y-112097977D01*
X176095653Y-112097979D01*
X175917508Y-112193199D01*
X175761358Y-112321348D01*
X175761348Y-112321358D01*
X175633199Y-112477508D01*
X175537979Y-112655653D01*
X175537977Y-112655658D01*
X175479337Y-112848966D01*
X175479336Y-112848971D01*
X175459538Y-113049996D01*
X175459538Y-113050003D01*
X174975500Y-113050003D01*
X174975500Y-112205252D01*
X174963867Y-112146769D01*
X174919552Y-112080448D01*
X174858028Y-112039338D01*
X174853233Y-112036134D01*
X174853231Y-112036133D01*
X174853228Y-112036132D01*
X174853227Y-112036132D01*
X174794758Y-112024501D01*
X174794748Y-112024500D01*
X173105252Y-112024500D01*
X173105251Y-112024500D01*
X173105241Y-112024501D01*
X173046772Y-112036132D01*
X173046766Y-112036134D01*
X172980451Y-112080445D01*
X172980445Y-112080451D01*
X172936134Y-112146766D01*
X172936132Y-112146772D01*
X172924501Y-112205241D01*
X172924500Y-112205253D01*
X172924500Y-113894746D01*
X169052612Y-113894746D01*
X169182034Y-113867236D01*
X169350161Y-113792381D01*
X169499050Y-113684207D01*
X169622195Y-113547440D01*
X169714214Y-113388059D01*
X169771085Y-113213029D01*
X169790322Y-113030000D01*
X169771085Y-112846971D01*
X169714214Y-112671941D01*
X169714211Y-112671936D01*
X169714209Y-112671931D01*
X169666935Y-112590052D01*
X169622195Y-112512560D01*
X169499050Y-112375793D01*
X169350161Y-112267619D01*
X169350157Y-112267617D01*
X169350154Y-112267615D01*
X169182036Y-112192765D01*
X169182034Y-112192764D01*
X169182031Y-112192763D01*
X169182030Y-112192763D01*
X169135135Y-112182795D01*
X169002019Y-112154500D01*
X168817981Y-112154500D01*
X168720797Y-112175157D01*
X168637969Y-112192763D01*
X168637963Y-112192765D01*
X168469845Y-112267615D01*
X168469842Y-112267617D01*
X168320948Y-112375794D01*
X168197803Y-112512562D01*
X168197803Y-112512563D01*
X168105790Y-112671931D01*
X168105784Y-112671945D01*
X168048916Y-112846965D01*
X168048915Y-112846969D01*
X168048915Y-112846971D01*
X168048705Y-112848971D01*
X168029678Y-113030000D01*
X162170322Y-113030000D01*
X162151085Y-112846971D01*
X162094214Y-112671941D01*
X162094211Y-112671936D01*
X162094209Y-112671931D01*
X162046935Y-112590052D01*
X162002195Y-112512560D01*
X161879050Y-112375793D01*
X161730161Y-112267619D01*
X161730157Y-112267617D01*
X161730154Y-112267615D01*
X161562036Y-112192765D01*
X161562034Y-112192764D01*
X161562031Y-112192763D01*
X161562030Y-112192763D01*
X161515135Y-112182795D01*
X161382019Y-112154500D01*
X161197981Y-112154500D01*
X161100797Y-112175157D01*
X161017969Y-112192763D01*
X161017963Y-112192765D01*
X160849845Y-112267615D01*
X160849842Y-112267617D01*
X160700948Y-112375794D01*
X160577803Y-112512562D01*
X160577803Y-112512563D01*
X160485790Y-112671931D01*
X160485784Y-112671945D01*
X160428916Y-112846965D01*
X160428915Y-112846969D01*
X160428915Y-112846971D01*
X160428705Y-112848971D01*
X160409678Y-113030000D01*
X159630322Y-113030000D01*
X159611085Y-112846971D01*
X159554214Y-112671941D01*
X159554211Y-112671936D01*
X159554209Y-112671931D01*
X159506935Y-112590052D01*
X159462195Y-112512560D01*
X159339050Y-112375793D01*
X159190161Y-112267619D01*
X159190157Y-112267617D01*
X159190154Y-112267615D01*
X159022036Y-112192765D01*
X159022034Y-112192764D01*
X159022031Y-112192763D01*
X159022030Y-112192763D01*
X158975135Y-112182795D01*
X158842019Y-112154500D01*
X158657981Y-112154500D01*
X158560797Y-112175157D01*
X158477969Y-112192763D01*
X158477963Y-112192765D01*
X158309845Y-112267615D01*
X158309842Y-112267617D01*
X158160948Y-112375794D01*
X158037803Y-112512562D01*
X158037803Y-112512563D01*
X157945790Y-112671931D01*
X157945784Y-112671945D01*
X157888916Y-112846965D01*
X157888915Y-112846969D01*
X157888915Y-112846971D01*
X157888705Y-112848971D01*
X157869678Y-113030000D01*
X157090322Y-113030000D01*
X157071085Y-112846971D01*
X157014214Y-112671941D01*
X157014211Y-112671936D01*
X157014209Y-112671931D01*
X156966935Y-112590052D01*
X156922195Y-112512560D01*
X156799050Y-112375793D01*
X156650161Y-112267619D01*
X156650157Y-112267617D01*
X156650154Y-112267615D01*
X156482036Y-112192765D01*
X156482034Y-112192764D01*
X156482031Y-112192763D01*
X156482030Y-112192763D01*
X156435135Y-112182795D01*
X156302019Y-112154500D01*
X156117981Y-112154500D01*
X156020797Y-112175157D01*
X155937969Y-112192763D01*
X155937963Y-112192765D01*
X155769845Y-112267615D01*
X155769842Y-112267617D01*
X155620948Y-112375794D01*
X155497803Y-112512562D01*
X155497803Y-112512563D01*
X155405790Y-112671931D01*
X155405784Y-112671945D01*
X155348916Y-112846965D01*
X155348915Y-112846969D01*
X155348915Y-112846971D01*
X155348705Y-112848971D01*
X155329678Y-113030000D01*
X154550322Y-113030000D01*
X154531085Y-112846971D01*
X154474214Y-112671941D01*
X154474211Y-112671936D01*
X154474209Y-112671931D01*
X154426935Y-112590052D01*
X154382195Y-112512560D01*
X154259050Y-112375793D01*
X154110161Y-112267619D01*
X154110157Y-112267617D01*
X154110154Y-112267615D01*
X153942036Y-112192765D01*
X153942034Y-112192764D01*
X153942031Y-112192763D01*
X153942030Y-112192763D01*
X153895135Y-112182795D01*
X153762019Y-112154500D01*
X153577981Y-112154500D01*
X153480797Y-112175157D01*
X153397969Y-112192763D01*
X153397963Y-112192765D01*
X153229845Y-112267615D01*
X153229842Y-112267617D01*
X153080948Y-112375794D01*
X152957803Y-112512562D01*
X152957803Y-112512563D01*
X152865790Y-112671931D01*
X152865784Y-112671945D01*
X152808916Y-112846965D01*
X152808915Y-112846969D01*
X152808915Y-112846971D01*
X152808705Y-112848971D01*
X152789678Y-113030000D01*
X152005500Y-113030000D01*
X152005500Y-112335252D01*
X151993867Y-112276769D01*
X151949552Y-112210448D01*
X151949548Y-112210445D01*
X151883233Y-112166134D01*
X151883231Y-112166133D01*
X151883228Y-112166132D01*
X151883227Y-112166132D01*
X151824758Y-112154501D01*
X151824748Y-112154500D01*
X150435252Y-112154500D01*
X150435251Y-112154500D01*
X150435241Y-112154501D01*
X150376772Y-112166132D01*
X150376766Y-112166134D01*
X150310451Y-112210445D01*
X150310445Y-112210451D01*
X150266134Y-112276766D01*
X150266132Y-112276772D01*
X150254501Y-112335241D01*
X150254500Y-112335253D01*
X150254500Y-113724746D01*
X100060499Y-113724746D01*
X100060499Y-99300002D01*
X113670173Y-99300002D01*
X113688608Y-99428225D01*
X113742423Y-99546060D01*
X113742424Y-99546063D01*
X113827257Y-99643967D01*
X113827258Y-99643968D01*
X113936232Y-99714001D01*
X113936237Y-99714004D01*
X114060534Y-99750500D01*
X114060536Y-99750500D01*
X114190076Y-99750500D01*
X114190078Y-99750500D01*
X114314375Y-99714004D01*
X114423355Y-99643967D01*
X114508188Y-99546063D01*
X114562003Y-99428226D01*
X114574877Y-99338677D01*
X114601870Y-99283774D01*
X114602773Y-99282857D01*
X114619695Y-99265937D01*
X114674213Y-99238163D01*
X114689694Y-99236945D01*
X115669141Y-99236945D01*
X115722664Y-99252661D01*
X115835920Y-99325446D01*
X115835925Y-99325449D01*
X115960222Y-99361945D01*
X115960224Y-99361945D01*
X116089764Y-99361945D01*
X116089766Y-99361945D01*
X116214063Y-99325449D01*
X116323043Y-99255412D01*
X116407876Y-99157508D01*
X116461691Y-99039671D01*
X116480127Y-98911445D01*
X116476468Y-98885998D01*
X116461691Y-98783219D01*
X116407876Y-98665383D01*
X116407876Y-98665382D01*
X116323043Y-98567478D01*
X116323042Y-98567477D01*
X116323041Y-98567476D01*
X116214067Y-98497443D01*
X116214064Y-98497441D01*
X116214063Y-98497441D01*
X116214060Y-98497440D01*
X116089768Y-98460945D01*
X116089766Y-98460945D01*
X115960222Y-98460945D01*
X115960219Y-98460945D01*
X115835927Y-98497440D01*
X115835920Y-98497443D01*
X115722664Y-98570229D01*
X115669141Y-98585945D01*
X114532395Y-98585945D01*
X114523766Y-98585568D01*
X114485055Y-98582181D01*
X114485048Y-98582181D01*
X114447510Y-98592239D01*
X114439084Y-98594107D01*
X114400821Y-98600855D01*
X114400809Y-98600859D01*
X114399501Y-98601615D01*
X114375647Y-98611496D01*
X114374185Y-98611887D01*
X114374178Y-98611890D01*
X114374177Y-98611891D01*
X114342336Y-98634185D01*
X114335066Y-98638816D01*
X114301406Y-98658250D01*
X114276424Y-98688022D01*
X114270591Y-98694387D01*
X114144477Y-98820503D01*
X114089961Y-98848281D01*
X114074473Y-98849500D01*
X114060531Y-98849500D01*
X113936239Y-98885995D01*
X113936232Y-98885998D01*
X113827258Y-98956031D01*
X113742423Y-99053938D01*
X113688608Y-99171774D01*
X113670173Y-99299997D01*
X113670173Y-99300002D01*
X100060499Y-99300002D01*
X100060499Y-90552841D01*
X116185407Y-90552841D01*
X116216070Y-90720162D01*
X116216071Y-90720167D01*
X116233060Y-90757914D01*
X116285888Y-90875291D01*
X116364476Y-90975601D01*
X116832842Y-91443967D01*
X117294527Y-91905652D01*
X117298625Y-91910007D01*
X117338994Y-91955574D01*
X117338997Y-91955577D01*
X117339001Y-91955581D01*
X117374246Y-91979909D01*
X117389123Y-91990178D01*
X117393939Y-91993722D01*
X117441870Y-92031274D01*
X117441872Y-92031274D01*
X117441874Y-92031276D01*
X117452379Y-92036004D01*
X117453177Y-92036363D01*
X117468786Y-92045166D01*
X117474897Y-92049384D01*
X117479000Y-92052216D01*
X117535948Y-92073813D01*
X117541442Y-92076088D01*
X117596999Y-92101093D01*
X117609209Y-92103330D01*
X117626459Y-92108139D01*
X117638058Y-92112538D01*
X117698505Y-92119877D01*
X117704395Y-92120773D01*
X117764324Y-92131756D01*
X117825107Y-92128078D01*
X117831085Y-92127898D01*
X118391378Y-92127898D01*
X118449569Y-92146805D01*
X118461382Y-92156894D01*
X123502735Y-97198246D01*
X123506833Y-97202601D01*
X123547213Y-97248181D01*
X123547215Y-97248182D01*
X123597339Y-97282780D01*
X123602156Y-97286325D01*
X123621320Y-97301338D01*
X123650089Y-97323878D01*
X123661392Y-97328965D01*
X123677001Y-97337768D01*
X123683112Y-97341986D01*
X123687215Y-97344818D01*
X123744163Y-97366415D01*
X123749657Y-97368690D01*
X123805214Y-97393695D01*
X123817424Y-97395932D01*
X123834674Y-97400741D01*
X123846273Y-97405140D01*
X123906720Y-97412479D01*
X123912610Y-97413375D01*
X123972539Y-97424358D01*
X124033322Y-97420680D01*
X124039300Y-97420500D01*
X130010500Y-97420500D01*
X130068691Y-97439407D01*
X130104655Y-97488907D01*
X130109500Y-97519500D01*
X130109500Y-102984950D01*
X130103067Y-103020055D01*
X130094860Y-103041695D01*
X130079500Y-103168185D01*
X130079500Y-103936780D01*
X130077878Y-103954626D01*
X130075641Y-103966828D01*
X130079319Y-104027609D01*
X130079500Y-104033588D01*
X130079500Y-104051800D01*
X130079501Y-104051822D01*
X130081695Y-104069892D01*
X130082236Y-104075845D01*
X130085913Y-104136626D01*
X130085913Y-104136629D01*
X130089605Y-104148477D01*
X130093364Y-104165987D01*
X130094860Y-104178308D01*
X130116455Y-104235251D01*
X130118405Y-104240902D01*
X130136519Y-104299034D01*
X130136524Y-104299045D01*
X130142940Y-104309658D01*
X130150784Y-104325767D01*
X130155182Y-104337365D01*
X130189778Y-104387487D01*
X130193021Y-104392501D01*
X130224528Y-104444619D01*
X130233306Y-104453397D01*
X130244768Y-104467152D01*
X130251817Y-104477363D01*
X130251820Y-104477365D01*
X130251823Y-104477369D01*
X130297390Y-104517738D01*
X130301744Y-104521836D01*
X130325866Y-104545957D01*
X130344815Y-104564906D01*
X130355433Y-104571325D01*
X130369862Y-104581942D01*
X130379147Y-104590168D01*
X130433070Y-104618469D01*
X130438268Y-104621401D01*
X130490394Y-104652912D01*
X130495675Y-104654557D01*
X130502236Y-104656602D01*
X130518795Y-104663460D01*
X130529775Y-104669224D01*
X130541813Y-104672191D01*
X130588917Y-104683801D01*
X130594658Y-104685400D01*
X130652804Y-104703520D01*
X130665188Y-104704269D01*
X130682898Y-104706965D01*
X130694944Y-104709934D01*
X130755845Y-104709934D01*
X130761822Y-104710114D01*
X130785644Y-104711556D01*
X130822605Y-104713792D01*
X130822605Y-104713791D01*
X130822606Y-104713792D01*
X130834808Y-104711556D01*
X130852654Y-104709934D01*
X130865053Y-104709934D01*
X130865056Y-104709934D01*
X130924202Y-104695355D01*
X130929988Y-104694113D01*
X130989932Y-104683129D01*
X131001242Y-104678038D01*
X131018187Y-104672191D01*
X131022139Y-104671216D01*
X131030225Y-104669224D01*
X131084156Y-104640917D01*
X131089485Y-104638322D01*
X131145057Y-104613312D01*
X131154826Y-104605657D01*
X131169875Y-104595928D01*
X131180852Y-104590168D01*
X131226434Y-104549784D01*
X131231007Y-104545972D01*
X131245367Y-104534724D01*
X131258283Y-104521806D01*
X131262588Y-104517755D01*
X131308183Y-104477363D01*
X131308186Y-104477357D01*
X131312154Y-104472880D01*
X131312273Y-104472986D01*
X131323258Y-104460583D01*
X131338183Y-104447363D01*
X131372778Y-104397243D01*
X131376324Y-104392424D01*
X131413873Y-104344496D01*
X131413872Y-104344496D01*
X131413877Y-104344491D01*
X131418967Y-104333179D01*
X131427766Y-104317578D01*
X131434818Y-104307364D01*
X131456412Y-104250422D01*
X131458702Y-104244895D01*
X131483694Y-104189366D01*
X131483695Y-104189364D01*
X131485929Y-104177170D01*
X131490743Y-104159899D01*
X131495075Y-104148477D01*
X131495140Y-104148306D01*
X131502483Y-104087822D01*
X131503373Y-104081976D01*
X131514357Y-104022040D01*
X131510680Y-103961266D01*
X131510500Y-103955290D01*
X131510500Y-97790000D01*
X140239909Y-97790000D01*
X140258214Y-97952464D01*
X140258215Y-97952467D01*
X140312211Y-98106775D01*
X140312211Y-98106776D01*
X140399189Y-98245200D01*
X140399192Y-98245204D01*
X140514796Y-98360808D01*
X140514798Y-98360809D01*
X140514799Y-98360810D01*
X140566396Y-98393231D01*
X140653225Y-98447789D01*
X140690823Y-98460945D01*
X140807532Y-98501784D01*
X140807535Y-98501785D01*
X140807536Y-98501785D01*
X140807539Y-98501786D01*
X140970000Y-98520091D01*
X141132461Y-98501786D01*
X141286775Y-98447789D01*
X141399524Y-98376944D01*
X141458854Y-98361994D01*
X141515641Y-98384773D01*
X141534510Y-98405768D01*
X141570448Y-98459552D01*
X141636769Y-98503867D01*
X141681231Y-98512711D01*
X141695241Y-98515498D01*
X141695246Y-98515498D01*
X141695252Y-98515500D01*
X141695253Y-98515500D01*
X142784747Y-98515500D01*
X142784748Y-98515500D01*
X142843231Y-98503867D01*
X142909552Y-98459552D01*
X142953867Y-98393231D01*
X142965500Y-98334748D01*
X142965500Y-97245252D01*
X142953867Y-97186769D01*
X142909552Y-97120448D01*
X142909548Y-97120445D01*
X142843233Y-97076134D01*
X142843231Y-97076133D01*
X142843228Y-97076132D01*
X142843227Y-97076132D01*
X142784758Y-97064501D01*
X142784748Y-97064500D01*
X141695252Y-97064500D01*
X141695251Y-97064500D01*
X141695241Y-97064501D01*
X141680042Y-97067524D01*
X141619281Y-97060331D01*
X141574352Y-97018797D01*
X141562418Y-96958787D01*
X141576906Y-96917754D01*
X141627787Y-96836778D01*
X141627788Y-96836776D01*
X141627789Y-96836775D01*
X141681786Y-96682461D01*
X141700091Y-96520000D01*
X141681786Y-96357539D01*
X141627789Y-96203225D01*
X141540808Y-96064796D01*
X141431013Y-95955001D01*
X141403238Y-95900487D01*
X141412809Y-95840055D01*
X141431012Y-95814999D01*
X141534998Y-95711013D01*
X141589513Y-95683238D01*
X141649945Y-95692809D01*
X141675000Y-95711012D01*
X141784796Y-95820808D01*
X141784798Y-95820809D01*
X141784799Y-95820810D01*
X141886956Y-95885000D01*
X141923225Y-95907789D01*
X141959551Y-95920500D01*
X142077532Y-95961784D01*
X142077535Y-95961785D01*
X142077536Y-95961785D01*
X142077539Y-95961786D01*
X142240000Y-95980091D01*
X142402461Y-95961786D01*
X142556775Y-95907789D01*
X142695204Y-95820808D01*
X142810808Y-95705204D01*
X142876911Y-95600002D01*
X146494867Y-95600002D01*
X146513302Y-95728225D01*
X146552930Y-95814996D01*
X146567118Y-95846063D01*
X146620603Y-95907789D01*
X146651952Y-95943968D01*
X146708161Y-95980091D01*
X146760931Y-96014004D01*
X146885228Y-96050500D01*
X146885230Y-96050500D01*
X147014770Y-96050500D01*
X147014772Y-96050500D01*
X147139069Y-96014004D01*
X147248049Y-95943967D01*
X147332882Y-95846063D01*
X147386697Y-95728226D01*
X147399571Y-95638677D01*
X147426564Y-95583774D01*
X147427479Y-95582845D01*
X147581087Y-95429239D01*
X147635604Y-95401462D01*
X147651090Y-95400243D01*
X155096723Y-95400243D01*
X155105351Y-95400619D01*
X155144064Y-95404007D01*
X155181611Y-95393945D01*
X155190041Y-95392077D01*
X155228302Y-95385331D01*
X155229602Y-95384581D01*
X155253493Y-95374685D01*
X155253721Y-95374623D01*
X155254941Y-95374297D01*
X155286790Y-95351994D01*
X155294036Y-95347378D01*
X155327712Y-95327937D01*
X155352700Y-95298156D01*
X155358511Y-95291813D01*
X160237066Y-90413258D01*
X160243425Y-90407433D01*
X160243431Y-90407428D01*
X160273194Y-90382455D01*
X160292635Y-90348779D01*
X160297251Y-90341533D01*
X160319554Y-90309684D01*
X160319942Y-90308236D01*
X160329838Y-90284345D01*
X160330588Y-90283045D01*
X160337334Y-90244784D01*
X160339204Y-90236348D01*
X160343417Y-90220628D01*
X160349264Y-90198807D01*
X160346205Y-90163849D01*
X160345877Y-90160094D01*
X160345500Y-90151465D01*
X160345500Y-74453935D01*
X164577843Y-74453935D01*
X164596278Y-74582158D01*
X164633818Y-74664357D01*
X164650094Y-74699996D01*
X164725748Y-74787307D01*
X164734928Y-74797901D01*
X164843902Y-74867934D01*
X164843907Y-74867937D01*
X164968204Y-74904433D01*
X164982142Y-74904433D01*
X165040333Y-74923340D01*
X165052146Y-74933429D01*
X166015504Y-75896787D01*
X166043281Y-75951304D01*
X166044500Y-75966791D01*
X166044500Y-91090789D01*
X166025593Y-91148980D01*
X166020320Y-91155619D01*
X165987118Y-91193936D01*
X165987116Y-91193940D01*
X165933302Y-91311774D01*
X165914867Y-91439997D01*
X165914867Y-91440002D01*
X165933302Y-91568225D01*
X165987117Y-91686061D01*
X165987118Y-91686063D01*
X166071951Y-91783967D01*
X166071952Y-91783968D01*
X166148777Y-91833340D01*
X166180931Y-91854004D01*
X166305228Y-91890500D01*
X166305230Y-91890500D01*
X166434770Y-91890500D01*
X166434772Y-91890500D01*
X166559069Y-91854004D01*
X166668049Y-91783967D01*
X166752882Y-91686063D01*
X166806697Y-91568226D01*
X166818034Y-91489374D01*
X166825133Y-91440002D01*
X166825133Y-91439997D01*
X166806697Y-91311774D01*
X166775431Y-91243312D01*
X166752882Y-91193937D01*
X166719679Y-91155618D01*
X166695863Y-91099259D01*
X166695500Y-91090789D01*
X166695500Y-75809479D01*
X166695877Y-75800850D01*
X166699263Y-75762150D01*
X166689206Y-75724620D01*
X166687337Y-75716189D01*
X166680588Y-75677912D01*
X166679834Y-75676606D01*
X166669941Y-75652722D01*
X166669553Y-75651273D01*
X166647261Y-75619437D01*
X166642625Y-75612159D01*
X166640687Y-75608803D01*
X166623194Y-75578502D01*
X166623193Y-75578501D01*
X166623191Y-75578499D01*
X166593434Y-75553530D01*
X166587066Y-75547696D01*
X165510534Y-74471165D01*
X165482757Y-74416648D01*
X165482571Y-74415424D01*
X165469673Y-74325707D01*
X165415858Y-74207870D01*
X165331025Y-74109966D01*
X165331024Y-74109965D01*
X165331023Y-74109964D01*
X165222049Y-74039931D01*
X165222046Y-74039929D01*
X165222045Y-74039929D01*
X165222042Y-74039928D01*
X165097750Y-74003433D01*
X165097748Y-74003433D01*
X164968204Y-74003433D01*
X164968201Y-74003433D01*
X164843909Y-74039928D01*
X164843902Y-74039931D01*
X164734928Y-74109964D01*
X164650093Y-74207871D01*
X164596278Y-74325707D01*
X164577843Y-74453930D01*
X164577843Y-74453935D01*
X160345500Y-74453935D01*
X160345500Y-74137368D01*
X160364407Y-74079177D01*
X160374490Y-74067370D01*
X160892745Y-73549115D01*
X165817781Y-73549115D01*
X165836216Y-73677338D01*
X165886061Y-73786480D01*
X165890032Y-73795176D01*
X165974865Y-73893080D01*
X165974866Y-73893081D01*
X166036560Y-73932729D01*
X166083845Y-73963117D01*
X166208142Y-73999613D01*
X166222080Y-73999613D01*
X166280271Y-74018520D01*
X166292084Y-74028609D01*
X167824016Y-75560541D01*
X167851793Y-75615058D01*
X167853012Y-75630545D01*
X167853012Y-91122211D01*
X167834105Y-91180402D01*
X167828832Y-91187041D01*
X167795630Y-91225358D01*
X167795628Y-91225362D01*
X167741814Y-91343196D01*
X167723379Y-91471419D01*
X167723379Y-91471424D01*
X167741814Y-91599647D01*
X167781279Y-91686061D01*
X167795630Y-91717485D01*
X167811182Y-91735433D01*
X167880464Y-91815390D01*
X167940549Y-91854004D01*
X167989443Y-91885426D01*
X168113740Y-91921922D01*
X168113742Y-91921922D01*
X168243282Y-91921922D01*
X168243284Y-91921922D01*
X168367581Y-91885426D01*
X168476561Y-91815389D01*
X168561394Y-91717485D01*
X168615209Y-91599648D01*
X168633645Y-91471422D01*
X168629127Y-91440000D01*
X168615209Y-91343196D01*
X168582850Y-91272341D01*
X168561394Y-91225359D01*
X168528191Y-91187040D01*
X168504375Y-91130681D01*
X168504012Y-91122211D01*
X168504012Y-75473245D01*
X168504389Y-75464616D01*
X168507776Y-75425905D01*
X168507775Y-75425903D01*
X168497716Y-75388362D01*
X168495846Y-75379927D01*
X168492100Y-75358682D01*
X168489100Y-75341666D01*
X168488347Y-75340362D01*
X168478456Y-75316482D01*
X168478067Y-75315030D01*
X168478066Y-75315029D01*
X168478066Y-75315027D01*
X168455776Y-75283193D01*
X168451142Y-75275920D01*
X168431706Y-75242256D01*
X168401940Y-75217279D01*
X168395572Y-75211445D01*
X166750472Y-73566345D01*
X166722695Y-73511828D01*
X166722509Y-73510604D01*
X166709611Y-73420887D01*
X166655796Y-73303050D01*
X166570963Y-73205146D01*
X166570962Y-73205145D01*
X166570961Y-73205144D01*
X166461987Y-73135111D01*
X166461984Y-73135109D01*
X166461983Y-73135109D01*
X166461980Y-73135108D01*
X166337688Y-73098613D01*
X166337686Y-73098613D01*
X166208142Y-73098613D01*
X166208139Y-73098613D01*
X166083847Y-73135108D01*
X166083840Y-73135111D01*
X165974866Y-73205144D01*
X165890031Y-73303051D01*
X165836216Y-73420887D01*
X165817781Y-73549110D01*
X165817781Y-73549115D01*
X160892745Y-73549115D01*
X162051858Y-72390002D01*
X167184867Y-72390002D01*
X167203302Y-72518225D01*
X167257117Y-72636061D01*
X167257118Y-72636063D01*
X167341951Y-72733967D01*
X167341952Y-72733968D01*
X167450926Y-72804001D01*
X167450931Y-72804004D01*
X167575228Y-72840500D01*
X167589166Y-72840500D01*
X167647357Y-72859407D01*
X167659170Y-72869496D01*
X169672907Y-74883233D01*
X169700684Y-74937750D01*
X169701903Y-74953237D01*
X169701903Y-91140161D01*
X169682996Y-91198352D01*
X169677723Y-91204991D01*
X169644521Y-91243308D01*
X169644519Y-91243312D01*
X169590705Y-91361146D01*
X169572270Y-91489369D01*
X169572270Y-91489374D01*
X169590705Y-91617597D01*
X169621972Y-91686061D01*
X169644521Y-91735435D01*
X169729354Y-91833339D01*
X169729355Y-91833340D01*
X169810403Y-91885426D01*
X169838334Y-91903376D01*
X169962631Y-91939872D01*
X169962633Y-91939872D01*
X170092173Y-91939872D01*
X170092175Y-91939872D01*
X170216472Y-91903376D01*
X170325452Y-91833339D01*
X170410285Y-91735435D01*
X170464100Y-91617598D01*
X170473852Y-91549774D01*
X170482536Y-91489374D01*
X170482536Y-91489369D01*
X170464100Y-91361146D01*
X170447745Y-91325334D01*
X170410285Y-91243309D01*
X170377082Y-91204990D01*
X170353266Y-91148631D01*
X170352903Y-91140161D01*
X170352903Y-74795936D01*
X170353280Y-74787307D01*
X170356667Y-74748596D01*
X170346607Y-74711055D01*
X170344738Y-74702623D01*
X170337991Y-74664357D01*
X170337243Y-74663062D01*
X170327345Y-74639170D01*
X170326957Y-74637719D01*
X170304667Y-74605885D01*
X170300033Y-74598612D01*
X170280597Y-74564948D01*
X170250831Y-74539971D01*
X170244463Y-74534137D01*
X168117558Y-72407232D01*
X168089781Y-72352715D01*
X168089595Y-72351491D01*
X168076697Y-72261774D01*
X168058134Y-72221128D01*
X168022883Y-72143939D01*
X168022882Y-72143938D01*
X168022882Y-72143937D01*
X167938049Y-72046033D01*
X167938048Y-72046032D01*
X167938047Y-72046031D01*
X167829073Y-71975998D01*
X167829070Y-71975996D01*
X167829069Y-71975996D01*
X167829066Y-71975995D01*
X167704774Y-71939500D01*
X167704772Y-71939500D01*
X167575228Y-71939500D01*
X167575225Y-71939500D01*
X167450933Y-71975995D01*
X167450926Y-71975998D01*
X167341952Y-72046031D01*
X167257117Y-72143938D01*
X167203302Y-72261774D01*
X167184867Y-72389997D01*
X167184867Y-72390002D01*
X162051858Y-72390002D01*
X167124243Y-67317616D01*
X167130602Y-67311791D01*
X167160371Y-67286813D01*
X167179812Y-67253137D01*
X167184428Y-67245891D01*
X167206731Y-67214042D01*
X167207119Y-67212594D01*
X167217015Y-67188703D01*
X167217763Y-67187406D01*
X167217762Y-67187406D01*
X167217765Y-67187403D01*
X167224518Y-67149101D01*
X167226375Y-67140724D01*
X167236440Y-67103165D01*
X167233054Y-67064460D01*
X167232677Y-67055832D01*
X167232677Y-65464746D01*
X168034500Y-65464746D01*
X168034501Y-65464758D01*
X168046132Y-65523227D01*
X168046134Y-65523233D01*
X168066214Y-65553284D01*
X168090448Y-65589552D01*
X168156769Y-65633867D01*
X168201231Y-65642711D01*
X168215241Y-65645498D01*
X168215246Y-65645498D01*
X168215252Y-65645500D01*
X168215253Y-65645500D01*
X169604747Y-65645500D01*
X169604748Y-65645500D01*
X169663231Y-65633867D01*
X169729552Y-65589552D01*
X169773867Y-65523231D01*
X169785500Y-65464748D01*
X169785500Y-64770000D01*
X170569678Y-64770000D01*
X170587047Y-64935260D01*
X170588916Y-64953034D01*
X170645784Y-65128054D01*
X170645790Y-65128068D01*
X170718893Y-65254684D01*
X170737805Y-65287440D01*
X170860950Y-65424207D01*
X171009839Y-65532381D01*
X171009842Y-65532382D01*
X171009845Y-65532384D01*
X171043197Y-65547233D01*
X171177966Y-65607236D01*
X171357981Y-65645500D01*
X171357983Y-65645500D01*
X171542017Y-65645500D01*
X171542019Y-65645500D01*
X171722034Y-65607236D01*
X171890161Y-65532381D01*
X172039050Y-65424207D01*
X172162195Y-65287440D01*
X172248544Y-65137880D01*
X172254209Y-65128068D01*
X172254209Y-65128066D01*
X172254214Y-65128059D01*
X172311085Y-64953029D01*
X172330322Y-64770000D01*
X173109678Y-64770000D01*
X173127047Y-64935260D01*
X173128916Y-64953034D01*
X173185784Y-65128054D01*
X173185790Y-65128068D01*
X173258893Y-65254684D01*
X173277805Y-65287440D01*
X173400950Y-65424207D01*
X173549839Y-65532381D01*
X173549842Y-65532382D01*
X173549845Y-65532384D01*
X173583197Y-65547233D01*
X173717966Y-65607236D01*
X173897981Y-65645500D01*
X173897983Y-65645500D01*
X174082017Y-65645500D01*
X174082019Y-65645500D01*
X174262034Y-65607236D01*
X174430161Y-65532381D01*
X174579050Y-65424207D01*
X174702195Y-65287440D01*
X174788544Y-65137880D01*
X174794209Y-65128068D01*
X174794209Y-65128066D01*
X174794214Y-65128059D01*
X174851085Y-64953029D01*
X174870322Y-64770000D01*
X175649678Y-64770000D01*
X175667047Y-64935260D01*
X175668916Y-64953034D01*
X175725784Y-65128054D01*
X175725790Y-65128068D01*
X175798893Y-65254684D01*
X175817805Y-65287440D01*
X175940950Y-65424207D01*
X176089839Y-65532381D01*
X176089842Y-65532382D01*
X176089845Y-65532384D01*
X176123197Y-65547233D01*
X176257966Y-65607236D01*
X176437981Y-65645500D01*
X176437983Y-65645500D01*
X176622017Y-65645500D01*
X176622019Y-65645500D01*
X176802034Y-65607236D01*
X176970161Y-65532381D01*
X177119050Y-65424207D01*
X177242195Y-65287440D01*
X177328544Y-65137880D01*
X177334209Y-65128068D01*
X177334209Y-65128066D01*
X177334214Y-65128059D01*
X177391085Y-64953029D01*
X177410322Y-64770000D01*
X178189678Y-64770000D01*
X178207047Y-64935260D01*
X178208916Y-64953034D01*
X178265784Y-65128054D01*
X178265790Y-65128068D01*
X178338893Y-65254684D01*
X178357805Y-65287440D01*
X178480950Y-65424207D01*
X178629839Y-65532381D01*
X178629842Y-65532382D01*
X178629845Y-65532384D01*
X178663197Y-65547233D01*
X178797966Y-65607236D01*
X178977981Y-65645500D01*
X178977983Y-65645500D01*
X179162017Y-65645500D01*
X179162019Y-65645500D01*
X179342034Y-65607236D01*
X179510161Y-65532381D01*
X179659050Y-65424207D01*
X179782195Y-65287440D01*
X179868544Y-65137880D01*
X179874209Y-65128068D01*
X179874209Y-65128066D01*
X179874214Y-65128059D01*
X179931085Y-64953029D01*
X179950322Y-64770000D01*
X180729678Y-64770000D01*
X180747047Y-64935260D01*
X180748916Y-64953034D01*
X180805784Y-65128054D01*
X180805790Y-65128068D01*
X180878893Y-65254684D01*
X180897805Y-65287440D01*
X181020950Y-65424207D01*
X181169839Y-65532381D01*
X181169842Y-65532382D01*
X181169845Y-65532384D01*
X181203197Y-65547233D01*
X181337966Y-65607236D01*
X181517981Y-65645500D01*
X181517983Y-65645500D01*
X181702017Y-65645500D01*
X181702019Y-65645500D01*
X181882034Y-65607236D01*
X182050161Y-65532381D01*
X182199050Y-65424207D01*
X182322195Y-65287440D01*
X182408544Y-65137880D01*
X182414209Y-65128068D01*
X182414209Y-65128066D01*
X182414214Y-65128059D01*
X182471085Y-64953029D01*
X182490322Y-64770000D01*
X183269678Y-64770000D01*
X183287047Y-64935260D01*
X183288916Y-64953034D01*
X183345784Y-65128054D01*
X183345790Y-65128068D01*
X183418893Y-65254684D01*
X183437805Y-65287440D01*
X183560950Y-65424207D01*
X183709839Y-65532381D01*
X183709842Y-65532382D01*
X183709845Y-65532384D01*
X183743197Y-65547233D01*
X183877966Y-65607236D01*
X184057981Y-65645500D01*
X184057983Y-65645500D01*
X184242017Y-65645500D01*
X184242019Y-65645500D01*
X184422034Y-65607236D01*
X184590161Y-65532381D01*
X184739050Y-65424207D01*
X184862195Y-65287440D01*
X184948544Y-65137880D01*
X184954209Y-65128068D01*
X184954209Y-65128066D01*
X184954214Y-65128059D01*
X185011085Y-64953029D01*
X185030322Y-64770000D01*
X185809678Y-64770000D01*
X185827047Y-64935260D01*
X185828916Y-64953034D01*
X185885784Y-65128054D01*
X185885790Y-65128068D01*
X185958893Y-65254684D01*
X185977805Y-65287440D01*
X186100950Y-65424207D01*
X186249839Y-65532381D01*
X186249842Y-65532382D01*
X186249845Y-65532384D01*
X186283197Y-65547233D01*
X186417966Y-65607236D01*
X186597981Y-65645500D01*
X186597983Y-65645500D01*
X186782017Y-65645500D01*
X186782019Y-65645500D01*
X186962034Y-65607236D01*
X187130161Y-65532381D01*
X187279050Y-65424207D01*
X187402195Y-65287440D01*
X187488544Y-65137880D01*
X187494209Y-65128068D01*
X187494209Y-65128066D01*
X187494214Y-65128059D01*
X187551085Y-64953029D01*
X187570322Y-64770000D01*
X187551085Y-64586971D01*
X187494214Y-64411941D01*
X187494211Y-64411936D01*
X187494209Y-64411931D01*
X187446935Y-64330052D01*
X187402195Y-64252560D01*
X187279050Y-64115793D01*
X187130161Y-64007619D01*
X187130157Y-64007617D01*
X187130154Y-64007615D01*
X186962036Y-63932765D01*
X186962034Y-63932764D01*
X186962031Y-63932763D01*
X186962030Y-63932763D01*
X186898311Y-63919219D01*
X186782019Y-63894500D01*
X186597981Y-63894500D01*
X186500797Y-63915157D01*
X186417969Y-63932763D01*
X186417963Y-63932765D01*
X186249845Y-64007615D01*
X186249842Y-64007617D01*
X186100948Y-64115794D01*
X185977803Y-64252562D01*
X185977803Y-64252563D01*
X185885790Y-64411931D01*
X185885784Y-64411945D01*
X185828916Y-64586965D01*
X185828915Y-64586969D01*
X185828915Y-64586971D01*
X185809678Y-64770000D01*
X185030322Y-64770000D01*
X185011085Y-64586971D01*
X184954214Y-64411941D01*
X184954211Y-64411936D01*
X184954209Y-64411931D01*
X184906935Y-64330052D01*
X184862195Y-64252560D01*
X184739050Y-64115793D01*
X184590161Y-64007619D01*
X184590157Y-64007617D01*
X184590154Y-64007615D01*
X184422036Y-63932765D01*
X184422034Y-63932764D01*
X184422031Y-63932763D01*
X184422030Y-63932763D01*
X184358311Y-63919219D01*
X184242019Y-63894500D01*
X184057981Y-63894500D01*
X183960797Y-63915157D01*
X183877969Y-63932763D01*
X183877963Y-63932765D01*
X183709845Y-64007615D01*
X183709842Y-64007617D01*
X183560948Y-64115794D01*
X183437803Y-64252562D01*
X183437803Y-64252563D01*
X183345790Y-64411931D01*
X183345784Y-64411945D01*
X183288916Y-64586965D01*
X183288915Y-64586969D01*
X183288915Y-64586971D01*
X183269678Y-64770000D01*
X182490322Y-64770000D01*
X182471085Y-64586971D01*
X182414214Y-64411941D01*
X182414211Y-64411936D01*
X182414209Y-64411931D01*
X182366935Y-64330052D01*
X182322195Y-64252560D01*
X182199050Y-64115793D01*
X182050161Y-64007619D01*
X182050157Y-64007617D01*
X182050154Y-64007615D01*
X181882036Y-63932765D01*
X181882034Y-63932764D01*
X181882031Y-63932763D01*
X181882030Y-63932763D01*
X181818311Y-63919219D01*
X181702019Y-63894500D01*
X181517981Y-63894500D01*
X181420797Y-63915157D01*
X181337969Y-63932763D01*
X181337963Y-63932765D01*
X181169845Y-64007615D01*
X181169842Y-64007617D01*
X181020948Y-64115794D01*
X180897803Y-64252562D01*
X180897803Y-64252563D01*
X180805790Y-64411931D01*
X180805784Y-64411945D01*
X180748916Y-64586965D01*
X180748915Y-64586969D01*
X180748915Y-64586971D01*
X180729678Y-64770000D01*
X179950322Y-64770000D01*
X179931085Y-64586971D01*
X179874214Y-64411941D01*
X179874211Y-64411936D01*
X179874209Y-64411931D01*
X179826935Y-64330052D01*
X179782195Y-64252560D01*
X179659050Y-64115793D01*
X179510161Y-64007619D01*
X179510157Y-64007617D01*
X179510154Y-64007615D01*
X179342036Y-63932765D01*
X179342034Y-63932764D01*
X179342031Y-63932763D01*
X179342030Y-63932763D01*
X179278311Y-63919219D01*
X179162019Y-63894500D01*
X178977981Y-63894500D01*
X178880797Y-63915157D01*
X178797969Y-63932763D01*
X178797963Y-63932765D01*
X178629845Y-64007615D01*
X178629842Y-64007617D01*
X178480948Y-64115794D01*
X178357803Y-64252562D01*
X178357803Y-64252563D01*
X178265790Y-64411931D01*
X178265784Y-64411945D01*
X178208916Y-64586965D01*
X178208915Y-64586969D01*
X178208915Y-64586971D01*
X178189678Y-64770000D01*
X177410322Y-64770000D01*
X177391085Y-64586971D01*
X177334214Y-64411941D01*
X177334211Y-64411936D01*
X177334209Y-64411931D01*
X177286935Y-64330052D01*
X177242195Y-64252560D01*
X177119050Y-64115793D01*
X176970161Y-64007619D01*
X176970157Y-64007617D01*
X176970154Y-64007615D01*
X176802036Y-63932765D01*
X176802034Y-63932764D01*
X176802031Y-63932763D01*
X176802030Y-63932763D01*
X176738311Y-63919219D01*
X176622019Y-63894500D01*
X176437981Y-63894500D01*
X176340797Y-63915157D01*
X176257969Y-63932763D01*
X176257963Y-63932765D01*
X176089845Y-64007615D01*
X176089842Y-64007617D01*
X175940948Y-64115794D01*
X175817803Y-64252562D01*
X175817803Y-64252563D01*
X175725790Y-64411931D01*
X175725784Y-64411945D01*
X175668916Y-64586965D01*
X175668915Y-64586969D01*
X175668915Y-64586971D01*
X175649678Y-64770000D01*
X174870322Y-64770000D01*
X174851085Y-64586971D01*
X174794214Y-64411941D01*
X174794211Y-64411936D01*
X174794209Y-64411931D01*
X174746935Y-64330052D01*
X174702195Y-64252560D01*
X174579050Y-64115793D01*
X174430161Y-64007619D01*
X174430157Y-64007617D01*
X174430154Y-64007615D01*
X174262036Y-63932765D01*
X174262034Y-63932764D01*
X174262031Y-63932763D01*
X174262030Y-63932763D01*
X174198311Y-63919219D01*
X174082019Y-63894500D01*
X173897981Y-63894500D01*
X173800797Y-63915157D01*
X173717969Y-63932763D01*
X173717963Y-63932765D01*
X173549845Y-64007615D01*
X173549842Y-64007617D01*
X173400948Y-64115794D01*
X173277803Y-64252562D01*
X173277803Y-64252563D01*
X173185790Y-64411931D01*
X173185784Y-64411945D01*
X173128916Y-64586965D01*
X173128915Y-64586969D01*
X173128915Y-64586971D01*
X173109678Y-64770000D01*
X172330322Y-64770000D01*
X172311085Y-64586971D01*
X172254214Y-64411941D01*
X172254211Y-64411936D01*
X172254209Y-64411931D01*
X172206935Y-64330052D01*
X172162195Y-64252560D01*
X172039050Y-64115793D01*
X171890161Y-64007619D01*
X171890157Y-64007617D01*
X171890154Y-64007615D01*
X171722036Y-63932765D01*
X171722034Y-63932764D01*
X171722031Y-63932763D01*
X171722030Y-63932763D01*
X171658311Y-63919219D01*
X171542019Y-63894500D01*
X171357981Y-63894500D01*
X171260797Y-63915157D01*
X171177969Y-63932763D01*
X171177963Y-63932765D01*
X171009845Y-64007615D01*
X171009842Y-64007617D01*
X170860948Y-64115794D01*
X170737803Y-64252562D01*
X170737803Y-64252563D01*
X170645790Y-64411931D01*
X170645784Y-64411945D01*
X170588916Y-64586965D01*
X170588915Y-64586969D01*
X170588915Y-64586971D01*
X170569678Y-64770000D01*
X169785500Y-64770000D01*
X169785500Y-64075252D01*
X169773867Y-64016769D01*
X169729552Y-63950448D01*
X169729548Y-63950445D01*
X169663233Y-63906134D01*
X169663231Y-63906133D01*
X169663228Y-63906132D01*
X169663227Y-63906132D01*
X169604758Y-63894501D01*
X169604748Y-63894500D01*
X168215252Y-63894500D01*
X168215251Y-63894500D01*
X168215241Y-63894501D01*
X168156772Y-63906132D01*
X168156766Y-63906134D01*
X168090451Y-63950445D01*
X168090445Y-63950451D01*
X168046134Y-64016766D01*
X168046132Y-64016772D01*
X168034501Y-64075241D01*
X168034500Y-64075253D01*
X168034500Y-65464746D01*
X167232677Y-65464746D01*
X167232677Y-63980393D01*
X167233054Y-63971764D01*
X167236441Y-63933053D01*
X167226381Y-63895512D01*
X167224512Y-63887080D01*
X167217765Y-63848814D01*
X167217017Y-63847519D01*
X167207119Y-63823627D01*
X167206731Y-63822176D01*
X167184441Y-63790342D01*
X167179807Y-63783069D01*
X167160371Y-63749405D01*
X167130605Y-63724428D01*
X167124237Y-63718594D01*
X166069064Y-62663421D01*
X166063230Y-62657053D01*
X166038252Y-62627285D01*
X166004591Y-62607851D01*
X165997308Y-62603211D01*
X165965481Y-62580925D01*
X165965475Y-62580922D01*
X165964020Y-62580533D01*
X165940144Y-62570643D01*
X165938841Y-62569890D01*
X165900575Y-62563143D01*
X165892146Y-62561274D01*
X165867244Y-62554602D01*
X165854603Y-62551215D01*
X165854602Y-62551215D01*
X165854601Y-62551215D01*
X165815891Y-62554602D01*
X165807262Y-62554979D01*
X153956552Y-62554979D01*
X153947924Y-62554602D01*
X153909220Y-62551215D01*
X153909215Y-62551216D01*
X153871682Y-62561273D01*
X153863253Y-62563142D01*
X153824982Y-62569890D01*
X153824974Y-62569893D01*
X153823666Y-62570649D01*
X153799812Y-62580530D01*
X153798350Y-62580921D01*
X153798340Y-62580926D01*
X153766509Y-62603213D01*
X153759233Y-62607848D01*
X153725571Y-62627284D01*
X153700600Y-62657043D01*
X153694767Y-62663409D01*
X152459395Y-63898782D01*
X152404878Y-63926559D01*
X152349126Y-63919219D01*
X152327997Y-63909812D01*
X152327995Y-63909811D01*
X152327994Y-63909811D01*
X152255959Y-63894500D01*
X152143046Y-63870500D01*
X151953964Y-63870500D01*
X151856703Y-63891172D01*
X151769015Y-63909811D01*
X151769010Y-63909813D01*
X151596284Y-63986715D01*
X151596276Y-63986720D01*
X151443308Y-64097856D01*
X151316785Y-64238376D01*
X151222246Y-64402119D01*
X151222246Y-64402120D01*
X151222246Y-64402121D01*
X151222244Y-64402125D01*
X151217047Y-64418121D01*
X151163815Y-64581951D01*
X151144050Y-64770000D01*
X151163287Y-64953029D01*
X151163815Y-64958047D01*
X151222244Y-65137875D01*
X151222245Y-65137877D01*
X151222246Y-65137879D01*
X151222246Y-65137880D01*
X151302741Y-65277299D01*
X151316786Y-65301625D01*
X151443306Y-65442141D01*
X151596277Y-65553281D01*
X151596281Y-65553283D01*
X151596283Y-65553284D01*
X151653449Y-65578735D01*
X151769013Y-65630188D01*
X151953964Y-65669500D01*
X151953967Y-65669500D01*
X152143043Y-65669500D01*
X152143046Y-65669500D01*
X152327997Y-65630188D01*
X152500733Y-65553281D01*
X152653704Y-65442141D01*
X152780224Y-65301625D01*
X152874766Y-65137875D01*
X152933195Y-64958047D01*
X152952960Y-64770000D01*
X152933195Y-64581953D01*
X152893988Y-64461286D01*
X152893988Y-64400101D01*
X152918140Y-64360690D01*
X154043858Y-63234975D01*
X154098374Y-63207198D01*
X154113861Y-63205979D01*
X165649962Y-63205979D01*
X165708153Y-63224886D01*
X165719966Y-63234975D01*
X166552681Y-64067690D01*
X166580458Y-64122207D01*
X166581677Y-64137694D01*
X166581677Y-66898523D01*
X166562770Y-66956714D01*
X166552681Y-66968527D01*
X159802940Y-73718267D01*
X159796574Y-73724099D01*
X159766807Y-73749077D01*
X159766805Y-73749079D01*
X159747371Y-73782740D01*
X159742740Y-73790010D01*
X159720446Y-73821851D01*
X159720446Y-73821852D01*
X159720442Y-73821859D01*
X159720051Y-73823321D01*
X159710170Y-73847175D01*
X159709414Y-73848483D01*
X159709410Y-73848495D01*
X159702662Y-73886758D01*
X159700794Y-73895184D01*
X159690736Y-73932722D01*
X159690736Y-73932729D01*
X159694123Y-73971439D01*
X159694500Y-73980068D01*
X159694500Y-89994166D01*
X159675593Y-90052357D01*
X159665504Y-90064170D01*
X155009427Y-94720247D01*
X154954910Y-94748024D01*
X154939423Y-94749243D01*
X154825760Y-94749243D01*
X154767569Y-94730336D01*
X154731605Y-94680836D01*
X154731605Y-94619650D01*
X154767569Y-94570150D01*
X154776251Y-94564511D01*
X154783043Y-94560588D01*
X154783045Y-94560588D01*
X154784346Y-94559836D01*
X154808236Y-94549942D01*
X154808464Y-94549880D01*
X154809684Y-94549554D01*
X154841533Y-94527251D01*
X154848779Y-94522635D01*
X154882455Y-94503194D01*
X154907443Y-94473413D01*
X154913254Y-94467070D01*
X158967072Y-90413253D01*
X158973431Y-90407428D01*
X159003194Y-90382455D01*
X159022626Y-90348797D01*
X159027252Y-90341532D01*
X159049554Y-90309684D01*
X159049942Y-90308236D01*
X159059838Y-90284345D01*
X159060586Y-90283048D01*
X159060585Y-90283048D01*
X159060588Y-90283045D01*
X159067341Y-90244743D01*
X159069203Y-90236348D01*
X159079263Y-90198807D01*
X159075877Y-90160102D01*
X159075500Y-90151474D01*
X159075500Y-77679652D01*
X159075877Y-77671023D01*
X159079263Y-77632321D01*
X159069201Y-77594770D01*
X159067335Y-77586352D01*
X159060588Y-77548082D01*
X159059840Y-77546787D01*
X159049942Y-77522895D01*
X159049554Y-77521444D01*
X159027257Y-77489601D01*
X159022626Y-77482331D01*
X159003194Y-77448673D01*
X158973434Y-77423701D01*
X158967066Y-77417867D01*
X157483001Y-75933802D01*
X157455224Y-75879285D01*
X157454005Y-75863798D01*
X157454005Y-65673994D01*
X157472912Y-65615803D01*
X157512735Y-65583555D01*
X157580733Y-65553281D01*
X157733704Y-65442141D01*
X157860224Y-65301625D01*
X157954766Y-65137875D01*
X158013195Y-64958047D01*
X158032960Y-64770000D01*
X158764050Y-64770000D01*
X158783287Y-64953029D01*
X158783815Y-64958047D01*
X158842244Y-65137875D01*
X158842245Y-65137877D01*
X158842246Y-65137879D01*
X158842246Y-65137880D01*
X158922741Y-65277299D01*
X158936786Y-65301625D01*
X159063306Y-65442141D01*
X159216277Y-65553281D01*
X159216281Y-65553283D01*
X159216283Y-65553284D01*
X159273449Y-65578735D01*
X159389013Y-65630188D01*
X159573964Y-65669500D01*
X159573967Y-65669500D01*
X159763043Y-65669500D01*
X159763046Y-65669500D01*
X159947997Y-65630188D01*
X160120733Y-65553281D01*
X160273704Y-65442141D01*
X160400224Y-65301625D01*
X160494766Y-65137875D01*
X160553195Y-64958047D01*
X160572960Y-64770000D01*
X161304050Y-64770000D01*
X161323287Y-64953029D01*
X161323815Y-64958047D01*
X161382244Y-65137875D01*
X161382245Y-65137877D01*
X161382246Y-65137879D01*
X161382246Y-65137880D01*
X161462741Y-65277299D01*
X161476786Y-65301625D01*
X161603306Y-65442141D01*
X161756277Y-65553281D01*
X161756281Y-65553283D01*
X161756283Y-65553284D01*
X161813449Y-65578735D01*
X161929013Y-65630188D01*
X162113964Y-65669500D01*
X162113967Y-65669500D01*
X162303043Y-65669500D01*
X162303046Y-65669500D01*
X162487997Y-65630188D01*
X162660733Y-65553281D01*
X162813704Y-65442141D01*
X162940224Y-65301625D01*
X163034766Y-65137875D01*
X163093195Y-64958047D01*
X163112960Y-64770000D01*
X163844050Y-64770000D01*
X163863287Y-64953029D01*
X163863815Y-64958047D01*
X163922244Y-65137875D01*
X163922245Y-65137877D01*
X163922246Y-65137879D01*
X163922246Y-65137880D01*
X164002741Y-65277299D01*
X164016786Y-65301625D01*
X164143306Y-65442141D01*
X164296277Y-65553281D01*
X164296281Y-65553283D01*
X164296283Y-65553284D01*
X164353449Y-65578735D01*
X164469013Y-65630188D01*
X164653964Y-65669500D01*
X164653967Y-65669500D01*
X164843043Y-65669500D01*
X164843046Y-65669500D01*
X165027997Y-65630188D01*
X165200733Y-65553281D01*
X165353704Y-65442141D01*
X165480224Y-65301625D01*
X165574766Y-65137875D01*
X165633195Y-64958047D01*
X165652960Y-64770000D01*
X165633195Y-64581953D01*
X165574766Y-64402125D01*
X165573597Y-64400101D01*
X165532632Y-64329147D01*
X165480224Y-64238375D01*
X165353704Y-64097859D01*
X165200733Y-63986719D01*
X165200729Y-63986717D01*
X165200726Y-63986715D01*
X165027999Y-63909813D01*
X165027994Y-63909811D01*
X164955959Y-63894500D01*
X164843046Y-63870500D01*
X164653964Y-63870500D01*
X164556703Y-63891172D01*
X164469015Y-63909811D01*
X164469010Y-63909813D01*
X164296284Y-63986715D01*
X164296276Y-63986720D01*
X164143308Y-64097856D01*
X164016785Y-64238376D01*
X163922246Y-64402119D01*
X163922246Y-64402120D01*
X163922246Y-64402121D01*
X163922244Y-64402125D01*
X163917047Y-64418121D01*
X163863815Y-64581951D01*
X163844050Y-64770000D01*
X163112960Y-64770000D01*
X163093195Y-64581953D01*
X163034766Y-64402125D01*
X163033597Y-64400101D01*
X162992632Y-64329147D01*
X162940224Y-64238375D01*
X162813704Y-64097859D01*
X162660733Y-63986719D01*
X162660729Y-63986717D01*
X162660726Y-63986715D01*
X162487999Y-63909813D01*
X162487994Y-63909811D01*
X162415959Y-63894500D01*
X162303046Y-63870500D01*
X162113964Y-63870500D01*
X162016703Y-63891172D01*
X161929015Y-63909811D01*
X161929010Y-63909813D01*
X161756284Y-63986715D01*
X161756276Y-63986720D01*
X161603308Y-64097856D01*
X161476785Y-64238376D01*
X161382246Y-64402119D01*
X161382246Y-64402120D01*
X161382246Y-64402121D01*
X161382244Y-64402125D01*
X161377047Y-64418121D01*
X161323815Y-64581951D01*
X161304050Y-64770000D01*
X160572960Y-64770000D01*
X160553195Y-64581953D01*
X160494766Y-64402125D01*
X160493597Y-64400101D01*
X160452632Y-64329147D01*
X160400224Y-64238375D01*
X160273704Y-64097859D01*
X160120733Y-63986719D01*
X160120729Y-63986717D01*
X160120726Y-63986715D01*
X159947999Y-63909813D01*
X159947994Y-63909811D01*
X159875959Y-63894500D01*
X159763046Y-63870500D01*
X159573964Y-63870500D01*
X159476703Y-63891172D01*
X159389015Y-63909811D01*
X159389010Y-63909813D01*
X159216284Y-63986715D01*
X159216276Y-63986720D01*
X159063308Y-64097856D01*
X158936785Y-64238376D01*
X158842246Y-64402119D01*
X158842246Y-64402120D01*
X158842246Y-64402121D01*
X158842244Y-64402125D01*
X158837047Y-64418121D01*
X158783815Y-64581951D01*
X158764050Y-64770000D01*
X158032960Y-64770000D01*
X158013195Y-64581953D01*
X157954766Y-64402125D01*
X157953597Y-64400101D01*
X157912632Y-64329147D01*
X157860224Y-64238375D01*
X157733704Y-64097859D01*
X157580733Y-63986719D01*
X157580729Y-63986717D01*
X157580726Y-63986715D01*
X157407999Y-63909813D01*
X157407994Y-63909811D01*
X157335959Y-63894500D01*
X157223046Y-63870500D01*
X157033964Y-63870500D01*
X156936703Y-63891172D01*
X156849015Y-63909811D01*
X156849010Y-63909813D01*
X156676284Y-63986715D01*
X156676276Y-63986720D01*
X156523308Y-64097856D01*
X156396784Y-64238377D01*
X156396784Y-64238378D01*
X156302246Y-64402121D01*
X156302241Y-64402131D01*
X156297046Y-64418121D01*
X156261081Y-64467621D01*
X156252396Y-64473261D01*
X156202267Y-64502202D01*
X156176972Y-64516807D01*
X156103191Y-64604735D01*
X156103190Y-64604737D01*
X156103189Y-64604738D01*
X156103189Y-64604739D01*
X156063929Y-64712606D01*
X156063929Y-64827394D01*
X156103189Y-64935260D01*
X156103190Y-64935261D01*
X156103191Y-64935263D01*
X156118103Y-64953034D01*
X156176974Y-65023194D01*
X156252392Y-65066736D01*
X156293333Y-65112206D01*
X156297046Y-65121879D01*
X156302241Y-65137868D01*
X156302243Y-65137872D01*
X156302244Y-65137875D01*
X156396786Y-65301625D01*
X156523306Y-65442141D01*
X156676277Y-65553281D01*
X156744274Y-65583554D01*
X156789741Y-65624493D01*
X156803005Y-65673994D01*
X156803005Y-76021098D01*
X156802628Y-76029727D01*
X156799241Y-76068438D01*
X156799241Y-76068439D01*
X156809300Y-76105983D01*
X156811169Y-76114412D01*
X156817916Y-76152678D01*
X156818669Y-76153981D01*
X156828559Y-76177857D01*
X156828948Y-76179312D01*
X156828951Y-76179318D01*
X156851237Y-76211145D01*
X156855877Y-76218428D01*
X156875311Y-76252088D01*
X156905074Y-76277062D01*
X156911443Y-76282897D01*
X158395504Y-77766958D01*
X158423281Y-77821475D01*
X158424500Y-77836962D01*
X158424500Y-89994165D01*
X158405593Y-90052356D01*
X158395504Y-90064169D01*
X154564170Y-93895504D01*
X154509653Y-93923281D01*
X154494166Y-93924500D01*
X148509964Y-93924500D01*
X148451773Y-93905593D01*
X148435144Y-93890330D01*
X148425213Y-93878869D01*
X148425212Y-93878868D01*
X148316237Y-93808834D01*
X148316234Y-93808832D01*
X148316233Y-93808832D01*
X148316230Y-93808831D01*
X148191938Y-93772336D01*
X148191936Y-93772336D01*
X148062392Y-93772336D01*
X148062389Y-93772336D01*
X147938097Y-93808831D01*
X147938090Y-93808834D01*
X147829116Y-93878867D01*
X147744281Y-93976774D01*
X147690466Y-94094610D01*
X147672031Y-94222833D01*
X147672031Y-94222838D01*
X147690466Y-94351061D01*
X147743442Y-94467059D01*
X147744282Y-94468899D01*
X147823080Y-94559838D01*
X147829116Y-94566804D01*
X147829359Y-94566960D01*
X147829512Y-94567147D01*
X147834465Y-94571439D01*
X147833722Y-94572296D01*
X147868089Y-94614327D01*
X147871581Y-94675412D01*
X147838501Y-94726884D01*
X147781484Y-94749082D01*
X147775834Y-94749243D01*
X147493791Y-94749243D01*
X147485162Y-94748866D01*
X147446451Y-94745479D01*
X147446444Y-94745479D01*
X147408906Y-94755537D01*
X147400480Y-94757405D01*
X147362217Y-94764153D01*
X147362205Y-94764157D01*
X147360897Y-94764913D01*
X147337043Y-94774794D01*
X147335581Y-94775185D01*
X147335574Y-94775188D01*
X147335573Y-94775189D01*
X147303732Y-94797483D01*
X147296462Y-94802114D01*
X147262802Y-94821548D01*
X147237820Y-94851320D01*
X147231987Y-94857685D01*
X146969171Y-95120503D01*
X146914654Y-95148281D01*
X146899167Y-95149500D01*
X146885225Y-95149500D01*
X146760933Y-95185995D01*
X146760926Y-95185998D01*
X146651952Y-95256031D01*
X146567117Y-95353938D01*
X146513302Y-95471774D01*
X146494867Y-95599997D01*
X146494867Y-95600002D01*
X142876911Y-95600002D01*
X142897789Y-95566775D01*
X142951786Y-95412461D01*
X142970091Y-95250000D01*
X142951786Y-95087539D01*
X142897789Y-94933225D01*
X142827617Y-94821548D01*
X142810810Y-94794799D01*
X142810809Y-94794798D01*
X142810808Y-94794796D01*
X142701013Y-94685001D01*
X142673238Y-94630487D01*
X142682809Y-94570055D01*
X142701012Y-94544999D01*
X142810808Y-94435204D01*
X142897789Y-94296775D01*
X142951786Y-94142461D01*
X142970091Y-93980000D01*
X142951786Y-93817539D01*
X142948739Y-93808832D01*
X142929713Y-93754459D01*
X142897789Y-93663225D01*
X142810808Y-93524796D01*
X142701013Y-93415001D01*
X142673238Y-93360487D01*
X142682809Y-93300055D01*
X142701012Y-93274999D01*
X142810808Y-93165204D01*
X142897789Y-93026775D01*
X142951786Y-92872461D01*
X142970091Y-92710000D01*
X142963509Y-92651583D01*
X147984268Y-92651583D01*
X148002703Y-92779806D01*
X148045021Y-92872467D01*
X148056519Y-92897644D01*
X148125677Y-92977458D01*
X148141353Y-92995549D01*
X148250327Y-93065582D01*
X148250332Y-93065585D01*
X148374629Y-93102081D01*
X148374631Y-93102081D01*
X148504171Y-93102081D01*
X148504173Y-93102081D01*
X148628470Y-93065585D01*
X148702896Y-93017754D01*
X148741731Y-92992797D01*
X148795254Y-92977081D01*
X154979885Y-92977081D01*
X154988513Y-92977457D01*
X155027226Y-92980845D01*
X155064773Y-92970783D01*
X155073203Y-92968915D01*
X155111464Y-92962169D01*
X155112764Y-92961419D01*
X155136655Y-92951523D01*
X155136883Y-92951461D01*
X155138103Y-92951135D01*
X155169952Y-92928832D01*
X155177198Y-92924216D01*
X155210874Y-92904775D01*
X155235862Y-92874994D01*
X155241673Y-92868651D01*
X157697066Y-90413258D01*
X157703425Y-90407433D01*
X157703431Y-90407428D01*
X157733194Y-90382455D01*
X157752635Y-90348779D01*
X157757251Y-90341533D01*
X157779554Y-90309684D01*
X157779942Y-90308236D01*
X157789838Y-90284345D01*
X157790586Y-90283048D01*
X157790585Y-90283048D01*
X157790588Y-90283045D01*
X157797338Y-90244755D01*
X157799196Y-90236374D01*
X157809264Y-90198806D01*
X157805877Y-90160090D01*
X157805500Y-90151462D01*
X157805500Y-78278605D01*
X157805877Y-78269976D01*
X157805940Y-78269255D01*
X157809263Y-78231276D01*
X157799206Y-78193746D01*
X157797337Y-78185315D01*
X157790588Y-78147038D01*
X157789834Y-78145732D01*
X157779941Y-78121848D01*
X157779553Y-78120399D01*
X157757261Y-78088563D01*
X157752625Y-78081285D01*
X157733193Y-78047627D01*
X157733191Y-78047625D01*
X157703434Y-78022656D01*
X157697066Y-78016822D01*
X154943001Y-75262757D01*
X154915224Y-75208240D01*
X154914005Y-75192753D01*
X154914005Y-65673994D01*
X154932912Y-65615803D01*
X154972735Y-65583555D01*
X155040733Y-65553281D01*
X155193704Y-65442141D01*
X155320224Y-65301625D01*
X155414766Y-65137875D01*
X155473195Y-64958047D01*
X155492960Y-64770000D01*
X155473195Y-64581953D01*
X155414766Y-64402125D01*
X155413597Y-64400101D01*
X155372632Y-64329147D01*
X155320224Y-64238375D01*
X155193704Y-64097859D01*
X155040733Y-63986719D01*
X155040729Y-63986717D01*
X155040726Y-63986715D01*
X154867999Y-63909813D01*
X154867994Y-63909811D01*
X154795959Y-63894500D01*
X154683046Y-63870500D01*
X154493964Y-63870500D01*
X154396703Y-63891172D01*
X154309015Y-63909811D01*
X154309010Y-63909813D01*
X154136284Y-63986715D01*
X154136276Y-63986720D01*
X153983308Y-64097856D01*
X153856785Y-64238376D01*
X153762246Y-64402119D01*
X153762246Y-64402120D01*
X153762246Y-64402121D01*
X153762244Y-64402125D01*
X153757047Y-64418121D01*
X153703815Y-64581951D01*
X153684050Y-64770000D01*
X153703287Y-64953029D01*
X153703815Y-64958047D01*
X153762244Y-65137875D01*
X153762245Y-65137877D01*
X153762246Y-65137879D01*
X153762246Y-65137880D01*
X153842741Y-65277299D01*
X153856786Y-65301625D01*
X153983306Y-65442141D01*
X154136277Y-65553281D01*
X154204274Y-65583554D01*
X154249741Y-65624493D01*
X154263005Y-65673994D01*
X154263005Y-75350053D01*
X154262628Y-75358682D01*
X154259241Y-75397393D01*
X154259241Y-75397394D01*
X154269300Y-75434938D01*
X154271169Y-75443367D01*
X154277916Y-75481633D01*
X154278669Y-75482936D01*
X154288559Y-75506812D01*
X154288948Y-75508267D01*
X154288951Y-75508273D01*
X154311237Y-75540100D01*
X154315877Y-75547383D01*
X154335311Y-75581043D01*
X154365074Y-75606017D01*
X154371443Y-75611852D01*
X157125504Y-78365913D01*
X157153281Y-78420430D01*
X157154500Y-78435917D01*
X157154500Y-89994166D01*
X157135593Y-90052357D01*
X157125504Y-90064170D01*
X154892589Y-92297085D01*
X154838072Y-92324862D01*
X154822585Y-92326081D01*
X148795254Y-92326081D01*
X148741731Y-92310365D01*
X148628474Y-92237579D01*
X148628471Y-92237577D01*
X148628470Y-92237577D01*
X148628467Y-92237576D01*
X148504175Y-92201081D01*
X148504173Y-92201081D01*
X148374629Y-92201081D01*
X148374626Y-92201081D01*
X148250334Y-92237576D01*
X148250327Y-92237579D01*
X148141353Y-92307612D01*
X148056518Y-92405519D01*
X148002703Y-92523355D01*
X147984268Y-92651578D01*
X147984268Y-92651583D01*
X142963509Y-92651583D01*
X142951786Y-92547539D01*
X142897789Y-92393225D01*
X142855599Y-92326081D01*
X142810810Y-92254799D01*
X142810809Y-92254798D01*
X142810808Y-92254796D01*
X142695204Y-92139192D01*
X142695201Y-92139190D01*
X142695200Y-92139189D01*
X142556776Y-92052211D01*
X142402467Y-91998215D01*
X142402464Y-91998214D01*
X142240000Y-91979909D01*
X142077535Y-91998214D01*
X142077532Y-91998215D01*
X141923224Y-92052211D01*
X141923223Y-92052211D01*
X141784799Y-92139189D01*
X141784796Y-92139191D01*
X141784796Y-92139192D01*
X141675001Y-92248986D01*
X141620487Y-92276762D01*
X141560055Y-92267191D01*
X141534999Y-92248987D01*
X141425204Y-92139192D01*
X141425201Y-92139190D01*
X141425200Y-92139189D01*
X141286776Y-92052211D01*
X141132467Y-91998215D01*
X141132464Y-91998214D01*
X140970000Y-91979909D01*
X140807535Y-91998214D01*
X140807532Y-91998215D01*
X140653224Y-92052211D01*
X140653223Y-92052211D01*
X140514799Y-92139189D01*
X140399189Y-92254799D01*
X140312211Y-92393223D01*
X140312211Y-92393224D01*
X140258215Y-92547532D01*
X140258214Y-92547535D01*
X140239909Y-92710000D01*
X140258214Y-92872464D01*
X140258215Y-92872467D01*
X140312211Y-93026775D01*
X140312211Y-93026776D01*
X140399189Y-93165200D01*
X140399192Y-93165204D01*
X140508986Y-93274998D01*
X140536762Y-93329513D01*
X140527191Y-93389945D01*
X140508987Y-93415000D01*
X140405003Y-93518985D01*
X140399189Y-93524799D01*
X140312211Y-93663223D01*
X140312211Y-93663224D01*
X140258215Y-93817532D01*
X140258214Y-93817535D01*
X140239909Y-93980000D01*
X140258214Y-94142464D01*
X140258215Y-94142467D01*
X140312211Y-94296775D01*
X140312211Y-94296776D01*
X140399189Y-94435200D01*
X140399192Y-94435204D01*
X140508986Y-94544998D01*
X140536762Y-94599513D01*
X140527191Y-94659945D01*
X140508987Y-94685000D01*
X140448509Y-94745479D01*
X140399189Y-94794799D01*
X140312211Y-94933223D01*
X140312211Y-94933224D01*
X140258215Y-95087532D01*
X140258214Y-95087535D01*
X140239909Y-95250000D01*
X140258214Y-95412464D01*
X140258215Y-95412467D01*
X140312211Y-95566775D01*
X140312211Y-95566776D01*
X140399189Y-95705200D01*
X140399192Y-95705204D01*
X140508986Y-95814998D01*
X140536762Y-95869513D01*
X140527191Y-95929945D01*
X140508987Y-95955000D01*
X140449987Y-96014001D01*
X140399189Y-96064799D01*
X140312211Y-96203223D01*
X140312211Y-96203224D01*
X140258215Y-96357532D01*
X140258214Y-96357535D01*
X140239909Y-96520000D01*
X140258214Y-96682464D01*
X140258215Y-96682467D01*
X140312211Y-96836775D01*
X140312211Y-96836776D01*
X140388876Y-96958787D01*
X140399192Y-96975204D01*
X140508986Y-97084998D01*
X140536762Y-97139513D01*
X140527191Y-97199945D01*
X140508987Y-97225000D01*
X140451208Y-97282780D01*
X140399189Y-97334799D01*
X140312211Y-97473223D01*
X140312211Y-97473224D01*
X140258215Y-97627532D01*
X140258214Y-97627535D01*
X140239909Y-97790000D01*
X131510500Y-97790000D01*
X131510500Y-91100002D01*
X138594867Y-91100002D01*
X138613302Y-91228225D01*
X138656839Y-91323555D01*
X138667118Y-91346063D01*
X138751951Y-91443967D01*
X138751952Y-91443968D01*
X138860926Y-91514001D01*
X138860931Y-91514004D01*
X138985228Y-91550500D01*
X138985230Y-91550500D01*
X139114770Y-91550500D01*
X139114772Y-91550500D01*
X139239069Y-91514004D01*
X139348049Y-91443967D01*
X139432882Y-91346063D01*
X139486697Y-91228226D01*
X139500722Y-91130681D01*
X139505133Y-91100002D01*
X139505133Y-91099997D01*
X139486697Y-90971774D01*
X139434447Y-90857364D01*
X139425500Y-90816237D01*
X139425500Y-87449211D01*
X139444407Y-87391020D01*
X139449680Y-87384380D01*
X139482882Y-87346063D01*
X139536697Y-87228226D01*
X139555133Y-87100000D01*
X139536697Y-86971774D01*
X139482882Y-86853937D01*
X139398049Y-86756033D01*
X139398048Y-86756032D01*
X139398047Y-86756031D01*
X139289073Y-86685998D01*
X139289070Y-86685996D01*
X139289069Y-86685996D01*
X139289066Y-86685995D01*
X139164774Y-86649500D01*
X139164772Y-86649500D01*
X139035228Y-86649500D01*
X139035225Y-86649500D01*
X138910933Y-86685995D01*
X138910926Y-86685998D01*
X138801952Y-86756031D01*
X138717117Y-86853938D01*
X138663302Y-86971774D01*
X138644867Y-87099997D01*
X138644867Y-87100002D01*
X138663302Y-87228225D01*
X138717117Y-87346061D01*
X138717118Y-87346063D01*
X138750320Y-87384380D01*
X138774137Y-87440740D01*
X138774500Y-87449211D01*
X138774500Y-90693084D01*
X138755593Y-90751275D01*
X138750320Y-90757914D01*
X138667118Y-90853936D01*
X138613302Y-90971774D01*
X138594867Y-91099997D01*
X138594867Y-91100002D01*
X131510500Y-91100002D01*
X131510500Y-83377392D01*
X131510681Y-83371413D01*
X131514358Y-83310632D01*
X131512122Y-83298430D01*
X131510500Y-83280584D01*
X131510500Y-73335040D01*
X131512121Y-73317197D01*
X131515425Y-73299171D01*
X131514373Y-73281787D01*
X131510681Y-73220743D01*
X131510500Y-73214765D01*
X131510500Y-72347631D01*
X131510499Y-72347618D01*
X131500075Y-72261774D01*
X131495140Y-72221128D01*
X131434818Y-72062070D01*
X131338183Y-71922071D01*
X131210852Y-71809266D01*
X131060225Y-71730210D01*
X131060224Y-71730209D01*
X131060223Y-71730209D01*
X130895058Y-71689500D01*
X130895056Y-71689500D01*
X130724944Y-71689500D01*
X130724941Y-71689500D01*
X130559776Y-71730209D01*
X130409146Y-71809267D01*
X130281818Y-71922069D01*
X130281816Y-71922072D01*
X130185182Y-72062070D01*
X130124860Y-72221128D01*
X130109500Y-72347618D01*
X130109500Y-73184979D01*
X130107878Y-73202825D01*
X130105641Y-73215027D01*
X130109319Y-73275808D01*
X130109500Y-73281787D01*
X130109500Y-81423073D01*
X130090593Y-81481264D01*
X130041093Y-81517228D01*
X129979907Y-81517228D01*
X129940496Y-81493077D01*
X129349701Y-80902282D01*
X129345251Y-80897528D01*
X129306535Y-80853351D01*
X129254825Y-80817245D01*
X129250458Y-80814014D01*
X129200829Y-80775132D01*
X129200828Y-80775131D01*
X129200825Y-80775129D01*
X129191495Y-80770930D01*
X129175450Y-80761824D01*
X129167059Y-80755965D01*
X129167056Y-80755963D01*
X129108230Y-80733291D01*
X129103204Y-80731193D01*
X129045706Y-80705315D01*
X129045702Y-80705314D01*
X129035623Y-80703467D01*
X129017874Y-80698468D01*
X129008323Y-80694787D01*
X129008320Y-80694786D01*
X128945806Y-80686854D01*
X128940426Y-80686021D01*
X128878374Y-80674651D01*
X128819745Y-80678198D01*
X128813236Y-80678378D01*
X126168187Y-80664157D01*
X126110098Y-80644937D01*
X126074401Y-80595244D01*
X126074209Y-80594476D01*
X126074178Y-80594486D01*
X126072399Y-80588779D01*
X126072398Y-80588772D01*
X126047397Y-80533224D01*
X126045122Y-80527730D01*
X126023522Y-80470774D01*
X126016471Y-80460560D01*
X126007668Y-80444952D01*
X126002581Y-80433647D01*
X125965025Y-80385710D01*
X125961480Y-80380892D01*
X125926889Y-80330777D01*
X125926886Y-80330773D01*
X125881312Y-80290399D01*
X125876957Y-80286300D01*
X125162401Y-79571744D01*
X125158302Y-79567389D01*
X125117930Y-79521818D01*
X125117925Y-79521814D01*
X125067806Y-79487218D01*
X125062992Y-79483676D01*
X125015055Y-79446120D01*
X125003743Y-79441029D01*
X124988141Y-79432229D01*
X124977934Y-79425183D01*
X124977931Y-79425182D01*
X124969247Y-79421889D01*
X124934348Y-79399326D01*
X124600673Y-79065651D01*
X124578110Y-79030752D01*
X124574818Y-79022070D01*
X124567767Y-79011856D01*
X124558964Y-78996248D01*
X124553877Y-78984943D01*
X124516321Y-78937006D01*
X124512776Y-78932188D01*
X124478185Y-78882073D01*
X124478182Y-78882069D01*
X124432608Y-78841695D01*
X124428253Y-78837596D01*
X124062401Y-78471744D01*
X124058302Y-78467389D01*
X124017930Y-78421818D01*
X124017925Y-78421814D01*
X123967806Y-78387218D01*
X123962992Y-78383676D01*
X123915055Y-78346120D01*
X123903743Y-78341029D01*
X123888141Y-78332229D01*
X123877933Y-78325183D01*
X123869909Y-78322140D01*
X123820974Y-78303581D01*
X123815481Y-78301305D01*
X123792858Y-78291123D01*
X123759933Y-78276305D01*
X123759926Y-78276303D01*
X123747723Y-78274067D01*
X123730461Y-78269255D01*
X123718875Y-78264861D01*
X123718873Y-78264860D01*
X123658437Y-78257521D01*
X123652529Y-78256622D01*
X123592602Y-78245641D01*
X123534549Y-78249154D01*
X123531822Y-78249319D01*
X123525845Y-78249500D01*
X121207618Y-78249500D01*
X121081128Y-78264860D01*
X120922070Y-78325182D01*
X120782072Y-78421816D01*
X120782069Y-78421818D01*
X120669267Y-78549146D01*
X120590209Y-78699776D01*
X120549500Y-78864941D01*
X120549500Y-79035058D01*
X120590209Y-79200223D01*
X120590209Y-79200224D01*
X120590210Y-79200225D01*
X120669266Y-79350852D01*
X120688307Y-79372345D01*
X120753667Y-79446122D01*
X120782071Y-79478183D01*
X120922070Y-79574818D01*
X121081128Y-79635140D01*
X121185301Y-79647789D01*
X121207618Y-79650499D01*
X121207622Y-79650499D01*
X121207628Y-79650500D01*
X123218835Y-79650500D01*
X123277026Y-79669407D01*
X123288839Y-79679496D01*
X123299326Y-79689983D01*
X123321889Y-79724882D01*
X123325182Y-79733566D01*
X123325183Y-79733569D01*
X123332229Y-79743776D01*
X123341029Y-79759378D01*
X123346120Y-79770690D01*
X123383676Y-79818627D01*
X123387218Y-79823441D01*
X123421814Y-79873560D01*
X123421818Y-79873565D01*
X123467389Y-79913937D01*
X123471744Y-79918036D01*
X124081962Y-80528254D01*
X124086060Y-80532609D01*
X124126429Y-80578176D01*
X124126432Y-80578179D01*
X124126436Y-80578183D01*
X124176558Y-80612780D01*
X124181374Y-80616324D01*
X124229309Y-80653878D01*
X124240615Y-80658966D01*
X124256219Y-80667766D01*
X124266435Y-80674818D01*
X124275118Y-80678111D01*
X124310016Y-80700673D01*
X124669208Y-81059865D01*
X124696985Y-81114382D01*
X124698204Y-81129869D01*
X124698204Y-81340709D01*
X124698023Y-81346688D01*
X124694345Y-81407469D01*
X124705326Y-81467394D01*
X124706225Y-81473302D01*
X124713564Y-81533738D01*
X124713565Y-81533740D01*
X124717959Y-81545326D01*
X124722771Y-81562588D01*
X124725007Y-81574791D01*
X124725009Y-81574798D01*
X124750006Y-81630338D01*
X124752285Y-81635839D01*
X124762238Y-81662081D01*
X124773887Y-81692798D01*
X124773887Y-81692799D01*
X124780933Y-81703006D01*
X124789733Y-81718608D01*
X124794824Y-81729920D01*
X124832380Y-81777857D01*
X124835922Y-81782671D01*
X124870518Y-81832790D01*
X124870521Y-81832794D01*
X124870523Y-81832796D01*
X124870527Y-81832800D01*
X124916094Y-81873169D01*
X124920447Y-81877266D01*
X124947475Y-81904294D01*
X124947490Y-81904307D01*
X124977576Y-81927878D01*
X124982159Y-81931697D01*
X124997852Y-81945599D01*
X124997853Y-81945599D01*
X124997855Y-81945601D01*
X125000248Y-81947253D01*
X125012030Y-81954870D01*
X125047792Y-81982888D01*
X125047793Y-81982888D01*
X125047794Y-81982889D01*
X125125354Y-82017796D01*
X125202917Y-82052705D01*
X125370243Y-82083368D01*
X125540045Y-82073096D01*
X125702455Y-82022488D01*
X125765649Y-81984284D01*
X125825225Y-81970362D01*
X125867974Y-81985823D01*
X125868359Y-81985100D01*
X125873431Y-81987796D01*
X125873535Y-81987834D01*
X125873645Y-81987911D01*
X126032377Y-82049087D01*
X126158792Y-82065127D01*
X128503360Y-82077732D01*
X128561449Y-82096952D01*
X128572832Y-82106727D01*
X130080504Y-83614399D01*
X130108281Y-83668916D01*
X130109500Y-83684403D01*
X130109500Y-95920500D01*
X130090593Y-95978691D01*
X130041093Y-96014655D01*
X130010500Y-96019500D01*
X124346309Y-96019500D01*
X124288118Y-96000593D01*
X124276305Y-95990504D01*
X119890093Y-91604291D01*
X119862316Y-91549774D01*
X119871887Y-91489342D01*
X119915152Y-91446077D01*
X119960097Y-91435287D01*
X120026360Y-91435287D01*
X120026364Y-91435287D01*
X120026370Y-91435286D01*
X120026373Y-91435286D01*
X120043881Y-91433160D01*
X120152864Y-91419927D01*
X120208134Y-91398965D01*
X120243239Y-91392533D01*
X120443007Y-91392533D01*
X120478111Y-91398965D01*
X120533382Y-91419927D01*
X120637555Y-91432576D01*
X120659872Y-91435286D01*
X120659876Y-91435286D01*
X120659882Y-91435287D01*
X120668259Y-91435287D01*
X120687092Y-91437094D01*
X120695241Y-91438674D01*
X120760114Y-91435411D01*
X120765086Y-91435287D01*
X120787377Y-91435287D01*
X120787380Y-91435287D01*
X120801440Y-91433579D01*
X120808382Y-91432984D01*
X120865139Y-91430131D01*
X120865142Y-91430130D01*
X120865143Y-91430130D01*
X120880943Y-91425382D01*
X120897501Y-91421915D01*
X120913880Y-91419927D01*
X120967041Y-91399764D01*
X120973604Y-91397537D01*
X121028054Y-91381177D01*
X121042262Y-91372783D01*
X121057509Y-91365456D01*
X121057670Y-91365394D01*
X121072938Y-91359605D01*
X121119733Y-91327303D01*
X121125577Y-91323567D01*
X121174521Y-91294656D01*
X121186305Y-91283108D01*
X121199355Y-91272344D01*
X121212937Y-91262970D01*
X121250644Y-91220406D01*
X121255423Y-91215381D01*
X121265538Y-91205471D01*
X121279476Y-91188047D01*
X121282639Y-91184290D01*
X121325742Y-91135639D01*
X121325743Y-91135636D01*
X121329143Y-91130712D01*
X121329196Y-91130748D01*
X121339057Y-91116461D01*
X121359945Y-91092885D01*
X121386364Y-91042546D01*
X121389802Y-91036522D01*
X121419710Y-90988168D01*
X121424779Y-90972460D01*
X121431329Y-90956872D01*
X121439001Y-90942258D01*
X121452602Y-90887068D01*
X121454511Y-90880359D01*
X121461934Y-90857364D01*
X121471969Y-90826281D01*
X121473132Y-90809813D01*
X121475763Y-90793103D01*
X121479711Y-90777089D01*
X121479711Y-90720264D01*
X121479958Y-90713281D01*
X121483966Y-90656599D01*
X121483965Y-90656596D01*
X121483966Y-90656593D01*
X121481156Y-90640326D01*
X121479711Y-90623474D01*
X121479711Y-90606980D01*
X121479711Y-90606977D01*
X121466109Y-90551793D01*
X121464679Y-90544963D01*
X121455005Y-90488964D01*
X121448386Y-90473847D01*
X121442951Y-90457837D01*
X121439001Y-90441808D01*
X121438999Y-90441805D01*
X121438999Y-90441803D01*
X121412589Y-90391485D01*
X121409574Y-90385213D01*
X121386771Y-90333136D01*
X121384701Y-90330439D01*
X121376722Y-90320037D01*
X121367609Y-90305784D01*
X121366293Y-90303277D01*
X121359945Y-90291181D01*
X121322252Y-90248635D01*
X121317840Y-90243286D01*
X121283226Y-90198167D01*
X121270339Y-90187857D01*
X121258083Y-90176202D01*
X121247142Y-90163852D01*
X121247141Y-90163851D01*
X121247140Y-90163850D01*
X121200369Y-90131566D01*
X121194767Y-90127399D01*
X121150393Y-90091900D01*
X121150386Y-90091896D01*
X121135411Y-90084972D01*
X121120722Y-90076589D01*
X121107144Y-90067217D01*
X121107143Y-90067216D01*
X121107141Y-90067215D01*
X121107139Y-90067214D01*
X121107137Y-90067213D01*
X121054005Y-90047062D01*
X121047566Y-90044356D01*
X120995988Y-90020509D01*
X120995986Y-90020508D01*
X120979769Y-90017365D01*
X120963506Y-90012741D01*
X120948089Y-90006894D01*
X120948084Y-90006893D01*
X120891671Y-90000042D01*
X120884775Y-89998956D01*
X120828976Y-89988144D01*
X120764093Y-89991408D01*
X120759120Y-89991533D01*
X119984364Y-89991533D01*
X119857874Y-90006893D01*
X119834515Y-90015752D01*
X119802604Y-90027854D01*
X119767499Y-90034287D01*
X119439309Y-90034287D01*
X119433331Y-90034106D01*
X119430161Y-90033914D01*
X119372549Y-90030428D01*
X119312624Y-90041409D01*
X119306716Y-90042308D01*
X119246280Y-90049647D01*
X119234683Y-90054045D01*
X119217436Y-90058853D01*
X119205220Y-90061092D01*
X119205219Y-90061092D01*
X119149682Y-90086088D01*
X119144158Y-90088376D01*
X119087230Y-90109966D01*
X119087220Y-90109971D01*
X119077012Y-90117017D01*
X119061413Y-90125815D01*
X119050098Y-90130907D01*
X119050098Y-90130908D01*
X119050097Y-90130909D01*
X119002142Y-90168477D01*
X118997340Y-90172011D01*
X118947225Y-90206603D01*
X118906841Y-90252186D01*
X118902744Y-90256538D01*
X118461383Y-90697901D01*
X118406866Y-90725679D01*
X118391379Y-90726898D01*
X118138095Y-90726898D01*
X118079904Y-90707991D01*
X118068091Y-90697902D01*
X117711696Y-90341507D01*
X117355133Y-89984944D01*
X117254823Y-89906356D01*
X117166834Y-89866755D01*
X117099699Y-89836539D01*
X117099694Y-89836538D01*
X116932372Y-89805875D01*
X116762574Y-89816147D01*
X116762570Y-89816147D01*
X116762570Y-89816148D01*
X116730463Y-89826152D01*
X116600160Y-89866755D01*
X116600158Y-89866756D01*
X116454582Y-89954761D01*
X116334293Y-90075050D01*
X116246288Y-90220626D01*
X116246287Y-90220628D01*
X116208621Y-90341507D01*
X116195862Y-90382456D01*
X116195679Y-90383042D01*
X116185407Y-90552841D01*
X100060499Y-90552841D01*
X100060499Y-78652732D01*
X110415204Y-78652732D01*
X110433639Y-78780955D01*
X110469740Y-78860003D01*
X110487455Y-78898793D01*
X110562103Y-78984943D01*
X110572289Y-78996698D01*
X110681263Y-79066731D01*
X110681268Y-79066734D01*
X110805565Y-79103230D01*
X110854858Y-79103230D01*
X110913049Y-79122137D01*
X110924862Y-79132226D01*
X111989043Y-80196407D01*
X111997144Y-80207647D01*
X111998123Y-80206909D01*
X112003651Y-80214230D01*
X112038331Y-80245845D01*
X112041639Y-80249003D01*
X112054810Y-80262174D01*
X112054902Y-80262237D01*
X112065649Y-80270750D01*
X112086671Y-80289914D01*
X112086672Y-80289914D01*
X112086674Y-80289916D01*
X112095832Y-80293463D01*
X112116019Y-80304103D01*
X112124126Y-80309657D01*
X112151817Y-80316169D01*
X112164902Y-80320221D01*
X112191434Y-80330500D01*
X112201259Y-80330500D01*
X112223923Y-80333129D01*
X112233488Y-80335379D01*
X112258565Y-80331880D01*
X112261661Y-80331449D01*
X112275338Y-80330500D01*
X115340423Y-80330500D01*
X115398614Y-80349407D01*
X115430475Y-80388371D01*
X115448498Y-80427836D01*
X115533331Y-80525740D01*
X115533332Y-80525741D01*
X115642306Y-80595774D01*
X115642311Y-80595777D01*
X115766608Y-80632273D01*
X115766610Y-80632273D01*
X115896150Y-80632273D01*
X115896152Y-80632273D01*
X116020449Y-80595777D01*
X116129429Y-80525740D01*
X116214262Y-80427836D01*
X116268077Y-80309999D01*
X116284345Y-80196850D01*
X116311340Y-80141943D01*
X116365454Y-80113389D01*
X116426017Y-80122096D01*
X116457157Y-80146108D01*
X116541952Y-80243968D01*
X116635526Y-80304104D01*
X116650931Y-80314004D01*
X116775228Y-80350500D01*
X116775230Y-80350500D01*
X116904770Y-80350500D01*
X116904772Y-80350500D01*
X117029069Y-80314004D01*
X117138049Y-80243967D01*
X117222882Y-80146063D01*
X117276697Y-80028226D01*
X117295133Y-79900000D01*
X117291341Y-79873629D01*
X117276697Y-79771774D01*
X117271036Y-79759378D01*
X117222882Y-79653937D01*
X117138049Y-79556033D01*
X117138048Y-79556032D01*
X117138047Y-79556031D01*
X117029073Y-79485998D01*
X117029070Y-79485996D01*
X117029069Y-79485996D01*
X117002460Y-79478183D01*
X116904774Y-79449500D01*
X116904772Y-79449500D01*
X116855479Y-79449500D01*
X116797288Y-79430593D01*
X116785475Y-79420504D01*
X116748565Y-79383594D01*
X116740480Y-79372345D01*
X116739488Y-79373095D01*
X116731648Y-79362713D01*
X116729863Y-79357547D01*
X116729830Y-79357480D01*
X116729838Y-79357475D01*
X116711669Y-79304882D01*
X116729498Y-79246352D01*
X116750383Y-79224512D01*
X116840451Y-79155401D01*
X116932698Y-79035183D01*
X116990687Y-78895186D01*
X117005500Y-78782670D01*
X117005500Y-78479388D01*
X117024407Y-78421197D01*
X117034496Y-78409384D01*
X117283612Y-78160268D01*
X117535660Y-77908220D01*
X118485692Y-76958186D01*
X118495413Y-76949662D01*
X118520451Y-76930451D01*
X118538647Y-76906737D01*
X118538656Y-76906726D01*
X118543610Y-76900268D01*
X118543612Y-76900268D01*
X118612698Y-76810233D01*
X118670687Y-76670236D01*
X118683237Y-76574908D01*
X118685500Y-76557720D01*
X118685500Y-76557714D01*
X118690465Y-76520000D01*
X118686347Y-76488718D01*
X118685500Y-76475797D01*
X118685500Y-66714500D01*
X118704407Y-66656309D01*
X118753907Y-66620345D01*
X118784500Y-66615500D01*
X118919977Y-66615500D01*
X118932896Y-66616346D01*
X118964179Y-66620465D01*
X118964180Y-66620465D01*
X118995459Y-66616347D01*
X119008381Y-66615500D01*
X126906391Y-66615500D01*
X126964582Y-66634407D01*
X126976395Y-66644496D01*
X136555504Y-76223605D01*
X136583281Y-76278122D01*
X136584500Y-76293609D01*
X136584500Y-83844807D01*
X136565593Y-83902998D01*
X136516093Y-83938962D01*
X136485500Y-83943807D01*
X136435222Y-83943807D01*
X136310930Y-83980302D01*
X136310923Y-83980305D01*
X136201949Y-84050338D01*
X136117114Y-84148245D01*
X136063299Y-84266081D01*
X136044864Y-84394304D01*
X136044864Y-84394309D01*
X136063299Y-84522532D01*
X136117114Y-84640368D01*
X136117115Y-84640370D01*
X136155388Y-84684540D01*
X136201949Y-84738275D01*
X136305399Y-84804758D01*
X136310928Y-84808311D01*
X136435225Y-84844807D01*
X136435227Y-84844807D01*
X136564767Y-84844807D01*
X136564769Y-84844807D01*
X136687904Y-84808652D01*
X136749061Y-84810399D01*
X136776056Y-84825098D01*
X136869767Y-84897005D01*
X137009764Y-84954994D01*
X137122441Y-84969828D01*
X137159999Y-84974773D01*
X137160000Y-84974773D01*
X137160001Y-84974773D01*
X137190047Y-84970817D01*
X137310236Y-84954994D01*
X137450233Y-84897005D01*
X137570451Y-84804758D01*
X137662698Y-84684540D01*
X137720687Y-84544543D01*
X137735500Y-84432027D01*
X137735500Y-76058429D01*
X137736347Y-76045506D01*
X137738425Y-76029727D01*
X137740466Y-76014221D01*
X137720687Y-75863986D01*
X137662699Y-75723989D01*
X137593612Y-75633953D01*
X137591650Y-75631396D01*
X137591638Y-75631381D01*
X137570451Y-75603770D01*
X137570450Y-75603769D01*
X137545418Y-75584561D01*
X137535682Y-75576023D01*
X127623971Y-65664312D01*
X127615433Y-65654575D01*
X127596230Y-65629549D01*
X127596229Y-65629548D01*
X127566085Y-65606417D01*
X127566068Y-65606404D01*
X127566049Y-65606390D01*
X127566047Y-65606388D01*
X127476012Y-65537302D01*
X127476011Y-65537301D01*
X127476009Y-65537300D01*
X127464133Y-65532381D01*
X127464132Y-65532381D01*
X127358788Y-65488746D01*
X140989005Y-65488746D01*
X140989006Y-65488758D01*
X141000637Y-65547227D01*
X141000639Y-65547233D01*
X141042381Y-65609703D01*
X141044953Y-65613552D01*
X141111274Y-65657867D01*
X141155736Y-65666711D01*
X141169746Y-65669498D01*
X141169751Y-65669498D01*
X141169757Y-65669500D01*
X141169758Y-65669500D01*
X142607252Y-65669500D01*
X142607253Y-65669500D01*
X142665736Y-65657867D01*
X142732057Y-65613552D01*
X142776372Y-65547231D01*
X142788005Y-65488748D01*
X142788005Y-64770000D01*
X143524050Y-64770000D01*
X143543287Y-64953029D01*
X143543815Y-64958047D01*
X143602244Y-65137875D01*
X143602245Y-65137877D01*
X143602246Y-65137879D01*
X143602246Y-65137880D01*
X143682741Y-65277299D01*
X143696786Y-65301625D01*
X143823306Y-65442141D01*
X143976277Y-65553281D01*
X143976281Y-65553283D01*
X143976283Y-65553284D01*
X144033449Y-65578735D01*
X144149013Y-65630188D01*
X144333964Y-65669500D01*
X144333967Y-65669500D01*
X144523043Y-65669500D01*
X144523046Y-65669500D01*
X144707997Y-65630188D01*
X144880733Y-65553281D01*
X145033704Y-65442141D01*
X145160224Y-65301625D01*
X145254766Y-65137875D01*
X145313195Y-64958047D01*
X145332960Y-64770000D01*
X146064050Y-64770000D01*
X146083287Y-64953029D01*
X146083815Y-64958047D01*
X146142244Y-65137875D01*
X146142245Y-65137877D01*
X146142246Y-65137879D01*
X146142246Y-65137880D01*
X146222741Y-65277299D01*
X146236786Y-65301625D01*
X146363306Y-65442141D01*
X146516277Y-65553281D01*
X146516281Y-65553283D01*
X146516283Y-65553284D01*
X146573449Y-65578735D01*
X146689013Y-65630188D01*
X146873964Y-65669500D01*
X146873967Y-65669500D01*
X147063043Y-65669500D01*
X147063046Y-65669500D01*
X147247997Y-65630188D01*
X147420733Y-65553281D01*
X147573704Y-65442141D01*
X147700224Y-65301625D01*
X147794766Y-65137875D01*
X147853195Y-64958047D01*
X147872960Y-64770000D01*
X147853195Y-64581953D01*
X147794766Y-64402125D01*
X147793597Y-64400101D01*
X147752632Y-64329147D01*
X147700224Y-64238375D01*
X147573704Y-64097859D01*
X147420733Y-63986719D01*
X147420729Y-63986717D01*
X147420726Y-63986715D01*
X147247999Y-63909813D01*
X147247994Y-63909811D01*
X147175959Y-63894500D01*
X147063046Y-63870500D01*
X146873964Y-63870500D01*
X146776703Y-63891172D01*
X146689015Y-63909811D01*
X146689010Y-63909813D01*
X146516284Y-63986715D01*
X146516276Y-63986720D01*
X146363308Y-64097856D01*
X146236785Y-64238376D01*
X146142246Y-64402119D01*
X146142246Y-64402120D01*
X146142246Y-64402121D01*
X146142244Y-64402125D01*
X146137047Y-64418121D01*
X146083815Y-64581951D01*
X146064050Y-64770000D01*
X145332960Y-64770000D01*
X145313195Y-64581953D01*
X145254766Y-64402125D01*
X145253597Y-64400101D01*
X145212632Y-64329147D01*
X145160224Y-64238375D01*
X145033704Y-64097859D01*
X144880733Y-63986719D01*
X144880729Y-63986717D01*
X144880726Y-63986715D01*
X144707999Y-63909813D01*
X144707994Y-63909811D01*
X144635959Y-63894500D01*
X144523046Y-63870500D01*
X144333964Y-63870500D01*
X144236703Y-63891172D01*
X144149015Y-63909811D01*
X144149010Y-63909813D01*
X143976284Y-63986715D01*
X143976276Y-63986720D01*
X143823308Y-64097856D01*
X143696785Y-64238376D01*
X143602246Y-64402119D01*
X143602246Y-64402120D01*
X143602246Y-64402121D01*
X143602244Y-64402125D01*
X143597047Y-64418121D01*
X143543815Y-64581951D01*
X143524050Y-64770000D01*
X142788005Y-64770000D01*
X142788005Y-64051252D01*
X142776372Y-63992769D01*
X142732057Y-63926448D01*
X142732053Y-63926445D01*
X142665738Y-63882134D01*
X142665736Y-63882133D01*
X142665733Y-63882132D01*
X142665732Y-63882132D01*
X142607263Y-63870501D01*
X142607253Y-63870500D01*
X141169757Y-63870500D01*
X141169756Y-63870500D01*
X141169746Y-63870501D01*
X141111277Y-63882132D01*
X141111271Y-63882134D01*
X141044956Y-63926445D01*
X141044950Y-63926451D01*
X141000639Y-63992766D01*
X141000637Y-63992772D01*
X140989006Y-64051241D01*
X140989005Y-64051253D01*
X140989005Y-65488746D01*
X127358788Y-65488746D01*
X127336015Y-65479313D01*
X127336012Y-65479312D01*
X127336011Y-65479312D01*
X127220298Y-65464078D01*
X127220273Y-65464076D01*
X127185780Y-65459535D01*
X127185778Y-65459535D01*
X127154499Y-65463653D01*
X127141577Y-65464500D01*
X119130012Y-65464500D01*
X119098390Y-65458210D01*
X119098286Y-65458599D01*
X119092361Y-65457011D01*
X119092131Y-65456965D01*
X119092021Y-65456920D01*
X119092020Y-65456919D01*
X119092018Y-65456919D01*
X118941787Y-65437142D01*
X118941785Y-65437142D01*
X118791553Y-65456919D01*
X118791551Y-65456920D01*
X118791440Y-65456965D01*
X118791210Y-65457011D01*
X118785286Y-65458599D01*
X118785181Y-65458210D01*
X118753560Y-65464500D01*
X118154209Y-65464500D01*
X118141287Y-65463653D01*
X118110001Y-65459534D01*
X118110000Y-65459534D01*
X118072280Y-65464500D01*
X117959767Y-65479312D01*
X117959761Y-65479314D01*
X117819768Y-65537301D01*
X117699551Y-65629547D01*
X117699547Y-65629551D01*
X117607301Y-65749768D01*
X117549314Y-65889761D01*
X117549312Y-65889767D01*
X117529534Y-66039999D01*
X117533653Y-66071285D01*
X117534500Y-66084208D01*
X117534500Y-76240612D01*
X117515593Y-76298803D01*
X117505504Y-76310616D01*
X116469732Y-77346388D01*
X116469731Y-77346388D01*
X116054317Y-77761801D01*
X116044585Y-77770336D01*
X116019554Y-77789544D01*
X116019542Y-77789556D01*
X115995387Y-77821035D01*
X115995317Y-77821127D01*
X115995307Y-77821140D01*
X115928488Y-77908220D01*
X115928484Y-77908226D01*
X115927302Y-77909767D01*
X115927300Y-77909770D01*
X115869314Y-78049762D01*
X115869312Y-78049767D01*
X115854077Y-78165493D01*
X115854076Y-78165504D01*
X115849535Y-78199998D01*
X115849535Y-78200000D01*
X115853653Y-78231280D01*
X115854500Y-78244202D01*
X115854500Y-78782673D01*
X115860576Y-78828827D01*
X115860416Y-78855831D01*
X115859817Y-78859999D01*
X115859817Y-78860003D01*
X115878252Y-78988225D01*
X115889046Y-79011859D01*
X115930774Y-79103230D01*
X115933580Y-79109373D01*
X115940555Y-79170160D01*
X115910469Y-79223437D01*
X115854813Y-79248855D01*
X115843527Y-79249500D01*
X113642509Y-79249500D01*
X113584318Y-79230593D01*
X113572505Y-79220504D01*
X113344889Y-78992888D01*
X113317112Y-78938371D01*
X113316901Y-78936972D01*
X113316525Y-78934360D01*
X113309008Y-78882071D01*
X113298091Y-78806138D01*
X113249516Y-78699776D01*
X113244275Y-78688300D01*
X113159442Y-78590396D01*
X113159441Y-78590395D01*
X113159440Y-78590394D01*
X113050466Y-78520361D01*
X113050463Y-78520359D01*
X113050462Y-78520359D01*
X113050459Y-78520358D01*
X112926167Y-78483863D01*
X112926165Y-78483863D01*
X112796621Y-78483863D01*
X112796618Y-78483863D01*
X112672326Y-78520358D01*
X112672319Y-78520361D01*
X112563345Y-78590394D01*
X112478510Y-78688301D01*
X112424695Y-78806137D01*
X112406260Y-78934360D01*
X112406260Y-78934365D01*
X112424695Y-79062588D01*
X112478510Y-79180424D01*
X112478511Y-79180426D01*
X112537804Y-79248855D01*
X112563345Y-79278331D01*
X112618656Y-79313877D01*
X112672324Y-79348367D01*
X112796621Y-79384863D01*
X112845914Y-79384863D01*
X112904105Y-79403770D01*
X112915918Y-79413859D01*
X113062555Y-79560496D01*
X113090332Y-79615013D01*
X113080761Y-79675445D01*
X113037496Y-79718710D01*
X112992551Y-79729500D01*
X112413086Y-79729500D01*
X112354895Y-79710593D01*
X112343082Y-79700504D01*
X111353833Y-78711255D01*
X111326056Y-78656738D01*
X111325845Y-78655339D01*
X111325469Y-78652727D01*
X111316508Y-78590396D01*
X111307035Y-78524505D01*
X111260136Y-78421814D01*
X111253219Y-78406667D01*
X111168386Y-78308763D01*
X111168385Y-78308762D01*
X111168384Y-78308761D01*
X111059410Y-78238728D01*
X111059407Y-78238726D01*
X111059406Y-78238726D01*
X111059403Y-78238725D01*
X110935111Y-78202230D01*
X110935109Y-78202230D01*
X110805565Y-78202230D01*
X110805562Y-78202230D01*
X110681270Y-78238725D01*
X110681263Y-78238728D01*
X110572289Y-78308761D01*
X110487454Y-78406668D01*
X110433639Y-78524504D01*
X110415204Y-78652727D01*
X110415204Y-78652732D01*
X100060499Y-78652732D01*
X100060499Y-62069603D01*
X100079406Y-62011412D01*
X100128906Y-61975448D01*
X100159499Y-61970603D01*
X189330499Y-61970603D01*
X189388690Y-61989510D01*
G37*
%TD.AperFunction*%
%TD*%
M02*
