%TF.GenerationSoftware,KiCad,Pcbnew,7.0.10*%
%TF.CreationDate,2024-05-16T11:59:50+01:00*%
%TF.ProjectId,RF_Race_Car,52465f52-6163-4655-9f43-61722e6b6963,rev?*%
%TF.SameCoordinates,Original*%
%TF.FileFunction,Other,User*%
%FSLAX46Y46*%
G04 Gerber Fmt 4.6, Leading zero omitted, Abs format (unit mm)*
G04 Created by KiCad (PCBNEW 7.0.10) date 2024-05-16 11:59:50*
%MOMM*%
%LPD*%
G01*
G04 APERTURE LIST*
%ADD10C,0.050000*%
%ADD11C,0.152400*%
%ADD12C,0.100000*%
G04 APERTURE END LIST*
D10*
%TO.C,C4*%
X116360000Y-90160000D02*
X114540000Y-90160000D01*
X116360000Y-89240000D02*
X116360000Y-90160000D01*
X114540000Y-90160000D02*
X114540000Y-89240000D01*
X114540000Y-89240000D02*
X116360000Y-89240000D01*
%TO.C,C3*%
X122660000Y-90140000D02*
X122660000Y-91960000D01*
X121740000Y-90140000D02*
X122660000Y-90140000D01*
X122660000Y-91960000D02*
X121740000Y-91960000D01*
X121740000Y-91960000D02*
X121740000Y-90140000D01*
%TO.C,R1*%
X150017336Y-84808167D02*
X150017336Y-81848167D01*
X151477336Y-84808167D02*
X150017336Y-84808167D01*
X150017336Y-81848167D02*
X151477336Y-81848167D01*
X151477336Y-81848167D02*
X151477336Y-84808167D01*
%TO.C,C14*%
X117080898Y-74842868D02*
X117080898Y-76662868D01*
X116160898Y-74842868D02*
X117080898Y-74842868D01*
X117080898Y-76662868D02*
X116160898Y-76662868D01*
X116160898Y-76662868D02*
X116160898Y-74842868D01*
%TO.C,C15*%
X142804252Y-105166943D02*
X142804252Y-103346943D01*
X143724252Y-105166943D02*
X142804252Y-105166943D01*
X142804252Y-103346943D02*
X143724252Y-103346943D01*
X143724252Y-103346943D02*
X143724252Y-105166943D01*
%TO.C,R3*%
X120130000Y-101005000D02*
X120130000Y-103965000D01*
X118670000Y-101005000D02*
X120130000Y-101005000D01*
X120130000Y-103965000D02*
X118670000Y-103965000D01*
X118670000Y-103965000D02*
X118670000Y-101005000D01*
%TO.C,L1*%
X124079775Y-83760250D02*
X127039775Y-83760250D01*
X124079775Y-85220250D02*
X124079775Y-83760250D01*
X127039775Y-83760250D02*
X127039775Y-85220250D01*
X127039775Y-85220250D02*
X124079775Y-85220250D01*
%TO.C,J5*%
X167390000Y-63270000D02*
X188210000Y-63270000D01*
X167390000Y-66270000D02*
X167390000Y-63270000D01*
X188210000Y-63270000D02*
X188210000Y-66270000D01*
X188210000Y-66270000D02*
X167390000Y-66270000D01*
%TO.C,IC1*%
X114950000Y-80700000D02*
X123250000Y-80700000D01*
X114950000Y-89000000D02*
X114950000Y-80700000D01*
X123250000Y-80700000D02*
X123250000Y-89000000D01*
X123250000Y-89000000D02*
X114950000Y-89000000D01*
%TO.C,C10*%
X117440000Y-79310000D02*
X117440000Y-77490000D01*
X118360000Y-79310000D02*
X117440000Y-79310000D01*
X117440000Y-77490000D02*
X118360000Y-77490000D01*
X118360000Y-77490000D02*
X118360000Y-79310000D01*
%TO.C,S1*%
X150102171Y-78980549D02*
X150702171Y-78980549D01*
X150102171Y-81180549D02*
X150102171Y-78980549D01*
X150702171Y-78580549D02*
X154202171Y-78580549D01*
X150702171Y-78980549D02*
X150702171Y-78580549D01*
X150702171Y-81180549D02*
X150102171Y-81180549D01*
X150702171Y-81580549D02*
X150702171Y-81180549D01*
X154202171Y-78580549D02*
X154202171Y-78980549D01*
X154202171Y-78980549D02*
X154802171Y-78980549D01*
X154202171Y-81180549D02*
X154202171Y-81580549D01*
X154202171Y-81580549D02*
X150702171Y-81580549D01*
X154802171Y-78980549D02*
X154802171Y-81180549D01*
X154802171Y-81180549D02*
X154202171Y-81180549D01*
%TO.C,C2*%
X111830000Y-92160000D02*
X110010000Y-92160000D01*
X111830000Y-91240000D02*
X111830000Y-92160000D01*
X110010000Y-92160000D02*
X110010000Y-91240000D01*
X110010000Y-91240000D02*
X111830000Y-91240000D01*
D11*
%TO.C,U1*%
X144499000Y-111983200D02*
X142773999Y-111983200D01*
X144499000Y-107925200D02*
X144499000Y-111983200D01*
X143924000Y-107925200D02*
X144499000Y-107925200D01*
X143924000Y-105591400D02*
X143924000Y-107925200D01*
X142773999Y-114317000D02*
X139166001Y-114317000D01*
X142773999Y-111983200D02*
X142773999Y-114317000D01*
X139166001Y-114317000D02*
X139166001Y-111983200D01*
X139166001Y-111983200D02*
X137441000Y-111983200D01*
X138016000Y-107925200D02*
X138016000Y-105591400D01*
X138016000Y-105591400D02*
X143924000Y-105591400D01*
X137441000Y-111983200D02*
X137441000Y-107925200D01*
X137441000Y-107925200D02*
X138016000Y-107925200D01*
D10*
%TO.C,C8*%
X110952165Y-82156583D02*
X112772165Y-82156583D01*
X110952165Y-83076583D02*
X110952165Y-82156583D01*
X112772165Y-82156583D02*
X112772165Y-83076583D01*
X112772165Y-83076583D02*
X110952165Y-83076583D01*
%TO.C,TP1*%
X130550000Y-64550000D02*
X130550000Y-68050000D01*
X130550000Y-64550000D02*
X134050000Y-64550000D01*
X134050000Y-68050000D02*
X130550000Y-68050000D01*
X134050000Y-68050000D02*
X134050000Y-64550000D01*
%TO.C,J3*%
X149610000Y-111530000D02*
X170430000Y-111530000D01*
X149610000Y-114530000D02*
X149610000Y-111530000D01*
X170430000Y-111530000D02*
X170430000Y-114530000D01*
X170430000Y-114530000D02*
X149610000Y-114530000D01*
%TO.C,C6*%
X124563153Y-82674516D02*
X126383153Y-82674516D01*
X124563153Y-83594516D02*
X124563153Y-82674516D01*
X126383153Y-82674516D02*
X126383153Y-83594516D01*
X126383153Y-83594516D02*
X124563153Y-83594516D01*
%TO.C,C7*%
X119690000Y-79290000D02*
X119690000Y-77470000D01*
X120610000Y-79290000D02*
X119690000Y-79290000D01*
X119690000Y-77470000D02*
X120610000Y-77470000D01*
X120610000Y-77470000D02*
X120610000Y-79290000D01*
%TO.C,J4*%
X140568505Y-63350000D02*
X166068505Y-63350000D01*
X140568505Y-66190000D02*
X140568505Y-63350000D01*
X166068505Y-63350000D02*
X166068505Y-66190000D01*
X166068505Y-66190000D02*
X140568505Y-66190000D01*
%TO.C,J2*%
X139655000Y-98675000D02*
X143555000Y-98675000D01*
X143555000Y-98675000D02*
X143555000Y-91825000D01*
X139655000Y-91825000D02*
X139655000Y-98675000D01*
X143555000Y-91825000D02*
X139655000Y-91825000D01*
%TO.C,FL1*%
X130035000Y-107415000D02*
X130035000Y-104445000D01*
X131505000Y-107415000D02*
X130035000Y-107415000D01*
X131505000Y-107415000D02*
X131505000Y-104445000D01*
X131505000Y-104445000D02*
X130035000Y-104445000D01*
%TO.C,C5*%
X121240000Y-90060000D02*
X119420000Y-90060000D01*
X121240000Y-89140000D02*
X121240000Y-90060000D01*
X119420000Y-90060000D02*
X119420000Y-89140000D01*
X119420000Y-89140000D02*
X121240000Y-89140000D01*
%TO.C,TP2*%
X112602326Y-64541166D02*
X112602326Y-68041166D01*
X112602326Y-64541166D02*
X116102326Y-64541166D01*
X116102326Y-68041166D02*
X112602326Y-68041166D01*
X116102326Y-68041166D02*
X116102326Y-64541166D01*
%TO.C,S2*%
X171966025Y-73640187D02*
X171966025Y-73040187D01*
X174166025Y-73640187D02*
X171966025Y-73640187D01*
X171566025Y-73040187D02*
X171566025Y-69540187D01*
X171966025Y-73040187D02*
X171566025Y-73040187D01*
X174166025Y-73040187D02*
X174166025Y-73640187D01*
X174566025Y-73040187D02*
X174166025Y-73040187D01*
X171566025Y-69540187D02*
X171966025Y-69540187D01*
X171966025Y-69540187D02*
X171966025Y-68940187D01*
X174166025Y-69540187D02*
X174566025Y-69540187D01*
X174566025Y-69540187D02*
X174566025Y-73040187D01*
X171966025Y-68940187D02*
X174166025Y-68940187D01*
X174166025Y-68940187D02*
X174166025Y-69540187D01*
%TO.C,C11*%
X114940000Y-79290000D02*
X114940000Y-77470000D01*
X115860000Y-79290000D02*
X114940000Y-79290000D01*
X114940000Y-77470000D02*
X115860000Y-77470000D01*
X115860000Y-77470000D02*
X115860000Y-79290000D01*
%TO.C,C1*%
X108046064Y-91212773D02*
X109866064Y-91212773D01*
X108046064Y-92132773D02*
X108046064Y-91212773D01*
X109866064Y-91212773D02*
X109866064Y-92132773D01*
X109866064Y-92132773D02*
X108046064Y-92132773D01*
%TO.C,D3*%
X118650000Y-108342500D02*
X118650000Y-105382500D01*
X120110000Y-108342500D02*
X118650000Y-108342500D01*
X118650000Y-105382500D02*
X120110000Y-105382500D01*
X120110000Y-105382500D02*
X120110000Y-108342500D01*
D11*
%TO.C,Y1*%
X114244444Y-78276494D02*
X111037044Y-78276494D01*
X114244444Y-78270794D02*
X114244444Y-78276494D01*
X114244444Y-78270794D02*
X114244444Y-78270794D01*
X114244444Y-74573794D02*
X114244444Y-78270794D01*
X114244444Y-74573794D02*
X114244444Y-74573794D01*
X114244444Y-74568094D02*
X114244444Y-74573794D01*
X111940044Y-78276494D02*
X111940044Y-78276494D01*
X111940044Y-78276494D02*
X108732644Y-78276494D01*
X111940044Y-74568094D02*
X111940044Y-74568094D01*
X111940044Y-74568094D02*
X111037044Y-74568094D01*
X111037044Y-78276494D02*
X111940044Y-78276494D01*
X111037044Y-78276494D02*
X111037044Y-78276494D01*
X111037044Y-74568094D02*
X114244444Y-74568094D01*
X111037044Y-74568094D02*
X111037044Y-74568094D01*
X108732644Y-78276494D02*
X108732644Y-78270794D01*
X108732644Y-78270794D02*
X108732644Y-78270794D01*
X108732644Y-78270794D02*
X108732644Y-74573794D01*
X108732644Y-74573794D02*
X108732644Y-74573794D01*
X108732644Y-74573794D02*
X108732644Y-74568094D01*
X108732644Y-74568094D02*
X111940044Y-74568094D01*
D10*
%TO.C,C13*%
X115823319Y-74853093D02*
X115823319Y-76673093D01*
X114903319Y-74853093D02*
X115823319Y-74853093D01*
X115823319Y-76673093D02*
X114903319Y-76673093D01*
X114903319Y-76673093D02*
X114903319Y-74853093D01*
%TO.C,C9*%
X129390045Y-84792577D02*
X129390045Y-82972577D01*
X130310045Y-84792577D02*
X129390045Y-84792577D01*
X129390045Y-82972577D02*
X130310045Y-82972577D01*
X130310045Y-82972577D02*
X130310045Y-84792577D01*
%TO.C,D2*%
X116962524Y-108337044D02*
X116962524Y-105377044D01*
X118422524Y-108337044D02*
X116962524Y-108337044D01*
X116962524Y-105377044D02*
X118422524Y-105377044D01*
X118422524Y-105377044D02*
X118422524Y-108337044D01*
%TO.C,D1*%
X156760000Y-82270000D02*
X155660000Y-82270000D01*
X155660000Y-82270000D02*
X155660000Y-84370000D01*
X156760000Y-84370000D02*
X156760000Y-82270000D01*
X155660000Y-84370000D02*
X156760000Y-84370000D01*
%TO.C,J7*%
X172430000Y-111595000D02*
X188170000Y-111595000D01*
X172430000Y-114505000D02*
X172430000Y-111595000D01*
X188170000Y-111595000D02*
X188170000Y-114505000D01*
X188170000Y-114505000D02*
X172430000Y-114505000D01*
%TO.C,J1*%
D12*
X106050000Y-87775000D02*
X99850000Y-87775000D01*
X99850000Y-77375000D01*
X106050000Y-77375000D01*
X106050000Y-87775000D01*
G36*
X106050000Y-87775000D02*
G01*
X99850000Y-87775000D01*
X99850000Y-77375000D01*
X106050000Y-77375000D01*
X106050000Y-87775000D01*
G37*
D10*
%TO.C,C16*%
X138195444Y-105166943D02*
X138195444Y-103346943D01*
X139115444Y-105166943D02*
X138195444Y-105166943D01*
X138195444Y-103346943D02*
X139115444Y-103346943D01*
X139115444Y-103346943D02*
X139115444Y-105166943D01*
%TO.C,Y2*%
X108025586Y-88255584D02*
X108025586Y-90655584D01*
X108025586Y-90655584D02*
X112125586Y-90655584D01*
X112125586Y-88255584D02*
X108025586Y-88255584D01*
X112125586Y-90655584D02*
X112125586Y-88255584D01*
D11*
%TO.C,U2*%
X113295400Y-82978400D02*
X113295400Y-82775200D01*
X114768600Y-82978400D02*
X113295400Y-82978400D01*
X114768600Y-82978400D02*
X114768600Y-82775200D01*
X113079500Y-82775200D02*
X113079500Y-81683000D01*
X113295400Y-82775200D02*
X113079500Y-82775200D01*
X114984500Y-82775200D02*
X114768600Y-82775200D01*
X113079500Y-81683000D02*
X113295400Y-81683000D01*
X114768600Y-81683000D02*
X114984500Y-81683000D01*
X114984500Y-81683000D02*
X114984500Y-82775200D01*
X113295400Y-81479800D02*
X113295400Y-81683000D01*
X113295400Y-81479800D02*
X114768600Y-81479800D01*
X114768600Y-81479800D02*
X114768600Y-81683000D01*
D10*
%TO.C,C12*%
X153398726Y-82390159D02*
X153398726Y-84210159D01*
X152478726Y-82390159D02*
X153398726Y-82390159D01*
X153398726Y-84210159D02*
X152478726Y-84210159D01*
X152478726Y-84210159D02*
X152478726Y-82390159D01*
%TO.C,R2*%
X118430948Y-100979031D02*
X118430948Y-103939031D01*
X116970948Y-100979031D02*
X118430948Y-100979031D01*
X118430948Y-103939031D02*
X116970948Y-103939031D01*
X116970948Y-103939031D02*
X116970948Y-100979031D01*
%TD*%
M02*
