%TF.GenerationSoftware,KiCad,Pcbnew,7.0.10*%
%TF.CreationDate,2024-05-16T11:59:50+01:00*%
%TF.ProjectId,RF_Race_Car,52465f52-6163-4655-9f43-61722e6b6963,rev?*%
%TF.SameCoordinates,Original*%
%TF.FileFunction,Soldermask,Top*%
%TF.FilePolarity,Negative*%
%FSLAX46Y46*%
G04 Gerber Fmt 4.6, Leading zero omitted, Abs format (unit mm)*
G04 Created by KiCad (PCBNEW 7.0.10) date 2024-05-16 11:59:50*
%MOMM*%
%LPD*%
G01*
G04 APERTURE LIST*
G04 Aperture macros list*
%AMRoundRect*
0 Rectangle with rounded corners*
0 $1 Rounding radius*
0 $2 $3 $4 $5 $6 $7 $8 $9 X,Y pos of 4 corners*
0 Add a 4 corners polygon primitive as box body*
4,1,4,$2,$3,$4,$5,$6,$7,$8,$9,$2,$3,0*
0 Add four circle primitives for the rounded corners*
1,1,$1+$1,$2,$3*
1,1,$1+$1,$4,$5*
1,1,$1+$1,$6,$7*
1,1,$1+$1,$8,$9*
0 Add four rect primitives between the rounded corners*
20,1,$1+$1,$2,$3,$4,$5,0*
20,1,$1+$1,$4,$5,$6,$7,0*
20,1,$1+$1,$6,$7,$8,$9,0*
20,1,$1+$1,$8,$9,$2,$3,0*%
G04 Aperture macros list end*
%ADD10RoundRect,0.140000X0.140000X0.170000X-0.140000X0.170000X-0.140000X-0.170000X0.140000X-0.170000X0*%
%ADD11RoundRect,0.140000X-0.170000X0.140000X-0.170000X-0.140000X0.170000X-0.140000X0.170000X0.140000X0*%
%ADD12RoundRect,0.200000X0.275000X-0.200000X0.275000X0.200000X-0.275000X0.200000X-0.275000X-0.200000X0*%
%ADD13RoundRect,0.140000X0.170000X-0.140000X0.170000X0.140000X-0.170000X0.140000X-0.170000X-0.140000X0*%
%ADD14RoundRect,0.200000X-0.275000X0.200000X-0.275000X-0.200000X0.275000X-0.200000X0.275000X0.200000X0*%
%ADD15RoundRect,0.218750X-0.218750X-0.256250X0.218750X-0.256250X0.218750X0.256250X-0.218750X0.256250X0*%
%ADD16RoundRect,0.102000X-0.675000X-0.675000X0.675000X-0.675000X0.675000X0.675000X-0.675000X0.675000X0*%
%ADD17C,1.554000*%
%ADD18R,0.900000X0.300000*%
%ADD19R,0.300000X0.900000*%
%ADD20R,5.250000X5.250000*%
%ADD21RoundRect,0.102000X0.400000X-0.850000X0.400000X0.850000X-0.400000X0.850000X-0.400000X-0.850000X0*%
%ADD22R,0.901600X2.066000*%
%ADD23R,3.201599X2.066000*%
%ADD24RoundRect,0.140000X-0.140000X-0.170000X0.140000X-0.170000X0.140000X0.170000X-0.140000X0.170000X0*%
%ADD25R,2.500000X2.500000*%
%ADD26RoundRect,0.102000X-0.699000X-0.699000X0.699000X-0.699000X0.699000X0.699000X-0.699000X0.699000X0*%
%ADD27C,1.602000*%
%ADD28RoundRect,0.102000X0.525000X-0.525000X0.525000X0.525000X-0.525000X0.525000X-0.525000X-0.525000X0*%
%ADD29C,1.254000*%
%ADD30RoundRect,0.102000X0.485000X-0.500000X0.485000X0.500000X-0.485000X0.500000X-0.485000X-0.500000X0*%
%ADD31RoundRect,0.102000X0.850000X0.400000X-0.850000X0.400000X-0.850000X-0.400000X0.850000X-0.400000X0*%
%ADD32RoundRect,0.102000X1.300000X0.500000X-1.300000X0.500000X-1.300000X-0.500000X1.300000X-0.500000X0*%
%ADD33RoundRect,0.102000X1.650000X0.500000X-1.650000X0.500000X-1.650000X-0.500000X1.650000X-0.500000X0*%
%ADD34RoundRect,0.102000X0.500000X-1.650000X0.500000X1.650000X-0.500000X1.650000X-0.500000X-1.650000X0*%
%ADD35RoundRect,0.102000X0.500000X-1.300000X0.500000X1.300000X-0.500000X1.300000X-0.500000X-1.300000X0*%
%ADD36RoundRect,0.218750X0.256250X-0.218750X0.256250X0.218750X-0.256250X0.218750X-0.256250X-0.218750X0*%
%ADD37R,1.244600X0.889000*%
%ADD38RoundRect,0.102000X-0.250000X0.300000X-0.250000X-0.300000X0.250000X-0.300000X0.250000X0.300000X0*%
%ADD39RoundRect,0.102000X-0.825000X-0.825000X0.825000X-0.825000X0.825000X0.825000X-0.825000X0.825000X0*%
%ADD40C,1.854000*%
%ADD41RoundRect,0.102000X2.800000X0.450000X-2.800000X0.450000X-2.800000X-0.450000X2.800000X-0.450000X0*%
%ADD42RoundRect,0.102000X2.800000X0.825000X-2.800000X0.825000X-2.800000X-0.825000X2.800000X-0.825000X0*%
%ADD43RoundRect,0.102000X-0.550000X-0.950000X0.550000X-0.950000X0.550000X0.950000X-0.550000X0.950000X0*%
%ADD44R,0.254000X0.457200*%
G04 APERTURE END LIST*
D10*
%TO.C,C4*%
X115930000Y-89700000D03*
X114970000Y-89700000D03*
%TD*%
D11*
%TO.C,C3*%
X122200000Y-90570000D03*
X122200000Y-91530000D03*
%TD*%
D12*
%TO.C,R1*%
X150747336Y-84153167D03*
X150747336Y-82503167D03*
%TD*%
D11*
%TO.C,C14*%
X116620898Y-75272868D03*
X116620898Y-76232868D03*
%TD*%
D13*
%TO.C,C15*%
X143264252Y-104736943D03*
X143264252Y-103776943D03*
%TD*%
D14*
%TO.C,R3*%
X119400000Y-101660000D03*
X119400000Y-103310000D03*
%TD*%
D15*
%TO.C,L1*%
X124772275Y-84490250D03*
X126347275Y-84490250D03*
%TD*%
D16*
%TO.C,J5*%
X168910000Y-64770000D03*
D17*
X171450000Y-64770000D03*
X173990000Y-64770000D03*
X176530000Y-64770000D03*
X179070000Y-64770000D03*
X181610000Y-64770000D03*
X184150000Y-64770000D03*
X186690000Y-64770000D03*
%TD*%
D18*
%TO.C,IC1*%
X115650000Y-82100000D03*
X115650000Y-82600000D03*
X115650000Y-83100000D03*
X115650000Y-83600000D03*
X115650000Y-84100000D03*
X115650000Y-84600000D03*
X115650000Y-85100000D03*
X115650000Y-85600000D03*
X115650000Y-86100000D03*
X115650000Y-86600000D03*
X115650000Y-87100000D03*
X115650000Y-87600000D03*
D19*
X116350000Y-88300000D03*
X116850000Y-88300000D03*
X117350000Y-88300000D03*
X117850000Y-88300000D03*
X118350000Y-88300000D03*
X118850000Y-88300000D03*
X119350000Y-88300000D03*
X119850000Y-88300000D03*
X120350000Y-88300000D03*
X120850000Y-88300000D03*
X121350000Y-88300000D03*
X121850000Y-88300000D03*
D18*
X122550000Y-87600000D03*
X122550000Y-87100000D03*
X122550000Y-86600000D03*
X122550000Y-86100000D03*
X122550000Y-85600000D03*
X122550000Y-85100000D03*
X122550000Y-84600000D03*
X122550000Y-84100000D03*
X122550000Y-83600000D03*
X122550000Y-83100000D03*
X122550000Y-82600000D03*
X122550000Y-82100000D03*
D19*
X121850000Y-81400000D03*
X121350000Y-81400000D03*
X120850000Y-81400000D03*
X120350000Y-81400000D03*
X119850000Y-81400000D03*
X119350000Y-81400000D03*
X118850000Y-81400000D03*
X118350000Y-81400000D03*
X117850000Y-81400000D03*
X117350000Y-81400000D03*
X116850000Y-81400000D03*
X116350000Y-81400000D03*
D20*
X119100000Y-84850000D03*
%TD*%
D13*
%TO.C,C10*%
X117900000Y-78880000D03*
X117900000Y-77920000D03*
%TD*%
D21*
%TO.C,S1*%
X150752171Y-80080549D03*
X154152171Y-80080549D03*
%TD*%
D10*
%TO.C,C2*%
X111400000Y-91700000D03*
X110440000Y-91700000D03*
%TD*%
D22*
%TO.C,U1*%
X143270000Y-106878400D03*
X140970000Y-106878400D03*
X138670000Y-106878400D03*
D23*
X140970000Y-113030000D03*
%TD*%
D24*
%TO.C,C8*%
X111382165Y-82616583D03*
X112342165Y-82616583D03*
%TD*%
D25*
%TO.C,TP1*%
X132300000Y-66300000D03*
%TD*%
D16*
%TO.C,J3*%
X151130000Y-113030000D03*
D17*
X153670000Y-113030000D03*
X156210000Y-113030000D03*
X158750000Y-113030000D03*
X161290000Y-113030000D03*
X163830000Y-113030000D03*
X166370000Y-113030000D03*
X168910000Y-113030000D03*
%TD*%
D24*
%TO.C,C6*%
X124993153Y-83134516D03*
X125953153Y-83134516D03*
%TD*%
D13*
%TO.C,C7*%
X120150000Y-78860000D03*
X120150000Y-77900000D03*
%TD*%
D26*
%TO.C,J4*%
X141888505Y-64770000D03*
D27*
X144428505Y-64770000D03*
X146968505Y-64770000D03*
X149508505Y-64770000D03*
X152048505Y-64770000D03*
X154588505Y-64770000D03*
X157128505Y-64770000D03*
X159668505Y-64770000D03*
X162208505Y-64770000D03*
X164748505Y-64770000D03*
%TD*%
D28*
%TO.C,J2*%
X142240000Y-97790000D03*
D29*
X140970000Y-97790000D03*
X142240000Y-96520000D03*
X140970000Y-96520000D03*
X142240000Y-95250000D03*
X140970000Y-95250000D03*
X142240000Y-93980000D03*
X140970000Y-93980000D03*
X142240000Y-92710000D03*
X140970000Y-92710000D03*
%TD*%
D30*
%TO.C,FL1*%
X130770000Y-106665000D03*
X130770000Y-105195000D03*
%TD*%
D10*
%TO.C,C5*%
X120810000Y-89600000D03*
X119850000Y-89600000D03*
%TD*%
D25*
%TO.C,TP2*%
X114352326Y-66291166D03*
%TD*%
D31*
%TO.C,S2*%
X173066025Y-72990187D03*
X173066025Y-69590187D03*
%TD*%
D32*
%TO.C,*%
X113750000Y-93100000D03*
X121250000Y-93100000D03*
D33*
X126600000Y-93100000D03*
D34*
X127750000Y-91950000D03*
D35*
X127750000Y-86600000D03*
X127750000Y-79100000D03*
D34*
X127750000Y-73750000D03*
D33*
X126600000Y-72600000D03*
D32*
X121250000Y-72600000D03*
X113750000Y-72600000D03*
D33*
X108400000Y-72600000D03*
D34*
X107250000Y-73750000D03*
D35*
X107250000Y-79100000D03*
X107250000Y-86600000D03*
D34*
X107250000Y-91950000D03*
D33*
X108400000Y-93100000D03*
%TD*%
D13*
%TO.C,C11*%
X115400000Y-78860000D03*
X115400000Y-77900000D03*
%TD*%
D24*
%TO.C,C1*%
X108476064Y-91672773D03*
X109436064Y-91672773D03*
%TD*%
D36*
%TO.C,D3*%
X119380000Y-107650000D03*
X119380000Y-106075000D03*
%TD*%
D37*
%TO.C,Y1*%
X113291944Y-77572294D03*
X109685144Y-77572294D03*
X109685144Y-75272294D03*
X113291944Y-75272294D03*
%TD*%
D11*
%TO.C,C13*%
X115363319Y-75283093D03*
X115363319Y-76243093D03*
%TD*%
D13*
%TO.C,C9*%
X129850045Y-84362577D03*
X129850045Y-83402577D03*
%TD*%
D36*
%TO.C,D2*%
X117692524Y-107644544D03*
X117692524Y-106069544D03*
%TD*%
D38*
%TO.C,D1*%
X156210000Y-82820000D03*
X156210000Y-83820000D03*
%TD*%
D39*
%TO.C,J7*%
X173950000Y-113050000D03*
D40*
X176490000Y-113050000D03*
X179030000Y-113050000D03*
X181570000Y-113050000D03*
X184110000Y-113050000D03*
X186650000Y-113050000D03*
%TD*%
D41*
%TO.C,J1*%
X102950000Y-82575000D03*
D42*
X102950000Y-86700000D03*
X102950000Y-78450000D03*
%TD*%
D13*
%TO.C,C16*%
X138655444Y-104736943D03*
X138655444Y-103776943D03*
%TD*%
D43*
%TO.C,Y2*%
X108825586Y-89455584D03*
X111325586Y-89455584D03*
%TD*%
D44*
%TO.C,U2*%
X113524000Y-82648200D03*
X114032000Y-82648200D03*
X114540000Y-82648200D03*
X114540000Y-81810000D03*
X114032000Y-81810000D03*
X113524000Y-81810000D03*
%TD*%
D11*
%TO.C,C12*%
X152938726Y-82820159D03*
X152938726Y-83780159D03*
%TD*%
D14*
%TO.C,R2*%
X117700948Y-101634031D03*
X117700948Y-103284031D03*
%TD*%
M02*
